#VRML V2.0 utf8
# 3D model generated by easyeda2kicad.py (https://github.com/uPesy/easyeda2kicad.py)

Shape{
    appearance Appearance {
        material  Material 	{
            diffuseColor 0.6470588235294118 0.6196078431372549 0.5882352941176471
            specularColor 0.45098039215686275 0.43529411764705883 0.4117647058823529
            ambientIntensity 0.2
            transparency 0
            shininess 0.5
        }
    }
    geometry IndexedFaceSet {
        ccw TRUE
        solid FALSE
        coord DEF co Coordinate {
            point [
                -1.3425 1.3583 -0.9843, -1.3425 1.3583 0.9449, -1.6575 1.3583 -0.9843, -1.6575 1.3583 0.9449, -1.5787 1.437 -1.378, -1.5787 1.5945 -1.378, -1.4213 1.437 -1.378, -1.4213 1.5945 -1.378, -1.6575 1.6732 -0.9843, -1.6575 1.6732 0.9449, -1.3425 1.6732 -0.9843, -1.3425 1.6732 0.9449, -1.6575 1.6645 1.0557, -1.3425 1.6645 1.0557, -1.6575 1.6385 1.1639, -1.3425 1.6385 1.1639, -1.6575 1.596 1.2666, -1.3425 1.596 1.2666, -1.6575 1.5379 1.3614, -1.3425 1.5379 1.3614, -1.6575 1.4657 1.446, -1.3425 1.4657 1.446, -1.6575 1.3811 1.5182, -1.3425 1.3811 1.5182, -1.6575 1.2863 1.5763, -1.3425 1.2863 1.5763, -1.6575 1.1836 1.6189, -1.3425 1.1836 1.6189, -1.6575 1.0754 1.6448, -1.3425 1.0754 1.6448, -1.6575 0.9646 1.6535, -1.3425 0.9646 1.6535, -1.3425 -1.0039 1.6535, -1.6575 -1.0039 1.6535, -1.5787 -1.3976 1.5748, -1.5787 -1.3976 1.4173, -1.4213 -1.3976 1.5748, -1.4213 -1.3976 1.4173, -1.6575 -1.0039 1.3386, -1.6575 0.9646 1.3386, -1.3425 -1.0039 1.3386, -1.3425 0.9646 1.3386, -1.3425 1.0522 1.3287, -1.6575 1.0522 1.3287, -1.3425 1.1354 1.2996, -1.6575 1.1354 1.2996, -1.3425 1.21 1.2527, -1.6575 1.21 1.2527, -1.3425 1.2724 1.1904, -1.6575 1.2724 1.1904, -1.3425 1.3193 1.1157, -1.6575 1.3193 1.1157, -1.3425 1.3484 1.0325, -1.6575 1.3484 1.0325, -2.0 -1.7913 0.7375, -2.0 0.3324 0.7375, -2.0 -1.7913 2.295, -2.0 0.3324 1.1637, -2.0 0.3324 2.295, -2.0 0.3324 1.8597, -2.0 0.7677 1.8597, -2.0 0.7677 1.1637, -2.0 0.7677 1.1637
            ]
        }
        coordIndex [
            0,1,2,-1,2,1,3,-1,4,5,6,-1,6,5,7,-1,8,9,10,-1,10,9,11,-1,11,9,12,-1,11,12,13,-1,13,12,14,-1,13,14,15,-1,15,14,16,-1,15,16,17,-1,17,16,18,-1,17,18,19,-1,19,18,20,-1,19,20,21,-1,21,20,22,-1,21,22,23,-1,23,22,24,-1,23,24,25,-1,25,24,26,-1,25,26,27,-1,27,26,28,-1,27,28,29,-1,29,28,30,-1,29,30,31,-1,32,31,33,-1,33,31,30,-1,34,35,36,-1,36,35,37,-1,38,39,40,-1,40,39,41,-1,41,39,42,-1,42,39,43,-1,42,43,44,-1,44,43,45,-1,44,45,46,-1,46,45,47,-1,46,47,48,-1,48,47,49,-1,48,49,50,-1,50,49,51,-1,50,51,52,-1,52,51,53,-1,52,53,1,-1,1,53,3,-1,32,40,31,-1,31,40,41,-1,31,41,29,-1,29,41,42,-1,29,42,27,-1,27,42,44,-1,52,15,50,-1,50,15,17,-1,50,17,48,-1,0,10,1,-1,1,10,11,-1,1,11,52,-1,52,11,13,-1,52,13,15,-1,17,19,48,-1,48,19,21,-1,48,21,46,-1,46,21,23,-1,46,23,44,-1,44,23,25,-1,44,25,27,-1,38,33,39,-1,39,33,30,-1,39,30,43,-1,51,14,53,-1,53,14,12,-1,53,12,3,-1,3,12,9,-1,3,9,2,-1,2,9,8,-1,30,28,43,-1,43,28,26,-1,43,26,45,-1,45,26,24,-1,45,24,47,-1,24,22,47,-1,47,22,20,-1,47,20,49,-1,49,20,18,-1,49,18,51,-1,51,18,16,-1,51,16,14,-1,10,7,8,-1,8,7,5,-1,0,6,10,-1,10,6,7,-1,4,2,5,-1,5,2,8,-1,2,4,0,-1,0,4,6,-1,40,37,38,-1,38,37,35,-1,32,36,40,-1,40,36,37,-1,34,33,35,-1,35,33,38,-1,33,34,32,-1,32,34,36,-1,54,55,56,-1,56,55,57,-1,58,56,59,-1,59,56,57,-1,59,57,60,-1,60,57,61,-1,
        ]
    }
}
Shape{
    appearance Appearance {
        material  Material 	{
            diffuseColor 0.24705882352941178 0.49411764705882355 0.27450980392156865
            specularColor 0.01568627450980392 0.03529411764705882 0.0196078431372549
            ambientIntensity 0.2
            transparency 0
            shininess 0.5
        }
    }
    geometry IndexedFaceSet {
        ccw TRUE
        solid FALSE
        coord DEF co Coordinate {
            point [
                2.2953 1.9882 3.1496, -2.2953 1.9882 3.1496, 2.2953 -1.9882 3.1496, -2.2953 -1.9882 3.1496, 2.374 1.9882 3.0709, 2.374 1.9882 2.3622, 2.1378 1.9882 2.3622, 1.185 1.9882 2.3622, 1.1066 1.9882 2.5221, 1.815 1.9882 2.3622, 1.8934 1.9882 2.5221, 2.3157 1.9882 0.0027, 2.2953 1.9882 0.0, 2.374 1.9882 0.0787, 1.815 1.9882 0.0, 2.374 1.9882 0.7874, 0.815 1.9882 0.0, 0.815 1.9882 2.3622, 1.185 1.9882 0.0, 2.3635 1.9882 0.0394, 2.351 1.9882 0.0231, 2.3346 1.9882 0.0105, 0.185 1.9882 2.3622, 0.1066 1.9882 2.5221, 0.8934 1.9882 2.5221, 0.8934 1.9882 2.8379, 1.1066 1.9882 2.8379, 1.8934 1.9882 2.8379, -0.1066 1.9882 2.8379, -0.8934 1.9882 2.8379, -0.185 1.9882 0.0, -0.185 1.9882 2.3622, 0.185 1.9882 0.0, 2.3713 1.9882 0.0584, 0.1066 1.9882 2.8379, 2.3157 1.9882 3.1469, 2.3346 1.9882 3.1391, 2.351 1.9882 3.1265, 2.3635 1.9882 3.1102, 2.3713 1.9882 3.0912, 2.1378 1.9882 0.7874, -0.1066 1.9882 2.5221, -0.8934 1.9882 2.5221, -0.815 1.9882 2.3622, -1.1066 1.9882 2.8379, -1.185 1.9882 0.0, -1.185 1.9882 2.3622, -0.815 1.9882 0.0, -2.374 1.9882 0.0787, -2.374 1.9882 0.7874, -2.1378 1.9882 0.7874, -1.1066 1.9882 2.5221, -1.8934 1.9882 2.5221, -1.815 1.9882 2.3622, -2.374 1.9882 3.0709, -2.3713 1.9882 3.0912, -2.3635 1.9882 3.1102, -2.351 1.9882 3.1265, -2.3157 1.9882 0.0027, -2.3346 1.9882 0.0105, -2.351 1.9882 0.0231, -2.3635 1.9882 0.0394, -2.3713 1.9882 0.0584, -2.3346 1.9882 3.1391, -2.3157 1.9882 3.1469, -1.8934 1.9882 2.8379, -2.374 1.9882 2.3622, -2.1378 1.9882 2.3622, -1.815 1.9882 0.0, -2.2953 1.9882 0.0, -1.9571 -0.8262 0.0, -1.9489 -0.816 0.0, -1.6112 -0.816 0.0, -0.185 1.2008 0.0, 0.185 1.2008 0.0, 0.815 1.2008 0.0, 2.2953 -0.816 0.0, -1.5876 -0.7932 0.0, -1.5876 -0.7945 0.0, -1.5871 -0.7957 0.0, -1.5869 -0.7959 0.0, -1.5866 -0.796 0.0, -1.5858 -0.7962 0.0, -0.815 1.2008 0.0, -1.185 1.2008 0.0, -1.5875 -0.795 0.0, -1.5873 -0.7954 0.0, -1.5572 -0.6467 0.0, -1.5096 -0.6529 0.0, -1.5572 -0.7713 0.0, -1.49 -0.6569 0.0, -1.4666 -0.6677 0.0, -1.4501 -0.7877 0.0, -1.4592 -0.7865 0.0, -1.4495 -0.6426 0.0, -1.4505 -0.642 0.0, -1.4519 -0.4938 0.0, -1.364 -0.4442 0.0, -1.3645 -0.444 0.0, -1.1776 -0.4326 0.0, -1.3924 -0.79 0.0, -1.3924 -0.7913 0.0, -1.4725 -0.7848 0.0, -1.4859 -0.7832 0.0, -1.4717 -0.6648 0.0, -1.4774 -0.6613 0.0, -1.6112 1.2008 0.0, -1.366 -0.4441 0.0, -1.5697 -0.4469 0.0, -1.5726 -0.4468 0.0, -1.5741 -0.4471 0.0, -1.5754 -0.4476 0.0, 1.815 1.2008 0.0, 1.185 1.2008 0.0, -1.4487 -0.6434 0.0, -1.449 -0.6497 0.0, -1.4482 -0.6484 0.0, -1.4488 -0.7878 0.0, -1.4478 -0.6472 0.0, -1.4477 -0.7881 0.0, -1.4476 -0.6463 0.0, -1.4467 -0.7887 0.0, -1.1773 -0.432 0.0, -1.2823 -0.8047 0.0, -1.2696 -0.8016 0.0, -1.1066 -0.816 0.0, -1.5733 -0.5049 0.0, -1.5789 -0.4569 0.0, -1.5736 -0.4978 0.0, -1.5787 -0.4581 0.0, -1.5736 -0.487 0.0, -1.5751 -0.4724 0.0, -1.5843 -0.7963 0.0, -1.5827 -0.7962 0.0, -1.5719 -0.7945 0.0, -1.3 -0.8058 0.0, -1.2592 -0.7962 0.0, -1.2499 -0.7879 0.0, -1.2408 -0.7748 0.0, -1.573 -0.512 0.0, -1.5736 -0.7713 0.0, -1.579 -0.4537 0.0, -1.58 -0.7788 0.0, -1.5838 -0.7835 0.0, -1.5623 -0.7933 0.0, -1.5526 -0.7933 0.0, -1.551 -0.7933 0.0, -1.5572 -0.6269 0.0, -1.5572 -0.4735 0.0, -1.4728 -0.4853 0.0, -1.4501 -0.6512 0.0, -1.391 -0.4729 0.0, -1.3908 -0.4731 0.0, -1.3885 -0.4736 0.0, -1.3696 -0.7702 0.0, -1.3899 -0.4735 0.0, -1.3904 -0.4734 0.0, -1.436 -0.4676 0.0, -1.4361 -0.4676 0.0, -1.4376 -0.4673 0.0, -1.4394 -0.4672 0.0, -1.5768 -0.4487 0.0, -1.578 -0.4502 0.0, -1.5786 -0.4514 0.0, -1.5861 -0.7868 0.0, -1.587 -0.7888 0.0, -1.5875 -0.7915 0.0, -1.5067 -0.799 0.0, -1.4872 -0.803 0.0, -1.4452 -0.7925 0.0, -1.4451 -0.7917 0.0, -1.392 -0.7927 0.0, -1.4454 -0.7901 0.0, -1.4459 -0.7895 0.0, -1.4516 -0.6417 0.0, -1.453 -0.6416 0.0, -1.4569 -0.491 0.0, -1.4646 -0.4874 0.0, -1.1761 -0.4312 0.0, -1.1765 -0.4314 0.0, -1.1769 -0.4316 0.0, -1.3671 -0.4446 0.0, -1.3708 -0.4472 0.0, -1.3789 -0.4547 0.0, -1.3913 -0.4724 0.0, -1.3896 -0.7846 0.0, -1.3871 -0.7826 0.0, -1.377 -0.7741 0.0, -1.3911 -0.7865 0.0, -1.3921 -0.7886 0.0, -1.3865 -0.4735 0.0, -1.3786 -0.4735 0.0, -1.3696 -0.4735 0.0, -1.436 -0.4762 0.0, -1.4343 -0.4738 0.0, -1.4338 -0.4725 0.0, -1.5399 -0.7936 0.0, -1.5289 -0.7951 0.0, -1.4718 -0.8086 0.0, -1.4688 -0.8104 0.0, -1.4637 -0.8137 0.0, -1.3915 -0.7937 0.0, -1.4474 -0.7968 0.0, -1.4477 -0.6455 0.0, -1.448 -0.6445 0.0, -1.018 -0.4939 0.0, -1.0173 -0.493 0.0, -1.2493 -0.4848 0.0, -1.1833 -0.4827 0.0, -1.2377 -0.5056 0.0, -1.183 -0.4879 0.0, -1.182 -0.4911 0.0, -1.2742 -0.4628 0.0, -1.269 -0.4655 0.0, -1.2592 -0.4729 0.0, -1.3917 -0.4693 0.0, -1.3919 -0.4699 0.0, -1.3919 -0.4705 0.0, -1.3918 -0.4713 0.0, -1.3734 -0.7719 0.0, -1.4346 -0.4688 0.0, -1.435 -0.4682 0.0, -1.4354 -0.4679 0.0, -1.5334 -0.4547 0.0, -1.5594 -0.4502 0.0, -1.5657 -0.4479 0.0, -1.4452 -0.7909 0.0, -1.0244 -0.432 0.0, -1.1718 -0.4366 0.0, -1.1725 -0.4347 0.0, -1.178 -0.434 0.0, -1.179 -0.4411 0.0, -1.3631 -0.7942 0.0, -1.3583 -0.7951 0.0, -1.3897 -0.4664 0.0, -1.3907 -0.4676 0.0, -1.3913 -0.4686 0.0, -1.4336 -0.4716 0.0, -1.4337 -0.4708 0.0, -1.434 -0.4698 0.0, -1.4479 -0.4667 0.0, -1.4907 -0.4614 0.0, -1.1797 -0.4479 0.0, -1.1825 -0.4717 0.0, -1.3463 -0.7962 0.0, -1.3249 -0.8024 0.0, -1.3125 -0.8048 0.0, -1.232 -0.7518 0.0, -1.2238 -0.6884 0.0, -1.1644 -0.5482 0.0, -1.2212 -0.6099 0.0, -1.1706 -0.5231 0.0, -1.2266 -0.5446 0.0, -1.178 -0.4984 0.0, -1.1808 -0.4933 0.0, -1.3815 -0.4576 0.0, -1.3883 -0.4649 0.0, -1.4463 -0.7949 0.0, -1.4456 -0.7935 0.0, -1.0365 -0.547 0.0, -1.0433 -0.5754 0.0, -1.0977 -0.816 0.0, -1.017 -0.4924 0.0, -1.0168 -0.4918 0.0, -1.0169 -0.4897 0.0, -1.0214 -0.4382 0.0, -1.0212 -0.4412 0.0, -1.02 -0.4508 0.0, -1.0217 -0.4361 0.0, -1.022 -0.4346 0.0, -1.0222 -0.4337 0.0, -1.0265 -0.4335 0.0, -1.1417 -0.5776 0.0, -1.026 -0.4329 0.0, -1.1599 -0.4933 0.0, -1.2856 -0.4594 0.0, -1.322 -0.4542 0.0, -1.3469 -0.4513 0.0, -1.1684 -0.4502 0.0, -1.025 -0.4321 0.0, -1.0256 -0.4325 0.0, -1.027 -0.4345 0.0, -1.0274 -0.436 0.0, -1.0647 -0.5963 0.0, -1.0313 -0.4587 0.0, -1.3562 -0.4488 0.0, -1.3621 -0.4452 0.0, -1.3907 -0.7945 0.0, -1.39 -0.7951 0.0, -1.3797 -0.7933 0.0, -1.3679 -0.7933 0.0, -1.0334 -0.5336 0.0, -1.0297 -0.5204 0.0, -1.0257 -0.5097 0.0, -1.0221 -0.4996 0.0, -1.0197 -0.496 0.0, -1.0177 -0.4764 0.0, -1.0177 -0.4762 0.0, -1.1748 -0.4314 0.0, -1.1753 -0.4312 0.0, -1.1757 -0.4312 0.0, -1.1732 -0.4333 0.0, -1.1738 -0.4324 0.0, -1.1743 -0.4318 0.0, -1.0225 -0.4331 0.0, -1.0228 -0.4327 0.0, -1.0232 -0.4324 0.0, -1.0236 -0.4321 0.0, -1.024 -0.432 0.0, -1.815 1.2008 0.0, -1.8582 -0.4867 0.0, -1.8563 -0.4875 0.0, -1.7903 -0.6644 0.0, -1.6519 -0.8052 0.0, -1.6434 -0.8052 0.0, -1.6434 -0.6541 0.0, -1.6919 -0.8071 0.0, -1.6788 -0.7999 0.0, -1.7621 -0.777 0.0, -1.7506 -0.792 0.0, -1.9322 -0.7951 0.0, -1.7741 -0.75 0.0, -1.7876 -0.5745 0.0, -1.6675 -0.7897 0.0, -1.6609 -0.7809 0.0, -1.6559 -0.7719 0.0, -1.7085 -0.8114 0.0, -1.7165 -0.8114 0.0, -1.733 -0.8056 0.0, -1.7246 -0.8097 0.0, -1.7748 -0.6008 0.0, -1.6468 -0.555 0.0, -1.7727 -0.6908 0.0, -1.644 -0.5849 0.0, -1.7676 -0.7204 0.0, -1.8369 -0.4702 0.0, -1.8348 -0.4679 0.0, -1.7814 -0.5361 0.0, -1.7151 -0.4456 0.0, -1.7301 -0.4503 0.0, -1.8331 -0.4621 0.0, -1.7432 -0.4579 0.0, -1.7526 -0.4676 0.0, -1.7085 -0.4638 0.0, -1.7608 -0.5199 0.0, -1.897 -0.4743 0.0, -1.8763 -0.4774 0.0, -1.8693 -0.479 0.0, -1.6391 -0.5178 0.0, -1.6455 -0.4921 0.0, -1.6732 -0.4765 0.0, -1.6648 -0.4861 0.0, -1.6954 -0.7909 0.0, -1.7355 -0.7827 0.0, -1.7446 -0.7738 0.0, -1.8652 -0.481 0.0, -1.86 -0.4855 0.0, -1.7656 -0.4887 0.0, -1.8338 -0.4661 0.0, -1.8333 -0.4642 0.0, -1.6349 -0.5844 0.0, -1.6554 -0.472 0.0, -1.6628 -0.4625 0.0, -1.6737 -0.4537 0.0, -1.9568 -0.4695 0.0, -1.9565 -0.4729 0.0, -1.9583 -0.4557 0.0, -1.9554 -0.5063 0.0, -1.938 -0.7827 0.0, -1.9405 -0.7666 0.0, -1.7878 -0.6886 0.0, -1.9406 -0.7594 0.0, -1.9406 -0.4706 0.0, -1.6958 -0.4648 0.0, -1.6833 -0.4694 0.0, -1.6574 -0.5008 0.0, -1.6493 -0.5382 0.0, -1.704 -0.7928 0.0, -1.7158 -0.7921 0.0, -1.7259 -0.7887 0.0, -1.8431 -0.4759 0.0, -1.6589 -0.7338 0.0, -1.6541 -0.6541 0.0, -1.6873 -0.4474 0.0, -1.7006 -0.4451 0.0, -1.7311 -0.4711 0.0, -1.7393 -0.4786 0.0, -1.7522 -0.4968 0.0, -1.7239 -0.4668 0.0, -1.7164 -0.4646 0.0, -1.6659 -0.7595 0.0, -1.673 -0.7734 0.0, -1.6799 -0.7817 0.0, -1.8337 -0.4609 0.0, -1.8342 -0.4603 0.0, -1.9554 -0.7611 0.0, -1.9557 -0.7887 0.0, -1.9599 -0.816 0.0, -1.7544 -0.7585 0.0, -1.6874 -0.7874 0.0, -2.2953 -0.816 0.0, -1.9563 -0.4485 0.0, -1.9571 -0.4494 0.0, -1.9579 -0.451 0.0, -1.9583 -0.4525 0.0, -1.9537 -0.4475 0.0, -1.9548 -0.4477 0.0, -1.9556 -0.448 0.0, -1.835 -0.4598 0.0, -1.8364 -0.4593 0.0, -1.8385 -0.459 0.0, -1.8484 -0.4588 0.0, -1.8628 -0.4568 0.0, -1.9001 -0.4529 0.0, -1.9124 -0.4519 0.0, -1.9361 -0.4496 0.0, -1.9492 -0.4485 0.0, -1.9521 -0.4476 0.0, -1.0982 -0.8182 0.0, 2.2953 -1.9882 0.0, -1.1061 -0.8182 0.0, -1.6112 -1.9882 0.0, -1.961 -0.8217 0.0, -2.2953 -1.9882 0.0, 1.5 -1.9882 0.2375, 1.5 -1.9882 0.5407, -1.0 -1.9882 0.5407, -1.5 -1.9882 0.2375, -1.5 -1.9882 0.5407, -2.1969 -1.9882 0.5407, -2.374 -1.9882 0.0787, -2.1969 -1.9882 2.295, -2.351 -1.9882 0.0231, -2.3346 -1.9882 0.0105, -2.3713 -1.9882 0.0584, -2.3635 -1.9882 0.0394, -1.0 -1.9882 0.2375, -2.3157 -1.9882 0.0027, -1.6772 -1.9882 2.295, -1.6772 -1.9882 2.5221, -1.8934 -1.9882 2.5221, -2.3346 -1.9882 3.1391, -2.351 -1.9882 3.1265, -1.1066 -1.9882 2.8379, -1.8934 -1.9882 2.8379, -1.1066 -1.9882 2.5221, -1.3228 -1.9882 2.5221, -1.3228 -1.9882 2.295, -0.1066 -1.9882 2.5221, -0.3228 -1.9882 2.5221, -0.3228 -1.9882 2.295, -2.3157 -1.9882 3.1469, -2.3635 -1.9882 3.1102, -2.3713 -1.9882 3.0912, -2.374 -1.9882 3.0709, -0.6772 -1.9882 2.295, -0.6772 -1.9882 2.5221, -0.8934 -1.9882 2.5221, -0.1066 -1.9882 2.8379, -0.8934 -1.9882 2.8379, 0.8934 -1.9882 2.5221, 0.6772 -1.9882 2.5221, 0.6772 -1.9882 2.295, 0.3228 -1.9882 2.295, 0.3228 -1.9882 2.5221, 0.1066 -1.9882 2.5221, 0.8934 -1.9882 2.8379, 0.1066 -1.9882 2.8379, 1.3228 -1.9882 2.295, 1.3228 -1.9882 2.5221, 1.1066 -1.9882 2.5221, 1.6772 -1.9882 2.5221, 1.6772 -1.9882 2.295, 1.8934 -1.9882 2.5221, 2.1969 -1.9882 2.295, 1.8934 -1.9882 2.8379, 2.3713 -1.9882 3.0912, 2.3635 -1.9882 3.1102, 2.351 -1.9882 3.1265, 2.3346 -1.9882 3.1391, 1.1066 -1.9882 2.8379, 2.3157 -1.9882 3.1469, 2.374 -1.9882 3.0709, 2.374 -1.9882 0.0787, 2.1969 -1.9882 0.2375, 2.3713 -1.9882 0.0584, 2.3157 -1.9882 0.0027, 2.3346 -1.9882 0.0105, 2.351 -1.9882 0.0231, 2.3635 -1.9882 0.0394, 2.3635 -1.9882 0.0394
            ]
        }
        coordIndex [
            0,1,2,-1,2,1,3,-1,4,5,6,-1,7,8,9,-1,9,8,10,-1,11,12,13,-1,13,12,14,-1,13,14,15,-1,16,17,18,-1,18,17,7,-1,19,20,21,-1,22,23,17,-1,17,23,24,-1,17,24,7,-1,7,24,25,-1,7,25,8,-1,8,25,26,-1,1,0,26,-1,26,0,27,-1,28,29,1,-1,30,31,32,-1,32,31,22,-1,11,13,21,-1,21,13,33,-1,21,33,19,-1,26,25,1,-1,1,25,34,-1,1,34,28,-1,0,35,27,-1,27,35,36,-1,27,36,37,-1,37,38,27,-1,27,38,39,-1,27,39,10,-1,10,39,4,-1,10,4,9,-1,9,4,6,-1,9,6,14,-1,14,6,40,-1,14,40,15,-1,34,23,28,-1,28,23,22,-1,28,22,41,-1,41,22,31,-1,41,31,42,-1,42,31,43,-1,42,43,44,-1,45,46,47,-1,47,46,43,-1,48,49,50,-1,44,43,51,-1,51,43,46,-1,51,46,52,-1,52,46,53,-1,52,53,54,-1,54,55,52,-1,52,55,56,-1,52,56,57,-1,58,59,48,-1,59,60,48,-1,48,60,61,-1,48,61,62,-1,57,63,52,-1,52,63,64,-1,52,64,65,-1,65,64,1,-1,65,1,44,-1,44,1,29,-1,44,29,42,-1,66,54,67,-1,67,54,53,-1,67,53,50,-1,50,53,68,-1,50,68,48,-1,48,68,69,-1,48,69,58,-1,70,71,72,-1,73,30,32,-1,74,75,76,-1,72,77,78,-1,79,80,72,-1,72,80,81,-1,72,81,82,-1,32,74,73,-1,73,74,76,-1,73,76,83,-1,83,76,84,-1,83,84,47,-1,47,84,45,-1,78,85,72,-1,72,85,86,-1,72,86,79,-1,87,88,89,-1,89,88,90,-1,91,92,93,-1,94,95,96,-1,97,98,99,-1,100,101,96,-1,93,102,91,-1,91,102,103,-1,91,103,104,-1,104,103,89,-1,104,89,105,-1,105,89,90,-1,84,98,106,-1,106,98,107,-1,108,109,106,-1,106,109,110,-1,106,110,111,-1,14,12,112,-1,112,12,76,-1,112,76,113,-1,113,76,75,-1,113,75,18,-1,18,75,16,-1,94,96,114,-1,115,116,117,-1,117,116,118,-1,117,118,119,-1,119,118,120,-1,119,120,121,-1,99,98,122,-1,123,124,125,-1,126,127,128,-1,128,127,129,-1,128,129,130,-1,130,129,131,-1,82,132,72,-1,72,132,133,-1,72,133,134,-1,123,125,135,-1,124,136,125,-1,125,136,137,-1,125,137,138,-1,126,139,127,-1,127,139,140,-1,127,140,141,-1,141,140,142,-1,141,142,143,-1,134,144,72,-1,72,144,145,-1,72,145,146,-1,147,148,149,-1,92,91,117,-1,117,91,150,-1,117,150,115,-1,151,152,100,-1,153,154,155,-1,155,154,156,-1,157,158,106,-1,106,158,159,-1,106,159,160,-1,111,161,106,-1,106,161,162,-1,106,162,163,-1,143,164,141,-1,141,164,165,-1,141,165,72,-1,72,165,166,-1,72,166,77,-1,72,167,168,-1,169,170,171,-1,172,173,101,-1,101,173,121,-1,95,174,96,-1,96,174,175,-1,96,175,176,-1,176,175,147,-1,176,147,177,-1,177,147,149,-1,84,178,179,-1,84,179,98,-1,98,179,180,-1,98,180,122,-1,107,181,106,-1,106,181,182,-1,106,182,183,-1,151,100,184,-1,185,152,186,-1,186,152,187,-1,185,188,152,-1,152,188,189,-1,152,189,100,-1,153,190,154,-1,154,190,191,-1,154,191,192,-1,96,193,100,-1,100,193,194,-1,100,194,195,-1,146,196,72,-1,72,196,197,-1,72,197,167,-1,168,198,72,-1,72,198,199,-1,72,199,200,-1,201,200,171,-1,171,200,202,-1,121,120,101,-1,101,120,203,-1,101,203,96,-1,96,203,204,-1,96,204,114,-1,205,206,76,-1,207,208,209,-1,209,208,210,-1,209,210,211,-1,212,99,213,-1,213,99,214,-1,215,216,106,-1,106,216,217,-1,106,217,100,-1,100,217,218,-1,100,218,184,-1,156,154,152,-1,152,154,219,-1,152,219,187,-1,220,221,106,-1,106,221,222,-1,106,222,157,-1,223,224,106,-1,106,224,225,-1,106,225,108,-1,171,170,101,-1,101,170,226,-1,101,226,172,-1,227,228,229,-1,214,99,207,-1,207,99,230,-1,207,230,231,-1,232,233,200,-1,234,235,106,-1,106,235,236,-1,106,236,215,-1,195,237,100,-1,100,237,238,-1,100,238,106,-1,106,238,239,-1,106,239,220,-1,160,240,106,-1,106,240,241,-1,106,241,223,-1,231,242,207,-1,207,242,243,-1,207,243,208,-1,233,244,200,-1,200,244,245,-1,200,245,246,-1,138,247,125,-1,125,247,248,-1,125,248,249,-1,249,248,250,-1,249,250,251,-1,251,250,252,-1,251,252,253,-1,253,252,209,-1,253,209,254,-1,254,209,211,-1,183,255,106,-1,106,255,256,-1,106,256,234,-1,202,257,171,-1,171,257,258,-1,171,258,169,-1,259,76,260,-1,260,76,261,-1,206,262,76,-1,76,262,263,-1,76,263,264,-1,265,76,266,-1,266,76,267,-1,265,268,76,-1,76,268,269,-1,76,269,270,-1,271,272,273,-1,273,272,274,-1,212,275,99,-1,99,275,276,-1,99,276,277,-1,228,227,278,-1,278,227,279,-1,278,279,274,-1,274,279,280,-1,274,280,273,-1,271,281,272,-1,272,281,282,-1,272,282,283,-1,283,282,284,-1,277,285,99,-1,99,285,286,-1,99,286,97,-1,201,287,200,-1,200,287,288,-1,200,288,232,-1,232,288,289,-1,232,289,290,-1,259,291,76,-1,76,291,292,-1,76,292,293,-1,293,294,76,-1,76,294,295,-1,76,295,205,-1,264,296,76,-1,76,296,297,-1,76,297,267,-1,298,299,84,-1,84,299,300,-1,84,300,178,-1,229,301,227,-1,227,301,302,-1,227,302,303,-1,270,304,76,-1,76,304,305,-1,76,305,84,-1,84,305,306,-1,84,306,307,-1,307,308,84,-1,84,308,227,-1,84,227,298,-1,298,227,303,-1,69,68,309,-1,310,311,312,-1,313,314,72,-1,72,314,315,-1,313,316,317,-1,318,319,320,-1,318,320,321,-1,312,311,322,-1,317,323,313,-1,313,323,324,-1,313,324,325,-1,316,313,326,-1,326,313,72,-1,326,72,327,-1,327,72,71,-1,327,71,320,-1,319,328,320,-1,320,328,329,-1,320,329,327,-1,330,331,332,-1,332,331,333,-1,332,333,334,-1,335,336,337,-1,338,339,340,-1,340,339,341,-1,340,341,342,-1,343,330,344,-1,345,346,312,-1,312,346,347,-1,348,349,106,-1,330,350,351,-1,352,353,354,-1,347,355,312,-1,312,355,356,-1,312,356,310,-1,337,336,357,-1,357,336,358,-1,357,358,342,-1,342,358,359,-1,342,359,340,-1,348,106,360,-1,349,361,106,-1,106,361,362,-1,106,362,363,-1,364,365,366,-1,366,365,367,-1,320,368,321,-1,321,368,369,-1,321,369,370,-1,370,369,371,-1,370,371,312,-1,312,371,372,-1,312,372,345,-1,343,373,330,-1,330,373,374,-1,330,374,350,-1,351,375,330,-1,330,375,376,-1,330,376,331,-1,377,378,352,-1,352,378,379,-1,352,379,353,-1,322,311,337,-1,337,311,380,-1,337,380,335,-1,381,334,382,-1,382,334,333,-1,382,333,315,-1,315,333,360,-1,315,360,72,-1,72,360,106,-1,72,106,141,-1,141,106,163,-1,363,383,106,-1,106,383,384,-1,106,384,338,-1,385,344,386,-1,386,344,387,-1,385,388,344,-1,344,388,389,-1,344,389,343,-1,381,390,334,-1,334,390,391,-1,334,391,392,-1,340,393,338,-1,338,393,394,-1,338,394,106,-1,106,394,309,-1,395,396,397,-1,354,398,352,-1,352,398,334,-1,352,334,399,-1,399,334,392,-1,69,309,400,-1,400,309,401,-1,400,401,402,-1,402,403,400,-1,400,403,404,-1,400,404,366,-1,405,406,309,-1,309,406,407,-1,309,407,401,-1,394,408,309,-1,309,408,409,-1,309,409,410,-1,411,412,410,-1,410,412,413,-1,410,413,309,-1,309,413,414,-1,309,414,415,-1,415,416,309,-1,309,416,417,-1,309,417,405,-1,261,76,418,-1,418,76,419,-1,418,419,420,-1,420,419,421,-1,420,421,125,-1,367,395,366,-1,366,395,397,-1,366,397,400,-1,400,397,422,-1,400,422,70,-1,246,135,200,-1,200,135,125,-1,200,125,72,-1,72,125,421,-1,72,421,70,-1,70,421,423,-1,70,423,400,-1,424,425,426,-1,427,428,429,-1,430,429,431,-1,429,432,433,-1,430,434,429,-1,429,434,435,-1,429,435,432,-1,419,436,421,-1,421,436,427,-1,421,427,423,-1,423,427,429,-1,423,429,437,-1,437,429,433,-1,438,439,431,-1,431,439,440,-1,441,442,440,-1,2,3,443,-1,443,3,444,-1,445,446,447,-1,448,449,450,-1,444,3,440,-1,440,3,451,-1,440,451,441,-1,442,452,440,-1,440,452,453,-1,440,453,431,-1,431,453,454,-1,431,454,430,-1,455,456,457,-1,458,2,459,-1,459,2,443,-1,459,443,457,-1,457,443,445,-1,457,445,455,-1,455,445,447,-1,460,461,462,-1,463,464,465,-1,466,2,467,-1,467,2,458,-1,467,458,465,-1,465,458,448,-1,465,448,463,-1,463,448,450,-1,468,469,470,-1,471,472,473,-1,473,472,474,-1,473,474,475,-1,476,477,475,-1,475,477,478,-1,475,478,479,-1,462,468,460,-1,460,468,470,-1,460,470,466,-1,466,470,480,-1,466,480,2,-1,2,480,475,-1,2,475,481,-1,481,475,479,-1,476,475,482,-1,482,475,474,-1,482,474,483,-1,483,474,484,-1,483,484,485,-1,426,436,424,-1,424,436,419,-1,424,419,484,-1,484,419,486,-1,484,486,487,-1,487,488,484,-1,484,488,489,-1,484,489,485,-1,
        ]
    }
}
Shape{
    appearance Appearance {
        material  Material 	{
            diffuseColor 0.6470588235294118 0.6196078431372549 0.5882352941176471
            specularColor 0.45098039215686275 0.43529411764705883 0.4117647058823529
            ambientIntensity 0.2
            transparency 0
            shininess 0.5
        }
    }
    geometry IndexedFaceSet {
        ccw TRUE
        solid FALSE
        coord DEF co Coordinate {
            point [
                -2.374 1.9882 3.0709, -2.374 1.9882 2.3622, -2.374 1.5945 2.3622, -2.374 1.9882 0.7874, -2.374 1.9882 0.0787, -2.374 1.5945 0.7874, -2.374 -1.9882 0.0787, -2.374 -1.9882 3.0709, -2.374 -1.9882 3.0709
            ]
        }
        coordIndex [
            0,1,2,-1,3,4,5,-1,5,4,6,-1,5,6,2,-1,2,6,7,-1,2,7,0,-1,
        ]
    }
}
Shape{
    appearance Appearance {
        material  Material 	{
            diffuseColor 0.24705882352941178 0.49411764705882355 0.27450980392156865
            specularColor 0.01568627450980392 0.03529411764705882 0.0196078431372549
            ambientIntensity 0.2
            transparency 0
            shininess 0.5
        }
    }
    geometry IndexedFaceSet {
        ccw TRUE
        solid FALSE
        coord DEF co Coordinate {
            point [
                -1.7362 0.7677 2.295, -1.7362 0.7677 1.8597, -1.6772 0.7677 2.295, -1.3228 0.7677 2.295, -1.6772 0.7677 2.5221, -1.3228 0.7677 2.5221, 1.2638 0.7677 1.1637, 1.2638 0.7677 0.7375, 1.5 0.7677 1.1614, -1.7362 0.7677 0.7375, -1.2638 0.7677 0.7375, -1.5 0.7677 1.1614, -0.2634 0.7677 1.2594, -0.3327 0.7677 1.2063, -0.2638 0.7677 1.1637, -0.4134 0.7677 1.1728, -0.2638 0.7677 0.7375, -0.5 0.7677 1.1614, -0.7362 0.7677 0.7375, -1.5866 0.7677 1.8193, -1.5 0.7677 1.8307, -1.2638 0.7677 2.295, -1.5866 0.7677 1.1728, -1.6673 0.7677 1.2063, -1.7362 0.7677 1.1637, -1.7366 0.7677 1.2594, -2.0 0.7677 1.1637, -1.7898 0.7677 1.3287, -1.6673 0.7677 1.7859, -1.7366 0.7677 1.7327, -2.0 0.7677 1.8597, -1.7898 0.7677 1.6634, 0.7366 0.7677 1.2594, 0.6673 0.7677 1.2063, 0.7362 0.7677 1.1637, 0.5866 0.7677 1.1728, 0.7362 0.7677 0.7375, 0.5 0.7677 1.1614, 0.2638 0.7677 0.7375, -1.8232 0.7677 1.4095, -1.8346 0.7677 1.4961, -1.8232 0.7677 1.5827, 1.5866 0.7677 1.1728, 1.7362 0.7677 0.7375, 1.7362 0.7677 1.1637, 2.0 0.7677 1.1637, 1.8232 0.7677 1.4095, 1.7898 0.7677 1.3287, 1.7366 0.7677 1.2594, 1.6673 0.7677 1.2063, 1.6772 0.7677 2.5221, 1.3228 0.7677 2.5221, 1.6772 0.7677 2.295, 1.3228 0.7677 2.295, 1.2102 0.7677 1.3287, 1.1768 0.7677 1.4095, 1.5 0.7677 1.8307, 1.5866 0.7677 1.8193, 1.7362 0.7677 1.8597, 1.6673 0.7677 1.7859, 2.0 0.7677 1.8597, 1.7366 0.7677 1.7327, 1.7898 0.7677 1.6634, 1.8232 0.7677 1.5827, 1.8346 0.7677 1.4961, 1.3327 0.7677 1.7859, 1.2638 0.7677 1.8597, 1.2638 0.7677 2.295, 0.2638 0.7677 2.295, 0.2638 0.7677 1.8597, 0.3228 0.7677 2.295, 0.6772 0.7677 2.295, 0.3228 0.7677 2.5221, 0.6772 0.7677 2.5221, 1.1768 0.7677 1.5827, 1.2102 0.7677 1.6634, 1.2634 0.7677 1.7327, 1.7362 0.7677 2.295, 1.4134 0.7677 1.8193, -0.2638 0.7677 1.8597, -0.5 0.7677 1.8307, -0.4134 0.7677 1.8193, -0.7362 0.7677 2.295, -0.7362 0.7677 1.8597, -0.6772 0.7677 2.295, -0.3228 0.7677 2.295, -0.6772 0.7677 2.5221, -0.3228 0.7677 2.5221, 1.4134 0.7677 1.1728, 1.3327 0.7677 1.2063, 1.2634 0.7677 1.2594, 0.7362 0.7677 1.8597, 0.7362 0.7677 2.295, 0.5 0.7677 1.8307, -1.1768 0.7677 1.4095, -1.2102 0.7677 1.3287, -0.8232 0.7677 1.4095, 0.5866 0.7677 1.8193, 0.6673 0.7677 1.7859, -0.2638 0.7677 2.295, -0.5866 0.7677 1.8193, -0.5866 0.7677 1.1728, -0.6673 0.7677 1.2063, -0.7362 0.7677 1.1637, -0.7366 0.7677 1.2594, -1.2638 0.7677 1.1637, -0.7898 0.7677 1.3287, 0.7366 0.7677 1.7327, 0.7898 0.7677 1.6634, 0.8232 0.7677 1.5827, 1.1654 0.7677 1.4961, 0.8346 0.7677 1.4961, 0.8232 0.7677 1.4095, 0.7898 0.7677 1.3287, 0.4134 0.7677 1.1728, 0.3327 0.7677 1.2063, 0.2638 0.7677 1.1637, 0.2634 0.7677 1.2594, 0.2102 0.7677 1.3287, 0.1768 0.7677 1.4095, -0.3327 0.7677 1.7859, 0.2634 0.7677 1.7327, 0.3327 0.7677 1.7859, 0.4134 0.7677 1.8193, -1.2634 0.7677 1.2594, -1.3327 0.7677 1.2063, -1.4134 0.7677 1.1728, -1.3327 0.7677 1.7859, -1.2634 0.7677 1.7327, -1.2638 0.7677 1.8597, -0.7898 0.7677 1.6634, -1.2102 0.7677 1.6634, -1.1768 0.7677 1.5827, -0.2634 0.7677 1.7327, -0.2102 0.7677 1.6634, 0.2102 0.7677 1.6634, -0.1768 0.7677 1.5827, 0.1768 0.7677 1.5827, -1.4134 0.7677 1.8193, -0.6673 0.7677 1.7859, -0.7366 0.7677 1.7327, 0.1654 0.7677 1.4961, -0.1654 0.7677 1.4961, -0.1768 0.7677 1.4095, -0.2102 0.7677 1.3287, -1.1654 0.7677 1.4961, -0.8346 0.7677 1.4961, -0.8232 0.7677 1.5827, -1.2638 0.3324 2.295, -0.7362 0.3324 2.295, -0.6772 -1.9882 2.295, -1.3228 -1.9882 2.295, -1.5 0.374 0.7375, -1.2638 0.374 0.7375, -1.7362 0.3324 0.7375, -2.0 0.3324 0.7375, -2.0 -1.7913 0.7375, -1.5 -1.7913 0.7375, -2.0 -1.7913 2.295, -2.0 0.3324 2.295, -1.7362 0.3324 2.295, -2.1969 -1.9882 2.295, -1.6772 -1.9882 2.295, -1.6772 -1.9882 2.5221, -1.8934 -1.9882 2.5221, -1.3228 -1.9882 2.5221, -1.1066 -1.9882 2.5221, -1.1066 1.9882 2.5221, -1.8934 1.9882 2.5221, -1.8934 1.9882 2.8379, -1.8934 -1.9882 2.8379, -1.1066 1.9882 2.8379, -1.1066 -1.9882 2.8379, -1.815 1.2008 0.0, -1.815 1.2008 2.3622, -1.6112 1.2008 0.0, -1.185 1.2008 2.3622, -1.185 1.2008 0.0, -1.815 1.9882 2.3622, -1.185 1.9882 2.3622, -1.815 1.9882 0.0, -1.185 1.9882 0.0, -1.4134 0.6102 1.8193, -1.3327 0.6102 1.7859, -1.2634 0.6102 1.7327, -1.2102 0.6102 1.6634, -1.1768 0.6102 1.5827, -1.1654 0.6102 1.4961, -1.1768 0.6102 1.4095, -1.2102 0.6102 1.3287, -1.2634 0.6102 1.2594, -1.3327 0.6102 1.2063, -1.4134 0.6102 1.1728, -1.5 0.6102 1.1614, -1.5866 0.6102 1.1728, -1.6673 0.6102 1.2063, -1.7366 0.6102 1.2594, -1.7898 0.6102 1.3287, -1.8232 0.6102 1.4095, -1.8346 0.6102 1.4961, -1.8232 0.6102 1.5827, -1.7898 0.6102 1.6634, -1.7366 0.6102 1.7327, -1.6673 0.6102 1.7859, -1.5866 0.6102 1.8193, -1.5 0.6102 1.8307, -1.5 0.6102 1.4961, -1.2638 0.3324 0.7375, -1.2638 0.3324 1.1637, -0.7362 0.3324 1.1637, -0.7362 0.3324 0.7375, -1.0 0.3324 0.7375, -1.7362 0.3324 1.1637, -2.0 0.3324 1.1637, -1.7362 0.3324 1.8597, -2.0 0.3324 1.8597, -1.2638 0.3324 1.8597, -0.7362 0.3324 1.8597, -1.0 0.374 0.7375, -1.5 -1.9882 0.5407, -1.5 -1.9882 0.2375, -1.5 0.374 0.2375, -1.0 0.374 0.2375, -1.0 -1.9882 0.2375, -0.2638 0.3324 2.295, 0.2638 0.3324 2.295, 0.3228 -1.9882 2.295, -0.3228 -1.9882 2.295, -1.0 -1.7913 0.7375, 1.7362 0.374 0.7375, 1.5 0.374 0.7375, 1.2638 0.3324 0.7375, 0.7362 0.3324 0.7375, 1.5 -1.7913 0.7375, -0.2638 0.3324 0.7375, 0.2638 0.3324 0.7375, -1.0 -1.9882 0.5407, -0.6772 -1.9882 2.5221, -0.8934 -1.9882 2.5221, -0.3228 -1.9882 2.5221, -0.1066 -1.9882 2.5221, -0.1066 1.9882 2.5221, -0.8934 1.9882 2.5221, -0.8934 1.9882 2.8379, -0.8934 -1.9882 2.8379, -0.1066 1.9882 2.8379, -0.1066 -1.9882 2.8379, -0.815 1.2008 0.0, -0.815 1.2008 2.3622, -0.185 1.2008 0.0, -0.185 1.2008 2.3622, -0.815 1.9882 2.3622, -0.185 1.9882 2.3622, -0.815 1.9882 0.0, -0.185 1.9882 0.0, -0.4134 0.6102 1.8193, -0.3327 0.6102 1.7859, -0.2634 0.6102 1.7327, -0.2102 0.6102 1.6634, -0.1768 0.6102 1.5827, -0.1654 0.6102 1.4961, -0.1768 0.6102 1.4095, -0.2102 0.6102 1.3287, -0.2634 0.6102 1.2594, -0.3327 0.6102 1.2063, -0.4134 0.6102 1.1728, -0.5 0.6102 1.1614, -0.5866 0.6102 1.1728, -0.6673 0.6102 1.2063, -0.7366 0.6102 1.2594, -0.7898 0.6102 1.3287, -0.8232 0.6102 1.4095, -0.8346 0.6102 1.4961, -0.8232 0.6102 1.5827, -0.7898 0.6102 1.6634, -0.7366 0.6102 1.7327, -0.6673 0.6102 1.7859, -0.5866 0.6102 1.8193, -0.5 0.6102 1.8307, -0.5 0.6102 1.4961, -0.2638 0.3324 1.1637, 0.2638 0.3324 1.1637, -0.2638 0.3324 1.8597, 0.2638 0.3324 1.8597, 2.374 1.9882 0.0787, 2.374 1.9882 0.7874, 2.374 1.5945 0.7874, 2.374 1.9882 2.3622, 2.374 1.9882 3.0709, 2.374 1.5945 2.3622, 2.374 -1.9882 3.0709, 2.374 -1.9882 0.0787, 2.0 -1.7913 2.295, 2.0 0.3324 2.295, 2.0 -1.7913 0.2375, 2.0 0.3324 1.8597, 2.0 0.374 0.7375, 2.0 0.374 0.2375, 2.0 0.3324 0.7375, 2.0 0.3324 1.1637, 0.7362 0.3324 2.295, 1.2638 0.3324 2.295, 1.3228 -1.9882 2.295, 0.6772 -1.9882 2.295, 0.3228 -1.9882 2.5221, 0.1066 -1.9882 2.5221, 0.6772 -1.9882 2.5221, 0.8934 -1.9882 2.5221, 0.8934 1.9882 2.5221, 0.1066 1.9882 2.5221, 0.1066 1.9882 2.8379, 0.1066 -1.9882 2.8379, 0.8934 1.9882 2.8379, 0.8934 -1.9882 2.8379, 0.185 1.2008 0.0, 0.185 1.2008 2.3622, 0.815 1.2008 0.0, 0.815 1.2008 2.3622, 0.185 1.9882 2.3622, 0.815 1.9882 2.3622, 0.185 1.9882 0.0, 0.815 1.9882 0.0, 0.5866 0.6102 1.8193, 0.6673 0.6102 1.7859, 0.7366 0.6102 1.7327, 0.7898 0.6102 1.6634, 0.8232 0.6102 1.5827, 0.8346 0.6102 1.4961, 0.8232 0.6102 1.4095, 0.7898 0.6102 1.3287, 0.7366 0.6102 1.2594, 0.6673 0.6102 1.2063, 0.5866 0.6102 1.1728, 0.5 0.6102 1.1614, 0.4134 0.6102 1.1728, 0.3327 0.6102 1.2063, 0.2634 0.6102 1.2594, 0.2102 0.6102 1.3287, 0.1768 0.6102 1.4095, 0.1654 0.6102 1.4961, 0.1768 0.6102 1.5827, 0.2102 0.6102 1.6634, 0.2634 0.6102 1.7327, 0.3327 0.6102 1.7859, 0.4134 0.6102 1.8193, 0.5 0.6102 1.8307, 0.5 0.6102 1.4961, 0.7362 0.3324 1.1637, 1.2638 0.3324 1.1637, 0.7362 0.3324 1.8597, 1.2638 0.3324 1.8597, 2.1969 -1.9882 2.295, 1.6772 -1.9882 2.295, 1.7362 0.3324 2.295, 1.3228 -1.9882 2.5221, 1.1066 -1.9882 2.5221, 1.6772 -1.9882 2.5221, 1.8934 -1.9882 2.5221, 1.8934 1.9882 2.5221, 1.1066 1.9882 2.5221, 1.1066 1.9882 2.8379, 1.1066 -1.9882 2.8379, 1.8934 1.9882 2.8379, 1.8934 -1.9882 2.8379, 1.185 1.2008 0.0, 1.185 1.2008 2.3622, 1.815 1.2008 0.0, 1.815 1.2008 2.3622, 1.185 1.9882 2.3622, 1.815 1.9882 2.3622, 1.185 1.9882 0.0, 1.815 1.9882 0.0, 1.5866 0.6102 1.8193, 1.6673 0.6102 1.7859, 1.7366 0.6102 1.7327, 1.7898 0.6102 1.6634, 1.8232 0.6102 1.5827, 1.8346 0.6102 1.4961, 1.8232 0.6102 1.4095, 1.7898 0.6102 1.3287, 1.7366 0.6102 1.2594, 1.6673 0.6102 1.2063, 1.5866 0.6102 1.1728, 1.5 0.6102 1.1614, 1.4134 0.6102 1.1728, 1.3327 0.6102 1.2063, 1.2634 0.6102 1.2594, 1.2102 0.6102 1.3287, 1.1768 0.6102 1.4095, 1.1654 0.6102 1.4961, 1.1768 0.6102 1.5827, 1.2102 0.6102 1.6634, 1.2634 0.6102 1.7327, 1.3327 0.6102 1.7859, 1.4134 0.6102 1.8193, 1.5 0.6102 1.8307, 1.5 0.6102 1.4961, 1.7362 0.3324 0.7375, 1.7362 0.3324 1.1637, 1.7362 0.3324 1.8597, 1.5 0.374 0.2375, 1.5 -1.9882 0.2375, 2.1969 -1.9882 0.2375, 1.5 -1.9882 0.5407, -2.1969 -1.9882 0.5407, -2.1378 1.5945 0.7874, -2.1378 1.9882 0.7874, -2.374 1.5945 0.7874, -2.374 1.9882 0.7874, -2.1378 1.9882 2.3622, -2.1378 1.5945 2.3622, -2.374 1.9882 2.3622, -2.374 1.5945 2.3622, 2.1378 1.5945 0.7874, 2.1378 1.5945 2.3622, 2.1378 1.9882 2.3622, 2.1378 1.9882 0.7874, 2.2953 -0.816 0.0, 2.2953 1.9882 0.0, 2.3157 1.9882 0.0027, 2.3157 -1.9882 0.0027, 2.2953 -1.9882 0.0, 2.3346 1.9882 0.0105, 2.3346 -1.9882 0.0105, 2.351 1.9882 0.0231, 2.351 -1.9882 0.0231, 2.3635 1.9882 0.0394, 2.3635 -1.9882 0.0394, 2.3713 1.9882 0.0584, 2.3713 -1.9882 0.0584, 2.2953 1.9882 3.1496, 2.2953 -1.9882 3.1496, 2.3157 -1.9882 3.1469, 2.3157 1.9882 3.1469, 2.3346 -1.9882 3.1391, 2.3346 1.9882 3.1391, 2.351 -1.9882 3.1265, 2.351 1.9882 3.1265, 2.3635 -1.9882 3.1102, 2.3635 1.9882 3.1102, 2.3713 -1.9882 3.0912, 2.3713 1.9882 3.0912, -2.2953 -0.816 0.0, -2.2953 -1.9882 0.0, -2.3157 -1.9882 0.0027, -2.3157 1.9882 0.0027, -2.2953 1.9882 0.0, -2.3346 -1.9882 0.0105, -2.3346 1.9882 0.0105, -2.351 -1.9882 0.0231, -2.351 1.9882 0.0231, -2.3635 -1.9882 0.0394, -2.3635 1.9882 0.0394, -2.3713 -1.9882 0.0584, -2.3713 1.9882 0.0584, -2.374 -1.9882 0.0787, -2.374 1.9882 0.0787, -2.2953 -1.9882 3.1496, -2.2953 1.9882 3.1496, -2.3157 1.9882 3.1469, -2.3157 -1.9882 3.1469, -2.3346 1.9882 3.1391, -2.3346 -1.9882 3.1391, -2.351 1.9882 3.1265, -2.351 -1.9882 3.1265, -2.3635 1.9882 3.1102, -2.3635 -1.9882 3.1102, -2.3713 1.9882 3.0912, -2.3713 -1.9882 3.0912, -2.374 1.9882 3.0709, -2.374 -1.9882 3.0709, -1.1599 -0.4933 0.0039, -1.1599 -0.4933 0.0, -1.1417 -0.5776 0.0039, -1.1417 -0.5776 0.0, -1.1684 -0.4502 0.0039, -1.1684 -0.4502 0.0, -1.1718 -0.4366 0.0039, -1.1718 -0.4366 0.0, -1.1725 -0.4347 0.0039, -1.1725 -0.4347 0.0, -1.1732 -0.4333 0.0039, -1.1732 -0.4333 0.0, -1.1738 -0.4324 0.0039, -1.1738 -0.4324 0.0, -1.1743 -0.4318 0.0039, -1.1743 -0.4318 0.0, -1.1748 -0.4314 0.0039, -1.1748 -0.4314 0.0, -1.1753 -0.4312 0.0039, -1.1753 -0.4312 0.0, -1.1757 -0.4312 0.0039, -1.1757 -0.4312 0.0, -1.1761 -0.4312 0.0039, -1.1761 -0.4312 0.0, -1.1765 -0.4314 0.0039, -1.1765 -0.4314 0.0, -1.1769 -0.4316 0.0039, -1.1769 -0.4316 0.0, -1.1773 -0.432 0.0039, -1.1773 -0.432 0.0, -1.1776 -0.4326 0.0039, -1.1776 -0.4326 0.0, -1.178 -0.434 0.0039, -1.178 -0.434 0.0, -1.179 -0.4411 0.0039, -1.179 -0.4411 0.0, -1.1797 -0.4479 0.0039, -1.1797 -0.4479 0.0, -1.1825 -0.4717 0.0039, -1.1825 -0.4717 0.0, -1.1833 -0.4827 0.0039, -1.1833 -0.4827 0.0, -1.183 -0.4879 0.0039, -1.183 -0.4879 0.0, -1.182 -0.4911 0.0039, -1.182 -0.4911 0.0, -1.1808 -0.4933 0.0039, -1.1808 -0.4933 0.0, -1.178 -0.4984 0.0039, -1.178 -0.4984 0.0, -1.1706 -0.5231 0.0039, -1.1706 -0.5231 0.0, -1.1644 -0.5482 0.0039, -1.1644 -0.5482 0.0, -1.1066 -0.816 0.0, -1.1061 -0.8182 0.0039, -1.1061 -0.8182 0.0, -1.0982 -0.8182 0.0039, -1.0982 -0.8182 0.0, -1.0433 -0.5754 0.0039, -1.0433 -0.5754 0.0, -1.0977 -0.816 0.0, -1.0365 -0.547 0.0039, -1.0365 -0.547 0.0, -1.0334 -0.5336 0.0039, -1.0334 -0.5336 0.0, -1.0297 -0.5204 0.0039, -1.0297 -0.5204 0.0, -1.0257 -0.5097 0.0039, -1.0257 -0.5097 0.0, -1.0221 -0.4996 0.0039, -1.0221 -0.4996 0.0, -1.0197 -0.496 0.0039, -1.0197 -0.496 0.0, -1.018 -0.4939 0.0039, -1.018 -0.4939 0.0, -1.0173 -0.493 0.0039, -1.0173 -0.493 0.0, -1.017 -0.4924 0.0039, -1.017 -0.4924 0.0, -1.0168 -0.4918 0.0039, -1.0168 -0.4918 0.0, -1.0169 -0.4897 0.0039, -1.0169 -0.4897 0.0, -1.0177 -0.4764 0.0039, -1.0177 -0.4764 0.0, -1.0177 -0.4762 0.0039, -1.0177 -0.4762 0.0, -1.02 -0.4508 0.0039, -1.02 -0.4508 0.0, -1.0212 -0.4412 0.0039, -1.0212 -0.4412 0.0, -1.0214 -0.4382 0.0039, -1.0214 -0.4382 0.0, -1.0217 -0.4361 0.0039, -1.0217 -0.4361 0.0, -1.022 -0.4346 0.0039, -1.022 -0.4346 0.0, -1.0222 -0.4337 0.0039, -1.0222 -0.4337 0.0, -1.0225 -0.4331 0.0039, -1.0225 -0.4331 0.0, -1.0228 -0.4327 0.0039, -1.0228 -0.4327 0.0, -1.0232 -0.4324 0.0039, -1.0232 -0.4324 0.0, -1.0236 -0.4321 0.0039, -1.0236 -0.4321 0.0, -1.024 -0.432 0.0039, -1.024 -0.432 0.0, -1.0244 -0.432 0.0039, -1.0244 -0.432 0.0, -1.025 -0.4321 0.0039, -1.025 -0.4321 0.0, -1.0256 -0.4325 0.0039, -1.0256 -0.4325 0.0, -1.026 -0.4329 0.0039, -1.026 -0.4329 0.0, -1.0265 -0.4335 0.0039, -1.0265 -0.4335 0.0, -1.027 -0.4345 0.0039, -1.027 -0.4345 0.0, -1.0274 -0.436 0.0039, -1.0274 -0.436 0.0, -1.0313 -0.4587 0.0039, -1.0313 -0.4587 0.0, -1.0647 -0.5963 0.0039, -1.0647 -0.5963 0.0, -1.1021 -0.7639 0.0039, -1.139 -0.5974 0.0039, -1.0659 -0.6048 0.0039, -1.0812 -0.6195 0.0039, -1.0953 -0.6099 0.0039, -1.1001 -0.6073 0.0039, -1.1167 -0.6021 0.0039, -1.139 -0.5974 0.0, -1.1021 -0.7639 0.0, -1.1167 -0.6021 0.0, -1.1001 -0.6073 0.0, -1.0953 -0.6099 0.0, -1.0812 -0.6195 0.0, -1.0659 -0.6048 0.0, -1.3871 -0.7826 0.0039, -1.3871 -0.7826 0.0, -1.377 -0.7741 0.0039, -1.377 -0.7741 0.0, -1.3896 -0.7846 0.0039, -1.3896 -0.7846 0.0, -1.3911 -0.7865 0.0039, -1.3911 -0.7865 0.0, -1.3921 -0.7886 0.0039, -1.3921 -0.7886 0.0, -1.3924 -0.79 0.0039, -1.3924 -0.79 0.0, -1.3924 -0.7913 0.0039, -1.3924 -0.7913 0.0, -1.392 -0.7927 0.0039, -1.392 -0.7927 0.0, -1.3915 -0.7937 0.0039, -1.3915 -0.7937 0.0, -1.3907 -0.7945 0.0039, -1.3907 -0.7945 0.0, -1.39 -0.7951 0.0039, -1.39 -0.7951 0.0, -1.3797 -0.7933 0.0039, -1.3797 -0.7933 0.0, -1.3679 -0.7933 0.0039, -1.3679 -0.7933 0.0, -1.3631 -0.7942 0.0039, -1.3631 -0.7942 0.0, -1.3583 -0.7951 0.0039, -1.3583 -0.7951 0.0, -1.3463 -0.7962 0.0039, -1.3463 -0.7962 0.0, -1.3249 -0.8024 0.0039, -1.3249 -0.8024 0.0, -1.3125 -0.8048 0.0039, -1.3125 -0.8048 0.0, -1.3 -0.8058 0.0039, -1.3 -0.8058 0.0, -1.2823 -0.8047 0.0039, -1.2823 -0.8047 0.0, -1.2696 -0.8016 0.0039, -1.2696 -0.8016 0.0, -1.2592 -0.7962 0.0039, -1.2592 -0.7962 0.0, -1.2499 -0.7879 0.0039, -1.2499 -0.7879 0.0, -1.2408 -0.7748 0.0039, -1.2408 -0.7748 0.0, -1.232 -0.7518 0.0039, -1.232 -0.7518 0.0, -1.2238 -0.6884 0.0039, -1.2238 -0.6884 0.0, -1.2212 -0.6099 0.0039, -1.2212 -0.6099 0.0, -1.2266 -0.5446 0.0039, -1.2266 -0.5446 0.0, -1.2377 -0.5056 0.0039, -1.2377 -0.5056 0.0, -1.2493 -0.4848 0.0039, -1.2493 -0.4848 0.0, -1.2592 -0.4729 0.0039, -1.2592 -0.4729 0.0, -1.269 -0.4655 0.0039, -1.269 -0.4655 0.0, -1.2742 -0.4628 0.0039, -1.2742 -0.4628 0.0, -1.2856 -0.4594 0.0039, -1.2856 -0.4594 0.0, -1.322 -0.4542 0.0039, -1.322 -0.4542 0.0, -1.3469 -0.4513 0.0039, -1.3469 -0.4513 0.0, -1.3562 -0.4488 0.0039, -1.3562 -0.4488 0.0, -1.3621 -0.4452 0.0039, -1.3621 -0.4452 0.0, -1.364 -0.4442 0.0039, -1.364 -0.4442 0.0, -1.3645 -0.444 0.0039, -1.3645 -0.444 0.0, -1.366 -0.4441 0.0039, -1.366 -0.4441 0.0, -1.3671 -0.4446 0.0039, -1.3671 -0.4446 0.0, -1.3708 -0.4472 0.0039, -1.3708 -0.4472 0.0, -1.3789 -0.4547 0.0039, -1.3789 -0.4547 0.0, -1.3815 -0.4576 0.0039, -1.3815 -0.4576 0.0, -1.3883 -0.4649 0.0039, -1.3883 -0.4649 0.0, -1.3897 -0.4664 0.0039, -1.3897 -0.4664 0.0, -1.3907 -0.4676 0.0039, -1.3907 -0.4676 0.0, -1.3913 -0.4686 0.0039, -1.3913 -0.4686 0.0, -1.3917 -0.4693 0.0039, -1.3917 -0.4693 0.0, -1.3919 -0.4699 0.0039, -1.3919 -0.4699 0.0, -1.3919 -0.4705 0.0039, -1.3919 -0.4705 0.0, -1.3918 -0.4713 0.0039, -1.3918 -0.4713 0.0, -1.3913 -0.4724 0.0039, -1.3913 -0.4724 0.0, -1.391 -0.4729 0.0039, -1.391 -0.4729 0.0, -1.3908 -0.4731 0.0039, -1.3908 -0.4731 0.0, -1.3904 -0.4734 0.0039, -1.3904 -0.4734 0.0, -1.3899 -0.4735 0.0039, -1.3899 -0.4735 0.0, -1.3885 -0.4736 0.0039, -1.3885 -0.4736 0.0, -1.3865 -0.4735 0.0039, -1.3865 -0.4735 0.0, -1.3786 -0.4735 0.0039, -1.3786 -0.4735 0.0, -1.3696 -0.4735 0.0039, -1.3696 -0.4735 0.0, -1.3696 -0.7702 0.0039, -1.3696 -0.7702 0.0, -1.3734 -0.7719 0.0039, -1.3734 -0.7719 0.0, -1.3537 -0.7741 0.0039, -1.3537 -0.4745 0.0039, -1.2812 -0.4829 0.0039, -1.2938 -0.4797 0.0039, -1.3113 -0.4774 0.0039, -1.3362 -0.4745 0.0039, -1.272 -0.4869 0.0039, -1.345 -0.4742 0.0039, -1.343 -0.7786 0.0039, -1.3189 -0.7842 0.0039, -1.2943 -0.786 0.0039, -1.2793 -0.7831 0.0039, -1.2384 -0.5763 0.0039, -1.2474 -0.526 0.0039, -1.2652 -0.4924 0.0039, -1.2586 -0.5008 0.0039, -1.2684 -0.7789 0.0039, -1.2617 -0.774 0.0039, -1.2549 -0.7658 0.0039, -1.2486 -0.7537 0.0039, -1.2437 -0.7367 0.0039, -1.237 -0.6597 0.0039, -1.3113 -0.4774 0.0, -1.3362 -0.4745 0.0, -1.2938 -0.4797 0.0, -1.2812 -0.4829 0.0, -1.272 -0.4869 0.0, -1.2652 -0.4924 0.0, -1.2586 -0.5008 0.0, -1.2474 -0.526 0.0, -1.2384 -0.5763 0.0, -1.237 -0.6597 0.0, -1.237 -0.6597 0.0
            ]
        }
        coordIndex [
            0,1,2,-1,2,1,3,-1,2,3,4,-1,4,3,5,-1,6,7,8,-1,9,10,11,-1,12,13,14,-1,14,13,15,-1,14,15,16,-1,16,15,17,-1,16,17,18,-1,3,19,20,-1,3,20,21,-1,11,22,9,-1,9,22,23,-1,9,23,24,-1,24,23,25,-1,24,25,26,-1,26,25,27,-1,19,3,28,-1,28,3,1,-1,28,1,29,-1,29,1,30,-1,29,30,31,-1,32,33,34,-1,34,33,35,-1,34,35,36,-1,36,35,37,-1,36,37,38,-1,27,39,26,-1,26,39,40,-1,26,40,30,-1,30,40,41,-1,30,41,31,-1,8,7,42,-1,42,7,43,-1,42,43,44,-1,45,46,44,-1,44,46,47,-1,47,48,44,-1,44,48,49,-1,44,49,42,-1,50,51,52,-1,52,51,53,-1,54,55,34,-1,56,57,58,-1,58,57,59,-1,58,59,60,-1,60,59,61,-1,61,62,60,-1,60,62,63,-1,60,63,45,-1,45,63,64,-1,45,64,46,-1,65,52,66,-1,66,52,53,-1,66,53,67,-1,68,69,70,-1,70,69,71,-1,70,71,72,-1,72,71,73,-1,74,75,66,-1,66,75,76,-1,66,76,65,-1,58,77,56,-1,56,77,52,-1,56,52,78,-1,78,52,65,-1,79,80,81,-1,82,83,84,-1,84,83,85,-1,84,85,86,-1,86,85,87,-1,8,88,6,-1,6,88,89,-1,6,89,34,-1,34,89,90,-1,34,90,54,-1,91,92,93,-1,93,92,71,-1,94,95,96,-1,93,97,91,-1,91,97,98,-1,91,98,66,-1,79,99,80,-1,80,99,85,-1,80,85,100,-1,17,101,18,-1,18,101,102,-1,18,102,103,-1,103,102,104,-1,103,104,105,-1,105,104,106,-1,98,107,66,-1,66,107,108,-1,66,108,74,-1,74,108,109,-1,74,109,110,-1,110,109,111,-1,110,111,55,-1,55,111,112,-1,55,112,34,-1,34,112,113,-1,34,113,32,-1,37,114,38,-1,38,114,115,-1,38,115,116,-1,116,115,117,-1,116,117,14,-1,14,117,118,-1,14,118,119,-1,81,120,79,-1,79,120,121,-1,79,121,69,-1,69,121,122,-1,69,122,71,-1,71,122,123,-1,71,123,93,-1,96,95,106,-1,106,95,124,-1,106,124,105,-1,105,124,125,-1,105,125,10,-1,10,125,126,-1,10,126,11,-1,127,128,129,-1,130,131,132,-1,120,133,121,-1,121,133,134,-1,121,134,135,-1,135,134,136,-1,135,136,137,-1,21,20,129,-1,129,20,138,-1,129,138,127,-1,100,85,139,-1,139,85,83,-1,139,83,140,-1,140,83,129,-1,140,129,130,-1,130,129,128,-1,130,128,131,-1,137,136,141,-1,141,136,142,-1,141,142,119,-1,119,142,143,-1,119,143,14,-1,14,143,144,-1,14,144,12,-1,94,96,145,-1,145,96,146,-1,145,146,132,-1,132,146,147,-1,132,147,130,-1,3,21,148,-1,82,84,149,-1,149,84,150,-1,149,150,148,-1,148,150,151,-1,148,151,3,-1,152,153,10,-1,154,155,156,-1,10,9,152,-1,152,9,154,-1,152,154,157,-1,157,154,156,-1,158,159,160,-1,161,158,162,-1,162,158,160,-1,162,160,2,-1,2,160,0,-1,2,4,162,-1,162,4,163,-1,164,163,4,-1,165,166,5,-1,5,166,167,-1,5,167,4,-1,4,167,168,-1,4,168,164,-1,168,169,164,-1,164,169,170,-1,169,171,170,-1,170,171,172,-1,171,167,172,-1,172,167,166,-1,5,3,165,-1,165,3,151,-1,173,174,175,-1,175,174,176,-1,175,176,177,-1,174,178,176,-1,176,178,179,-1,178,174,180,-1,180,174,173,-1,176,179,177,-1,177,179,181,-1,20,182,138,-1,138,182,183,-1,138,183,127,-1,127,183,184,-1,127,184,128,-1,128,184,185,-1,128,185,131,-1,131,185,186,-1,131,186,132,-1,132,186,187,-1,132,187,145,-1,145,187,188,-1,145,188,94,-1,94,188,189,-1,94,189,95,-1,95,189,190,-1,95,190,124,-1,124,190,191,-1,124,191,125,-1,125,191,192,-1,125,192,126,-1,126,192,193,-1,126,193,11,-1,11,193,194,-1,11,194,22,-1,22,194,195,-1,22,195,23,-1,23,195,196,-1,23,196,25,-1,25,196,197,-1,25,197,27,-1,27,197,198,-1,27,198,39,-1,39,198,199,-1,39,199,40,-1,40,199,200,-1,40,200,41,-1,41,200,201,-1,41,201,31,-1,31,201,202,-1,31,202,29,-1,29,202,203,-1,29,203,28,-1,28,203,204,-1,28,204,19,-1,19,204,205,-1,19,205,20,-1,20,205,182,-1,195,194,206,-1,206,194,193,-1,206,193,192,-1,198,197,206,-1,206,197,196,-1,206,196,195,-1,201,200,206,-1,206,200,199,-1,206,199,198,-1,204,203,206,-1,206,203,202,-1,206,202,201,-1,183,182,206,-1,206,182,205,-1,206,205,204,-1,186,185,206,-1,206,185,184,-1,206,184,183,-1,189,188,206,-1,206,188,187,-1,206,187,186,-1,192,191,206,-1,206,191,190,-1,206,190,189,-1,207,208,153,-1,153,208,105,-1,153,105,10,-1,208,209,105,-1,105,209,103,-1,210,209,211,-1,211,209,208,-1,211,208,207,-1,212,154,24,-1,24,154,9,-1,213,212,26,-1,26,212,24,-1,154,212,155,-1,155,212,213,-1,214,215,1,-1,1,215,30,-1,160,214,0,-1,0,214,1,-1,214,160,215,-1,215,160,159,-1,216,148,129,-1,129,148,21,-1,217,216,83,-1,83,216,129,-1,149,148,217,-1,217,148,216,-1,211,207,218,-1,218,207,153,-1,219,220,157,-1,157,220,221,-1,157,221,152,-1,222,221,223,-1,223,221,220,-1,152,221,153,-1,153,221,222,-1,153,222,218,-1,85,99,224,-1,68,70,225,-1,225,70,226,-1,225,226,224,-1,224,226,227,-1,224,227,85,-1,210,211,228,-1,229,43,230,-1,230,43,7,-1,230,7,231,-1,232,228,231,-1,231,228,233,-1,231,233,230,-1,234,16,18,-1,18,210,234,-1,234,210,228,-1,234,228,235,-1,235,228,232,-1,235,232,38,-1,38,232,36,-1,211,218,222,-1,211,222,228,-1,228,222,223,-1,228,223,236,-1,84,86,150,-1,150,86,237,-1,238,237,86,-1,239,240,87,-1,87,240,241,-1,87,241,86,-1,86,241,242,-1,86,242,238,-1,242,243,238,-1,238,243,244,-1,243,245,244,-1,244,245,246,-1,245,241,246,-1,246,241,240,-1,87,85,239,-1,239,85,227,-1,247,248,249,-1,249,248,250,-1,248,251,250,-1,250,251,252,-1,251,248,253,-1,253,248,247,-1,250,252,249,-1,249,252,254,-1,80,255,81,-1,81,255,256,-1,81,256,120,-1,120,256,257,-1,120,257,133,-1,133,257,258,-1,133,258,134,-1,134,258,259,-1,134,259,136,-1,136,259,260,-1,136,260,142,-1,142,260,261,-1,142,261,143,-1,143,261,262,-1,143,262,144,-1,144,262,263,-1,144,263,12,-1,12,263,264,-1,12,264,13,-1,13,264,265,-1,13,265,15,-1,15,265,266,-1,15,266,17,-1,17,266,267,-1,17,267,101,-1,101,267,268,-1,101,268,102,-1,102,268,269,-1,102,269,104,-1,104,269,270,-1,104,270,106,-1,106,270,271,-1,106,271,96,-1,96,271,272,-1,96,272,146,-1,146,272,273,-1,146,273,147,-1,147,273,274,-1,147,274,130,-1,130,274,275,-1,130,275,140,-1,140,275,276,-1,140,276,139,-1,139,276,277,-1,139,277,100,-1,100,277,278,-1,100,278,80,-1,80,278,255,-1,268,267,279,-1,279,267,266,-1,279,266,265,-1,271,270,279,-1,279,270,269,-1,279,269,268,-1,274,273,279,-1,279,273,272,-1,279,272,271,-1,277,276,279,-1,279,276,275,-1,279,275,274,-1,256,255,279,-1,279,255,278,-1,279,278,277,-1,259,258,279,-1,279,258,257,-1,279,257,256,-1,262,261,279,-1,279,261,260,-1,279,260,259,-1,265,264,279,-1,279,264,263,-1,279,263,262,-1,234,280,16,-1,16,280,14,-1,280,281,14,-1,14,281,116,-1,235,281,234,-1,234,281,280,-1,209,210,103,-1,103,210,18,-1,149,217,82,-1,82,217,83,-1,282,224,79,-1,79,224,99,-1,283,282,69,-1,69,282,79,-1,225,224,283,-1,283,224,282,-1,284,285,286,-1,287,288,289,-1,289,288,290,-1,289,290,286,-1,286,290,291,-1,286,291,284,-1,292,293,294,-1,294,293,295,-1,296,297,298,-1,298,297,294,-1,298,294,299,-1,299,294,295,-1,299,295,45,-1,45,295,60,-1,71,92,300,-1,67,53,301,-1,301,53,302,-1,301,302,300,-1,300,302,303,-1,300,303,71,-1,70,72,226,-1,226,72,304,-1,305,304,72,-1,306,307,73,-1,73,307,308,-1,73,308,72,-1,72,308,309,-1,72,309,305,-1,309,310,305,-1,305,310,311,-1,310,312,311,-1,311,312,313,-1,312,308,313,-1,313,308,307,-1,73,71,306,-1,306,71,303,-1,314,315,316,-1,316,315,317,-1,315,318,317,-1,317,318,319,-1,318,315,320,-1,320,315,314,-1,317,319,316,-1,316,319,321,-1,93,322,97,-1,97,322,323,-1,97,323,98,-1,98,323,324,-1,98,324,107,-1,107,324,325,-1,107,325,108,-1,108,325,326,-1,108,326,109,-1,109,326,327,-1,109,327,111,-1,111,327,328,-1,111,328,112,-1,112,328,329,-1,112,329,113,-1,113,329,330,-1,113,330,32,-1,32,330,331,-1,32,331,33,-1,33,331,332,-1,33,332,35,-1,35,332,333,-1,35,333,37,-1,37,333,334,-1,37,334,114,-1,114,334,335,-1,114,335,115,-1,115,335,336,-1,115,336,117,-1,117,336,337,-1,117,337,118,-1,118,337,338,-1,118,338,119,-1,119,338,339,-1,119,339,141,-1,141,339,340,-1,141,340,137,-1,137,340,341,-1,137,341,135,-1,135,341,342,-1,135,342,121,-1,121,342,343,-1,121,343,122,-1,122,343,344,-1,122,344,123,-1,123,344,345,-1,123,345,93,-1,93,345,322,-1,335,334,346,-1,346,334,333,-1,346,333,332,-1,338,337,346,-1,346,337,336,-1,346,336,335,-1,341,340,346,-1,346,340,339,-1,346,339,338,-1,344,343,346,-1,346,343,342,-1,346,342,341,-1,323,322,346,-1,346,322,345,-1,346,345,344,-1,326,325,346,-1,346,325,324,-1,346,324,323,-1,329,328,346,-1,346,328,327,-1,346,327,326,-1,332,331,346,-1,346,331,330,-1,346,330,329,-1,232,347,36,-1,36,347,34,-1,347,348,34,-1,34,348,6,-1,231,348,232,-1,232,348,347,-1,281,235,116,-1,116,235,38,-1,225,283,68,-1,68,283,69,-1,349,300,91,-1,91,300,92,-1,350,349,66,-1,66,349,91,-1,301,300,350,-1,350,300,349,-1,292,351,352,-1,52,77,353,-1,52,353,352,-1,352,353,293,-1,352,293,292,-1,53,51,302,-1,302,51,354,-1,355,354,51,-1,356,357,50,-1,50,357,358,-1,50,358,51,-1,51,358,359,-1,51,359,355,-1,359,360,355,-1,355,360,361,-1,360,362,361,-1,361,362,363,-1,362,358,363,-1,363,358,357,-1,50,52,356,-1,356,52,352,-1,364,365,366,-1,366,365,367,-1,365,368,367,-1,367,368,369,-1,368,365,370,-1,370,365,364,-1,367,369,366,-1,366,369,371,-1,56,372,57,-1,57,372,373,-1,57,373,59,-1,59,373,374,-1,59,374,61,-1,61,374,375,-1,61,375,62,-1,62,375,376,-1,62,376,63,-1,63,376,377,-1,63,377,64,-1,64,377,378,-1,64,378,46,-1,46,378,379,-1,46,379,47,-1,47,379,380,-1,47,380,48,-1,48,380,381,-1,48,381,49,-1,49,381,382,-1,49,382,42,-1,42,382,383,-1,42,383,8,-1,8,383,384,-1,8,384,88,-1,88,384,385,-1,88,385,89,-1,89,385,386,-1,89,386,90,-1,90,386,387,-1,90,387,54,-1,54,387,388,-1,54,388,55,-1,55,388,389,-1,55,389,110,-1,110,389,390,-1,110,390,74,-1,74,390,391,-1,74,391,75,-1,75,391,392,-1,75,392,76,-1,76,392,393,-1,76,393,65,-1,65,393,394,-1,65,394,78,-1,78,394,395,-1,78,395,56,-1,56,395,372,-1,385,384,396,-1,396,384,383,-1,396,383,382,-1,388,387,396,-1,396,387,386,-1,396,386,385,-1,391,390,396,-1,396,390,389,-1,396,389,388,-1,394,393,396,-1,396,393,392,-1,396,392,391,-1,373,372,396,-1,396,372,395,-1,396,395,394,-1,376,375,396,-1,396,375,374,-1,396,374,373,-1,379,378,396,-1,396,378,377,-1,396,377,376,-1,382,381,396,-1,396,381,380,-1,396,380,379,-1,397,398,229,-1,229,398,44,-1,229,44,43,-1,398,299,44,-1,44,299,45,-1,298,299,397,-1,397,299,398,-1,348,231,6,-1,6,231,7,-1,301,350,67,-1,67,350,66,-1,399,353,58,-1,58,353,77,-1,295,399,60,-1,60,399,58,-1,353,399,293,-1,293,399,295,-1,298,397,296,-1,296,397,229,-1,297,400,294,-1,294,400,401,-1,294,401,402,-1,403,401,233,-1,233,401,400,-1,233,400,230,-1,230,400,229,-1,229,400,297,-1,229,297,296,-1,228,236,233,-1,233,236,403,-1,351,292,402,-1,402,292,294,-1,156,404,157,-1,157,404,219,-1,158,161,156,-1,156,161,404,-1,405,406,407,-1,407,406,408,-1,409,410,411,-1,411,410,412,-1,410,405,412,-1,412,405,407,-1,410,409,405,-1,405,409,406,-1,413,414,286,-1,286,414,289,-1,414,415,289,-1,289,415,287,-1,416,413,285,-1,285,413,286,-1,416,415,413,-1,413,415,414,-1,417,418,419,-1,420,421,417,-1,417,419,420,-1,420,419,422,-1,420,422,423,-1,423,422,424,-1,423,424,425,-1,425,424,426,-1,425,426,427,-1,427,426,428,-1,427,428,429,-1,429,428,284,-1,429,284,291,-1,430,431,432,-1,430,432,433,-1,433,432,434,-1,433,434,435,-1,435,434,436,-1,435,436,437,-1,437,436,438,-1,437,438,439,-1,439,438,440,-1,439,440,441,-1,441,440,290,-1,441,290,288,-1,442,443,444,-1,445,446,442,-1,442,444,445,-1,445,444,447,-1,445,447,448,-1,448,447,449,-1,448,449,450,-1,450,449,451,-1,450,451,452,-1,452,451,453,-1,452,453,454,-1,454,453,455,-1,454,455,456,-1,457,458,459,-1,457,459,460,-1,460,459,461,-1,460,461,462,-1,462,461,463,-1,462,463,464,-1,464,463,465,-1,464,465,466,-1,466,465,467,-1,466,467,468,-1,468,467,469,-1,468,469,470,-1,471,472,473,-1,473,472,474,-1,475,476,471,-1,471,476,472,-1,477,478,475,-1,475,478,476,-1,478,477,479,-1,478,479,480,-1,480,479,481,-1,480,481,482,-1,482,481,483,-1,482,483,484,-1,484,483,485,-1,484,485,486,-1,486,485,487,-1,486,487,488,-1,488,487,489,-1,488,489,490,-1,490,489,491,-1,490,491,492,-1,492,491,493,-1,492,493,494,-1,494,493,495,-1,494,495,496,-1,496,495,497,-1,496,497,498,-1,498,497,499,-1,498,499,500,-1,500,499,501,-1,500,501,502,-1,502,501,503,-1,502,503,504,-1,504,503,505,-1,504,505,506,-1,506,505,507,-1,506,507,508,-1,509,510,507,-1,507,510,508,-1,510,509,511,-1,510,511,512,-1,512,511,513,-1,512,513,514,-1,514,513,515,-1,514,515,516,-1,516,515,517,-1,516,517,518,-1,519,520,517,-1,517,520,518,-1,520,519,521,-1,520,521,522,-1,522,521,523,-1,522,523,524,-1,524,523,525,-1,525,523,526,-1,525,526,527,-1,528,529,526,-1,526,529,527,-1,530,531,528,-1,528,531,532,-1,528,532,529,-1,533,534,530,-1,530,534,531,-1,534,533,535,-1,534,535,536,-1,536,535,537,-1,536,537,538,-1,539,540,537,-1,537,540,538,-1,540,539,541,-1,540,541,542,-1,542,541,543,-1,542,543,544,-1,544,543,545,-1,544,545,546,-1,546,545,547,-1,546,547,548,-1,548,547,549,-1,548,549,550,-1,550,549,551,-1,550,551,552,-1,552,551,553,-1,552,553,554,-1,554,553,555,-1,554,555,556,-1,556,555,557,-1,556,557,558,-1,559,560,557,-1,557,560,558,-1,561,562,559,-1,559,562,560,-1,562,561,563,-1,562,563,564,-1,564,563,565,-1,564,565,566,-1,566,565,567,-1,566,567,568,-1,568,567,569,-1,568,569,570,-1,570,569,571,-1,570,571,572,-1,572,571,573,-1,572,573,574,-1,574,573,575,-1,574,575,576,-1,576,575,577,-1,576,577,578,-1,578,577,579,-1,578,579,580,-1,580,579,581,-1,580,581,582,-1,582,581,583,-1,582,583,584,-1,584,583,585,-1,584,585,586,-1,586,585,587,-1,586,587,588,-1,588,587,589,-1,588,589,590,-1,590,589,591,-1,590,591,592,-1,592,591,593,-1,592,593,594,-1,595,596,593,-1,593,596,594,-1,597,598,595,-1,595,598,596,-1,597,473,598,-1,598,473,474,-1,599,526,600,-1,600,526,523,-1,477,475,505,-1,597,601,602,-1,543,541,595,-1,595,541,539,-1,602,603,597,-1,597,603,604,-1,597,604,473,-1,473,604,605,-1,521,471,523,-1,523,471,473,-1,523,473,600,-1,600,473,605,-1,539,537,595,-1,595,537,535,-1,595,535,597,-1,597,535,533,-1,597,533,601,-1,601,533,530,-1,601,530,599,-1,599,530,528,-1,599,528,526,-1,471,509,475,-1,475,509,507,-1,475,507,505,-1,565,563,593,-1,593,563,561,-1,593,561,595,-1,595,561,559,-1,559,557,595,-1,595,557,555,-1,595,555,543,-1,543,555,553,-1,543,553,545,-1,521,519,471,-1,471,519,517,-1,471,517,515,-1,503,481,505,-1,505,481,479,-1,505,479,477,-1,515,513,471,-1,471,513,511,-1,471,511,509,-1,551,549,553,-1,553,549,547,-1,553,547,545,-1,589,571,591,-1,591,571,569,-1,591,569,593,-1,593,569,567,-1,593,567,565,-1,589,587,571,-1,571,587,585,-1,571,585,573,-1,501,485,503,-1,503,485,483,-1,503,483,481,-1,501,499,485,-1,485,499,497,-1,485,497,495,-1,489,487,491,-1,491,487,485,-1,491,485,493,-1,493,485,495,-1,581,579,583,-1,583,579,577,-1,583,577,585,-1,585,577,575,-1,585,575,573,-1,600,606,599,-1,599,606,607,-1,606,600,605,-1,606,605,608,-1,608,605,604,-1,608,604,609,-1,609,604,603,-1,609,603,610,-1,602,611,603,-1,603,611,610,-1,601,612,602,-1,602,612,611,-1,607,612,599,-1,599,612,601,-1,613,614,615,-1,615,614,616,-1,614,613,617,-1,614,617,618,-1,618,617,619,-1,618,619,620,-1,620,619,621,-1,620,621,622,-1,622,621,623,-1,622,623,624,-1,624,623,625,-1,624,625,626,-1,626,625,627,-1,626,627,628,-1,628,627,629,-1,628,629,630,-1,630,629,631,-1,630,631,632,-1,632,631,633,-1,632,633,634,-1,635,636,633,-1,633,636,634,-1,637,638,635,-1,635,638,636,-1,638,637,639,-1,638,639,640,-1,640,639,641,-1,640,641,642,-1,643,644,641,-1,641,644,642,-1,645,646,643,-1,643,646,644,-1,646,645,647,-1,646,647,648,-1,648,647,649,-1,648,649,650,-1,650,649,651,-1,650,651,652,-1,652,651,653,-1,652,653,654,-1,654,653,655,-1,654,655,656,-1,656,655,657,-1,656,657,658,-1,658,657,659,-1,658,659,660,-1,660,659,661,-1,660,661,662,-1,662,661,663,-1,662,663,664,-1,664,663,665,-1,664,665,666,-1,666,665,667,-1,666,667,668,-1,668,667,669,-1,668,669,670,-1,670,669,671,-1,670,671,672,-1,672,671,673,-1,672,673,674,-1,674,673,675,-1,674,675,676,-1,676,675,677,-1,676,677,678,-1,678,677,679,-1,678,679,680,-1,680,679,681,-1,680,681,682,-1,683,684,681,-1,681,684,682,-1,684,683,685,-1,684,685,686,-1,686,685,687,-1,686,687,688,-1,688,687,689,-1,688,689,690,-1,690,689,691,-1,690,691,692,-1,692,691,693,-1,692,693,694,-1,694,693,695,-1,694,695,696,-1,696,695,697,-1,696,697,698,-1,698,697,699,-1,698,699,700,-1,700,699,701,-1,700,701,702,-1,703,704,701,-1,701,704,702,-1,704,703,705,-1,704,705,706,-1,706,705,707,-1,706,707,708,-1,708,707,709,-1,708,709,710,-1,710,709,711,-1,710,711,712,-1,712,711,713,-1,712,713,714,-1,714,713,715,-1,714,715,716,-1,716,715,717,-1,716,717,718,-1,718,717,719,-1,718,719,720,-1,720,719,721,-1,720,721,722,-1,722,721,723,-1,722,723,724,-1,724,723,725,-1,724,725,726,-1,726,725,727,-1,726,727,728,-1,728,727,729,-1,728,729,730,-1,730,729,731,-1,730,731,732,-1,733,734,731,-1,731,734,732,-1,735,736,733,-1,733,736,734,-1,737,738,735,-1,735,738,736,-1,738,737,739,-1,738,739,740,-1,740,739,615,-1,740,615,616,-1,709,707,731,-1,637,635,741,-1,635,633,613,-1,613,633,631,-1,613,631,617,-1,613,615,635,-1,635,615,739,-1,635,739,741,-1,741,739,737,-1,741,737,742,-1,743,744,699,-1,699,744,745,-1,699,745,746,-1,707,705,731,-1,731,705,703,-1,731,703,733,-1,733,703,701,-1,733,701,735,-1,735,701,699,-1,699,697,743,-1,743,697,685,-1,743,685,747,-1,737,735,742,-1,742,735,699,-1,742,699,748,-1,748,699,746,-1,749,750,645,-1,645,750,647,-1,647,750,751,-1,647,751,649,-1,725,723,721,-1,645,643,749,-1,749,643,641,-1,749,641,741,-1,741,641,639,-1,741,639,637,-1,649,751,651,-1,651,751,752,-1,651,752,653,-1,731,717,715,-1,629,621,631,-1,631,621,619,-1,631,619,617,-1,629,627,621,-1,621,627,625,-1,621,625,623,-1,753,754,669,-1,717,731,719,-1,719,731,729,-1,719,729,721,-1,721,729,727,-1,721,727,725,-1,715,713,731,-1,731,713,711,-1,731,711,709,-1,693,691,695,-1,695,691,689,-1,695,689,697,-1,697,689,687,-1,697,687,685,-1,669,754,671,-1,747,673,755,-1,755,673,671,-1,755,671,756,-1,756,671,754,-1,685,683,747,-1,747,683,681,-1,747,681,679,-1,653,752,655,-1,655,752,757,-1,655,757,657,-1,657,757,758,-1,657,758,659,-1,659,758,759,-1,659,759,661,-1,679,677,747,-1,747,677,675,-1,747,675,673,-1,759,760,661,-1,661,760,761,-1,661,761,663,-1,663,761,762,-1,663,762,665,-1,665,762,753,-1,665,753,667,-1,667,753,669,-1,745,763,746,-1,746,763,764,-1,763,745,744,-1,763,744,765,-1,765,744,743,-1,765,743,766,-1,766,743,747,-1,766,747,767,-1,767,747,755,-1,767,755,768,-1,768,755,756,-1,768,756,769,-1,769,756,754,-1,769,754,770,-1,770,754,753,-1,770,753,771,-1,771,753,762,-1,771,762,772,-1,
        ]
    }
}
Shape{
    appearance Appearance {
        material  Material 	{
            diffuseColor 0.6470588235294118 0.6196078431372549 0.5882352941176471
            specularColor 0.45098039215686275 0.43529411764705883 0.4117647058823529
            ambientIntensity 0.2
            transparency 0
            shininess 0.5
        }
    }
    geometry IndexedFaceSet {
        ccw TRUE
        solid FALSE
        coord DEF co Coordinate {
            point [
                -1.237 -0.6597 0.0, -1.237 -0.6597 0.0039, -1.2437 -0.7367 0.0039, -1.2437 -0.7367 0.0, -1.2486 -0.7537 0.0039, -1.2486 -0.7537 0.0, -1.2549 -0.7658 0.0039, -1.2549 -0.7658 0.0, -1.2617 -0.774 0.0039, -1.2617 -0.774 0.0, -1.2684 -0.7789 0.0039, -1.2684 -0.7789 0.0, -1.2793 -0.7831 0.0039, -1.2793 -0.7831 0.0, -1.2943 -0.786 0.0039, -1.2943 -0.786 0.0, -1.2943 -0.786 0.0
            ]
        }
        coordIndex [
            0,1,2,-1,0,2,3,-1,3,2,4,-1,3,4,5,-1,5,4,6,-1,5,6,7,-1,7,6,8,-1,7,8,9,-1,9,8,10,-1,9,10,11,-1,11,10,12,-1,11,12,13,-1,13,12,14,-1,13,14,15,-1,
        ]
    }
}
Shape{
    appearance Appearance {
        material  Material 	{
            diffuseColor 0.24705882352941178 0.49411764705882355 0.27450980392156865
            specularColor 0.01568627450980392 0.03529411764705882 0.0196078431372549
            ambientIntensity 0.2
            transparency 0
            shininess 0.5
        }
    }
    geometry IndexedFaceSet {
        ccw TRUE
        solid FALSE
        coord DEF co Coordinate {
            point [
                -1.2943 -0.786 0.0, -1.2943 -0.786 0.0039, -1.3189 -0.7842 0.0039, -1.3189 -0.7842 0.0, -1.343 -0.7786 0.0039, -1.343 -0.7786 0.0, -1.3537 -0.7741 0.0039, -1.3537 -0.7741 0.0, -1.3537 -0.4745 0.0039, -1.3537 -0.4745 0.0, -1.345 -0.4742 0.0039, -1.345 -0.4742 0.0, -1.3362 -0.4745 0.0039, -1.3362 -0.4745 0.0, -1.5096 -0.6529 0.0039, -1.5096 -0.6529 0.0, -1.5572 -0.6467 0.0039, -1.5572 -0.6467 0.0, -1.49 -0.6569 0.0039, -1.49 -0.6569 0.0, -1.4774 -0.6613 0.0039, -1.4774 -0.6613 0.0, -1.4717 -0.6648 0.0039, -1.4717 -0.6648 0.0, -1.4666 -0.6677 0.0039, -1.4666 -0.6677 0.0, -1.4501 -0.6512 0.0039, -1.4501 -0.6512 0.0, -1.449 -0.6497 0.0039, -1.449 -0.6497 0.0, -1.4482 -0.6484 0.0039, -1.4482 -0.6484 0.0, -1.4478 -0.6472 0.0039, -1.4478 -0.6472 0.0, -1.4476 -0.6463 0.0039, -1.4476 -0.6463 0.0, -1.4477 -0.6455 0.0039, -1.4477 -0.6455 0.0, -1.448 -0.6445 0.0039, -1.448 -0.6445 0.0, -1.4487 -0.6434 0.0039, -1.4487 -0.6434 0.0, -1.4495 -0.6426 0.0039, -1.4495 -0.6426 0.0, -1.4505 -0.642 0.0039, -1.4505 -0.642 0.0, -1.4516 -0.6417 0.0039, -1.4516 -0.6417 0.0, -1.453 -0.6416 0.0039, -1.453 -0.6416 0.0, -1.5572 -0.6269 0.0039, -1.5572 -0.6269 0.0, -1.5572 -0.4735 0.0039, -1.5572 -0.4735 0.0, -1.4728 -0.4853 0.0039, -1.4728 -0.4853 0.0, -1.4646 -0.4874 0.0039, -1.4646 -0.4874 0.0, -1.4569 -0.491 0.0039, -1.4569 -0.491 0.0, -1.4519 -0.4938 0.0039, -1.4519 -0.4938 0.0, -1.436 -0.4762 0.0039, -1.436 -0.4762 0.0, -1.4343 -0.4738 0.0039, -1.4343 -0.4738 0.0, -1.4338 -0.4725 0.0039, -1.4338 -0.4725 0.0, -1.4336 -0.4716 0.0039, -1.4336 -0.4716 0.0, -1.4337 -0.4708 0.0039, -1.4337 -0.4708 0.0, -1.434 -0.4698 0.0039, -1.434 -0.4698 0.0, -1.4346 -0.4688 0.0039, -1.4346 -0.4688 0.0, -1.435 -0.4682 0.0039, -1.435 -0.4682 0.0, -1.4354 -0.4679 0.0039, -1.4354 -0.4679 0.0, -1.436 -0.4676 0.0039, -1.436 -0.4676 0.0, -1.4361 -0.4676 0.0039, -1.4361 -0.4676 0.0, -1.4376 -0.4673 0.0039, -1.4376 -0.4673 0.0, -1.4394 -0.4672 0.0039, -1.4394 -0.4672 0.0, -1.4479 -0.4667 0.0039, -1.4479 -0.4667 0.0, -1.4907 -0.4614 0.0039, -1.4907 -0.4614 0.0, -1.5334 -0.4547 0.0039, -1.5334 -0.4547 0.0, -1.5594 -0.4502 0.0039, -1.5594 -0.4502 0.0, -1.5594 -0.4502 0.0
            ]
        }
        coordIndex [
            0,1,2,-1,0,2,3,-1,3,2,4,-1,3,4,5,-1,6,7,4,-1,4,7,5,-1,8,9,6,-1,6,9,7,-1,9,8,10,-1,9,10,11,-1,11,10,12,-1,11,12,13,-1,14,15,16,-1,16,15,17,-1,15,14,18,-1,15,18,19,-1,19,18,20,-1,19,20,21,-1,21,20,22,-1,21,22,23,-1,24,25,22,-1,22,25,23,-1,26,27,24,-1,24,27,25,-1,27,26,28,-1,27,28,29,-1,29,28,30,-1,29,30,31,-1,31,30,32,-1,31,32,33,-1,33,32,34,-1,33,34,35,-1,35,34,36,-1,35,36,37,-1,37,36,38,-1,37,38,39,-1,39,38,40,-1,39,40,41,-1,41,40,42,-1,41,42,43,-1,43,42,44,-1,43,44,45,-1,45,44,46,-1,45,46,47,-1,47,46,48,-1,47,48,49,-1,50,51,48,-1,48,51,49,-1,52,53,50,-1,50,53,51,-1,54,55,52,-1,52,55,53,-1,55,54,56,-1,55,56,57,-1,57,56,58,-1,57,58,59,-1,60,61,58,-1,58,61,59,-1,62,63,60,-1,60,63,61,-1,63,62,64,-1,63,64,65,-1,65,64,66,-1,65,66,67,-1,67,66,68,-1,67,68,69,-1,69,68,70,-1,69,70,71,-1,71,70,72,-1,71,72,73,-1,73,72,74,-1,73,74,75,-1,75,74,76,-1,75,76,77,-1,77,76,78,-1,77,78,79,-1,79,78,80,-1,79,80,81,-1,81,80,82,-1,81,82,83,-1,83,82,84,-1,83,84,85,-1,85,84,86,-1,85,86,87,-1,88,89,86,-1,86,89,87,-1,89,88,90,-1,89,90,91,-1,91,90,92,-1,91,92,93,-1,94,95,92,-1,92,95,93,-1,
        ]
    }
}
Shape{
    appearance Appearance {
        material  Material 	{
            diffuseColor 0.6470588235294118 0.6196078431372549 0.5882352941176471
            specularColor 0.45098039215686275 0.43529411764705883 0.4117647058823529
            ambientIntensity 0.2
            transparency 0
            shininess 0.5
        }
    }
    geometry IndexedFaceSet {
        ccw TRUE
        solid FALSE
        coord DEF co Coordinate {
            point [
                -1.5594 -0.4502 0.0, -1.5594 -0.4502 0.0039, -1.5657 -0.4479 0.0039, -1.5657 -0.4479 0.0, -1.5697 -0.4469 0.0039, -1.5697 -0.4469 0.0, -1.5726 -0.4468 0.0039, -1.5726 -0.4468 0.0, -1.5741 -0.4471 0.0039, -1.5741 -0.4471 0.0, -1.5754 -0.4476 0.0039, -1.5754 -0.4476 0.0, -1.5768 -0.4487 0.0039, -1.5768 -0.4487 0.0, -1.578 -0.4502 0.0039, -1.578 -0.4502 0.0, -1.5786 -0.4514 0.0039, -1.5786 -0.4514 0.0, -1.579 -0.4537 0.0039, -1.579 -0.4537 0.0, -1.5789 -0.4569 0.0039, -1.5789 -0.4569 0.0, -1.5787 -0.4581 0.0039, -1.5787 -0.4581 0.0, -1.5787 -0.4581 0.0
            ]
        }
        coordIndex [
            0,1,2,-1,0,2,3,-1,3,2,4,-1,3,4,5,-1,5,4,6,-1,5,6,7,-1,7,6,8,-1,7,8,9,-1,9,8,10,-1,9,10,11,-1,11,10,12,-1,11,12,13,-1,13,12,14,-1,13,14,15,-1,15,14,16,-1,15,16,17,-1,17,16,18,-1,17,18,19,-1,19,18,20,-1,19,20,21,-1,21,20,22,-1,21,22,23,-1,
        ]
    }
}
Shape{
    appearance Appearance {
        material  Material 	{
            diffuseColor 0.24705882352941178 0.49411764705882355 0.27450980392156865
            specularColor 0.01568627450980392 0.03529411764705882 0.0196078431372549
            ambientIntensity 0.2
            transparency 0
            shininess 0.5
        }
    }
    geometry IndexedFaceSet {
        ccw TRUE
        solid FALSE
        coord DEF co Coordinate {
            point [
                -1.5787 -0.4581 0.0, -1.5787 -0.4581 0.0039, -1.5751 -0.4724 0.0039, -1.5751 -0.4724 0.0, -1.5736 -0.487 0.0039, -1.5736 -0.487 0.0, -1.5736 -0.4978 0.0039, -1.5736 -0.4978 0.0, -1.5733 -0.5049 0.0039, -1.5733 -0.5049 0.0, -1.573 -0.512 0.0039, -1.573 -0.512 0.0, -1.5736 -0.7713 0.0039, -1.5736 -0.7713 0.0, -1.58 -0.7788 0.0039, -1.58 -0.7788 0.0, -1.5838 -0.7835 0.0039, -1.5838 -0.7835 0.0, -1.5861 -0.7868 0.0039, -1.5861 -0.7868 0.0, -1.587 -0.7888 0.0039, -1.587 -0.7888 0.0, -1.5875 -0.7915 0.0039, -1.5875 -0.7915 0.0, -1.5876 -0.7932 0.0039, -1.5876 -0.7932 0.0, -1.5876 -0.7945 0.0039, -1.5876 -0.7945 0.0, -1.5875 -0.795 0.0039, -1.5875 -0.795 0.0, -1.5873 -0.7954 0.0039, -1.5873 -0.7954 0.0, -1.5871 -0.7957 0.0039, -1.5871 -0.7957 0.0, -1.5869 -0.7959 0.0039, -1.5869 -0.7959 0.0, -1.5866 -0.796 0.0039, -1.5866 -0.796 0.0, -1.5858 -0.7962 0.0039, -1.5858 -0.7962 0.0, -1.5843 -0.7963 0.0039, -1.5843 -0.7963 0.0, -1.5827 -0.7962 0.0039, -1.5827 -0.7962 0.0, -1.5719 -0.7945 0.0039, -1.5719 -0.7945 0.0, -1.5623 -0.7933 0.0039, -1.5623 -0.7933 0.0, -1.5526 -0.7933 0.0039, -1.5526 -0.7933 0.0, -1.551 -0.7933 0.0039, -1.551 -0.7933 0.0, -1.5399 -0.7936 0.0039, -1.5399 -0.7936 0.0, -1.5289 -0.7951 0.0039, -1.5289 -0.7951 0.0, -1.5067 -0.799 0.0039, -1.5067 -0.799 0.0, -1.4872 -0.803 0.0039, -1.4872 -0.803 0.0, -1.4718 -0.8086 0.0039, -1.4718 -0.8086 0.0, -1.4688 -0.8104 0.0039, -1.4688 -0.8104 0.0, -1.4637 -0.8137 0.0039, -1.4637 -0.8137 0.0, -1.4474 -0.7968 0.0039, -1.4474 -0.7968 0.0, -1.4463 -0.7949 0.0039, -1.4463 -0.7949 0.0, -1.4456 -0.7935 0.0039, -1.4456 -0.7935 0.0, -1.4452 -0.7925 0.0039, -1.4452 -0.7925 0.0, -1.4451 -0.7917 0.0039, -1.4451 -0.7917 0.0, -1.4452 -0.7909 0.0039, -1.4452 -0.7909 0.0, -1.4454 -0.7901 0.0039, -1.4454 -0.7901 0.0, -1.4459 -0.7895 0.0039, -1.4459 -0.7895 0.0, -1.4467 -0.7887 0.0039, -1.4467 -0.7887 0.0, -1.4477 -0.7881 0.0039, -1.4477 -0.7881 0.0, -1.4488 -0.7878 0.0039, -1.4488 -0.7878 0.0, -1.4501 -0.7877 0.0039, -1.4501 -0.7877 0.0, -1.4592 -0.7865 0.0039, -1.4592 -0.7865 0.0, -1.4725 -0.7848 0.0039, -1.4725 -0.7848 0.0, -1.4859 -0.7832 0.0039, -1.4859 -0.7832 0.0, -1.5572 -0.7713 0.0039, -1.5572 -0.7713 0.0, -1.5572 -0.6467 0.0039, -1.5572 -0.6467 0.0, -1.5697 -0.4469 0.0039, -1.5657 -0.4479 0.0039, -1.5572 -0.4735 0.0039, -1.4569 -0.491 0.0039, -1.4646 -0.4874 0.0039, -1.4479 -0.4667 0.0039, -1.4728 -0.4853 0.0039, -1.4717 -0.6648 0.0039, -1.4774 -0.6613 0.0039, -1.453 -0.6416 0.0039, -1.5594 -0.4502 0.0039, -1.5334 -0.4547 0.0039, -1.4907 -0.4614 0.0039, -1.5789 -0.4569 0.0039, -1.579 -0.4537 0.0039, -1.5572 -0.6269 0.0039, -1.5096 -0.6529 0.0039, -1.49 -0.6569 0.0039, -1.4519 -0.4938 0.0039, -1.4394 -0.4672 0.0039, -1.436 -0.4762 0.0039, -1.4376 -0.4673 0.0039, -1.4361 -0.4676 0.0039, -1.5768 -0.4487 0.0039, -1.5754 -0.4476 0.0039, -1.5786 -0.4514 0.0039, -1.578 -0.4502 0.0039, -1.4478 -0.6472 0.0039, -1.4482 -0.6484 0.0039, -1.4516 -0.6417 0.0039, -1.4666 -0.6677 0.0039, -1.4501 -0.6512 0.0039, -1.449 -0.6497 0.0039, -1.436 -0.4676 0.0039, -1.4354 -0.4679 0.0039, -1.435 -0.4682 0.0039, -1.5741 -0.4471 0.0039, -1.5726 -0.4468 0.0039, -1.4338 -0.4725 0.0039, -1.434 -0.4698 0.0039, -1.4336 -0.4716 0.0039, -1.4337 -0.4708 0.0039, -1.4346 -0.4688 0.0039, -1.4343 -0.4738 0.0039, -1.448 -0.6445 0.0039, -1.4477 -0.6455 0.0039, -1.4476 -0.6463 0.0039, -1.4505 -0.642 0.0039, -1.4495 -0.6426 0.0039, -1.4487 -0.6434 0.0039, -1.6434 -0.8052 0.0039, -1.6434 -0.8052 0.0, -1.6519 -0.8052 0.0039, -1.6519 -0.8052 0.0, -1.6434 -0.6541 0.0039, -1.6434 -0.6541 0.0, -1.6541 -0.6541 0.0039, -1.6541 -0.6541 0.0, -1.6589 -0.7338 0.0039, -1.6589 -0.7338 0.0, -1.6659 -0.7595 0.0039, -1.6659 -0.7595 0.0, -1.673 -0.7734 0.0039, -1.673 -0.7734 0.0, -1.6799 -0.7817 0.0039, -1.6799 -0.7817 0.0, -1.6874 -0.7874 0.0039, -1.6874 -0.7874 0.0, -1.6954 -0.7909 0.0039, -1.6954 -0.7909 0.0, -1.704 -0.7928 0.0039, -1.704 -0.7928 0.0, -1.7158 -0.7921 0.0039, -1.7158 -0.7921 0.0, -1.7259 -0.7887 0.0039, -1.7259 -0.7887 0.0, -1.7355 -0.7827 0.0039, -1.7355 -0.7827 0.0, -1.7446 -0.7738 0.0039, -1.7446 -0.7738 0.0, -1.7544 -0.7585 0.0039, -1.7544 -0.7585 0.0, -1.7676 -0.7204 0.0039, -1.7676 -0.7204 0.0, -1.7727 -0.6908 0.0039, -1.7727 -0.6908 0.0, -1.7748 -0.6008 0.0039, -1.7748 -0.6008 0.0, -1.7608 -0.5199 0.0039, -1.7608 -0.5199 0.0, -1.7522 -0.4968 0.0039, -1.7522 -0.4968 0.0, -1.7393 -0.4786 0.0039, -1.7393 -0.4786 0.0, -1.7311 -0.4711 0.0039, -1.7311 -0.4711 0.0, -1.7239 -0.4668 0.0039, -1.7239 -0.4668 0.0, -1.7164 -0.4646 0.0039, -1.7164 -0.4646 0.0, -1.7085 -0.4638 0.0039, -1.7085 -0.4638 0.0, -1.6958 -0.4648 0.0039, -1.6958 -0.4648 0.0, -1.6833 -0.4694 0.0039, -1.6833 -0.4694 0.0, -1.6732 -0.4765 0.0039, -1.6732 -0.4765 0.0, -1.6648 -0.4861 0.0039, -1.6648 -0.4861 0.0, -1.6574 -0.5008 0.0039, -1.6574 -0.5008 0.0, -1.6493 -0.5382 0.0039, -1.6493 -0.5382 0.0, -1.6468 -0.555 0.0039, -1.6468 -0.555 0.0, -1.644 -0.5849 0.0039, -1.644 -0.5849 0.0, -1.6349 -0.5844 0.0039, -1.6349 -0.5844 0.0, -1.6391 -0.5178 0.0039, -1.6391 -0.5178 0.0, -1.6455 -0.4921 0.0039, -1.6455 -0.4921 0.0, -1.6554 -0.472 0.0039, -1.6554 -0.472 0.0, -1.6628 -0.4625 0.0039, -1.6628 -0.4625 0.0, -1.6737 -0.4537 0.0039, -1.6737 -0.4537 0.0, -1.6873 -0.4474 0.0039, -1.6873 -0.4474 0.0, -1.7006 -0.4451 0.0039, -1.7006 -0.4451 0.0, -1.7151 -0.4456 0.0039, -1.7151 -0.4456 0.0, -1.7301 -0.4503 0.0039, -1.7301 -0.4503 0.0, -1.7432 -0.4579 0.0039, -1.7432 -0.4579 0.0, -1.7526 -0.4676 0.0039, -1.7526 -0.4676 0.0, -1.7656 -0.4887 0.0039, -1.7656 -0.4887 0.0, -1.7814 -0.5361 0.0039, -1.7814 -0.5361 0.0, -1.7876 -0.5745 0.0039, -1.7876 -0.5745 0.0, -1.7903 -0.6644 0.0039, -1.7903 -0.6644 0.0, -1.7878 -0.6886 0.0039, -1.7878 -0.6886 0.0, -1.7741 -0.75 0.0039, -1.7741 -0.75 0.0, -1.7621 -0.777 0.0039, -1.7621 -0.777 0.0, -1.7506 -0.792 0.0039, -1.7506 -0.792 0.0, -1.733 -0.8056 0.0039, -1.733 -0.8056 0.0, -1.7246 -0.8097 0.0039, -1.7246 -0.8097 0.0, -1.7165 -0.8114 0.0039, -1.7165 -0.8114 0.0, -1.7085 -0.8114 0.0039, -1.7085 -0.8114 0.0, -1.6919 -0.8071 0.0039, -1.6919 -0.8071 0.0, -1.6788 -0.7999 0.0039, -1.6788 -0.7999 0.0, -1.6675 -0.7897 0.0039, -1.6675 -0.7897 0.0, -1.6609 -0.7809 0.0039, -1.6609 -0.7809 0.0, -1.6559 -0.7719 0.0039, -1.6559 -0.7719 0.0, -1.6559 -0.7719 0.0
            ]
        }
        coordIndex [
            0,1,2,-1,0,2,3,-1,3,2,4,-1,3,4,5,-1,6,7,4,-1,4,7,5,-1,7,6,8,-1,7,8,9,-1,9,8,10,-1,9,10,11,-1,12,13,10,-1,10,13,11,-1,13,12,14,-1,13,14,15,-1,15,14,16,-1,15,16,17,-1,17,16,18,-1,17,18,19,-1,19,18,20,-1,19,20,21,-1,21,20,22,-1,21,22,23,-1,23,22,24,-1,23,24,25,-1,25,24,26,-1,25,26,27,-1,27,26,28,-1,27,28,29,-1,29,28,30,-1,29,30,31,-1,31,30,32,-1,31,32,33,-1,33,32,34,-1,33,34,35,-1,35,34,36,-1,35,36,37,-1,37,36,38,-1,37,38,39,-1,39,38,40,-1,39,40,41,-1,41,40,42,-1,41,42,43,-1,44,45,42,-1,42,45,43,-1,45,44,46,-1,45,46,47,-1,47,46,48,-1,47,48,49,-1,50,51,48,-1,48,51,49,-1,51,50,52,-1,51,52,53,-1,53,52,54,-1,53,54,55,-1,56,57,54,-1,54,57,55,-1,57,56,58,-1,57,58,59,-1,59,58,60,-1,59,60,61,-1,61,60,62,-1,61,62,63,-1,64,65,62,-1,62,65,63,-1,66,67,64,-1,64,67,65,-1,67,66,68,-1,67,68,69,-1,69,68,70,-1,69,70,71,-1,71,70,72,-1,71,72,73,-1,73,72,74,-1,73,74,75,-1,75,74,76,-1,75,76,77,-1,77,76,78,-1,77,78,79,-1,79,78,80,-1,79,80,81,-1,81,80,82,-1,81,82,83,-1,83,82,84,-1,83,84,85,-1,85,84,86,-1,85,86,87,-1,87,86,88,-1,87,88,89,-1,90,91,88,-1,88,91,89,-1,91,90,92,-1,91,92,93,-1,93,92,94,-1,93,94,95,-1,96,97,94,-1,94,97,95,-1,96,98,97,-1,97,98,99,-1,100,101,102,-1,103,104,105,-1,105,104,106,-1,107,108,109,-1,101,110,102,-1,102,110,111,-1,102,111,106,-1,106,111,112,-1,106,112,105,-1,10,8,102,-1,8,6,102,-1,102,6,4,-1,102,4,2,-1,2,1,102,-1,102,1,113,-1,102,113,114,-1,98,115,116,-1,116,115,109,-1,116,109,117,-1,117,109,108,-1,103,105,118,-1,118,105,119,-1,118,119,120,-1,120,119,121,-1,120,121,122,-1,102,123,124,-1,16,14,96,-1,96,14,12,-1,96,12,98,-1,98,12,10,-1,98,10,115,-1,115,10,102,-1,114,125,102,-1,102,125,126,-1,102,126,123,-1,127,128,129,-1,129,128,109,-1,130,107,131,-1,131,107,109,-1,131,109,132,-1,132,109,128,-1,28,26,96,-1,96,26,24,-1,96,24,22,-1,122,133,120,-1,120,133,134,-1,120,134,135,-1,124,136,102,-1,102,136,137,-1,102,137,100,-1,74,72,86,-1,86,72,70,-1,86,70,88,-1,88,70,68,-1,88,68,66,-1,52,50,96,-1,96,50,48,-1,96,48,46,-1,46,44,96,-1,96,44,42,-1,96,42,40,-1,138,139,140,-1,140,139,141,-1,135,142,120,-1,120,142,139,-1,120,139,143,-1,143,139,138,-1,34,32,96,-1,96,32,30,-1,96,30,28,-1,22,20,96,-1,96,20,18,-1,96,18,16,-1,66,64,88,-1,88,64,62,-1,88,62,90,-1,90,62,60,-1,90,60,92,-1,92,60,58,-1,92,58,94,-1,94,58,56,-1,94,56,96,-1,96,56,54,-1,96,54,52,-1,40,38,96,-1,96,38,36,-1,96,36,34,-1,144,145,129,-1,129,145,146,-1,129,146,127,-1,80,86,82,-1,82,86,84,-1,80,78,86,-1,86,78,76,-1,86,76,74,-1,147,148,129,-1,129,148,149,-1,129,149,144,-1,150,151,152,-1,152,151,153,-1,154,155,150,-1,150,155,151,-1,156,157,154,-1,154,157,155,-1,157,156,158,-1,157,158,159,-1,159,158,160,-1,159,160,161,-1,161,160,162,-1,161,162,163,-1,163,162,164,-1,163,164,165,-1,165,164,166,-1,165,166,167,-1,167,166,168,-1,167,168,169,-1,169,168,170,-1,169,170,171,-1,171,170,172,-1,171,172,173,-1,173,172,174,-1,173,174,175,-1,175,174,176,-1,175,176,177,-1,177,176,178,-1,177,178,179,-1,179,178,180,-1,179,180,181,-1,181,180,182,-1,181,182,183,-1,183,182,184,-1,183,184,185,-1,185,184,186,-1,185,186,187,-1,187,186,188,-1,187,188,189,-1,189,188,190,-1,189,190,191,-1,191,190,192,-1,191,192,193,-1,193,192,194,-1,193,194,195,-1,195,194,196,-1,195,196,197,-1,197,196,198,-1,197,198,199,-1,199,198,200,-1,199,200,201,-1,201,200,202,-1,201,202,203,-1,203,202,204,-1,203,204,205,-1,205,204,206,-1,205,206,207,-1,207,206,208,-1,207,208,209,-1,209,208,210,-1,209,210,211,-1,211,210,212,-1,211,212,213,-1,213,212,214,-1,213,214,215,-1,216,217,214,-1,214,217,215,-1,218,219,216,-1,216,219,217,-1,219,218,220,-1,219,220,221,-1,221,220,222,-1,221,222,223,-1,223,222,224,-1,223,224,225,-1,225,224,226,-1,225,226,227,-1,227,226,228,-1,227,228,229,-1,229,228,230,-1,229,230,231,-1,231,230,232,-1,231,232,233,-1,233,232,234,-1,233,234,235,-1,235,234,236,-1,235,236,237,-1,237,236,238,-1,237,238,239,-1,239,238,240,-1,239,240,241,-1,241,240,242,-1,241,242,243,-1,243,242,244,-1,243,244,245,-1,245,244,246,-1,245,246,247,-1,247,246,248,-1,247,248,249,-1,249,248,250,-1,249,250,251,-1,251,250,252,-1,251,252,253,-1,253,252,254,-1,253,254,255,-1,255,254,256,-1,255,256,257,-1,257,256,258,-1,257,258,259,-1,259,258,260,-1,259,260,261,-1,261,260,262,-1,261,262,263,-1,263,262,264,-1,263,264,265,-1,265,264,266,-1,265,266,267,-1,267,266,268,-1,267,268,269,-1,269,268,270,-1,269,270,271,-1,271,270,272,-1,271,272,273,-1,274,275,272,-1,272,275,273,-1,274,152,275,-1,275,152,153,-1,
        ]
    }
}
Shape{
    appearance Appearance {
        material  Material 	{
            diffuseColor 0.6470588235294118 0.6196078431372549 0.5882352941176471
            specularColor 0.45098039215686275 0.43529411764705883 0.4117647058823529
            ambientIntensity 0.2
            transparency 0
            shininess 0.5
        }
    }
    geometry IndexedFaceSet {
        ccw TRUE
        solid FALSE
        coord DEF co Coordinate {
            point [
                -1.6434 -0.6541 0.0039, -1.6434 -0.8052 0.0039, -1.6559 -0.7719 0.0039, -1.6519 -0.8052 0.0039, -1.6609 -0.7809 0.0039, -1.6874 -0.7874 0.0039, -1.6799 -0.7817 0.0039, -1.673 -0.7734 0.0039, -1.6541 -0.6541 0.0039, -1.6589 -0.7338 0.0039, -1.6659 -0.7595 0.0039, -1.6675 -0.7897 0.0039, -1.6788 -0.7999 0.0039, -1.6954 -0.7909 0.0039, -1.6919 -0.8071 0.0039, -1.704 -0.7928 0.0039, -1.7085 -0.8114 0.0039, -1.7158 -0.7921 0.0039, -1.7727 -0.6908 0.0039, -1.7676 -0.7204 0.0039, -1.7741 -0.75 0.0039, -1.7621 -0.777 0.0039, -1.7165 -0.8114 0.0039, -1.7246 -0.8097 0.0039, -1.7259 -0.7887 0.0039, -1.733 -0.8056 0.0039, -1.7355 -0.7827 0.0039, -1.7506 -0.792 0.0039, -1.7446 -0.7738 0.0039, -1.7544 -0.7585 0.0039, -1.7878 -0.6886 0.0039, -1.7903 -0.6644 0.0039, -1.7748 -0.6008 0.0039, -1.7876 -0.5745 0.0039, -1.7608 -0.5199 0.0039, -1.7814 -0.5361 0.0039, -1.7522 -0.4968 0.0039, -1.7656 -0.4887 0.0039, -1.7393 -0.4786 0.0039, -1.7526 -0.4676 0.0039, -1.7311 -0.4711 0.0039, -1.7432 -0.4579 0.0039, -1.7239 -0.4668 0.0039, -1.7301 -0.4503 0.0039, -1.7164 -0.4646 0.0039, -1.7151 -0.4456 0.0039, -1.7085 -0.4638 0.0039, -1.7006 -0.4451 0.0039, -1.6958 -0.4648 0.0039, -1.6873 -0.4474 0.0039, -1.6833 -0.4694 0.0039, -1.6737 -0.4537 0.0039, -1.6732 -0.4765 0.0039, -1.6628 -0.4625 0.0039, -1.6648 -0.4861 0.0039, -1.6554 -0.472 0.0039, -1.6574 -0.5008 0.0039, -1.6455 -0.4921 0.0039, -1.6493 -0.5382 0.0039, -1.6391 -0.5178 0.0039, -1.6468 -0.555 0.0039, -1.6349 -0.5844 0.0039, -1.644 -0.5849 0.0039, -1.644 -0.5849 0.0039
            ]
        }
        coordIndex [
            0,1,2,-1,2,1,3,-1,4,5,2,-1,2,5,6,-1,2,6,7,-1,8,0,9,-1,9,0,2,-1,9,2,10,-1,10,2,7,-1,4,11,5,-1,5,11,12,-1,5,12,13,-1,13,12,14,-1,13,14,15,-1,15,14,16,-1,15,16,17,-1,18,19,20,-1,20,19,21,-1,16,22,17,-1,17,22,23,-1,17,23,24,-1,24,23,25,-1,24,25,26,-1,26,25,27,-1,26,27,28,-1,28,27,21,-1,28,21,29,-1,29,21,19,-1,20,30,18,-1,18,30,31,-1,18,31,32,-1,32,31,33,-1,32,33,34,-1,34,33,35,-1,34,35,36,-1,36,35,37,-1,36,37,38,-1,38,37,39,-1,38,39,40,-1,40,39,41,-1,40,41,42,-1,42,41,43,-1,42,43,44,-1,44,43,45,-1,44,45,46,-1,46,45,47,-1,46,47,48,-1,48,47,49,-1,48,49,50,-1,50,49,51,-1,50,51,52,-1,52,51,53,-1,52,53,54,-1,54,53,55,-1,54,55,56,-1,56,55,57,-1,56,57,58,-1,58,57,59,-1,58,59,60,-1,60,59,61,-1,60,61,62,-1,
        ]
    }
}
Shape{
    appearance Appearance {
        material  Material 	{
            diffuseColor 0.24705882352941178 0.49411764705882355 0.27450980392156865
            specularColor 0.01568627450980392 0.03529411764705882 0.0196078431372549
            ambientIntensity 0.2
            transparency 0
            shininess 0.5
        }
    }
    geometry IndexedFaceSet {
        ccw TRUE
        solid FALSE
        coord DEF co Coordinate {
            point [
                -1.9571 -0.8262 0.0, -1.9571 -0.8262 0.0039, -1.9489 -0.816 0.0, -1.9322 -0.7951 0.0039, -1.9322 -0.7951 0.0, -1.938 -0.7827 0.0039, -1.938 -0.7827 0.0, -1.9405 -0.7666 0.0039, -1.9405 -0.7666 0.0, -1.9406 -0.7594 0.0039, -1.9406 -0.7594 0.0, -1.9406 -0.4706 0.0039, -1.9406 -0.4706 0.0, -1.897 -0.4743 0.0039, -1.897 -0.4743 0.0, -1.8763 -0.4774 0.0039, -1.8763 -0.4774 0.0, -1.8693 -0.479 0.0039, -1.8693 -0.479 0.0, -1.8652 -0.481 0.0039, -1.8652 -0.481 0.0, -1.86 -0.4855 0.0039, -1.86 -0.4855 0.0, -1.8582 -0.4867 0.0039, -1.8582 -0.4867 0.0, -1.8563 -0.4875 0.0039, -1.8563 -0.4875 0.0, -1.8431 -0.4759 0.0039, -1.8431 -0.4759 0.0, -1.8369 -0.4702 0.0039, -1.8369 -0.4702 0.0, -1.8348 -0.4679 0.0039, -1.8348 -0.4679 0.0, -1.8338 -0.4661 0.0039, -1.8338 -0.4661 0.0, -1.8333 -0.4642 0.0039, -1.8333 -0.4642 0.0, -1.8331 -0.4621 0.0039, -1.8331 -0.4621 0.0, -1.8337 -0.4609 0.0039, -1.8337 -0.4609 0.0, -1.8342 -0.4603 0.0039, -1.8342 -0.4603 0.0, -1.835 -0.4598 0.0039, -1.835 -0.4598 0.0, -1.8364 -0.4593 0.0039, -1.8364 -0.4593 0.0, -1.8385 -0.459 0.0039, -1.8385 -0.459 0.0, -1.8484 -0.4588 0.0039, -1.8484 -0.4588 0.0, -1.8628 -0.4568 0.0039, -1.8628 -0.4568 0.0, -1.9001 -0.4529 0.0039, -1.9001 -0.4529 0.0, -1.9124 -0.4519 0.0039, -1.9124 -0.4519 0.0, -1.9361 -0.4496 0.0039, -1.9361 -0.4496 0.0, -1.9492 -0.4485 0.0039, -1.9492 -0.4485 0.0, -1.9521 -0.4476 0.0039, -1.9521 -0.4476 0.0, -1.9537 -0.4475 0.0039, -1.9537 -0.4475 0.0, -1.9548 -0.4477 0.0039, -1.9548 -0.4477 0.0, -1.9556 -0.448 0.0039, -1.9556 -0.448 0.0, -1.9563 -0.4485 0.0039, -1.9563 -0.4485 0.0, -1.9571 -0.4494 0.0039, -1.9571 -0.4494 0.0, -1.9579 -0.451 0.0039, -1.9579 -0.451 0.0, -1.9583 -0.4525 0.0039, -1.9583 -0.4525 0.0, -1.9583 -0.4557 0.0039, -1.9583 -0.4557 0.0, -1.9568 -0.4695 0.0039, -1.9568 -0.4695 0.0, -1.9565 -0.4729 0.0039, -1.9565 -0.4729 0.0, -1.9554 -0.5063 0.0039, -1.9554 -0.5063 0.0, -1.9554 -0.7611 0.0039, -1.9554 -0.7611 0.0, -1.9557 -0.7887 0.0039, -1.9557 -0.7887 0.0, -1.9599 -0.816 0.0039, -1.9599 -0.816 0.0, -1.961 -0.8217 0.0039, -1.961 -0.8217 0.0, -1.0812 -0.6195 0.0, -1.0659 -0.6048 0.0, -1.1021 -0.7639 0.0, -1.139 -0.5974 0.0, -1.1167 -0.6021 0.0, -1.1001 -0.6073 0.0, -1.0953 -0.6099 0.0, -1.3537 -0.7741 0.0, -1.3537 -0.4745 0.0, -1.343 -0.7786 0.0, -1.345 -0.4742 0.0, -1.3362 -0.4745 0.0, -1.3113 -0.4774 0.0, -1.2938 -0.4797 0.0, -1.2943 -0.786 0.0, -1.3189 -0.7842 0.0, -1.237 -0.6597 0.0, -1.2384 -0.5763 0.0, -1.2793 -0.7831 0.0, -1.2437 -0.7367 0.0, -1.2486 -0.7537 0.0, -1.2812 -0.4829 0.0, -1.272 -0.4869 0.0, -1.2652 -0.4924 0.0, -1.2549 -0.7658 0.0, -1.2617 -0.774 0.0, -1.2684 -0.7789 0.0, -1.2586 -0.5008 0.0, -1.2474 -0.526 0.0, -1.2474 -0.526 0.0
            ]
        }
        coordIndex [
            0,1,2,-1,2,1,3,-1,2,3,4,-1,4,3,5,-1,4,5,6,-1,6,5,7,-1,6,7,8,-1,8,7,9,-1,8,9,10,-1,11,12,9,-1,9,12,10,-1,12,11,13,-1,12,13,14,-1,14,13,15,-1,14,15,16,-1,16,15,17,-1,16,17,18,-1,18,17,19,-1,18,19,20,-1,20,19,21,-1,20,21,22,-1,22,21,23,-1,22,23,24,-1,24,23,25,-1,24,25,26,-1,26,25,27,-1,26,27,28,-1,28,27,29,-1,28,29,30,-1,30,29,31,-1,30,31,32,-1,32,31,33,-1,32,33,34,-1,34,33,35,-1,34,35,36,-1,36,35,37,-1,36,37,38,-1,38,37,39,-1,38,39,40,-1,40,39,41,-1,40,41,42,-1,42,41,43,-1,42,43,44,-1,44,43,45,-1,44,45,46,-1,46,45,47,-1,46,47,48,-1,48,47,49,-1,48,49,50,-1,50,49,51,-1,50,51,52,-1,52,51,53,-1,52,53,54,-1,54,53,55,-1,54,55,56,-1,57,58,55,-1,55,58,56,-1,59,60,57,-1,57,60,58,-1,60,59,61,-1,60,61,62,-1,62,61,63,-1,62,63,64,-1,64,63,65,-1,64,65,66,-1,66,65,67,-1,66,67,68,-1,68,67,69,-1,68,69,70,-1,70,69,71,-1,70,71,72,-1,72,71,73,-1,72,73,74,-1,74,73,75,-1,74,75,76,-1,76,75,77,-1,76,77,78,-1,78,77,79,-1,78,79,80,-1,80,79,81,-1,80,81,82,-1,83,84,81,-1,81,84,82,-1,85,86,83,-1,83,86,84,-1,86,85,87,-1,86,87,88,-1,88,87,89,-1,88,89,90,-1,91,92,89,-1,89,92,90,-1,91,1,92,-1,92,1,0,-1,23,21,49,-1,49,21,19,-1,49,19,51,-1,25,23,27,-1,27,23,49,-1,27,49,29,-1,29,49,47,-1,29,47,31,-1,85,83,11,-1,11,83,81,-1,11,81,79,-1,19,17,51,-1,51,17,15,-1,51,15,53,-1,53,15,13,-1,1,91,3,-1,3,91,89,-1,3,89,5,-1,5,89,87,-1,5,87,7,-1,7,87,85,-1,7,85,9,-1,9,85,11,-1,79,77,11,-1,11,77,75,-1,11,75,73,-1,35,45,43,-1,45,35,47,-1,47,35,33,-1,47,33,31,-1,73,71,11,-1,11,71,69,-1,11,69,67,-1,67,65,11,-1,11,65,63,-1,11,63,61,-1,61,59,11,-1,11,59,57,-1,11,57,13,-1,13,57,55,-1,13,55,53,-1,43,41,35,-1,35,41,39,-1,35,39,37,-1,93,94,95,-1,95,96,97,-1,97,98,95,-1,95,98,99,-1,95,99,93,-1,100,101,102,-1,102,101,103,-1,103,104,102,-1,102,104,105,-1,102,105,106,-1,107,108,109,-1,109,108,102,-1,109,102,110,-1,107,109,111,-1,111,109,112,-1,111,112,113,-1,106,114,102,-1,102,114,115,-1,102,115,116,-1,113,117,111,-1,111,117,118,-1,111,118,119,-1,116,120,102,-1,102,120,121,-1,102,121,110,-1,
        ]
    }
}
Shape{
    appearance Appearance {
        material  Material 	{
            diffuseColor 0.6470588235294118 0.6196078431372549 0.5882352941176471
            specularColor 0.45098039215686275 0.43529411764705883 0.4117647058823529
            ambientIntensity 0.2
            transparency 0
            shininess 0.5
        }
    }
    geometry IndexedFaceSet {
        ccw TRUE
        solid FALSE
        coord DEF co Coordinate {
            point [
                -0.3425 1.3583 -0.9843, -0.3425 1.3583 0.9449, -0.6575 1.3583 -0.9843, -0.6575 1.3583 0.9449, -0.5787 1.437 -1.378, -0.5787 1.5945 -1.378, -0.4213 1.437 -1.378, -0.4213 1.5945 -1.378, -0.6575 1.6732 -0.9843, -0.6575 1.6732 0.9449, -0.3425 1.6732 -0.9843, -0.3425 1.6732 0.9449, -0.6575 1.6645 1.0557, -0.3425 1.6645 1.0557, -0.6575 1.6385 1.1639, -0.3425 1.6385 1.1639, -0.6575 1.596 1.2666, -0.3425 1.596 1.2666, -0.6575 1.5379 1.3614, -0.3425 1.5379 1.3614, -0.6575 1.4657 1.446, -0.3425 1.4657 1.446, -0.6575 1.3811 1.5182, -0.3425 1.3811 1.5182, -0.6575 1.2863 1.5763, -0.3425 1.2863 1.5763, -0.6575 1.1836 1.6189, -0.3425 1.1836 1.6189, -0.6575 1.0754 1.6448, -0.3425 1.0754 1.6448, -0.6575 0.9646 1.6535, -0.3425 0.9646 1.6535, -0.3425 -1.0039 1.6535, -0.6575 -1.0039 1.6535, -0.5787 -1.3976 1.5748, -0.5787 -1.3976 1.4173, -0.4213 -1.3976 1.5748, -0.4213 -1.3976 1.4173, -0.6575 -1.0039 1.3386, -0.6575 0.9646 1.3386, -0.3425 -1.0039 1.3386, -0.3425 0.9646 1.3386, -0.3425 1.0522 1.3287, -0.6575 1.0522 1.3287, -0.3425 1.1354 1.2996, -0.6575 1.1354 1.2996, -0.3425 1.21 1.2527, -0.6575 1.21 1.2527, -0.3425 1.2724 1.1904, -0.6575 1.2724 1.1904, -0.3425 1.3193 1.1157, -0.6575 1.3193 1.1157, -0.3425 1.3484 1.0325, -0.6575 1.3484 1.0325, 0.6575 1.3583 -0.9843, 0.6575 1.3583 0.9449, 0.3425 1.3583 -0.9843, 0.3425 1.3583 0.9449, 0.4213 1.437 -1.378, 0.4213 1.5945 -1.378, 0.5787 1.437 -1.378, 0.5787 1.5945 -1.378, 0.3425 1.6732 -0.9843, 0.3425 1.6732 0.9449, 0.6575 1.6732 -0.9843, 0.6575 1.6732 0.9449, 0.3425 1.6645 1.0557, 0.6575 1.6645 1.0557, 0.3425 1.6385 1.1639, 0.6575 1.6385 1.1639, 0.3425 1.596 1.2666, 0.6575 1.596 1.2666, 0.3425 1.5379 1.3614, 0.6575 1.5379 1.3614, 0.3425 1.4657 1.446, 0.6575 1.4657 1.446, 0.3425 1.3811 1.5182, 0.6575 1.3811 1.5182, 0.3425 1.2863 1.5763, 0.6575 1.2863 1.5763, 0.3425 1.1836 1.6189, 0.6575 1.1836 1.6189, 0.3425 1.0754 1.6448, 0.6575 1.0754 1.6448, 0.3425 0.9646 1.6535, 0.6575 0.9646 1.6535, 0.6575 -1.0039 1.6535, 0.3425 -1.0039 1.6535, 0.4213 -1.3976 1.5748, 0.4213 -1.3976 1.4173, 0.5787 -1.3976 1.5748, 0.5787 -1.3976 1.4173, 0.3425 -1.0039 1.3386, 0.3425 0.9646 1.3386, 0.6575 -1.0039 1.3386, 0.6575 0.9646 1.3386, 0.6575 1.0522 1.3287, 0.3425 1.0522 1.3287, 0.6575 1.1354 1.2996, 0.3425 1.1354 1.2996, 0.6575 1.21 1.2527, 0.3425 1.21 1.2527, 0.6575 1.2724 1.1904, 0.3425 1.2724 1.1904, 0.6575 1.3193 1.1157, 0.3425 1.3193 1.1157, 0.6575 1.3484 1.0325, 0.3425 1.3484 1.0325, 1.6575 1.3583 -0.9843, 1.6575 1.3583 0.9449, 1.3425 1.3583 -0.9843, 1.3425 1.3583 0.9449, 1.4213 1.437 -1.378, 1.4213 1.5945 -1.378, 1.5787 1.437 -1.378, 1.5787 1.5945 -1.378, 1.3425 1.6732 -0.9843, 1.3425 1.6732 0.9449, 1.6575 1.6732 -0.9843, 1.6575 1.6732 0.9449, 1.3425 1.6645 1.0557, 1.6575 1.6645 1.0557, 1.3425 1.6385 1.1639, 1.6575 1.6385 1.1639, 1.3425 1.596 1.2666, 1.6575 1.596 1.2666, 1.3425 1.5379 1.3614, 1.6575 1.5379 1.3614, 1.3425 1.4657 1.446, 1.6575 1.4657 1.446, 1.3425 1.3811 1.5182, 1.6575 1.3811 1.5182, 1.3425 1.2863 1.5763, 1.6575 1.2863 1.5763, 1.3425 1.1836 1.6189, 1.6575 1.1836 1.6189, 1.3425 1.0754 1.6448, 1.6575 1.0754 1.6448, 1.3425 0.9646 1.6535, 1.6575 0.9646 1.6535, 1.6575 -1.0039 1.6535, 1.3425 -1.0039 1.6535, 1.4213 -1.3976 1.5748, 1.4213 -1.3976 1.4173, 1.5787 -1.3976 1.5748, 1.5787 -1.3976 1.4173, 1.3425 -1.0039 1.3386, 1.3425 0.9646 1.3386, 1.6575 -1.0039 1.3386, 1.6575 0.9646 1.3386, 1.6575 1.0522 1.3287, 1.3425 1.0522 1.3287, 1.6575 1.1354 1.2996, 1.3425 1.1354 1.2996, 1.6575 1.21 1.2527, 1.3425 1.21 1.2527, 1.6575 1.2724 1.1904, 1.3425 1.2724 1.1904, 1.6575 1.3193 1.1157, 1.3425 1.3193 1.1157, 1.6575 1.3484 1.0325, 1.3425 1.3484 1.0325, 1.3425 1.3484 1.0325
            ]
        }
        coordIndex [
            0,1,2,-1,2,1,3,-1,4,5,6,-1,6,5,7,-1,8,9,10,-1,10,9,11,-1,11,9,12,-1,11,12,13,-1,13,12,14,-1,13,14,15,-1,15,14,16,-1,15,16,17,-1,17,16,18,-1,17,18,19,-1,19,18,20,-1,19,20,21,-1,21,20,22,-1,21,22,23,-1,23,22,24,-1,23,24,25,-1,25,24,26,-1,25,26,27,-1,27,26,28,-1,27,28,29,-1,29,28,30,-1,29,30,31,-1,32,31,33,-1,33,31,30,-1,34,35,36,-1,36,35,37,-1,38,39,40,-1,40,39,41,-1,41,39,42,-1,42,39,43,-1,42,43,44,-1,44,43,45,-1,44,45,46,-1,46,45,47,-1,46,47,48,-1,48,47,49,-1,48,49,50,-1,50,49,51,-1,50,51,52,-1,52,51,53,-1,52,53,1,-1,1,53,3,-1,32,40,31,-1,31,40,41,-1,31,41,29,-1,29,41,42,-1,29,42,27,-1,27,42,44,-1,52,15,50,-1,50,15,17,-1,50,17,48,-1,0,10,1,-1,1,10,11,-1,1,11,52,-1,52,11,13,-1,52,13,15,-1,17,19,48,-1,48,19,21,-1,48,21,46,-1,46,21,23,-1,46,23,44,-1,44,23,25,-1,44,25,27,-1,38,33,39,-1,39,33,30,-1,39,30,43,-1,51,14,53,-1,53,14,12,-1,53,12,3,-1,3,12,9,-1,3,9,2,-1,2,9,8,-1,30,28,43,-1,43,28,26,-1,43,26,45,-1,45,26,24,-1,45,24,47,-1,24,22,47,-1,47,22,20,-1,47,20,49,-1,49,20,18,-1,49,18,51,-1,51,18,16,-1,51,16,14,-1,10,7,8,-1,8,7,5,-1,0,6,10,-1,10,6,7,-1,4,2,5,-1,5,2,8,-1,2,4,0,-1,0,4,6,-1,40,37,38,-1,38,37,35,-1,32,36,40,-1,40,36,37,-1,34,33,35,-1,35,33,38,-1,33,34,32,-1,32,34,36,-1,54,55,56,-1,56,55,57,-1,58,59,60,-1,60,59,61,-1,62,63,64,-1,64,63,65,-1,65,63,66,-1,65,66,67,-1,67,66,68,-1,67,68,69,-1,69,68,70,-1,69,70,71,-1,71,70,72,-1,71,72,73,-1,73,72,74,-1,73,74,75,-1,75,74,76,-1,75,76,77,-1,77,76,78,-1,77,78,79,-1,79,78,80,-1,79,80,81,-1,81,80,82,-1,81,82,83,-1,83,82,84,-1,83,84,85,-1,86,85,87,-1,87,85,84,-1,88,89,90,-1,90,89,91,-1,92,93,94,-1,94,93,95,-1,95,93,96,-1,96,93,97,-1,96,97,98,-1,98,97,99,-1,98,99,100,-1,100,99,101,-1,100,101,102,-1,102,101,103,-1,102,103,104,-1,104,103,105,-1,104,105,106,-1,106,105,107,-1,106,107,55,-1,55,107,57,-1,86,94,85,-1,85,94,95,-1,85,95,83,-1,83,95,96,-1,83,96,81,-1,81,96,98,-1,106,69,104,-1,104,69,71,-1,104,71,102,-1,54,64,55,-1,55,64,65,-1,55,65,106,-1,106,65,67,-1,106,67,69,-1,71,73,102,-1,102,73,75,-1,102,75,100,-1,100,75,77,-1,100,77,98,-1,98,77,79,-1,98,79,81,-1,92,87,93,-1,93,87,84,-1,93,84,97,-1,105,68,107,-1,107,68,66,-1,107,66,57,-1,57,66,63,-1,57,63,56,-1,56,63,62,-1,84,82,97,-1,97,82,80,-1,97,80,99,-1,99,80,78,-1,99,78,101,-1,78,76,101,-1,101,76,74,-1,101,74,103,-1,103,74,72,-1,103,72,105,-1,105,72,70,-1,105,70,68,-1,64,61,62,-1,62,61,59,-1,54,60,64,-1,64,60,61,-1,58,56,59,-1,59,56,62,-1,56,58,54,-1,54,58,60,-1,94,91,92,-1,92,91,89,-1,86,90,94,-1,94,90,91,-1,88,87,89,-1,89,87,92,-1,87,88,86,-1,86,88,90,-1,108,109,110,-1,110,109,111,-1,112,113,114,-1,114,113,115,-1,116,117,118,-1,118,117,119,-1,119,117,120,-1,119,120,121,-1,121,120,122,-1,121,122,123,-1,123,122,124,-1,123,124,125,-1,125,124,126,-1,125,126,127,-1,127,126,128,-1,127,128,129,-1,129,128,130,-1,129,130,131,-1,131,130,132,-1,131,132,133,-1,133,132,134,-1,133,134,135,-1,135,134,136,-1,135,136,137,-1,137,136,138,-1,137,138,139,-1,140,139,141,-1,141,139,138,-1,142,143,144,-1,144,143,145,-1,146,147,148,-1,148,147,149,-1,149,147,150,-1,150,147,151,-1,150,151,152,-1,152,151,153,-1,152,153,154,-1,154,153,155,-1,154,155,156,-1,156,155,157,-1,156,157,158,-1,158,157,159,-1,158,159,160,-1,160,159,161,-1,160,161,109,-1,109,161,111,-1,140,148,139,-1,139,148,149,-1,139,149,137,-1,137,149,150,-1,137,150,135,-1,135,150,152,-1,160,123,158,-1,158,123,125,-1,158,125,156,-1,108,118,109,-1,109,118,119,-1,109,119,160,-1,160,119,121,-1,160,121,123,-1,125,127,156,-1,156,127,129,-1,156,129,154,-1,154,129,131,-1,154,131,152,-1,152,131,133,-1,152,133,135,-1,146,141,147,-1,147,141,138,-1,147,138,151,-1,159,122,161,-1,161,122,120,-1,161,120,111,-1,111,120,117,-1,111,117,110,-1,110,117,116,-1,138,136,151,-1,151,136,134,-1,151,134,153,-1,153,134,132,-1,153,132,155,-1,132,130,155,-1,155,130,128,-1,155,128,157,-1,157,128,126,-1,157,126,159,-1,159,126,124,-1,159,124,122,-1,118,115,116,-1,116,115,113,-1,108,114,118,-1,118,114,115,-1,112,110,113,-1,113,110,116,-1,110,112,108,-1,108,112,114,-1,148,145,146,-1,146,145,143,-1,140,144,148,-1,148,144,145,-1,142,141,143,-1,143,141,146,-1,141,142,140,-1,140,142,144,-1,
        ]
    }
}