#VRML V2.0 utf8
# 3D model generated by easyeda2kicad.py (https://github.com/uPesy/easyeda2kicad.py)

Shape{
    appearance Appearance {
        material  Material 	{
            diffuseColor 0.6470588235294118 0.6196078431372549 0.5882352941176471
            specularColor 0.45098039215686275 0.43529411764705883 0.4117647058823529
            ambientIntensity 0.2
            transparency 0
            shininess 0.5
        }
    }
    geometry IndexedFaceSet {
        ccw TRUE
        solid FALSE
        coord DEF co Coordinate {
            point [
                -0.3425 1.3583 -0.9843, -0.3425 1.3583 0.9449, -0.6575 1.3583 -0.9843, -0.6575 1.3583 0.9449, -0.5787 1.437 -1.378, -0.5787 1.5945 -1.378, -0.4213 1.437 -1.378, -0.4213 1.5945 -1.378, -0.6575 1.6732 -0.9843, -0.6575 1.6732 0.9449, -0.3425 1.6732 -0.9843, -0.3425 1.6732 0.9449, -0.6575 1.6645 1.0557, -0.3425 1.6645 1.0557, -0.6575 1.6385 1.1639, -0.3425 1.6385 1.1639, -0.6575 1.596 1.2666, -0.3425 1.596 1.2666, -0.6575 1.5379 1.3614, -0.3425 1.5379 1.3614, -0.6575 1.4657 1.446, -0.3425 1.4657 1.446, -0.6575 1.3811 1.5182, -0.3425 1.3811 1.5182, -0.6575 1.2863 1.5763, -0.3425 1.2863 1.5763, -0.6575 1.1836 1.6189, -0.3425 1.1836 1.6189, -0.6575 1.0754 1.6448, -0.3425 1.0754 1.6448, -0.6575 0.9646 1.6535, -0.3425 0.9646 1.6535, -0.3425 -1.0039 1.6535, -0.6575 -1.0039 1.6535, -0.5787 -1.3976 1.5748, -0.5787 -1.3976 1.4173, -0.4213 -1.3976 1.5748, -0.4213 -1.3976 1.4173, -0.6575 -1.0039 1.3386, -0.6575 0.9646 1.3386, -0.3425 -1.0039 1.3386, -0.3425 0.9646 1.3386, -0.3425 1.0522 1.3287, -0.6575 1.0522 1.3287, -0.3425 1.1354 1.2996, -0.6575 1.1354 1.2996, -0.3425 1.21 1.2527, -0.6575 1.21 1.2527, -0.3425 1.2724 1.1904, -0.6575 1.2724 1.1904, -0.3425 1.3193 1.1157, -0.6575 1.3193 1.1157, -0.3425 1.3484 1.0325, -0.6575 1.3484 1.0325, -0.6575 1.3484 1.0325
            ]
        }
        coordIndex [
            0,1,2,-1,2,1,3,-1,4,5,6,-1,6,5,7,-1,8,9,10,-1,10,9,11,-1,11,9,12,-1,11,12,13,-1,13,12,14,-1,13,14,15,-1,15,14,16,-1,15,16,17,-1,17,16,18,-1,17,18,19,-1,19,18,20,-1,19,20,21,-1,21,20,22,-1,21,22,23,-1,23,22,24,-1,23,24,25,-1,25,24,26,-1,25,26,27,-1,27,26,28,-1,27,28,29,-1,29,28,30,-1,29,30,31,-1,32,31,33,-1,33,31,30,-1,34,35,36,-1,36,35,37,-1,38,39,40,-1,40,39,41,-1,41,39,42,-1,42,39,43,-1,42,43,44,-1,44,43,45,-1,44,45,46,-1,46,45,47,-1,46,47,48,-1,48,47,49,-1,48,49,50,-1,50,49,51,-1,50,51,52,-1,52,51,53,-1,52,53,1,-1,1,53,3,-1,32,40,31,-1,31,40,41,-1,31,41,29,-1,29,41,42,-1,29,42,27,-1,27,42,44,-1,52,15,50,-1,50,15,17,-1,50,17,48,-1,0,10,1,-1,1,10,11,-1,1,11,52,-1,52,11,13,-1,52,13,15,-1,17,19,48,-1,48,19,21,-1,48,21,46,-1,46,21,23,-1,46,23,44,-1,44,23,25,-1,44,25,27,-1,38,33,39,-1,39,33,30,-1,39,30,43,-1,51,14,53,-1,53,14,12,-1,53,12,3,-1,3,12,9,-1,3,9,2,-1,2,9,8,-1,30,28,43,-1,43,28,26,-1,43,26,45,-1,45,26,24,-1,45,24,47,-1,24,22,47,-1,47,22,20,-1,47,20,49,-1,49,20,18,-1,49,18,51,-1,51,18,16,-1,51,16,14,-1,10,7,8,-1,8,7,5,-1,0,6,10,-1,10,6,7,-1,4,2,5,-1,5,2,8,-1,2,4,0,-1,0,4,6,-1,40,37,38,-1,38,37,35,-1,32,36,40,-1,40,36,37,-1,34,33,35,-1,35,33,38,-1,33,34,32,-1,32,34,36,-1,
        ]
    }
}
Shape{
    appearance Appearance {
        material  Material 	{
            diffuseColor 0.24705882352941178 0.49411764705882355 0.27450980392156865
            specularColor 0.01568627450980392 0.03529411764705882 0.0196078431372549
            ambientIntensity 0.2
            transparency 0
            shininess 0.5
        }
    }
    geometry IndexedFaceSet {
        ccw TRUE
        solid FALSE
        coord DEF co Coordinate {
            point [
                1.2953 1.9882 3.1496, -1.2953 1.9882 3.1496, 1.2953 -1.9882 3.1496, -1.2953 -1.9882 3.1496, -0.1066 -1.9882 2.5221, -0.3228 -1.9882 2.5221, -0.3228 -1.9882 2.295, -0.5 -1.9882 0.2375, -0.4131 -1.9882 0.0, 0.0 -1.9882 0.2375, 1.2953 -1.9882 0.0, -1.3635 -1.9882 0.0394, -1.351 -1.9882 0.0231, -0.5 -1.9882 0.5407, -1.374 -1.9882 0.0787, -1.1969 -1.9882 0.5407, -1.1969 -1.9882 2.295, -0.6772 -1.9882 2.295, -0.6772 -1.9882 2.5221, -0.8934 -1.9882 2.5221, -1.3713 -1.9882 0.0584, -1.3346 -1.9882 0.0105, -1.3157 -1.9882 0.0027, -1.2953 -1.9882 0.0, -0.8934 -1.9882 2.8379, -0.1066 -1.9882 2.8379, -1.3157 -1.9882 3.1469, -1.3346 -1.9882 3.1391, -1.351 -1.9882 3.1265, 0.3228 -1.9882 2.295, 0.3228 -1.9882 2.5221, 0.1066 -1.9882 2.5221, -1.3635 -1.9882 3.1102, -1.3713 -1.9882 3.0912, -1.374 -1.9882 3.0709, 0.5 -1.9882 0.2375, 0.5 -1.9882 0.5407, 0.0 -1.9882 0.5407, 0.6772 -1.9882 2.5221, 0.6772 -1.9882 2.295, 0.8934 -1.9882 2.5221, 1.1969 -1.9882 2.295, 1.3635 -1.9882 3.1102, 1.351 -1.9882 3.1265, 0.1066 -1.9882 2.8379, 0.8934 -1.9882 2.8379, 1.3157 -1.9882 3.1469, 1.3346 -1.9882 3.1391, 1.3346 -1.9882 0.0105, 1.351 -1.9882 0.0231, 1.1969 -1.9882 0.2375, 1.3635 -1.9882 0.0394, 1.3713 -1.9882 0.0584, 1.374 -1.9882 0.0787, 1.374 -1.9882 3.0709, 1.3713 -1.9882 3.0912, 1.3157 -1.9882 0.0027, -0.9571 -0.8262 0.0, -0.9489 -0.816 0.0, -0.4131 -0.816 0.0, -0.185 1.9882 0.0, 0.185 1.9882 0.0, -0.185 1.2008 0.0, 0.185 1.2008 0.0, 0.815 1.9882 0.0, 1.2953 1.9882 0.0, 0.815 1.2008 0.0, 1.2953 -0.816 0.0, -0.3924 -0.79 0.0, -0.3924 -0.7913 0.0, -0.392 -0.7927 0.0, -0.3915 -0.7937 0.0, -0.2666 -0.467 0.0, -0.2776 -0.4615 0.0, -0.1776 -0.4326 0.0, -0.366 -0.4441 0.0, -0.4131 1.2008 0.0, -0.3645 -0.444 0.0, -0.364 -0.4442 0.0, -0.2823 -0.8047 0.0, -0.2696 -0.8016 0.0, -0.1066 -0.816 0.0, -0.2592 -0.7962 0.0, -0.2499 -0.7879 0.0, -0.2408 -0.7748 0.0, -0.1773 -0.432 0.0, -0.3125 -0.8048 0.0, -0.3 -0.8058 0.0, -0.391 -0.4729 0.0, -0.3908 -0.4731 0.0, -0.3885 -0.4736 0.0, -0.3696 -0.7702 0.0, -0.3899 -0.4735 0.0, -0.3904 -0.4734 0.0, -0.3671 -0.4446 0.0, -0.3708 -0.4472 0.0, -0.3789 -0.4547 0.0, -0.3913 -0.4724 0.0, -0.377 -0.7741 0.0, -0.3871 -0.7826 0.0, -0.3865 -0.4735 0.0, -0.3786 -0.4735 0.0, -0.3696 -0.4735 0.0, -0.1761 -0.4312 0.0, -0.1765 -0.4314 0.0, -0.1769 -0.4316 0.0, -0.3052 -0.4562 0.0, -0.322 -0.4542 0.0, -0.3469 -0.4513 0.0, -0.3917 -0.4693 0.0, -0.3919 -0.4699 0.0, -0.3919 -0.4705 0.0, -0.3918 -0.4713 0.0, -0.3734 -0.7719 0.0, -0.3896 -0.7846 0.0, -0.3911 -0.7865 0.0, -0.3921 -0.7886 0.0, -0.018 -0.4939 0.0, -0.0173 -0.493 0.0, -0.0225 -0.4331 0.0, -0.0244 -0.432 0.0, -0.1718 -0.4366 0.0, -0.1725 -0.4347 0.0, -0.3562 -0.4488 0.0, -0.3621 -0.4452 0.0, -0.3897 -0.4664 0.0, -0.3907 -0.4676 0.0, -0.3913 -0.4686 0.0, -0.182 -0.4911 0.0, -0.2353 -0.5116 0.0, -0.183 -0.4879 0.0, -0.2468 -0.4885 0.0, -0.1833 -0.4827 0.0, -0.2569 -0.4752 0.0, -0.3583 -0.7951 0.0, -0.3463 -0.7962 0.0, -0.3249 -0.8024 0.0, -0.232 -0.7518 0.0, -0.2238 -0.689 0.0, -0.1644 -0.5482 0.0, -0.2212 -0.6099 0.0, -0.2257 -0.5504 0.0, -0.3815 -0.4576 0.0, -0.3883 -0.4649 0.0, -0.0217 -0.4361 0.0, -0.022 -0.4346 0.0, -0.0222 -0.4337 0.0, -0.0265 -0.4335 0.0, -0.1417 -0.5776 0.0, -0.026 -0.4329 0.0, -0.1599 -0.4933 0.0, -0.178 -0.434 0.0, -0.179 -0.4411 0.0, -0.3907 -0.7945 0.0, -0.39 -0.7951 0.0, -0.3797 -0.7933 0.0, -0.1808 -0.4933 0.0, -0.178 -0.4984 0.0, -0.1706 -0.5231 0.0, -0.0365 -0.547 0.0, -0.0433 -0.5754 0.0, -0.0977 -0.816 0.0, -0.017 -0.4924 0.0, -0.0168 -0.4918 0.0, -0.0169 -0.4897 0.0, -0.1684 -0.4502 0.0, -0.025 -0.4321 0.0, -0.0256 -0.4325 0.0, -0.027 -0.4345 0.0, -0.0274 -0.436 0.0, -0.0647 -0.5963 0.0, -0.0313 -0.4587 0.0, -0.1797 -0.4479 0.0, -0.1825 -0.4717 0.0, -0.3679 -0.7933 0.0, -0.3631 -0.7942 0.0, -0.0177 -0.4764 0.0, -0.0177 -0.4762 0.0, -0.02 -0.4508 0.0, -0.0212 -0.4412 0.0, -0.0214 -0.4382 0.0, -0.1748 -0.4314 0.0, -0.1753 -0.4312 0.0, -0.1757 -0.4312 0.0, -0.1732 -0.4333 0.0, -0.1738 -0.4324 0.0, -0.1743 -0.4318 0.0, -0.0334 -0.5336 0.0, -0.0297 -0.5204 0.0, -0.0257 -0.5097 0.0, -0.0221 -0.4996 0.0, -0.0197 -0.496 0.0, -0.0228 -0.4327 0.0, -0.0232 -0.4324 0.0, -0.0236 -0.4321 0.0, -0.024 -0.432 0.0, -1.2953 1.9882 0.0, -0.815 1.9882 0.0, -0.815 1.2008 0.0, -0.587 -0.7888 0.0, -0.6434 -0.8052 0.0, -0.5861 -0.7868 0.0, -0.6434 -0.6541 0.0, -0.6519 -0.8052 0.0, -0.6919 -0.8071 0.0, -0.6788 -0.7999 0.0, -0.7748 -0.6008 0.0, -0.6468 -0.555 0.0, -0.7727 -0.6908 0.0, -0.644 -0.5849 0.0, -0.7676 -0.7204 0.0, -0.8582 -0.4867 0.0, -0.8563 -0.4875 0.0, -0.7908 -0.6564 0.0, -0.5736 -0.7713 0.0, -0.58 -0.7788 0.0, -0.5838 -0.7835 0.0, -0.7085 -0.4638 0.0, -0.7608 -0.5199 0.0, -0.5786 -0.4514 0.0, -0.579 -0.4537 0.0, -0.6349 -0.5844 0.0, -0.6541 -0.6541 0.0, -0.6589 -0.7338 0.0, -0.6675 -0.7897 0.0, -0.6609 -0.7809 0.0, -0.6559 -0.7719 0.0, -0.6732 -0.4765 0.0, -0.6648 -0.4861 0.0, -0.5787 -0.4581 0.0, -0.5751 -0.4724 0.0, -0.5736 -0.487 0.0, -0.6954 -0.7909 0.0, -0.7355 -0.7827 0.0, -0.7446 -0.7738 0.0, -0.7745 -0.7489 0.0, -0.7625 -0.7764 0.0, -0.9322 -0.7951 0.0, -0.7511 -0.7915 0.0, -0.7333 -0.8054 0.0, -0.4495 -0.6426 0.0, -0.4505 -0.642 0.0, -0.4519 -0.4938 0.0, -0.6958 -0.4648 0.0, -0.6833 -0.4694 0.0, -0.6574 -0.5008 0.0, -0.6493 -0.5382 0.0, -0.704 -0.7928 0.0, -0.7158 -0.7921 0.0, -0.7259 -0.7887 0.0, -0.5875 -0.7915 0.0, -0.5876 -0.7932 0.0, -0.5876 -0.7945 0.0, -0.5866 -0.796 0.0, -0.5869 -0.7959 0.0, -0.5871 -0.7957 0.0, -0.5572 -0.6467 0.0, -0.5096 -0.6529 0.0, -0.5572 -0.7713 0.0, -0.49 -0.6569 0.0, -0.4666 -0.6677 0.0, -0.4501 -0.7877 0.0, -0.4592 -0.7865 0.0, -0.7876 -0.5745 0.0, -0.7311 -0.4711 0.0, -0.7393 -0.4786 0.0, -0.7522 -0.4968 0.0, -0.7239 -0.4668 0.0, -0.7164 -0.4646 0.0, -0.5736 -0.4978 0.0, -0.5733 -0.5049 0.0, -0.573 -0.512 0.0, -0.6659 -0.7595 0.0, -0.673 -0.7734 0.0, -0.6799 -0.7817 0.0, -0.5875 -0.795 0.0, -0.5873 -0.7954 0.0, -0.4725 -0.7848 0.0, -0.4859 -0.7832 0.0, -0.4717 -0.6648 0.0, -0.4774 -0.6613 0.0, -0.449 -0.6497 0.0, -0.4482 -0.6484 0.0, -0.4488 -0.7878 0.0, -0.4478 -0.6472 0.0, -0.4477 -0.7881 0.0, -0.4476 -0.6463 0.0, -0.4467 -0.7887 0.0, -0.8369 -0.4702 0.0, -0.8348 -0.4679 0.0, -0.7814 -0.5361 0.0, -0.7151 -0.4456 0.0, -0.7301 -0.4503 0.0, -0.8331 -0.4621 0.0, -0.7432 -0.4579 0.0, -0.7526 -0.4676 0.0, -0.5789 -0.4569 0.0, -0.7544 -0.7585 0.0, -0.6874 -0.7874 0.0, -0.9406 -0.4706 0.0, -0.9406 -0.7594 0.0, -0.7878 -0.6886 0.0, -0.9405 -0.7666 0.0, -0.938 -0.7827 0.0, -0.897 -0.4743 0.0, -0.8763 -0.4774 0.0, -0.8693 -0.479 0.0, -0.9568 -0.4695 0.0, -0.9565 -0.4729 0.0, -0.9583 -0.4557 0.0, -0.9554 -0.5063 0.0, -0.5719 -0.7945 0.0, -0.5623 -0.7933 0.0, -0.5827 -0.7962 0.0, -0.5526 -0.7933 0.0, -0.4477 -0.6455 0.0, -0.448 -0.6445 0.0, -0.4487 -0.6434 0.0, -0.5572 -0.6269 0.0, -0.5572 -0.4735 0.0, -0.4728 -0.4853 0.0, -0.4501 -0.6512 0.0, -0.8652 -0.481 0.0, -0.86 -0.4855 0.0, -0.7656 -0.4887 0.0, -0.8338 -0.4661 0.0, -0.8333 -0.4642 0.0, -0.7249 -0.8096 0.0, -0.7167 -0.8114 0.0, -0.7085 -0.8114 0.0, -0.4637 -0.8137 0.0, -0.4451 -0.7917 0.0, -0.4452 -0.7909 0.0, -0.4454 -0.7901 0.0, -0.4459 -0.7895 0.0, -0.4516 -0.6417 0.0, -0.453 -0.6416 0.0, -0.4569 -0.491 0.0, -0.4646 -0.4874 0.0, -0.8431 -0.4759 0.0, -0.5768 -0.4487 0.0, -0.578 -0.4502 0.0, -0.6628 -0.4625 0.0, -0.6883 -0.4471 0.0, -0.7006 -0.4451 0.0, -0.9554 -0.7611 0.0, -0.9557 -0.7887 0.0, -0.9599 -0.816 0.0, -0.4463 -0.7949 0.0, -0.4456 -0.7935 0.0, -0.4452 -0.7925 0.0, -0.8337 -0.4609 0.0, -0.8342 -0.4603 0.0, -0.9571 -0.4494 0.0, -0.9579 -0.451 0.0, -1.2953 -0.816 0.0, -0.9583 -0.4525 0.0, -0.5858 -0.7962 0.0, -0.5843 -0.7963 0.0, -0.4688 -0.8104 0.0, -0.4718 -0.8086 0.0, -0.4474 -0.7968 0.0, -0.6385 -0.5237 0.0, -0.645 -0.4932 0.0, -0.6541 -0.474 0.0, -0.6746 -0.4531 0.0, -0.5741 -0.4471 0.0, -0.5754 -0.4476 0.0, -0.9563 -0.4485 0.0, -0.5399 -0.7936 0.0, -0.5289 -0.7951 0.0, -0.551 -0.7933 0.0, -0.5068 -0.799 0.0, -0.4376 -0.4673 0.0, -0.4394 -0.4672 0.0, -0.4479 -0.4667 0.0, -0.4872 -0.803 0.0, -0.436 -0.4762 0.0, -0.4343 -0.4738 0.0, -0.434 -0.4698 0.0, -0.4346 -0.4688 0.0, -0.9537 -0.4475 0.0, -0.9548 -0.4477 0.0, -0.9556 -0.448 0.0, -0.4338 -0.4725 0.0, -0.4336 -0.4716 0.0, -0.4337 -0.4708 0.0, -0.4907 -0.4614 0.0, -0.5334 -0.4547 0.0, -0.5594 -0.4502 0.0, -0.835 -0.4598 0.0, -0.8364 -0.4593 0.0, -0.8385 -0.459 0.0, -0.8484 -0.4588 0.0, -0.8628 -0.4568 0.0, -0.9001 -0.4529 0.0, -0.9124 -0.4519 0.0, -0.9361 -0.4496 0.0, -0.9492 -0.4485 0.0, -0.9521 -0.4476 0.0, -0.5657 -0.4479 0.0, -0.5697 -0.4469 0.0, -0.5726 -0.4468 0.0, -0.435 -0.4682 0.0, -0.4354 -0.4679 0.0, -0.436 -0.4676 0.0, -0.4361 -0.4676 0.0, -0.0982 -0.8182 0.0, -0.1061 -0.8182 0.0, -0.961 -0.8217 0.0, 1.374 1.9882 3.0709, 1.374 1.9882 2.3622, 1.1378 1.9882 2.3622, -0.185 1.9882 2.3622, 0.185 1.9882 2.3622, -1.374 1.9882 0.0787, -1.374 1.9882 0.7874, -1.1378 1.9882 0.7874, 0.8934 1.9882 2.5221, 0.815 1.9882 2.3622, 0.1066 1.9882 2.5221, -0.1066 1.9882 2.8379, 1.1378 1.9882 0.7874, -0.1066 1.9882 2.5221, -0.8934 1.9882 2.5221, -0.815 1.9882 2.3622, -1.374 1.9882 3.0709, 1.3346 1.9882 0.0105, 1.374 1.9882 0.0787, 1.351 1.9882 0.0231, 1.3713 1.9882 0.0584, 1.3635 1.9882 0.0394, 1.374 1.9882 0.7874, 1.3157 1.9882 0.0027, 0.8934 1.9882 2.8379, 0.1066 1.9882 2.8379, 1.3157 1.9882 3.1469, 1.3346 1.9882 3.1391, 1.351 1.9882 3.1265, -1.3713 1.9882 3.0912, -1.3635 1.9882 3.1102, -1.351 1.9882 3.1265, -1.3346 1.9882 3.1391, -1.3157 1.9882 3.1469, -0.8934 1.9882 2.8379, -1.3157 1.9882 0.0027, -1.3346 1.9882 0.0105, -1.351 1.9882 0.0231, -1.3635 1.9882 0.0394, -1.3713 1.9882 0.0584, 1.3635 1.9882 3.1102, 1.3713 1.9882 3.0912, -1.374 1.9882 2.3622, -1.1378 1.9882 2.3622, 1.374 1.5945 0.7874, 1.374 1.5945 2.3622, 1.0 -1.7913 2.295, 1.0 0.3324 2.295, 1.0 -1.7913 0.2375, 1.0 0.3324 1.8597, 1.0 0.374 0.7375, 1.0 0.374 0.2375, 1.0 0.3324 0.7375, 1.0 0.3324 1.1637, 1.0 0.7677 1.1637, 1.0 0.7677 1.8597, 0.3228 0.7677 2.295, 0.2638 0.7677 2.295, 0.2638 0.7677 1.8597, -0.3228 0.7677 2.5221, -0.6772 0.7677 2.5221, -0.3228 0.7677 2.295, -0.6772 0.7677 2.295, -0.6673 0.7677 1.7859, -0.7362 0.7677 1.8597, -0.7362 0.7677 2.295, -0.7362 0.7677 0.7375, -0.2638 0.7677 0.7375, -0.5 0.7677 1.1614, -0.7366 0.7677 1.7327, -1.0 0.7677 1.8597, -0.7898 0.7677 1.6634, 0.7898 0.7677 1.6634, 0.8232 0.7677 1.5827, 0.6772 0.7677 2.295, 0.6772 0.7677 2.5221, 0.3228 0.7677 2.5221, -0.2638 0.7677 1.8597, -0.2638 0.7677 2.295, -0.5 0.7677 1.8307, -0.5866 0.7677 1.8193, -0.5866 0.7677 1.1728, -0.6673 0.7677 1.2063, -0.7362 0.7677 1.1637, -0.7366 0.7677 1.2594, -1.0 0.7677 1.1637, -0.7898 0.7677 1.3287, 0.8346 0.7677 1.4961, 0.8232 0.7677 1.4095, 0.7362 0.7677 1.1637, 0.7898 0.7677 1.3287, 0.7366 0.7677 1.2594, 0.2634 0.7677 1.7327, 0.2102 0.7677 1.6634, 0.1768 0.7677 1.5827, -0.8232 0.7677 1.4095, -0.8346 0.7677 1.4961, -0.8232 0.7677 1.5827, 0.5 0.7677 1.8307, 0.5866 0.7677 1.8193, 0.7362 0.7677 1.8597, 0.6673 0.7677 1.7859, 0.7366 0.7677 1.7327, 0.3327 0.7677 1.7859, 0.2638 0.7677 1.1637, -0.2634 0.7677 1.2594, -0.2638 0.7677 1.1637, -0.3327 0.7677 1.2063, -0.4134 0.7677 1.1728, 0.7362 0.7677 2.295, 0.4134 0.7677 1.8193, 0.1768 0.7677 1.4095, -0.2102 0.7677 1.3287, 0.2102 0.7677 1.3287, 0.6673 0.7677 1.2063, 0.5866 0.7677 1.1728, 0.7362 0.7677 0.7375, 0.5 0.7677 1.1614, 0.2638 0.7677 0.7375, 0.4134 0.7677 1.1728, 0.3327 0.7677 1.2063, 0.2634 0.7677 1.2594, -0.4134 0.7677 1.8193, -0.3327 0.7677 1.7859, -0.2634 0.7677 1.7327, -0.2102 0.7677 1.6634, -0.1768 0.7677 1.5827, 0.1654 0.7677 1.4961, -0.1654 0.7677 1.4961, -0.1768 0.7677 1.4095, -0.2638 0.3324 2.295, 0.2638 0.3324 2.295, -0.5 0.374 0.7375, -0.2638 0.374 0.7375, -0.7362 0.3324 0.7375, -1.0 0.3324 0.7375, -1.0 -1.7913 0.7375, -0.5 -1.7913 0.7375, -1.0 -1.7913 2.295, -1.0 0.3324 2.295, -0.7362 0.3324 2.295, -0.815 1.2008 2.3622, -0.185 1.2008 2.3622, -0.4134 0.6102 1.8193, -0.3327 0.6102 1.7859, -0.2634 0.6102 1.7327, -0.2102 0.6102 1.6634, -0.1768 0.6102 1.5827, -0.1654 0.6102 1.4961, -0.1768 0.6102 1.4095, -0.2102 0.6102 1.3287, -0.2634 0.6102 1.2594, -0.3327 0.6102 1.2063, -0.4134 0.6102 1.1728, -0.5 0.6102 1.1614, -0.5866 0.6102 1.1728, -0.6673 0.6102 1.2063, -0.7366 0.6102 1.2594, -0.7898 0.6102 1.3287, -0.8232 0.6102 1.4095, -0.8346 0.6102 1.4961, -0.8232 0.6102 1.5827, -0.7898 0.6102 1.6634, -0.7366 0.6102 1.7327, -0.6673 0.6102 1.7859, -0.5866 0.6102 1.8193, -0.5 0.6102 1.8307, -0.5 0.6102 1.4961, -0.2638 0.3324 0.7375, -0.2638 0.3324 1.1637, 0.2638 0.3324 1.1637, 0.2638 0.3324 0.7375, 0.0 0.3324 0.7375, -0.7362 0.3324 1.1637, -1.0 0.3324 1.1637, -0.7362 0.3324 1.8597, -1.0 0.3324 1.8597, -0.2638 0.3324 1.8597, 0.2638 0.3324 1.8597, 0.2638 0.3324 1.8597
            ]
        }
        coordIndex [
            0,1,2,-1,2,1,3,-1,4,5,6,-1,7,8,9,-1,9,8,10,-1,11,12,13,-1,14,15,16,-1,17,18,16,-1,16,18,19,-1,15,14,13,-1,13,14,20,-1,13,20,11,-1,12,21,13,-1,13,21,22,-1,13,22,7,-1,7,22,23,-1,7,23,8,-1,19,24,3,-1,3,24,25,-1,3,25,2,-1,3,26,19,-1,19,26,27,-1,19,27,28,-1,29,30,31,-1,28,32,19,-1,19,32,33,-1,19,33,16,-1,16,33,34,-1,16,34,14,-1,35,36,37,-1,38,39,40,-1,40,39,41,-1,42,43,40,-1,6,29,4,-1,4,29,31,-1,4,31,25,-1,25,31,44,-1,25,44,2,-1,2,44,45,-1,2,45,46,-1,46,45,40,-1,46,40,47,-1,47,40,43,-1,48,49,50,-1,50,49,51,-1,51,52,50,-1,50,52,53,-1,50,53,41,-1,41,53,54,-1,41,54,40,-1,40,54,55,-1,40,55,42,-1,37,9,35,-1,35,9,10,-1,35,10,50,-1,50,10,56,-1,50,56,48,-1,57,58,59,-1,60,61,62,-1,62,61,63,-1,64,65,66,-1,66,65,67,-1,68,69,59,-1,59,69,70,-1,59,70,71,-1,72,73,74,-1,75,76,77,-1,77,76,62,-1,77,62,78,-1,79,80,81,-1,80,82,81,-1,81,82,83,-1,81,83,84,-1,74,73,85,-1,86,87,59,-1,88,89,59,-1,90,91,92,-1,92,91,93,-1,75,94,76,-1,76,94,95,-1,76,95,96,-1,88,59,97,-1,89,98,99,-1,90,100,91,-1,91,100,101,-1,91,101,102,-1,62,103,104,-1,62,104,73,-1,73,104,105,-1,73,105,85,-1,73,106,62,-1,62,106,107,-1,62,107,108,-1,109,110,76,-1,76,110,111,-1,76,111,59,-1,59,111,112,-1,59,112,97,-1,93,91,89,-1,89,91,113,-1,89,113,98,-1,99,114,89,-1,89,114,115,-1,89,115,59,-1,59,115,116,-1,59,116,68,-1,117,118,67,-1,119,62,67,-1,67,62,63,-1,67,63,66,-1,120,121,122,-1,108,123,62,-1,62,123,124,-1,62,124,78,-1,125,126,76,-1,76,126,127,-1,76,127,109,-1,128,129,130,-1,130,129,131,-1,130,131,132,-1,132,131,133,-1,134,135,59,-1,59,135,136,-1,59,136,86,-1,84,137,81,-1,81,137,138,-1,81,138,139,-1,139,138,140,-1,139,140,141,-1,96,142,76,-1,76,142,143,-1,76,143,125,-1,144,145,67,-1,67,145,146,-1,67,146,119,-1,147,148,149,-1,149,148,150,-1,72,74,133,-1,133,74,151,-1,133,151,152,-1,71,153,59,-1,59,153,154,-1,59,154,155,-1,128,156,129,-1,129,156,157,-1,129,157,141,-1,141,157,158,-1,141,158,139,-1,159,67,160,-1,160,67,161,-1,118,162,67,-1,67,162,163,-1,67,163,164,-1,121,120,165,-1,165,120,166,-1,165,166,150,-1,150,166,167,-1,150,167,149,-1,147,168,148,-1,148,168,169,-1,148,169,170,-1,170,169,171,-1,152,172,133,-1,133,172,173,-1,133,173,132,-1,155,174,59,-1,59,174,175,-1,59,175,134,-1,164,176,67,-1,67,176,177,-1,67,177,178,-1,178,179,67,-1,67,179,180,-1,67,180,144,-1,181,182,62,-1,62,182,183,-1,62,183,103,-1,122,184,120,-1,120,184,185,-1,120,185,186,-1,159,187,67,-1,67,187,188,-1,67,188,189,-1,189,190,67,-1,67,190,191,-1,67,191,117,-1,119,192,62,-1,62,192,193,-1,62,193,194,-1,194,195,62,-1,62,195,120,-1,62,120,181,-1,181,120,186,-1,196,197,198,-1,199,200,201,-1,201,200,202,-1,203,204,205,-1,206,207,208,-1,208,207,209,-1,208,209,210,-1,211,212,213,-1,214,215,202,-1,202,215,216,-1,202,216,201,-1,217,206,218,-1,219,220,221,-1,221,220,202,-1,221,202,209,-1,209,202,222,-1,209,222,210,-1,210,222,223,-1,205,224,203,-1,203,224,225,-1,203,225,226,-1,206,227,228,-1,229,230,231,-1,232,233,234,-1,235,236,237,-1,237,236,238,-1,237,238,239,-1,240,241,242,-1,217,243,206,-1,206,243,244,-1,206,244,227,-1,228,245,206,-1,206,245,246,-1,206,246,207,-1,247,248,232,-1,232,248,249,-1,232,249,233,-1,199,250,200,-1,200,250,251,-1,200,251,252,-1,253,200,254,-1,254,200,255,-1,256,257,258,-1,258,257,259,-1,260,261,262,-1,213,212,263,-1,264,218,265,-1,265,218,266,-1,264,267,218,-1,218,267,268,-1,218,268,217,-1,269,270,202,-1,202,270,271,-1,202,271,214,-1,223,272,210,-1,210,272,273,-1,210,273,274,-1,252,275,200,-1,200,275,276,-1,200,276,255,-1,262,277,260,-1,260,277,278,-1,260,278,279,-1,279,278,258,-1,279,258,280,-1,280,258,259,-1,281,282,283,-1,283,282,284,-1,283,284,285,-1,285,284,286,-1,285,286,287,-1,288,289,290,-1,291,292,293,-1,293,292,294,-1,293,294,295,-1,220,296,202,-1,202,296,229,-1,202,229,269,-1,269,229,231,-1,234,297,232,-1,232,297,210,-1,232,210,298,-1,298,210,274,-1,299,213,300,-1,300,213,301,-1,300,301,302,-1,302,301,235,-1,302,235,303,-1,303,235,237,-1,299,304,213,-1,213,304,305,-1,213,305,306,-1,307,308,309,-1,309,308,310,-1,311,312,313,-1,313,312,314,-1,315,316,242,-1,242,316,317,-1,242,317,240,-1,318,319,320,-1,261,260,283,-1,283,260,321,-1,283,321,281,-1,306,322,213,-1,213,322,323,-1,213,323,211,-1,290,289,324,-1,324,289,325,-1,324,325,295,-1,295,325,326,-1,295,326,293,-1,239,327,237,-1,237,327,328,-1,237,328,58,-1,204,203,329,-1,329,203,200,-1,329,200,330,-1,331,332,59,-1,59,332,333,-1,59,333,334,-1,241,335,242,-1,242,335,336,-1,242,336,337,-1,337,336,318,-1,337,318,338,-1,338,318,320,-1,263,212,290,-1,290,212,339,-1,290,339,288,-1,340,341,342,-1,343,344,76,-1,76,344,291,-1,345,346,347,-1,348,349,59,-1,59,349,350,-1,59,350,331,-1,315,59,286,-1,286,59,334,-1,286,334,287,-1,293,351,291,-1,291,351,352,-1,291,352,76,-1,76,352,198,-1,353,354,355,-1,355,354,356,-1,355,356,309,-1,253,357,200,-1,200,357,358,-1,200,358,330,-1,330,358,313,-1,330,313,359,-1,359,313,360,-1,328,329,58,-1,58,329,330,-1,58,330,59,-1,59,330,361,-1,59,361,348,-1,221,362,219,-1,219,362,363,-1,219,363,341,-1,341,363,364,-1,341,364,342,-1,343,76,365,-1,365,76,366,-1,365,366,342,-1,342,366,367,-1,342,367,340,-1,196,198,355,-1,355,198,368,-1,355,368,353,-1,369,370,371,-1,371,370,372,-1,371,372,314,-1,373,374,375,-1,314,372,313,-1,313,372,376,-1,313,376,360,-1,315,242,59,-1,59,242,377,-1,59,377,378,-1,76,379,380,-1,381,382,198,-1,198,382,383,-1,198,383,368,-1,378,384,59,-1,59,384,385,-1,59,385,76,-1,76,385,386,-1,76,386,379,-1,375,387,373,-1,373,387,388,-1,373,388,389,-1,352,390,198,-1,198,390,391,-1,198,391,392,-1,393,394,392,-1,392,394,395,-1,392,395,198,-1,198,395,396,-1,198,396,397,-1,397,398,198,-1,198,398,399,-1,198,399,381,-1,400,401,76,-1,76,401,402,-1,76,402,366,-1,380,403,76,-1,76,403,404,-1,76,404,405,-1,405,406,76,-1,76,406,373,-1,76,373,400,-1,400,373,389,-1,161,67,407,-1,407,67,10,-1,407,10,408,-1,408,10,8,-1,408,8,81,-1,310,345,309,-1,309,345,347,-1,309,347,355,-1,355,347,409,-1,355,409,23,-1,23,409,57,-1,23,57,8,-1,8,57,59,-1,8,59,81,-1,81,59,87,-1,81,87,79,-1,410,411,412,-1,60,413,61,-1,61,413,414,-1,415,416,417,-1,418,419,420,-1,420,419,414,-1,420,414,421,-1,418,410,419,-1,419,410,412,-1,419,412,64,-1,64,412,422,-1,64,422,65,-1,421,414,423,-1,423,414,413,-1,423,413,424,-1,424,413,425,-1,424,425,426,-1,427,428,429,-1,429,428,430,-1,429,430,431,-1,422,432,65,-1,65,432,428,-1,65,428,433,-1,433,428,427,-1,418,434,0,-1,0,434,435,-1,0,435,1,-1,0,436,418,-1,418,436,437,-1,418,437,438,-1,426,439,424,-1,424,439,440,-1,424,440,441,-1,441,442,424,-1,424,442,443,-1,424,443,444,-1,444,443,1,-1,444,1,421,-1,421,1,435,-1,421,435,420,-1,445,446,415,-1,446,447,415,-1,415,447,448,-1,415,448,449,-1,438,450,418,-1,418,450,451,-1,418,451,410,-1,452,426,453,-1,453,426,425,-1,453,425,417,-1,417,425,197,-1,417,197,415,-1,415,197,196,-1,415,196,445,-1,428,432,454,-1,411,410,455,-1,455,410,54,-1,455,54,454,-1,454,54,53,-1,454,53,428,-1,456,457,458,-1,458,457,459,-1,460,461,462,-1,462,461,458,-1,462,458,463,-1,463,458,459,-1,463,459,464,-1,464,459,465,-1,466,467,468,-1,469,470,471,-1,471,470,472,-1,473,471,474,-1,474,471,472,-1,474,472,475,-1,476,477,478,-1,473,474,479,-1,479,474,480,-1,479,480,481,-1,482,483,465,-1,484,485,486,-1,487,488,489,-1,489,488,471,-1,489,471,490,-1,490,471,473,-1,478,491,476,-1,476,491,492,-1,476,492,493,-1,493,492,494,-1,493,494,495,-1,495,494,496,-1,465,483,464,-1,483,497,464,-1,464,497,498,-1,464,498,499,-1,499,498,500,-1,499,500,501,-1,502,468,503,-1,503,468,504,-1,496,505,495,-1,495,505,506,-1,495,506,480,-1,480,506,507,-1,480,507,481,-1,508,509,510,-1,510,509,511,-1,510,511,465,-1,465,511,512,-1,465,512,482,-1,502,513,468,-1,468,513,484,-1,468,484,466,-1,466,484,486,-1,514,515,516,-1,516,515,517,-1,516,517,477,-1,477,517,518,-1,477,518,478,-1,510,519,508,-1,508,519,484,-1,508,484,520,-1,520,484,513,-1,521,522,523,-1,523,522,515,-1,501,524,499,-1,499,524,525,-1,499,525,526,-1,526,525,527,-1,526,527,528,-1,528,527,529,-1,528,529,514,-1,514,529,530,-1,514,530,515,-1,515,530,531,-1,515,531,523,-1,489,532,487,-1,487,532,533,-1,487,533,468,-1,533,534,468,-1,468,534,535,-1,468,535,504,-1,504,535,536,-1,504,536,537,-1,537,536,538,-1,537,538,521,-1,521,538,539,-1,521,539,522,-1,471,488,540,-1,467,466,541,-1,541,466,29,-1,541,29,540,-1,540,29,6,-1,540,6,471,-1,542,543,477,-1,544,545,546,-1,477,476,542,-1,542,476,544,-1,542,544,547,-1,547,544,546,-1,548,549,550,-1,16,548,17,-1,17,548,550,-1,17,550,472,-1,472,550,475,-1,472,470,17,-1,17,470,18,-1,19,18,470,-1,5,4,469,-1,469,4,423,-1,469,423,470,-1,470,423,424,-1,470,424,19,-1,424,444,19,-1,19,444,24,-1,444,421,24,-1,24,421,25,-1,421,423,25,-1,25,423,4,-1,469,471,5,-1,5,471,6,-1,198,551,76,-1,76,551,552,-1,76,552,62,-1,551,425,552,-1,552,425,413,-1,425,551,197,-1,197,551,198,-1,552,413,62,-1,62,413,60,-1,489,553,532,-1,532,553,554,-1,532,554,533,-1,533,554,555,-1,533,555,534,-1,534,555,556,-1,534,556,535,-1,535,556,557,-1,535,557,536,-1,536,557,558,-1,536,558,538,-1,538,558,559,-1,538,559,539,-1,539,559,560,-1,539,560,522,-1,522,560,561,-1,522,561,515,-1,515,561,562,-1,515,562,517,-1,517,562,563,-1,517,563,518,-1,518,563,564,-1,518,564,478,-1,478,564,565,-1,478,565,491,-1,491,565,566,-1,491,566,492,-1,492,566,567,-1,492,567,494,-1,494,567,568,-1,494,568,496,-1,496,568,569,-1,496,569,505,-1,505,569,570,-1,505,570,506,-1,506,570,571,-1,506,571,507,-1,507,571,572,-1,507,572,481,-1,481,572,573,-1,481,573,479,-1,479,573,574,-1,479,574,473,-1,473,574,575,-1,473,575,490,-1,490,575,576,-1,490,576,489,-1,489,576,553,-1,566,565,577,-1,577,565,564,-1,577,564,563,-1,569,568,577,-1,577,568,567,-1,577,567,566,-1,572,571,577,-1,577,571,570,-1,577,570,569,-1,575,574,577,-1,577,574,573,-1,577,573,572,-1,554,553,577,-1,577,553,576,-1,577,576,575,-1,557,556,577,-1,577,556,555,-1,577,555,554,-1,560,559,577,-1,577,559,558,-1,577,558,557,-1,563,562,577,-1,577,562,561,-1,577,561,560,-1,578,579,543,-1,543,579,516,-1,543,516,477,-1,579,580,516,-1,516,580,514,-1,581,580,582,-1,582,580,579,-1,582,579,578,-1,583,544,493,-1,493,544,476,-1,584,583,495,-1,495,583,493,-1,544,583,545,-1,545,583,584,-1,585,586,474,-1,474,586,480,-1,550,585,475,-1,475,585,474,-1,585,550,586,-1,586,550,549,-1,587,540,487,-1,487,540,488,-1,588,587,468,-1,468,587,487,-1,541,540,588,-1,588,540,587,-1,
        ]
    }
}
Shape{
    appearance Appearance {
        material  Material 	{
            diffuseColor 0.6470588235294118 0.6196078431372549 0.5882352941176471
            specularColor 0.45098039215686275 0.43529411764705883 0.4117647058823529
            ambientIntensity 0.2
            transparency 0
            shininess 0.5
        }
    }
    geometry IndexedFaceSet {
        ccw TRUE
        solid FALSE
        coord DEF co Coordinate {
            point [
                0.0 0.3324 0.7375, -0.2638 0.3324 0.7375, 0.0 0.374 0.7375, -0.2638 0.374 0.7375, -0.2638 0.374 0.7375
            ]
        }
        coordIndex [
            0,1,2,-1,2,1,3,-1,
        ]
    }
}
Shape{
    appearance Appearance {
        material  Material 	{
            diffuseColor 0.24705882352941178 0.49411764705882355 0.27450980392156865
            specularColor 0.01568627450980392 0.03529411764705882 0.0196078431372549
            ambientIntensity 0.2
            transparency 0
            shininess 0.5
        }
    }
    geometry IndexedFaceSet {
        ccw TRUE
        solid FALSE
        coord DEF co Coordinate {
            point [
                -0.5 -1.9882 0.5407, -0.5 -1.9882 0.2375, -0.5 -1.7913 0.7375, -0.5 0.374 0.2375, -0.5 0.374 0.7375, 0.0 0.374 0.2375, 0.0 -1.9882 0.2375, -0.2638 0.374 0.7375, 0.0 0.374 0.7375, -1.374 1.9882 3.0709, -1.374 1.9882 2.3622, -1.374 1.5945 2.3622, -1.374 1.9882 0.7874, -1.374 1.9882 0.0787, -1.374 1.5945 0.7874, -1.374 -1.9882 0.0787, -1.374 -1.9882 3.0709, -1.0 -1.7913 0.7375, -1.0 0.3324 0.7375, -1.0 -1.7913 2.295, -1.0 0.3324 1.1637, -1.0 0.3324 2.295, -1.0 0.3324 1.8597, -1.0 0.7677 1.8597, -1.0 0.7677 1.1637, 1.0 -1.7913 2.295, 1.1969 -1.9882 2.295, 0.6772 -1.9882 2.295, 0.6772 0.7677 2.295, 0.7362 0.7677 2.295, 0.7362 0.3324 2.295, 1.0 0.3324 2.295, 0.5 0.374 0.7375, 0.7362 0.374 0.7375, 0.7362 0.7677 0.7375, 0.2638 0.3324 0.7375, 0.0 0.3324 0.7375, 0.0 -1.7913 0.7375, 0.2638 0.7677 0.7375, 0.5 -1.7913 0.7375, 0.0 -1.9882 0.5407, 0.3228 0.7677 2.295, 0.3228 0.7677 2.5221, 0.3228 -1.9882 2.295, 0.3228 -1.9882 2.5221, 0.1066 -1.9882 2.5221, 0.6772 -1.9882 2.5221, 0.8934 -1.9882 2.5221, 0.6772 0.7677 2.5221, 0.8934 1.9882 2.5221, 0.1066 1.9882 2.5221, 0.1066 1.9882 2.8379, 0.1066 -1.9882 2.8379, 0.8934 1.9882 2.8379, 0.8934 -1.9882 2.8379, 0.185 1.2008 0.0, 0.185 1.2008 2.3622, 0.815 1.2008 0.0, 0.815 1.2008 2.3622, 0.185 1.9882 2.3622, 0.815 1.9882 2.3622, 0.185 1.9882 0.0, 0.815 1.9882 0.0, 0.5 0.7677 1.8307, 0.5866 0.6102 1.8193, 0.5866 0.7677 1.8193, 0.6673 0.6102 1.7859, 0.6673 0.7677 1.7859, 0.7366 0.6102 1.7327, 0.7366 0.7677 1.7327, 0.7898 0.6102 1.6634, 0.7898 0.7677 1.6634, 0.8232 0.6102 1.5827, 0.8232 0.7677 1.5827, 0.8346 0.6102 1.4961, 0.8346 0.7677 1.4961, 0.8232 0.6102 1.4095, 0.8232 0.7677 1.4095, 0.7898 0.6102 1.3287, 0.7898 0.7677 1.3287, 0.7366 0.6102 1.2594, 0.7366 0.7677 1.2594, 0.6673 0.6102 1.2063, 0.6673 0.7677 1.2063, 0.5866 0.6102 1.1728, 0.5866 0.7677 1.1728, 0.5 0.6102 1.1614, 0.5 0.7677 1.1614, 0.4134 0.6102 1.1728, 0.4134 0.7677 1.1728, 0.3327 0.6102 1.2063, 0.3327 0.7677 1.2063, 0.2634 0.6102 1.2594, 0.2634 0.7677 1.2594, 0.2102 0.6102 1.3287, 0.2102 0.7677 1.3287, 0.1768 0.6102 1.4095, 0.1768 0.7677 1.4095, 0.1654 0.6102 1.4961, 0.1654 0.7677 1.4961, 0.1768 0.6102 1.5827, 0.1768 0.7677 1.5827, 0.2102 0.6102 1.6634, 0.2102 0.7677 1.6634, 0.2634 0.6102 1.7327, 0.2634 0.7677 1.7327, 0.3327 0.6102 1.7859, 0.3327 0.7677 1.7859, 0.4134 0.6102 1.8193, 0.4134 0.7677 1.8193, 0.5 0.6102 1.8307, 0.5 0.6102 1.4961, 0.7362 0.3324 0.7375, 0.7362 0.3324 1.1637, 0.7362 0.7677 1.1637, 1.0 0.3324 1.1637, 1.0 0.7677 1.1637, 1.0 0.3324 0.7375, 0.2638 0.3324 1.1637, 0.2638 0.7677 1.1637, 0.2638 0.3324 2.295, 0.2638 0.3324 1.8597, 0.2638 0.7677 2.295, 0.2638 0.7677 1.8597, 0.7362 0.3324 1.8597, 0.7362 0.7677 1.8597, 1.0 0.3324 1.8597, 1.0 0.7677 1.8597, 1.0 0.374 0.7375, 1.0 0.374 0.2375, 0.5 0.374 0.2375, 1.0 -1.7913 0.2375, 0.5 -1.9882 0.2375, 1.1969 -1.9882 0.2375, 0.5 -1.9882 0.5407, -1.1969 -1.9882 0.5407, -1.1969 -1.9882 2.295, -1.1378 1.5945 0.7874, -1.1378 1.9882 0.7874, -1.1378 1.9882 2.3622, -1.1378 1.5945 2.3622, 1.1378 1.5945 0.7874, 1.1378 1.5945 2.3622, 1.374 1.5945 0.7874, 1.374 1.5945 2.3622, 1.1378 1.9882 2.3622, 1.374 1.9882 2.3622, 1.1378 1.9882 0.7874, 1.374 1.9882 0.7874, 1.374 1.9882 0.0787, 1.374 -1.9882 0.0787, 1.3713 -1.9882 0.0584, 1.3157 -1.9882 0.0027, 1.2953 -1.9882 0.0, 1.2953 -0.816 0.0, 1.3713 1.9882 0.0584, 1.3635 -1.9882 0.0394, 1.3635 1.9882 0.0394, 1.351 -1.9882 0.0231, 1.351 1.9882 0.0231, 1.3346 -1.9882 0.0105, 1.3346 1.9882 0.0105, 1.3157 1.9882 0.0027, 1.2953 1.9882 0.0, 1.374 -1.9882 3.0709, 1.374 1.9882 3.0709, 1.3713 1.9882 3.0912, 1.3713 -1.9882 3.0912, 1.3635 1.9882 3.1102, 1.3635 -1.9882 3.1102, 1.351 1.9882 3.1265, 1.351 -1.9882 3.1265, 1.3346 1.9882 3.1391, 1.3346 -1.9882 3.1391, 1.3157 1.9882 3.1469, 1.3157 -1.9882 3.1469, 1.2953 1.9882 3.1496, 1.2953 -1.9882 3.1496, -1.2953 -0.816 0.0, -1.2953 -1.9882 0.0, -1.3157 -1.9882 0.0027, -1.3157 1.9882 0.0027, -1.3346 -1.9882 0.0105, -1.3346 1.9882 0.0105, -1.351 -1.9882 0.0231, -1.351 1.9882 0.0231, -1.3635 -1.9882 0.0394, -1.3635 1.9882 0.0394, -1.3713 -1.9882 0.0584, -1.3713 1.9882 0.0584, -1.2953 1.9882 0.0, -1.3713 -1.9882 3.0912, -1.3713 1.9882 3.0912, -1.3635 -1.9882 3.1102, -1.3635 1.9882 3.1102, -1.351 -1.9882 3.1265, -1.351 1.9882 3.1265, -1.3346 -1.9882 3.1391, -1.3346 1.9882 3.1391, -1.3157 -1.9882 3.1469, -1.3157 1.9882 3.1469, -1.2953 -1.9882 3.1496, -1.2953 1.9882 3.1496, -0.1599 -0.4933 0.0039, -0.1599 -0.4933 0.0, -0.1417 -0.5776 0.0039, -0.1417 -0.5776 0.0, -0.1417 -0.5776 0.0
            ]
        }
        coordIndex [
            0,1,2,-1,2,1,3,-1,2,3,4,-1,5,3,6,-1,6,3,1,-1,4,3,7,-1,7,3,5,-1,7,5,8,-1,9,10,11,-1,12,13,14,-1,14,13,15,-1,14,15,11,-1,11,15,16,-1,11,16,9,-1,17,18,19,-1,19,18,20,-1,21,19,22,-1,22,19,20,-1,22,20,23,-1,23,20,24,-1,25,26,27,-1,28,29,30,-1,28,30,27,-1,27,30,31,-1,27,31,25,-1,32,33,34,-1,35,36,37,-1,34,38,32,-1,32,38,35,-1,32,35,39,-1,39,35,37,-1,36,8,5,-1,37,36,40,-1,40,36,5,-1,40,5,6,-1,41,42,43,-1,43,42,44,-1,45,44,42,-1,46,47,48,-1,48,47,49,-1,48,49,42,-1,42,49,50,-1,42,50,45,-1,50,51,45,-1,45,51,52,-1,51,53,52,-1,52,53,54,-1,53,49,54,-1,54,49,47,-1,48,28,46,-1,46,28,27,-1,55,56,57,-1,57,56,58,-1,56,59,58,-1,58,59,60,-1,59,56,61,-1,61,56,55,-1,58,60,57,-1,57,60,62,-1,63,64,65,-1,65,64,66,-1,65,66,67,-1,67,66,68,-1,67,68,69,-1,69,68,70,-1,69,70,71,-1,71,70,72,-1,71,72,73,-1,73,72,74,-1,73,74,75,-1,75,74,76,-1,75,76,77,-1,77,76,78,-1,77,78,79,-1,79,78,80,-1,79,80,81,-1,81,80,82,-1,81,82,83,-1,83,82,84,-1,83,84,85,-1,85,84,86,-1,85,86,87,-1,87,86,88,-1,87,88,89,-1,89,88,90,-1,89,90,91,-1,91,90,92,-1,91,92,93,-1,93,92,94,-1,93,94,95,-1,95,94,96,-1,95,96,97,-1,97,96,98,-1,97,98,99,-1,99,98,100,-1,99,100,101,-1,101,100,102,-1,101,102,103,-1,103,102,104,-1,103,104,105,-1,105,104,106,-1,105,106,107,-1,107,106,108,-1,107,108,109,-1,109,108,110,-1,109,110,63,-1,63,110,64,-1,90,88,111,-1,111,88,86,-1,111,86,84,-1,96,94,111,-1,111,94,92,-1,111,92,90,-1,102,100,111,-1,111,100,98,-1,111,98,96,-1,108,106,111,-1,111,106,104,-1,111,104,102,-1,66,64,111,-1,111,64,110,-1,111,110,108,-1,72,70,111,-1,111,70,68,-1,111,68,66,-1,78,76,111,-1,111,76,74,-1,111,74,72,-1,84,82,111,-1,111,82,80,-1,111,80,78,-1,112,113,33,-1,33,113,114,-1,33,114,34,-1,113,115,114,-1,114,115,116,-1,117,115,112,-1,112,115,113,-1,118,35,119,-1,119,35,38,-1,120,121,122,-1,122,121,123,-1,124,30,125,-1,125,30,29,-1,126,124,127,-1,127,124,125,-1,30,124,31,-1,31,124,126,-1,117,112,128,-1,128,112,33,-1,129,130,131,-1,131,130,132,-1,131,132,133,-1,134,132,39,-1,39,132,130,-1,39,130,32,-1,32,130,33,-1,33,130,129,-1,33,129,128,-1,37,40,39,-1,39,40,134,-1,26,25,133,-1,133,25,131,-1,17,135,2,-1,2,135,0,-1,19,136,17,-1,17,136,135,-1,137,138,14,-1,14,138,12,-1,139,140,10,-1,10,140,11,-1,140,137,11,-1,11,137,14,-1,140,139,137,-1,137,139,138,-1,141,142,143,-1,143,142,144,-1,142,145,144,-1,144,145,146,-1,147,141,148,-1,148,141,143,-1,147,145,141,-1,141,145,142,-1,149,150,151,-1,152,153,154,-1,149,151,155,-1,155,151,156,-1,155,156,157,-1,157,156,158,-1,157,158,159,-1,159,158,160,-1,159,160,161,-1,161,160,152,-1,161,152,162,-1,162,152,154,-1,162,154,163,-1,164,165,166,-1,164,166,167,-1,167,166,168,-1,167,168,169,-1,169,168,170,-1,169,170,171,-1,171,170,172,-1,171,172,173,-1,173,172,174,-1,173,174,175,-1,175,174,176,-1,175,176,177,-1,178,179,180,-1,181,182,183,-1,183,182,184,-1,183,184,185,-1,185,184,186,-1,185,186,187,-1,187,186,188,-1,187,188,189,-1,189,188,15,-1,189,15,13,-1,190,178,181,-1,181,178,180,-1,181,180,182,-1,9,16,191,-1,9,191,192,-1,192,191,193,-1,192,193,194,-1,194,193,195,-1,194,195,196,-1,196,195,197,-1,196,197,198,-1,198,197,199,-1,198,199,200,-1,200,199,201,-1,200,201,202,-1,203,204,205,-1,205,204,206,-1,
        ]
    }
}
Shape{
    appearance Appearance {
        material  Material 	{
            diffuseColor 0.6470588235294118 0.6196078431372549 0.5882352941176471
            specularColor 0.45098039215686275 0.43529411764705883 0.4117647058823529
            ambientIntensity 0.2
            transparency 0
            shininess 0.5
        }
    }
    geometry IndexedFaceSet {
        ccw TRUE
        solid FALSE
        coord DEF co Coordinate {
            point [
                -0.1684 -0.4502 0.0039, -0.1684 -0.4502 0.0, -0.1599 -0.4933 0.0039, -0.1599 -0.4933 0.0, -0.1599 -0.4933 0.0
            ]
        }
        coordIndex [
            0,1,2,-1,2,1,3,-1,
        ]
    }
}
Shape{
    appearance Appearance {
        material  Material 	{
            diffuseColor 0.24705882352941178 0.49411764705882355 0.27450980392156865
            specularColor 0.01568627450980392 0.03529411764705882 0.0196078431372549
            ambientIntensity 0.2
            transparency 0
            shininess 0.5
        }
    }
    geometry IndexedFaceSet {
        ccw TRUE
        solid FALSE
        coord DEF co Coordinate {
            point [
                -0.1718 -0.4366 0.0039, -0.1718 -0.4366 0.0, -0.1684 -0.4502 0.0039, -0.1684 -0.4502 0.0, -0.1797 -0.4479 0.0039, -0.1797 -0.4479 0.0, -0.179 -0.4411 0.0, -0.179 -0.4411 0.0039, -0.178 -0.434 0.0, -0.178 -0.434 0.0039, -0.1776 -0.4326 0.0, -0.1776 -0.4326 0.0039, -0.1773 -0.432 0.0, -0.1773 -0.432 0.0039, -0.1769 -0.4316 0.0, -0.1769 -0.4316 0.0039, -0.1765 -0.4314 0.0, -0.1765 -0.4314 0.0039, -0.1761 -0.4312 0.0, -0.1761 -0.4312 0.0039, -0.1757 -0.4312 0.0, -0.1757 -0.4312 0.0039, -0.1753 -0.4312 0.0, -0.1753 -0.4312 0.0039, -0.1748 -0.4314 0.0, -0.1748 -0.4314 0.0039, -0.1743 -0.4318 0.0, -0.1743 -0.4318 0.0039, -0.1738 -0.4324 0.0, -0.1738 -0.4324 0.0039, -0.1732 -0.4333 0.0, -0.1732 -0.4333 0.0039, -0.1725 -0.4347 0.0, -0.1725 -0.4347 0.0039, -0.1825 -0.4717 0.0039, -0.1825 -0.4717 0.0, -0.1808 -0.4933 0.0039, -0.1808 -0.4933 0.0, -0.182 -0.4911 0.0, -0.182 -0.4911 0.0039, -0.183 -0.4879 0.0, -0.183 -0.4879 0.0039, -0.1833 -0.4827 0.0, -0.1833 -0.4827 0.0039, -0.178 -0.4984 0.0039, -0.178 -0.4984 0.0, -0.1644 -0.5482 0.0039, -0.1644 -0.5482 0.0, -0.1706 -0.5231 0.0, -0.1706 -0.5231 0.0039, -0.1066 -0.816 0.0, -0.1061 -0.8182 0.0039, -0.1061 -0.8182 0.0, -0.0982 -0.8182 0.0039, -0.0982 -0.8182 0.0, -0.0433 -0.5754 0.0039, -0.0433 -0.5754 0.0, -0.0977 -0.816 0.0, -0.0365 -0.547 0.0039, -0.0365 -0.547 0.0, -0.0297 -0.5204 0.0039, -0.0297 -0.5204 0.0, -0.0334 -0.5336 0.0, -0.0334 -0.5336 0.0039, -0.0257 -0.5097 0.0039, -0.0257 -0.5097 0.0, -0.0257 -0.5097 0.0
            ]
        }
        coordIndex [
            0,1,2,-1,2,1,3,-1,4,5,6,-1,4,6,7,-1,7,6,8,-1,7,8,9,-1,9,8,10,-1,9,10,11,-1,11,10,12,-1,11,12,13,-1,13,12,14,-1,13,14,15,-1,15,14,16,-1,15,16,17,-1,17,16,18,-1,17,18,19,-1,19,18,20,-1,19,20,21,-1,21,20,22,-1,21,22,23,-1,23,22,24,-1,23,24,25,-1,25,24,26,-1,25,26,27,-1,27,26,28,-1,27,28,29,-1,29,28,30,-1,29,30,31,-1,31,30,32,-1,31,32,33,-1,33,32,1,-1,33,1,0,-1,34,35,4,-1,4,35,5,-1,36,37,38,-1,36,38,39,-1,39,38,40,-1,39,40,41,-1,41,40,42,-1,41,42,43,-1,43,42,35,-1,43,35,34,-1,44,45,36,-1,36,45,37,-1,46,47,48,-1,46,48,49,-1,49,48,45,-1,49,45,44,-1,47,46,50,-1,50,46,51,-1,50,51,52,-1,53,54,51,-1,51,54,52,-1,55,56,53,-1,53,56,57,-1,53,57,54,-1,58,59,55,-1,55,59,56,-1,60,61,62,-1,60,62,63,-1,63,62,59,-1,63,59,58,-1,64,65,60,-1,60,65,61,-1,
        ]
    }
}
Shape{
    appearance Appearance {
        material  Material 	{
            diffuseColor 0.6470588235294118 0.6196078431372549 0.5882352941176471
            specularColor 0.45098039215686275 0.43529411764705883 0.4117647058823529
            ambientIntensity 0.2
            transparency 0
            shininess 0.5
        }
    }
    geometry IndexedFaceSet {
        ccw TRUE
        solid FALSE
        coord DEF co Coordinate {
            point [
                -0.0177 -0.4762 0.0039, -0.0177 -0.4762 0.0, -0.0177 -0.4764 0.0, -0.0177 -0.4764 0.0039, -0.0169 -0.4897 0.0, -0.0169 -0.4897 0.0039, -0.0168 -0.4918 0.0, -0.0168 -0.4918 0.0039, -0.017 -0.4924 0.0, -0.017 -0.4924 0.0039, -0.0173 -0.493 0.0, -0.0173 -0.493 0.0039, -0.018 -0.4939 0.0, -0.018 -0.4939 0.0039, -0.0197 -0.496 0.0, -0.0197 -0.496 0.0039, -0.0221 -0.4996 0.0, -0.0221 -0.4996 0.0039, -0.0257 -0.5097 0.0, -0.0257 -0.5097 0.0039, -0.0257 -0.5097 0.0039
            ]
        }
        coordIndex [
            0,1,2,-1,0,2,3,-1,3,2,4,-1,3,4,5,-1,5,4,6,-1,5,6,7,-1,7,6,8,-1,7,8,9,-1,9,8,10,-1,9,10,11,-1,11,10,12,-1,11,12,13,-1,13,12,14,-1,13,14,15,-1,15,14,16,-1,15,16,17,-1,17,16,18,-1,17,18,19,-1,
        ]
    }
}
Shape{
    appearance Appearance {
        material  Material 	{
            diffuseColor 0.24705882352941178 0.49411764705882355 0.27450980392156865
            specularColor 0.01568627450980392 0.03529411764705882 0.0196078431372549
            ambientIntensity 0.2
            transparency 0
            shininess 0.5
        }
    }
    geometry IndexedFaceSet {
        ccw TRUE
        solid FALSE
        coord DEF co Coordinate {
            point [
                -0.02 -0.4508 0.0039, -0.02 -0.4508 0.0, -0.0177 -0.4762 0.0039, -0.0177 -0.4762 0.0, -0.0212 -0.4412 0.0039, -0.0212 -0.4412 0.0, -0.0274 -0.436 0.0039, -0.0274 -0.436 0.0, -0.027 -0.4345 0.0, -0.027 -0.4345 0.0039, -0.0265 -0.4335 0.0, -0.0265 -0.4335 0.0039, -0.026 -0.4329 0.0, -0.026 -0.4329 0.0039, -0.0256 -0.4325 0.0, -0.0256 -0.4325 0.0039, -0.025 -0.4321 0.0, -0.025 -0.4321 0.0039, -0.0244 -0.432 0.0, -0.0244 -0.432 0.0039, -0.024 -0.432 0.0, -0.024 -0.432 0.0039, -0.0236 -0.4321 0.0, -0.0236 -0.4321 0.0039, -0.0232 -0.4324 0.0, -0.0232 -0.4324 0.0039, -0.0228 -0.4327 0.0, -0.0228 -0.4327 0.0039, -0.0225 -0.4331 0.0, -0.0225 -0.4331 0.0039, -0.0222 -0.4337 0.0, -0.0222 -0.4337 0.0039, -0.022 -0.4346 0.0, -0.022 -0.4346 0.0039, -0.0217 -0.4361 0.0, -0.0217 -0.4361 0.0039, -0.0214 -0.4382 0.0, -0.0214 -0.4382 0.0039, -0.0313 -0.4587 0.0039, -0.0313 -0.4587 0.0, -0.0647 -0.5963 0.0039, -0.0647 -0.5963 0.0, -0.1417 -0.5776 0.0039, -0.1417 -0.5776 0.0, -0.1021 -0.7639 0.0039, -0.1061 -0.8182 0.0039, -0.139 -0.5974 0.0039, -0.1644 -0.5482 0.0039, -0.1718 -0.4366 0.0039, -0.1684 -0.4502 0.0039, -0.179 -0.4411 0.0039, -0.0659 -0.6048 0.0039, -0.0812 -0.6195 0.0039, -0.0197 -0.496 0.0039, -0.0221 -0.4996 0.0039, -0.0257 -0.5097 0.0039, -0.0953 -0.6099 0.0039, -0.1001 -0.6073 0.0039, -0.1167 -0.6021 0.0039, -0.1706 -0.5231 0.0039, -0.1599 -0.4933 0.0039, -0.0297 -0.5204 0.0039, -0.0334 -0.5336 0.0039, -0.0365 -0.547 0.0039, -0.0433 -0.5754 0.0039, -0.0982 -0.8182 0.0039, -0.1825 -0.4717 0.0039, -0.1797 -0.4479 0.0039, -0.0177 -0.4764 0.0039, -0.0169 -0.4897 0.0039, -0.018 -0.4939 0.0039, -0.178 -0.4984 0.0039, -0.1808 -0.4933 0.0039, -0.182 -0.4911 0.0039, -0.178 -0.434 0.0039, -0.1732 -0.4333 0.0039, -0.1725 -0.4347 0.0039, -0.183 -0.4879 0.0039, -0.1833 -0.4827 0.0039, -0.0168 -0.4918 0.0039, -0.017 -0.4924 0.0039, -0.0173 -0.493 0.0039, -0.1776 -0.4326 0.0039, -0.1743 -0.4318 0.0039, -0.1738 -0.4324 0.0039, -0.1773 -0.432 0.0039, -0.1769 -0.4316 0.0039, -0.1765 -0.4314 0.0039, -0.1753 -0.4312 0.0039, -0.1748 -0.4314 0.0039, -0.1757 -0.4312 0.0039, -0.1761 -0.4312 0.0039, -0.139 -0.5974 0.0, -0.1021 -0.7639 0.0, -0.0953 -0.6099 0.0, -0.1001 -0.6073 0.0, -0.1167 -0.6021 0.0, -0.0812 -0.6195 0.0, -0.0659 -0.6048 0.0, -0.3871 -0.7826 0.0039, -0.3871 -0.7826 0.0, -0.377 -0.7741 0.0039, -0.377 -0.7741 0.0, -0.377 -0.7741 0.0
            ]
        }
        coordIndex [
            0,1,2,-1,2,1,3,-1,4,5,0,-1,0,5,1,-1,6,7,8,-1,6,8,9,-1,9,8,10,-1,9,10,11,-1,11,10,12,-1,11,12,13,-1,13,12,14,-1,13,14,15,-1,15,14,16,-1,15,16,17,-1,17,16,18,-1,17,18,19,-1,19,18,20,-1,19,20,21,-1,21,20,22,-1,21,22,23,-1,23,22,24,-1,23,24,25,-1,25,24,26,-1,25,26,27,-1,27,26,28,-1,27,28,29,-1,29,28,30,-1,29,30,31,-1,31,30,32,-1,31,32,33,-1,33,32,34,-1,33,34,35,-1,35,34,36,-1,35,36,37,-1,37,36,5,-1,37,5,4,-1,38,39,6,-1,6,39,7,-1,40,41,38,-1,38,41,39,-1,40,42,41,-1,41,42,43,-1,44,45,46,-1,46,45,47,-1,48,49,50,-1,40,51,52,-1,53,54,38,-1,38,54,55,-1,52,56,40,-1,40,56,57,-1,40,57,42,-1,42,57,58,-1,59,60,47,-1,47,60,42,-1,47,42,46,-1,46,42,58,-1,55,61,38,-1,38,61,62,-1,38,62,40,-1,40,62,63,-1,40,63,51,-1,51,63,64,-1,51,64,44,-1,44,64,65,-1,44,65,45,-1,60,66,49,-1,49,66,67,-1,49,67,50,-1,35,37,6,-1,6,37,4,-1,6,4,38,-1,38,4,0,-1,0,2,38,-1,38,2,68,-1,38,68,53,-1,53,68,69,-1,53,69,70,-1,59,71,60,-1,60,71,72,-1,60,72,73,-1,74,75,50,-1,50,75,76,-1,50,76,48,-1,73,77,60,-1,60,77,78,-1,60,78,66,-1,79,80,69,-1,69,80,81,-1,69,81,70,-1,11,29,9,-1,9,29,31,-1,9,31,6,-1,6,31,33,-1,6,33,35,-1,11,13,29,-1,29,13,15,-1,29,15,27,-1,82,83,74,-1,74,83,84,-1,74,84,75,-1,82,85,83,-1,83,85,86,-1,83,86,87,-1,88,89,90,-1,90,89,83,-1,90,83,91,-1,91,83,87,-1,19,21,17,-1,17,21,23,-1,17,23,15,-1,15,23,25,-1,15,25,27,-1,46,92,44,-1,44,92,93,-1,56,94,95,-1,56,95,57,-1,57,95,96,-1,57,96,58,-1,58,96,92,-1,58,92,46,-1,52,97,56,-1,56,97,94,-1,51,98,52,-1,52,98,97,-1,93,98,44,-1,44,98,51,-1,99,100,101,-1,101,100,102,-1,
        ]
    }
}
Shape{
    appearance Appearance {
        material  Material 	{
            diffuseColor 0.6470588235294118 0.6196078431372549 0.5882352941176471
            specularColor 0.45098039215686275 0.43529411764705883 0.4117647058823529
            ambientIntensity 0.2
            transparency 0
            shininess 0.5
        }
    }
    geometry IndexedFaceSet {
        ccw TRUE
        solid FALSE
        coord DEF co Coordinate {
            point [
                -0.39 -0.7951 0.0039, -0.39 -0.7951 0.0, -0.3907 -0.7945 0.0, -0.3907 -0.7945 0.0039, -0.3915 -0.7937 0.0, -0.3915 -0.7937 0.0039, -0.392 -0.7927 0.0, -0.392 -0.7927 0.0039, -0.3924 -0.7913 0.0, -0.3924 -0.7913 0.0039, -0.3924 -0.79 0.0, -0.3924 -0.79 0.0039, -0.3921 -0.7886 0.0, -0.3921 -0.7886 0.0039, -0.3911 -0.7865 0.0, -0.3911 -0.7865 0.0039, -0.3896 -0.7846 0.0, -0.3896 -0.7846 0.0039, -0.3871 -0.7826 0.0, -0.3871 -0.7826 0.0039, -0.3871 -0.7826 0.0039
            ]
        }
        coordIndex [
            0,1,2,-1,0,2,3,-1,3,2,4,-1,3,4,5,-1,5,4,6,-1,5,6,7,-1,7,6,8,-1,7,8,9,-1,9,8,10,-1,9,10,11,-1,11,10,12,-1,11,12,13,-1,13,12,14,-1,13,14,15,-1,15,14,16,-1,15,16,17,-1,17,16,18,-1,17,18,19,-1,
        ]
    }
}
Shape{
    appearance Appearance {
        material  Material 	{
            diffuseColor 0.24705882352941178 0.49411764705882355 0.27450980392156865
            specularColor 0.01568627450980392 0.03529411764705882 0.0196078431372549
            ambientIntensity 0.2
            transparency 0
            shininess 0.5
        }
    }
    geometry IndexedFaceSet {
        ccw TRUE
        solid FALSE
        coord DEF co Coordinate {
            point [
                -0.3797 -0.7933 0.0039, -0.3797 -0.7933 0.0, -0.39 -0.7951 0.0039, -0.39 -0.7951 0.0, -0.3679 -0.7933 0.0039, -0.3679 -0.7933 0.0, -0.3583 -0.7951 0.0039, -0.3583 -0.7951 0.0, -0.3631 -0.7942 0.0, -0.3631 -0.7942 0.0039, -0.3463 -0.7962 0.0039, -0.3463 -0.7962 0.0, -0.3249 -0.8024 0.0039, -0.3249 -0.8024 0.0, -0.3 -0.8058 0.0039, -0.3 -0.8058 0.0, -0.3125 -0.8048 0.0, -0.3125 -0.8048 0.0039, -0.2212 -0.6099 0.0039, -0.2212 -0.6099 0.0, -0.2238 -0.689 0.0, -0.2238 -0.689 0.0039, -0.232 -0.7518 0.0, -0.232 -0.7518 0.0039, -0.2408 -0.7748 0.0, -0.2408 -0.7748 0.0039, -0.2499 -0.7879 0.0, -0.2499 -0.7879 0.0039, -0.2592 -0.7962 0.0, -0.2592 -0.7962 0.0039, -0.2696 -0.8016 0.0, -0.2696 -0.8016 0.0039, -0.2823 -0.8047 0.0, -0.2823 -0.8047 0.0039, -0.322 -0.4542 0.0039, -0.322 -0.4542 0.0, -0.3052 -0.4562 0.0, -0.3052 -0.4562 0.0039, -0.2776 -0.4615 0.0, -0.2776 -0.4615 0.0039, -0.2666 -0.467 0.0, -0.2666 -0.467 0.0039, -0.2569 -0.4752 0.0, -0.2569 -0.4752 0.0039, -0.2468 -0.4885 0.0, -0.2468 -0.4885 0.0039, -0.2353 -0.5116 0.0, -0.2353 -0.5116 0.0039, -0.2257 -0.5504 0.0, -0.2257 -0.5504 0.0039, -0.3469 -0.4513 0.0039, -0.3469 -0.4513 0.0, -0.3645 -0.444 0.0039, -0.3645 -0.444 0.0, -0.364 -0.4442 0.0, -0.364 -0.4442 0.0039, -0.3621 -0.4452 0.0, -0.3621 -0.4452 0.0039, -0.3562 -0.4488 0.0, -0.3562 -0.4488 0.0039, -0.3815 -0.4576 0.0039, -0.3815 -0.4576 0.0, -0.3789 -0.4547 0.0, -0.3789 -0.4547 0.0039, -0.3708 -0.4472 0.0, -0.3708 -0.4472 0.0039, -0.3671 -0.4446 0.0, -0.3671 -0.4446 0.0039, -0.366 -0.4441 0.0, -0.366 -0.4441 0.0039, -0.3883 -0.4649 0.0039, -0.3883 -0.4649 0.0, -0.3865 -0.4735 0.0039, -0.3865 -0.4735 0.0, -0.3885 -0.4736 0.0, -0.3885 -0.4736 0.0039, -0.3899 -0.4735 0.0, -0.3899 -0.4735 0.0039, -0.3904 -0.4734 0.0, -0.3904 -0.4734 0.0039, -0.3908 -0.4731 0.0, -0.3908 -0.4731 0.0039, -0.391 -0.4729 0.0, -0.391 -0.4729 0.0039, -0.3913 -0.4724 0.0, -0.3913 -0.4724 0.0039, -0.3918 -0.4713 0.0, -0.3918 -0.4713 0.0039, -0.3919 -0.4705 0.0, -0.3919 -0.4705 0.0039, -0.3919 -0.4699 0.0, -0.3919 -0.4699 0.0039, -0.3917 -0.4693 0.0, -0.3917 -0.4693 0.0039, -0.3913 -0.4686 0.0, -0.3913 -0.4686 0.0039, -0.3907 -0.4676 0.0, -0.3907 -0.4676 0.0039, -0.3897 -0.4664 0.0, -0.3897 -0.4664 0.0039, -0.3897 -0.4664 0.0039
            ]
        }
        coordIndex [
            0,1,2,-1,2,1,3,-1,4,5,0,-1,0,5,1,-1,6,7,8,-1,6,8,9,-1,9,8,5,-1,9,5,4,-1,10,11,6,-1,6,11,7,-1,12,13,10,-1,10,13,11,-1,14,15,16,-1,14,16,17,-1,17,16,13,-1,17,13,12,-1,18,19,20,-1,18,20,21,-1,21,20,22,-1,21,22,23,-1,23,22,24,-1,23,24,25,-1,25,24,26,-1,25,26,27,-1,27,26,28,-1,27,28,29,-1,29,28,30,-1,29,30,31,-1,31,30,32,-1,31,32,33,-1,33,32,15,-1,33,15,14,-1,34,35,36,-1,34,36,37,-1,37,36,38,-1,37,38,39,-1,39,38,40,-1,39,40,41,-1,41,40,42,-1,41,42,43,-1,43,42,44,-1,43,44,45,-1,45,44,46,-1,45,46,47,-1,47,46,48,-1,47,48,49,-1,49,48,19,-1,49,19,18,-1,50,51,34,-1,34,51,35,-1,52,53,54,-1,52,54,55,-1,55,54,56,-1,55,56,57,-1,57,56,58,-1,57,58,59,-1,59,58,51,-1,59,51,50,-1,60,61,62,-1,60,62,63,-1,63,62,64,-1,63,64,65,-1,65,64,66,-1,65,66,67,-1,67,66,68,-1,67,68,69,-1,69,68,53,-1,69,53,52,-1,70,71,60,-1,60,71,61,-1,72,73,74,-1,72,74,75,-1,75,74,76,-1,75,76,77,-1,77,76,78,-1,77,78,79,-1,79,78,80,-1,79,80,81,-1,81,80,82,-1,81,82,83,-1,83,82,84,-1,83,84,85,-1,85,84,86,-1,85,86,87,-1,87,86,88,-1,87,88,89,-1,89,88,90,-1,89,90,91,-1,91,90,92,-1,91,92,93,-1,93,92,94,-1,93,94,95,-1,95,94,96,-1,95,96,97,-1,97,96,98,-1,97,98,99,-1,99,98,71,-1,99,71,70,-1,
        ]
    }
}
Shape{
    appearance Appearance {
        material  Material 	{
            diffuseColor 0.6470588235294118 0.6196078431372549 0.5882352941176471
            specularColor 0.45098039215686275 0.43529411764705883 0.4117647058823529
            ambientIntensity 0.2
            transparency 0
            shininess 0.5
        }
    }
    geometry IndexedFaceSet {
        ccw TRUE
        solid FALSE
        coord DEF co Coordinate {
            point [
                -0.3786 -0.4735 0.0039, -0.3786 -0.4735 0.0, -0.3865 -0.4735 0.0039, -0.3865 -0.4735 0.0, -0.3865 -0.4735 0.0
            ]
        }
        coordIndex [
            0,1,2,-1,2,1,3,-1,
        ]
    }
}
Shape{
    appearance Appearance {
        material  Material 	{
            diffuseColor 0.24705882352941178 0.49411764705882355 0.27450980392156865
            specularColor 0.01568627450980392 0.03529411764705882 0.0196078431372549
            ambientIntensity 0.2
            transparency 0
            shininess 0.5
        }
    }
    geometry IndexedFaceSet {
        ccw TRUE
        solid FALSE
        coord DEF co Coordinate {
            point [
                -0.3696 -0.4735 0.0039, -0.3696 -0.4735 0.0, -0.3786 -0.4735 0.0039, -0.3786 -0.4735 0.0, -0.3696 -0.7702 0.0039, -0.3696 -0.7702 0.0, -0.377 -0.7741 0.0039, -0.377 -0.7741 0.0, -0.3734 -0.7719 0.0, -0.3734 -0.7719 0.0039, -0.3913 -0.4686 0.0039, -0.3907 -0.4676 0.0039, -0.3865 -0.4735 0.0039, -0.3679 -0.7933 0.0039, -0.3797 -0.7933 0.0039, -0.3537 -0.7741 0.0039, -0.39 -0.7951 0.0039, -0.3871 -0.7826 0.0039, -0.3907 -0.7945 0.0039, -0.3896 -0.7846 0.0039, -0.3537 -0.4745 0.0039, -0.2812 -0.4829 0.0039, -0.2938 -0.4797 0.0039, -0.3789 -0.4547 0.0039, -0.3113 -0.4774 0.0039, -0.3362 -0.4745 0.0039, -0.3897 -0.4664 0.0039, -0.3883 -0.4649 0.0039, -0.3815 -0.4576 0.0039, -0.3708 -0.4472 0.0039, -0.3562 -0.4488 0.0039, -0.272 -0.4869 0.0039, -0.345 -0.4742 0.0039, -0.343 -0.7786 0.0039, -0.3189 -0.7842 0.0039, -0.3249 -0.8024 0.0039, -0.3125 -0.8048 0.0039, -0.2943 -0.786 0.0039, -0.3 -0.8058 0.0039, -0.3904 -0.4734 0.0039, -0.3908 -0.4731 0.0039, -0.391 -0.4729 0.0039, -0.3463 -0.7962 0.0039, -0.3583 -0.7951 0.0039, -0.3631 -0.7942 0.0039, -0.2823 -0.8047 0.0039, -0.2793 -0.7831 0.0039, -0.2696 -0.8016 0.0039, -0.3918 -0.4713 0.0039, -0.3919 -0.4705 0.0039, -0.3915 -0.7937 0.0039, -0.3921 -0.7886 0.0039, -0.3911 -0.7865 0.0039, -0.392 -0.7927 0.0039, -0.3924 -0.7913 0.0039, -0.3924 -0.79 0.0039, -0.3913 -0.4724 0.0039, -0.3885 -0.4736 0.0039, -0.3899 -0.4735 0.0039, -0.3919 -0.4699 0.0039, -0.3917 -0.4693 0.0039, -0.366 -0.4441 0.0039, -0.3645 -0.444 0.0039, -0.3671 -0.4446 0.0039, -0.364 -0.4442 0.0039, -0.3621 -0.4452 0.0039, -0.3469 -0.4513 0.0039, -0.322 -0.4542 0.0039, -0.3052 -0.4562 0.0039, -0.2776 -0.4615 0.0039, -0.2666 -0.467 0.0039, -0.2652 -0.4924 0.0039, -0.2569 -0.4752 0.0039, -0.2586 -0.5008 0.0039, -0.2468 -0.4885 0.0039, -0.2474 -0.526 0.0039, -0.2353 -0.5116 0.0039, -0.2384 -0.5763 0.0039, -0.2592 -0.7962 0.0039, -0.2684 -0.7789 0.0039, -0.2499 -0.7879 0.0039, -0.2617 -0.774 0.0039, -0.2408 -0.7748 0.0039, -0.2549 -0.7658 0.0039, -0.232 -0.7518 0.0039, -0.2486 -0.7537 0.0039, -0.2437 -0.7367 0.0039, -0.2238 -0.689 0.0039, -0.237 -0.6597 0.0039, -0.2212 -0.6099 0.0039, -0.2257 -0.5504 0.0039, -0.3113 -0.4774 0.0, -0.3362 -0.4745 0.0, -0.237 -0.6597 0.0, -0.2384 -0.5763 0.0, -0.2474 -0.526 0.0, -0.2586 -0.5008 0.0, -0.2652 -0.4924 0.0, -0.272 -0.4869 0.0, -0.2812 -0.4829 0.0, -0.2938 -0.4797 0.0, -0.2943 -0.786 0.0, -0.2793 -0.7831 0.0, -0.2684 -0.7789 0.0, -0.2617 -0.774 0.0, -0.2549 -0.7658 0.0, -0.2486 -0.7537 0.0, -0.2437 -0.7367 0.0, -0.343 -0.7786 0.0, -0.3189 -0.7842 0.0, -0.3537 -0.7741 0.0, -0.3537 -0.4745 0.0, -0.345 -0.4742 0.0, -0.345 -0.4742 0.0
            ]
        }
        coordIndex [
            0,1,2,-1,2,1,3,-1,4,5,0,-1,0,5,1,-1,6,7,8,-1,6,8,9,-1,9,8,5,-1,9,5,4,-1,10,11,12,-1,13,14,15,-1,14,16,17,-1,17,16,18,-1,17,18,19,-1,17,6,14,-1,14,6,9,-1,14,9,15,-1,15,9,4,-1,15,4,20,-1,21,22,23,-1,23,22,24,-1,23,24,25,-1,11,26,12,-1,12,26,27,-1,12,27,2,-1,2,27,28,-1,2,28,0,-1,0,28,23,-1,23,29,21,-1,21,29,30,-1,21,30,31,-1,4,0,20,-1,20,0,23,-1,20,23,32,-1,32,23,25,-1,33,34,35,-1,35,34,36,-1,36,34,37,-1,36,37,38,-1,39,40,41,-1,35,42,33,-1,33,42,43,-1,33,43,15,-1,15,43,44,-1,15,44,13,-1,38,37,45,-1,45,37,46,-1,45,46,47,-1,12,48,49,-1,50,51,18,-1,18,51,52,-1,18,52,19,-1,50,53,51,-1,51,53,54,-1,51,54,55,-1,48,12,56,-1,56,12,57,-1,56,57,41,-1,41,57,58,-1,41,58,39,-1,49,59,12,-1,12,59,60,-1,12,60,10,-1,61,62,63,-1,63,62,64,-1,63,64,29,-1,29,64,65,-1,29,65,30,-1,30,66,31,-1,31,66,67,-1,31,67,68,-1,68,69,31,-1,31,69,70,-1,31,70,71,-1,71,70,72,-1,71,72,73,-1,73,72,74,-1,73,74,75,-1,75,74,76,-1,75,76,77,-1,47,46,78,-1,78,46,79,-1,78,79,80,-1,80,79,81,-1,80,81,82,-1,82,81,83,-1,82,83,84,-1,83,85,84,-1,84,85,86,-1,84,86,87,-1,87,86,88,-1,87,88,89,-1,89,88,77,-1,89,77,90,-1,90,77,76,-1,24,91,25,-1,25,91,92,-1,88,93,94,-1,88,94,77,-1,77,94,95,-1,77,95,75,-1,75,95,96,-1,75,96,73,-1,73,96,97,-1,73,97,71,-1,71,97,98,-1,71,98,31,-1,31,98,99,-1,31,99,21,-1,21,99,100,-1,21,100,22,-1,22,100,91,-1,22,91,24,-1,37,101,102,-1,37,102,46,-1,46,102,103,-1,46,103,79,-1,79,103,104,-1,79,104,81,-1,81,104,105,-1,81,105,83,-1,83,105,106,-1,83,106,85,-1,85,106,107,-1,85,107,86,-1,86,107,93,-1,86,93,88,-1,33,108,109,-1,33,109,34,-1,34,109,101,-1,34,101,37,-1,15,110,33,-1,33,110,108,-1,20,111,15,-1,15,111,110,-1,25,92,112,-1,25,112,32,-1,32,112,111,-1,32,111,20,-1,
        ]
    }
}
Shape{
    appearance Appearance {
        material  Material 	{
            diffuseColor 0.6470588235294118 0.6196078431372549 0.5882352941176471
            specularColor 0.45098039215686275 0.43529411764705883 0.4117647058823529
            ambientIntensity 0.2
            transparency 0
            shininess 0.5
        }
    }
    geometry IndexedFaceSet {
        ccw TRUE
        solid FALSE
        coord DEF co Coordinate {
            point [
                -0.5096 -0.6529 0.0039, -0.5096 -0.6529 0.0, -0.5572 -0.6467 0.0039, -0.5572 -0.6467 0.0, -0.5572 -0.6467 0.0
            ]
        }
        coordIndex [
            0,1,2,-1,2,1,3,-1,
        ]
    }
}
Shape{
    appearance Appearance {
        material  Material 	{
            diffuseColor 0.24705882352941178 0.49411764705882355 0.27450980392156865
            specularColor 0.01568627450980392 0.03529411764705882 0.0196078431372549
            ambientIntensity 0.2
            transparency 0
            shininess 0.5
        }
    }
    geometry IndexedFaceSet {
        ccw TRUE
        solid FALSE
        coord DEF co Coordinate {
            point [
                -0.4717 -0.6648 0.0039, -0.4717 -0.6648 0.0, -0.4774 -0.6613 0.0, -0.4774 -0.6613 0.0039, -0.49 -0.6569 0.0, -0.49 -0.6569 0.0039, -0.5096 -0.6529 0.0, -0.5096 -0.6529 0.0039, -0.4666 -0.6677 0.0039, -0.4666 -0.6677 0.0, -0.4501 -0.6512 0.0039, -0.4501 -0.6512 0.0, -0.453 -0.6416 0.0039, -0.453 -0.6416 0.0, -0.4516 -0.6417 0.0, -0.4516 -0.6417 0.0039, -0.4505 -0.642 0.0, -0.4505 -0.642 0.0039, -0.4495 -0.6426 0.0, -0.4495 -0.6426 0.0039, -0.4487 -0.6434 0.0, -0.4487 -0.6434 0.0039, -0.448 -0.6445 0.0, -0.448 -0.6445 0.0039, -0.4477 -0.6455 0.0, -0.4477 -0.6455 0.0039, -0.4476 -0.6463 0.0, -0.4476 -0.6463 0.0039, -0.4478 -0.6472 0.0, -0.4478 -0.6472 0.0039, -0.4482 -0.6484 0.0, -0.4482 -0.6484 0.0039, -0.449 -0.6497 0.0, -0.449 -0.6497 0.0039, -0.5572 -0.6269 0.0039, -0.5572 -0.6269 0.0, -0.5572 -0.4735 0.0039, -0.5572 -0.4735 0.0, -0.4728 -0.4853 0.0039, -0.4728 -0.4853 0.0, -0.4569 -0.491 0.0039, -0.4569 -0.491 0.0, -0.4646 -0.4874 0.0, -0.4646 -0.4874 0.0039, -0.4519 -0.4938 0.0039, -0.4519 -0.4938 0.0, -0.4519 -0.4938 0.0
            ]
        }
        coordIndex [
            0,1,2,-1,0,2,3,-1,3,2,4,-1,3,4,5,-1,5,4,6,-1,5,6,7,-1,8,9,0,-1,0,9,1,-1,10,11,8,-1,8,11,9,-1,12,13,14,-1,12,14,15,-1,15,14,16,-1,15,16,17,-1,17,16,18,-1,17,18,19,-1,19,18,20,-1,19,20,21,-1,21,20,22,-1,21,22,23,-1,23,22,24,-1,23,24,25,-1,25,24,26,-1,25,26,27,-1,27,26,28,-1,27,28,29,-1,29,28,30,-1,29,30,31,-1,31,30,32,-1,31,32,33,-1,33,32,11,-1,33,11,10,-1,34,35,12,-1,12,35,13,-1,36,37,34,-1,34,37,35,-1,38,39,36,-1,36,39,37,-1,40,41,42,-1,40,42,43,-1,43,42,39,-1,43,39,38,-1,44,45,40,-1,40,45,41,-1,
        ]
    }
}
Shape{
    appearance Appearance {
        material  Material 	{
            diffuseColor 0.6470588235294118 0.6196078431372549 0.5882352941176471
            specularColor 0.45098039215686275 0.43529411764705883 0.4117647058823529
            ambientIntensity 0.2
            transparency 0
            shininess 0.5
        }
    }
    geometry IndexedFaceSet {
        ccw TRUE
        solid FALSE
        coord DEF co Coordinate {
            point [
                -0.436 -0.4762 0.0039, -0.436 -0.4762 0.0, -0.4519 -0.4938 0.0039, -0.4519 -0.4938 0.0, -0.4519 -0.4938 0.0
            ]
        }
        coordIndex [
            0,1,2,-1,2,1,3,-1,
        ]
    }
}
Shape{
    appearance Appearance {
        material  Material 	{
            diffuseColor 0.24705882352941178 0.49411764705882355 0.27450980392156865
            specularColor 0.01568627450980392 0.03529411764705882 0.0196078431372549
            ambientIntensity 0.2
            transparency 0
            shininess 0.5
        }
    }
    geometry IndexedFaceSet {
        ccw TRUE
        solid FALSE
        coord DEF co Coordinate {
            point [
                -0.4394 -0.4672 0.0039, -0.4394 -0.4672 0.0, -0.4376 -0.4673 0.0, -0.4376 -0.4673 0.0039, -0.4361 -0.4676 0.0, -0.4361 -0.4676 0.0039, -0.436 -0.4676 0.0, -0.436 -0.4676 0.0039, -0.4354 -0.4679 0.0, -0.4354 -0.4679 0.0039, -0.435 -0.4682 0.0, -0.435 -0.4682 0.0039, -0.4346 -0.4688 0.0, -0.4346 -0.4688 0.0039, -0.434 -0.4698 0.0, -0.434 -0.4698 0.0039, -0.4337 -0.4708 0.0, -0.4337 -0.4708 0.0039, -0.4336 -0.4716 0.0, -0.4336 -0.4716 0.0039, -0.4338 -0.4725 0.0, -0.4338 -0.4725 0.0039, -0.4343 -0.4738 0.0, -0.4343 -0.4738 0.0039, -0.436 -0.4762 0.0, -0.436 -0.4762 0.0039, -0.4479 -0.4667 0.0039, -0.4479 -0.4667 0.0, -0.5334 -0.4547 0.0039, -0.5334 -0.4547 0.0, -0.4907 -0.4614 0.0, -0.4907 -0.4614 0.0039, -0.5594 -0.4502 0.0039, -0.5594 -0.4502 0.0, -0.5787 -0.4581 0.0039, -0.5787 -0.4581 0.0, -0.5789 -0.4569 0.0, -0.5789 -0.4569 0.0039, -0.579 -0.4537 0.0, -0.579 -0.4537 0.0039, -0.5786 -0.4514 0.0, -0.5786 -0.4514 0.0039, -0.578 -0.4502 0.0, -0.578 -0.4502 0.0039, -0.5768 -0.4487 0.0, -0.5768 -0.4487 0.0039, -0.5754 -0.4476 0.0, -0.5754 -0.4476 0.0039, -0.5741 -0.4471 0.0, -0.5741 -0.4471 0.0039, -0.5726 -0.4468 0.0, -0.5726 -0.4468 0.0039, -0.5697 -0.4469 0.0, -0.5697 -0.4469 0.0039, -0.5657 -0.4479 0.0, -0.5657 -0.4479 0.0039, -0.5736 -0.487 0.0039, -0.5736 -0.487 0.0, -0.5751 -0.4724 0.0, -0.5751 -0.4724 0.0039, -0.5736 -0.4978 0.0039, -0.5736 -0.4978 0.0, -0.573 -0.512 0.0039, -0.573 -0.512 0.0, -0.5733 -0.5049 0.0, -0.5733 -0.5049 0.0039, -0.5736 -0.7713 0.0039, -0.5736 -0.7713 0.0, -0.5827 -0.7962 0.0039, -0.5827 -0.7962 0.0, -0.5843 -0.7963 0.0, -0.5843 -0.7963 0.0039, -0.5858 -0.7962 0.0, -0.5858 -0.7962 0.0039, -0.5866 -0.796 0.0, -0.5866 -0.796 0.0039, -0.5869 -0.7959 0.0, -0.5869 -0.7959 0.0039, -0.5871 -0.7957 0.0, -0.5871 -0.7957 0.0039, -0.5873 -0.7954 0.0, -0.5873 -0.7954 0.0039, -0.5875 -0.795 0.0, -0.5875 -0.795 0.0039, -0.5876 -0.7945 0.0, -0.5876 -0.7945 0.0039, -0.5876 -0.7932 0.0, -0.5876 -0.7932 0.0039, -0.5875 -0.7915 0.0, -0.5875 -0.7915 0.0039, -0.587 -0.7888 0.0, -0.587 -0.7888 0.0039, -0.5861 -0.7868 0.0, -0.5861 -0.7868 0.0039, -0.5838 -0.7835 0.0, -0.5838 -0.7835 0.0039, -0.58 -0.7788 0.0, -0.58 -0.7788 0.0039, -0.5719 -0.7945 0.0039, -0.5719 -0.7945 0.0, -0.5526 -0.7933 0.0039, -0.5526 -0.7933 0.0, -0.5623 -0.7933 0.0, -0.5623 -0.7933 0.0039, -0.551 -0.7933 0.0039, -0.551 -0.7933 0.0, -0.5289 -0.7951 0.0039, -0.5289 -0.7951 0.0, -0.5399 -0.7936 0.0, -0.5399 -0.7936 0.0039, -0.5068 -0.799 0.0039, -0.5068 -0.799 0.0, -0.4688 -0.8104 0.0039, -0.4688 -0.8104 0.0, -0.4718 -0.8086 0.0, -0.4718 -0.8086 0.0039, -0.4872 -0.803 0.0, -0.4872 -0.803 0.0039, -0.4637 -0.8137 0.0039, -0.4637 -0.8137 0.0, -0.4474 -0.7968 0.0039, -0.4474 -0.7968 0.0, -0.4501 -0.7877 0.0039, -0.4501 -0.7877 0.0, -0.4488 -0.7878 0.0, -0.4488 -0.7878 0.0039, -0.4477 -0.7881 0.0, -0.4477 -0.7881 0.0039, -0.4467 -0.7887 0.0, -0.4467 -0.7887 0.0039, -0.4459 -0.7895 0.0, -0.4459 -0.7895 0.0039, -0.4454 -0.7901 0.0, -0.4454 -0.7901 0.0039, -0.4452 -0.7909 0.0, -0.4452 -0.7909 0.0039, -0.4451 -0.7917 0.0, -0.4451 -0.7917 0.0039, -0.4452 -0.7925 0.0, -0.4452 -0.7925 0.0039, -0.4456 -0.7935 0.0, -0.4456 -0.7935 0.0039, -0.4463 -0.7949 0.0, -0.4463 -0.7949 0.0039, -0.4592 -0.7865 0.0039, -0.4592 -0.7865 0.0, -0.4859 -0.7832 0.0039, -0.4859 -0.7832 0.0, -0.4725 -0.7848 0.0, -0.4725 -0.7848 0.0039, -0.5572 -0.7713 0.0039, -0.5572 -0.7713 0.0, -0.5572 -0.6467 0.0039, -0.5572 -0.6467 0.0, -0.5572 -0.4735 0.0039, -0.4569 -0.491 0.0039, -0.4646 -0.4874 0.0039, -0.4728 -0.4853 0.0039, -0.4717 -0.6648 0.0039, -0.4774 -0.6613 0.0039, -0.453 -0.6416 0.0039, -0.5572 -0.6269 0.0039, -0.5096 -0.6529 0.0039, -0.49 -0.6569 0.0039, -0.4519 -0.4938 0.0039, -0.4478 -0.6472 0.0039, -0.4482 -0.6484 0.0039, -0.4516 -0.6417 0.0039, -0.4666 -0.6677 0.0039, -0.4501 -0.6512 0.0039, -0.449 -0.6497 0.0039, -0.448 -0.6445 0.0039, -0.4477 -0.6455 0.0039, -0.4476 -0.6463 0.0039, -0.4505 -0.642 0.0039, -0.4495 -0.6426 0.0039, -0.4487 -0.6434 0.0039, -0.6434 -0.8052 0.0039, -0.6434 -0.8052 0.0, -0.6519 -0.8052 0.0039, -0.6519 -0.8052 0.0, -0.6434 -0.6541 0.0039, -0.6434 -0.6541 0.0, -0.6541 -0.6541 0.0039, -0.6541 -0.6541 0.0, -0.704 -0.7928 0.0039, -0.704 -0.7928 0.0, -0.6954 -0.7909 0.0, -0.6954 -0.7909 0.0039, -0.6874 -0.7874 0.0, -0.6874 -0.7874 0.0039, -0.6799 -0.7817 0.0, -0.6799 -0.7817 0.0039, -0.673 -0.7734 0.0, -0.673 -0.7734 0.0039, -0.6659 -0.7595 0.0, -0.6659 -0.7595 0.0039, -0.6589 -0.7338 0.0, -0.6589 -0.7338 0.0039, -0.7748 -0.6008 0.0039, -0.7748 -0.6008 0.0, -0.7727 -0.6908 0.0, -0.7727 -0.6908 0.0039, -0.7676 -0.7204 0.0, -0.7676 -0.7204 0.0039, -0.7544 -0.7585 0.0, -0.7544 -0.7585 0.0039, -0.7446 -0.7738 0.0, -0.7446 -0.7738 0.0039, -0.7355 -0.7827 0.0, -0.7355 -0.7827 0.0039, -0.7259 -0.7887 0.0, -0.7259 -0.7887 0.0039, -0.7158 -0.7921 0.0, -0.7158 -0.7921 0.0039, -0.7085 -0.4638 0.0039, -0.7085 -0.4638 0.0, -0.7164 -0.4646 0.0, -0.7164 -0.4646 0.0039, -0.7239 -0.4668 0.0, -0.7239 -0.4668 0.0039, -0.7311 -0.4711 0.0, -0.7311 -0.4711 0.0039, -0.7393 -0.4786 0.0, -0.7393 -0.4786 0.0039, -0.7522 -0.4968 0.0, -0.7522 -0.4968 0.0039, -0.7608 -0.5199 0.0, -0.7608 -0.5199 0.0039, -0.6468 -0.555 0.0039, -0.6468 -0.555 0.0, -0.6493 -0.5382 0.0, -0.6493 -0.5382 0.0039, -0.6574 -0.5008 0.0, -0.6574 -0.5008 0.0039, -0.6648 -0.4861 0.0, -0.6648 -0.4861 0.0039, -0.6732 -0.4765 0.0, -0.6732 -0.4765 0.0039, -0.6833 -0.4694 0.0, -0.6833 -0.4694 0.0039, -0.6958 -0.4648 0.0, -0.6958 -0.4648 0.0039, -0.644 -0.5849 0.0039, -0.644 -0.5849 0.0, -0.6349 -0.5844 0.0039, -0.6349 -0.5844 0.0, -0.7006 -0.4451 0.0039, -0.7006 -0.4451 0.0, -0.6883 -0.4471 0.0, -0.6883 -0.4471 0.0039, -0.6746 -0.4531 0.0, -0.6746 -0.4531 0.0039, -0.6628 -0.4625 0.0, -0.6628 -0.4625 0.0039, -0.6541 -0.474 0.0, -0.6541 -0.474 0.0039, -0.645 -0.4932 0.0, -0.645 -0.4932 0.0039, -0.6385 -0.5237 0.0, -0.6385 -0.5237 0.0039, -0.7878 -0.6886 0.0039, -0.7878 -0.6886 0.0, -0.7908 -0.6564 0.0, -0.7908 -0.6564 0.0039, -0.7876 -0.5745 0.0, -0.7876 -0.5745 0.0039, -0.7814 -0.5361 0.0, -0.7814 -0.5361 0.0039, -0.7656 -0.4887 0.0, -0.7656 -0.4887 0.0039, -0.7526 -0.4676 0.0, -0.7526 -0.4676 0.0039, -0.7432 -0.4579 0.0, -0.7432 -0.4579 0.0039, -0.7301 -0.4503 0.0, -0.7301 -0.4503 0.0039, -0.7151 -0.4456 0.0, -0.7151 -0.4456 0.0039, -0.7085 -0.8114 0.0039, -0.7085 -0.8114 0.0, -0.7167 -0.8114 0.0, -0.7167 -0.8114 0.0039, -0.7249 -0.8096 0.0, -0.7249 -0.8096 0.0039, -0.7333 -0.8054 0.0, -0.7333 -0.8054 0.0039, -0.7511 -0.7915 0.0, -0.7511 -0.7915 0.0039, -0.7625 -0.7764 0.0, -0.7625 -0.7764 0.0039, -0.7745 -0.7489 0.0, -0.7745 -0.7489 0.0039, -0.6609 -0.7809 0.0039, -0.6609 -0.7809 0.0, -0.6675 -0.7897 0.0, -0.6675 -0.7897 0.0039, -0.6788 -0.7999 0.0, -0.6788 -0.7999 0.0039, -0.6919 -0.8071 0.0, -0.6919 -0.8071 0.0039, -0.6559 -0.7719 0.0039, -0.6559 -0.7719 0.0, -0.9571 -0.8262 0.0, -0.9571 -0.8262 0.0039, -0.9489 -0.816 0.0, -0.9322 -0.7951 0.0039, -0.9322 -0.7951 0.0, -0.9406 -0.7594 0.0039, -0.9406 -0.7594 0.0, -0.9405 -0.7666 0.0, -0.9405 -0.7666 0.0039, -0.938 -0.7827 0.0, -0.938 -0.7827 0.0039, -0.9406 -0.4706 0.0039, -0.9406 -0.4706 0.0, -0.8563 -0.4875 0.0039, -0.8563 -0.4875 0.0, -0.8582 -0.4867 0.0, -0.8582 -0.4867 0.0039, -0.86 -0.4855 0.0, -0.86 -0.4855 0.0039, -0.8652 -0.481 0.0, -0.8652 -0.481 0.0039, -0.8693 -0.479 0.0, -0.8693 -0.479 0.0039, -0.8763 -0.4774 0.0, -0.8763 -0.4774 0.0039, -0.897 -0.4743 0.0, -0.897 -0.4743 0.0039, -0.8331 -0.4621 0.0039, -0.8331 -0.4621 0.0, -0.8333 -0.4642 0.0, -0.8333 -0.4642 0.0039, -0.8338 -0.4661 0.0, -0.8338 -0.4661 0.0039, -0.8348 -0.4679 0.0, -0.8348 -0.4679 0.0039, -0.8369 -0.4702 0.0, -0.8369 -0.4702 0.0039, -0.8431 -0.4759 0.0, -0.8431 -0.4759 0.0039, -0.9124 -0.4519 0.0039, -0.9124 -0.4519 0.0, -0.9001 -0.4529 0.0, -0.9001 -0.4529 0.0039, -0.8628 -0.4568 0.0, -0.8628 -0.4568 0.0039, -0.8484 -0.4588 0.0, -0.8484 -0.4588 0.0039, -0.8385 -0.459 0.0, -0.8385 -0.459 0.0039, -0.8364 -0.4593 0.0, -0.8364 -0.4593 0.0039, -0.835 -0.4598 0.0, -0.835 -0.4598 0.0039, -0.8342 -0.4603 0.0, -0.8342 -0.4603 0.0039, -0.8337 -0.4609 0.0, -0.8337 -0.4609 0.0039, -0.9361 -0.4496 0.0039, -0.9361 -0.4496 0.0, -0.9492 -0.4485 0.0039, -0.9492 -0.4485 0.0, -0.9565 -0.4729 0.0039, -0.9565 -0.4729 0.0, -0.9568 -0.4695 0.0, -0.9568 -0.4695 0.0039, -0.9583 -0.4557 0.0, -0.9583 -0.4557 0.0039, -0.9583 -0.4525 0.0, -0.9583 -0.4525 0.0039, -0.9579 -0.451 0.0, -0.9579 -0.451 0.0039, -0.9571 -0.4494 0.0, -0.9571 -0.4494 0.0039, -0.9563 -0.4485 0.0, -0.9563 -0.4485 0.0039, -0.9556 -0.448 0.0, -0.9556 -0.448 0.0039, -0.9548 -0.4477 0.0, -0.9548 -0.4477 0.0039, -0.9537 -0.4475 0.0, -0.9537 -0.4475 0.0039, -0.9521 -0.4476 0.0, -0.9521 -0.4476 0.0039, -0.9554 -0.5063 0.0039, -0.9554 -0.5063 0.0, -0.9554 -0.7611 0.0039, -0.9554 -0.7611 0.0, -0.9599 -0.816 0.0039, -0.9599 -0.816 0.0, -0.9557 -0.7887 0.0, -0.9557 -0.7887 0.0039, -0.961 -0.8217 0.0039, -0.961 -0.8217 0.0, -0.0812 -0.6195 0.0, -0.0659 -0.6048 0.0, -0.1021 -0.7639 0.0, -0.139 -0.5974 0.0, -0.1167 -0.6021 0.0, -0.1001 -0.6073 0.0, -0.0953 -0.6099 0.0, -0.3537 -0.7741 0.0, -0.3537 -0.4745 0.0, -0.343 -0.7786 0.0, -0.345 -0.4742 0.0, -0.3362 -0.4745 0.0, -0.3113 -0.4774 0.0, -0.2938 -0.4797 0.0, -0.2943 -0.786 0.0, -0.3189 -0.7842 0.0, -0.237 -0.6597 0.0, -0.2384 -0.5763 0.0, -0.2793 -0.7831 0.0, -0.2437 -0.7367 0.0, -0.2486 -0.7537 0.0, -0.2812 -0.4829 0.0, -0.272 -0.4869 0.0, -0.2652 -0.4924 0.0, -0.2549 -0.7658 0.0, -0.2617 -0.774 0.0, -0.2684 -0.7789 0.0, -0.2586 -0.5008 0.0, -0.2474 -0.526 0.0, -0.2474 -0.526 0.0
            ]
        }
        coordIndex [
            0,1,2,-1,0,2,3,-1,3,2,4,-1,3,4,5,-1,5,4,6,-1,5,6,7,-1,7,6,8,-1,7,8,9,-1,9,8,10,-1,9,10,11,-1,11,10,12,-1,11,12,13,-1,13,12,14,-1,13,14,15,-1,15,14,16,-1,15,16,17,-1,17,16,18,-1,17,18,19,-1,19,18,20,-1,19,20,21,-1,21,20,22,-1,21,22,23,-1,23,22,24,-1,23,24,25,-1,26,27,0,-1,0,27,1,-1,28,29,30,-1,28,30,31,-1,31,30,27,-1,31,27,26,-1,32,33,28,-1,28,33,29,-1,34,35,36,-1,34,36,37,-1,37,36,38,-1,37,38,39,-1,39,38,40,-1,39,40,41,-1,41,40,42,-1,41,42,43,-1,43,42,44,-1,43,44,45,-1,45,44,46,-1,45,46,47,-1,47,46,48,-1,47,48,49,-1,49,48,50,-1,49,50,51,-1,51,50,52,-1,51,52,53,-1,53,52,54,-1,53,54,55,-1,55,54,33,-1,55,33,32,-1,56,57,58,-1,56,58,59,-1,59,58,35,-1,59,35,34,-1,60,61,56,-1,56,61,57,-1,62,63,64,-1,62,64,65,-1,65,64,61,-1,65,61,60,-1,66,67,62,-1,62,67,63,-1,68,69,70,-1,68,70,71,-1,71,70,72,-1,71,72,73,-1,73,72,74,-1,73,74,75,-1,75,74,76,-1,75,76,77,-1,77,76,78,-1,77,78,79,-1,79,78,80,-1,79,80,81,-1,81,80,82,-1,81,82,83,-1,83,82,84,-1,83,84,85,-1,85,84,86,-1,85,86,87,-1,87,86,88,-1,87,88,89,-1,89,88,90,-1,89,90,91,-1,91,90,92,-1,91,92,93,-1,93,92,94,-1,93,94,95,-1,95,94,96,-1,95,96,97,-1,97,96,67,-1,97,67,66,-1,98,99,68,-1,68,99,69,-1,100,101,102,-1,100,102,103,-1,103,102,99,-1,103,99,98,-1,104,105,100,-1,100,105,101,-1,106,107,108,-1,106,108,109,-1,109,108,105,-1,109,105,104,-1,110,111,106,-1,106,111,107,-1,112,113,114,-1,112,114,115,-1,115,114,116,-1,115,116,117,-1,117,116,111,-1,117,111,110,-1,118,119,112,-1,112,119,113,-1,120,121,118,-1,118,121,119,-1,122,123,124,-1,122,124,125,-1,125,124,126,-1,125,126,127,-1,127,126,128,-1,127,128,129,-1,129,128,130,-1,129,130,131,-1,131,130,132,-1,131,132,133,-1,133,132,134,-1,133,134,135,-1,135,134,136,-1,135,136,137,-1,137,136,138,-1,137,138,139,-1,139,138,140,-1,139,140,141,-1,141,140,142,-1,141,142,143,-1,143,142,121,-1,143,121,120,-1,144,145,122,-1,122,145,123,-1,146,147,148,-1,146,148,149,-1,149,148,145,-1,149,145,144,-1,150,151,146,-1,146,151,147,-1,150,152,151,-1,151,152,153,-1,53,55,154,-1,155,156,26,-1,26,156,157,-1,158,159,160,-1,55,32,154,-1,154,32,28,-1,154,28,157,-1,157,28,31,-1,157,31,26,-1,62,65,154,-1,65,60,154,-1,154,60,56,-1,154,56,59,-1,59,34,154,-1,154,34,37,-1,154,37,39,-1,152,161,162,-1,162,161,160,-1,162,160,163,-1,163,160,159,-1,155,26,164,-1,164,26,0,-1,164,0,25,-1,25,0,3,-1,25,3,5,-1,154,45,47,-1,95,97,150,-1,150,97,66,-1,150,66,152,-1,152,66,62,-1,152,62,161,-1,161,62,154,-1,39,41,154,-1,154,41,43,-1,154,43,45,-1,165,166,167,-1,167,166,160,-1,168,158,169,-1,169,158,160,-1,169,160,170,-1,170,160,166,-1,83,85,150,-1,150,85,87,-1,150,87,89,-1,5,7,25,-1,25,7,9,-1,25,9,11,-1,47,49,154,-1,154,49,51,-1,154,51,53,-1,137,139,125,-1,125,139,141,-1,125,141,122,-1,122,141,143,-1,122,143,120,-1,109,104,150,-1,150,104,100,-1,150,100,103,-1,103,98,150,-1,150,98,68,-1,150,68,71,-1,21,15,19,-1,19,15,17,-1,11,13,25,-1,25,13,15,-1,25,15,23,-1,23,15,21,-1,77,79,150,-1,150,79,81,-1,150,81,83,-1,89,91,150,-1,150,91,93,-1,150,93,95,-1,120,118,122,-1,122,118,112,-1,122,112,144,-1,144,112,115,-1,144,115,149,-1,149,115,117,-1,149,117,146,-1,146,117,110,-1,146,110,150,-1,150,110,106,-1,150,106,109,-1,71,73,150,-1,150,73,75,-1,150,75,77,-1,171,172,167,-1,167,172,173,-1,167,173,165,-1,131,125,129,-1,129,125,127,-1,131,133,125,-1,125,133,135,-1,125,135,137,-1,174,175,167,-1,167,175,176,-1,167,176,171,-1,177,178,179,-1,179,178,180,-1,181,182,177,-1,177,182,178,-1,183,184,181,-1,181,184,182,-1,185,186,187,-1,185,187,188,-1,188,187,189,-1,188,189,190,-1,190,189,191,-1,190,191,192,-1,192,191,193,-1,192,193,194,-1,194,193,195,-1,194,195,196,-1,196,195,197,-1,196,197,198,-1,198,197,184,-1,198,184,183,-1,199,200,201,-1,199,201,202,-1,202,201,203,-1,202,203,204,-1,204,203,205,-1,204,205,206,-1,206,205,207,-1,206,207,208,-1,208,207,209,-1,208,209,210,-1,210,209,211,-1,210,211,212,-1,212,211,213,-1,212,213,214,-1,214,213,186,-1,214,186,185,-1,215,216,217,-1,215,217,218,-1,218,217,219,-1,218,219,220,-1,220,219,221,-1,220,221,222,-1,222,221,223,-1,222,223,224,-1,224,223,225,-1,224,225,226,-1,226,225,227,-1,226,227,228,-1,228,227,200,-1,228,200,199,-1,229,230,231,-1,229,231,232,-1,232,231,233,-1,232,233,234,-1,234,233,235,-1,234,235,236,-1,236,235,237,-1,236,237,238,-1,238,237,239,-1,238,239,240,-1,240,239,241,-1,240,241,242,-1,242,241,216,-1,242,216,215,-1,243,244,229,-1,229,244,230,-1,245,246,243,-1,243,246,244,-1,247,248,249,-1,247,249,250,-1,250,249,251,-1,250,251,252,-1,252,251,253,-1,252,253,254,-1,254,253,255,-1,254,255,256,-1,256,255,257,-1,256,257,258,-1,258,257,259,-1,258,259,260,-1,260,259,246,-1,260,246,245,-1,261,262,263,-1,261,263,264,-1,264,263,265,-1,264,265,266,-1,266,265,267,-1,266,267,268,-1,268,267,269,-1,268,269,270,-1,270,269,271,-1,270,271,272,-1,272,271,273,-1,272,273,274,-1,274,273,275,-1,274,275,276,-1,276,275,277,-1,276,277,278,-1,278,277,248,-1,278,248,247,-1,279,280,281,-1,279,281,282,-1,282,281,283,-1,282,283,284,-1,284,283,285,-1,284,285,286,-1,286,285,287,-1,286,287,288,-1,288,287,289,-1,288,289,290,-1,290,289,291,-1,290,291,292,-1,292,291,262,-1,292,262,261,-1,293,294,295,-1,293,295,296,-1,296,295,297,-1,296,297,298,-1,298,297,299,-1,298,299,300,-1,300,299,280,-1,300,280,279,-1,301,302,293,-1,293,302,294,-1,301,179,302,-1,302,179,180,-1,181,177,301,-1,301,177,179,-1,260,245,243,-1,293,190,301,-1,301,190,192,-1,301,192,194,-1,183,181,198,-1,198,181,301,-1,198,301,196,-1,196,301,194,-1,293,296,190,-1,190,296,298,-1,190,298,188,-1,188,298,300,-1,188,300,185,-1,185,300,279,-1,185,279,214,-1,202,204,292,-1,292,204,290,-1,279,282,214,-1,214,282,284,-1,214,284,212,-1,212,284,286,-1,212,286,210,-1,210,286,288,-1,210,288,208,-1,208,288,290,-1,208,290,206,-1,206,290,204,-1,243,229,260,-1,260,229,232,-1,260,232,258,-1,258,232,234,-1,258,234,256,-1,256,234,236,-1,256,236,254,-1,254,236,238,-1,254,238,252,-1,252,238,240,-1,252,240,250,-1,250,240,242,-1,250,242,247,-1,247,242,215,-1,247,215,278,-1,278,215,218,-1,278,218,276,-1,276,218,220,-1,276,220,274,-1,274,220,222,-1,274,222,272,-1,272,222,224,-1,272,224,270,-1,270,224,226,-1,270,226,268,-1,268,226,228,-1,268,228,266,-1,266,228,199,-1,266,199,264,-1,264,199,202,-1,264,202,261,-1,261,202,292,-1,303,304,305,-1,305,304,306,-1,305,306,307,-1,308,309,310,-1,308,310,311,-1,311,310,312,-1,311,312,313,-1,313,312,307,-1,313,307,306,-1,314,315,308,-1,308,315,309,-1,316,317,318,-1,316,318,319,-1,319,318,320,-1,319,320,321,-1,321,320,322,-1,321,322,323,-1,323,322,324,-1,323,324,325,-1,325,324,326,-1,325,326,327,-1,327,326,328,-1,327,328,329,-1,329,328,315,-1,329,315,314,-1,330,331,332,-1,330,332,333,-1,333,332,334,-1,333,334,335,-1,335,334,336,-1,335,336,337,-1,337,336,338,-1,337,338,339,-1,339,338,340,-1,339,340,341,-1,341,340,317,-1,341,317,316,-1,342,343,344,-1,342,344,345,-1,345,344,346,-1,345,346,347,-1,347,346,348,-1,347,348,349,-1,349,348,350,-1,349,350,351,-1,351,350,352,-1,351,352,353,-1,353,352,354,-1,353,354,355,-1,355,354,356,-1,355,356,357,-1,357,356,358,-1,357,358,359,-1,359,358,331,-1,359,331,330,-1,360,361,342,-1,342,361,343,-1,362,363,360,-1,360,363,361,-1,364,365,366,-1,364,366,367,-1,367,366,368,-1,367,368,369,-1,369,368,370,-1,369,370,371,-1,371,370,372,-1,371,372,373,-1,373,372,374,-1,373,374,375,-1,375,374,376,-1,375,376,377,-1,377,376,378,-1,377,378,379,-1,379,378,380,-1,379,380,381,-1,381,380,382,-1,381,382,383,-1,383,382,384,-1,383,384,385,-1,385,384,363,-1,385,363,362,-1,386,387,364,-1,364,387,365,-1,388,389,386,-1,386,389,387,-1,390,391,392,-1,390,392,393,-1,393,392,389,-1,393,389,388,-1,394,395,390,-1,390,395,391,-1,394,304,395,-1,395,304,303,-1,319,321,349,-1,349,321,323,-1,349,323,347,-1,316,319,341,-1,341,319,349,-1,341,349,339,-1,339,349,351,-1,339,351,337,-1,388,386,314,-1,314,386,364,-1,314,364,367,-1,323,325,347,-1,347,325,327,-1,347,327,345,-1,345,327,329,-1,304,394,306,-1,306,394,390,-1,306,390,313,-1,313,390,393,-1,313,393,311,-1,311,393,388,-1,311,388,308,-1,308,388,314,-1,367,369,314,-1,314,369,371,-1,314,371,373,-1,333,353,355,-1,353,333,351,-1,351,333,335,-1,351,335,337,-1,373,375,314,-1,314,375,377,-1,314,377,379,-1,379,381,314,-1,314,381,383,-1,314,383,385,-1,385,362,314,-1,314,362,360,-1,314,360,329,-1,329,360,342,-1,329,342,345,-1,355,357,333,-1,333,357,359,-1,333,359,330,-1,396,397,398,-1,398,399,400,-1,400,401,398,-1,398,401,402,-1,398,402,396,-1,403,404,405,-1,405,404,406,-1,406,407,405,-1,405,407,408,-1,405,408,409,-1,410,411,412,-1,412,411,405,-1,412,405,413,-1,410,412,414,-1,414,412,415,-1,414,415,416,-1,409,417,405,-1,405,417,418,-1,405,418,419,-1,416,420,414,-1,414,420,421,-1,414,421,422,-1,419,423,405,-1,405,423,424,-1,405,424,413,-1,
        ]
    }
}
Shape{
    appearance Appearance {
        material  Material 	{
            diffuseColor 0.6470588235294118 0.6196078431372549 0.5882352941176471
            specularColor 0.45098039215686275 0.43529411764705883 0.4117647058823529
            ambientIntensity 0.2
            transparency 0
            shininess 0.5
        }
    }
    geometry IndexedFaceSet {
        ccw TRUE
        solid FALSE
        coord DEF co Coordinate {
            point [
                0.6575 1.3583 -0.9843, 0.6575 1.3583 0.9449, 0.3425 1.3583 -0.9843, 0.3425 1.3583 0.9449, 0.4213 1.437 -1.378, 0.4213 1.5945 -1.378, 0.5787 1.437 -1.378, 0.5787 1.5945 -1.378, 0.3425 1.6732 -0.9843, 0.3425 1.6732 0.9449, 0.6575 1.6732 -0.9843, 0.6575 1.6732 0.9449, 0.3425 1.6645 1.0557, 0.6575 1.6645 1.0557, 0.3425 1.6385 1.1639, 0.6575 1.6385 1.1639, 0.3425 1.596 1.2666, 0.6575 1.596 1.2666, 0.3425 1.5379 1.3614, 0.6575 1.5379 1.3614, 0.3425 1.4657 1.446, 0.6575 1.4657 1.446, 0.3425 1.3811 1.5182, 0.6575 1.3811 1.5182, 0.3425 1.2863 1.5763, 0.6575 1.2863 1.5763, 0.3425 1.1836 1.6189, 0.6575 1.1836 1.6189, 0.3425 1.0754 1.6448, 0.6575 1.0754 1.6448, 0.3425 0.9646 1.6535, 0.6575 0.9646 1.6535, 0.6575 -1.0039 1.6535, 0.3425 -1.0039 1.6535, 0.4213 -1.3976 1.5748, 0.4213 -1.3976 1.4173, 0.5787 -1.3976 1.5748, 0.5787 -1.3976 1.4173, 0.3425 -1.0039 1.3386, 0.3425 0.9646 1.3386, 0.6575 -1.0039 1.3386, 0.6575 0.9646 1.3386, 0.6575 1.0522 1.3287, 0.3425 1.0522 1.3287, 0.6575 1.1354 1.2996, 0.3425 1.1354 1.2996, 0.6575 1.21 1.2527, 0.3425 1.21 1.2527, 0.6575 1.2724 1.1904, 0.3425 1.2724 1.1904, 0.6575 1.3193 1.1157, 0.3425 1.3193 1.1157, 0.6575 1.3484 1.0325, 0.3425 1.3484 1.0325, 0.3425 1.3484 1.0325
            ]
        }
        coordIndex [
            0,1,2,-1,2,1,3,-1,4,5,6,-1,6,5,7,-1,8,9,10,-1,10,9,11,-1,11,9,12,-1,11,12,13,-1,13,12,14,-1,13,14,15,-1,15,14,16,-1,15,16,17,-1,17,16,18,-1,17,18,19,-1,19,18,20,-1,19,20,21,-1,21,20,22,-1,21,22,23,-1,23,22,24,-1,23,24,25,-1,25,24,26,-1,25,26,27,-1,27,26,28,-1,27,28,29,-1,29,28,30,-1,29,30,31,-1,32,31,33,-1,33,31,30,-1,34,35,36,-1,36,35,37,-1,38,39,40,-1,40,39,41,-1,41,39,42,-1,42,39,43,-1,42,43,44,-1,44,43,45,-1,44,45,46,-1,46,45,47,-1,46,47,48,-1,48,47,49,-1,48,49,50,-1,50,49,51,-1,50,51,52,-1,52,51,53,-1,52,53,1,-1,1,53,3,-1,32,40,31,-1,31,40,41,-1,31,41,29,-1,29,41,42,-1,29,42,27,-1,27,42,44,-1,52,15,50,-1,50,15,17,-1,50,17,48,-1,0,10,1,-1,1,10,11,-1,1,11,52,-1,52,11,13,-1,52,13,15,-1,17,19,48,-1,48,19,21,-1,48,21,46,-1,46,21,23,-1,46,23,44,-1,44,23,25,-1,44,25,27,-1,38,33,39,-1,39,33,30,-1,39,30,43,-1,51,14,53,-1,53,14,12,-1,53,12,3,-1,3,12,9,-1,3,9,2,-1,2,9,8,-1,30,28,43,-1,43,28,26,-1,43,26,45,-1,45,26,24,-1,45,24,47,-1,24,22,47,-1,47,22,20,-1,47,20,49,-1,49,20,18,-1,49,18,51,-1,51,18,16,-1,51,16,14,-1,10,7,8,-1,8,7,5,-1,0,6,10,-1,10,6,7,-1,4,2,5,-1,5,2,8,-1,2,4,0,-1,0,4,6,-1,40,37,38,-1,38,37,35,-1,32,36,40,-1,40,36,37,-1,34,33,35,-1,35,33,38,-1,33,34,32,-1,32,34,36,-1,
        ]
    }
}