#VRML V2.0 utf8
# 3D model generated by easyeda2kicad.py (https://github.com/uPesy/easyeda2kicad.py)

Shape{
    appearance Appearance {
        material  Material 	{
            diffuseColor 0.14901960784313725 0.14901960784313725 0.14901960784313725
            specularColor 0.07450980392156863 0.07450980392156863 0.07450980392156863
            ambientIntensity 0.2
            transparency 0
            shininess 0.5
        }
    }
    geometry IndexedFaceSet {
        ccw TRUE
        solid FALSE
        coord DEF co Coordinate {
            point [
                -0.6752 -0.9803 0.0, -0.7244 -0.9803 0.0, -0.7244 -0.8031 0.0, -0.502 -0.3639 0.0, -0.502 -0.374 0.0, -0.626 -0.374 0.0, -0.374 -0.374 0.0, -0.2756 -0.3639 0.0, -0.374 -0.626 0.0, -0.2756 -0.8031 0.0, -0.502 -0.626 0.0, -0.502 -0.8031 0.0, -0.626 -0.626 0.0, -0.6752 -0.8031 0.0, -0.6752 -0.3639 0.0, -0.626 0.374 0.0, -0.502 0.374 0.0, -0.502 0.3574 0.0, -0.374 0.374 0.0, -0.2756 0.3574 0.0, -0.374 0.626 0.0, -0.6752 0.3574 0.0, -0.626 0.626 0.0, -0.6752 0.9803 0.0, -0.502 0.626 0.0, -0.502 0.9803 0.0, -0.2756 0.9803 0.0, -0.3714 -0.1075 0.0, -0.502 -0.0914 0.0, -0.2756 -0.0914 0.0, -0.3686 -0.1097 0.0, -0.3576 -0.1551 0.0, -0.3549 -0.1707 0.0, -0.487 -0.1885 0.0, -0.4856 -0.1214 0.0, -0.4961 -0.1383 0.0, -0.5015 -0.1538 0.0, -0.502 -0.1577 0.0, -0.471 -0.1075 0.0, -0.4616 -0.1199 0.0, -0.502 -0.1937 0.0, -0.5012 -0.2006 0.0, -0.502 -0.27 0.0, -0.494 -0.2195 0.0, -0.4831 -0.2347 0.0, -0.4203 -0.261 0.0, -0.3988 -0.2583 0.0, -0.2756 -0.27 0.0, -0.3412 -0.1528 0.0, -0.3454 -0.1402 0.0, -0.3556 -0.1228 0.0, -0.3546 -0.1771 0.0, -0.3569 -0.1957 0.0, -0.3632 -0.2118 0.0, -0.4765 -0.241 0.0, -0.4593 -0.2524 0.0, -0.4411 -0.2587 0.0, -0.3809 -0.1199 0.0, -0.3684 -0.1329 0.0, -0.4704 -0.1286 0.0, -0.3604 -0.147 0.0, -0.48 -0.1425 0.0, -0.4857 -0.1577 0.0, -0.3733 -0.2263 0.0, -0.3847 -0.236 0.0, -0.3987 -0.2431 0.0, -0.4388 -0.2447 0.0, -0.4519 -0.2398 0.0, -0.4214 -0.2468 0.0, -0.4641 -0.2314 0.0, -0.4747 -0.2198 0.0, -0.3821 -0.2519 0.0, -0.3666 -0.2411 0.0, -0.3523 -0.2247 0.0, -0.4879 -0.1761 0.0, -0.4138 -0.2464 0.0, -0.4829 -0.2045 0.0, -0.3438 -0.208 0.0, -0.3392 -0.1888 0.0, -0.3385 -0.1762 0.0, -0.6752 -0.0914 0.0, -0.504 -0.1737 0.0, -0.6752 -0.27 0.0, -0.504 -0.176 0.0, -0.502 -0.9803 0.0, -0.2756 -0.9803 0.0, -0.3425 -0.3538 0.0, -0.3425 -0.3397 0.0, -0.4838 -0.3397 0.0, -0.4838 -0.2791 0.0, -0.5 -0.2791 0.0, -0.5 -0.3538 0.0, -0.3425 -0.0752 0.0, -0.3425 0.0136 0.0, -0.2756 0.0278 0.0, -0.3587 0.0136 0.0, -0.502 0.0278 0.0, -0.4233 0.0136 0.0, -0.4233 -0.0611 0.0, -0.4838 -0.0611 0.0, -0.4838 0.0136 0.0, -0.4071 0.0136 0.0, -0.4071 -0.0611 0.0, -0.3587 -0.0611 0.0, -0.5 0.0136 0.0, -0.5 -0.0752 0.0, -0.4619 0.1627 0.0, -0.4781 0.152 0.0, -0.502 0.1812 0.0, -0.4881 0.1407 0.0, -0.4948 0.1275 0.0, -0.3425 0.0419 0.0, -0.3425 0.0737 0.0, -0.2756 0.1812 0.0, -0.3435 0.0989 0.0, -0.3482 0.1237 0.0, -0.3562 0.1396 0.0, -0.4991 0.1076 0.0, -0.5 0.0907 0.0, -0.5 0.0419 0.0, -0.3664 0.1513 0.0, -0.3808 0.1613 0.0, -0.3974 0.1679 0.0, -0.4166 0.1709 0.0, -0.4232 0.1711 0.0, -0.4443 0.1689 0.0, -0.5 0.3253 0.0, -0.4495 0.3021 0.0, -0.4495 0.2307 0.0, -0.5 0.2067 0.0, -0.5 0.1913 0.0, -0.3425 0.266 0.0, -0.3425 0.268 0.0, -0.5 0.3407 0.0, -0.6752 0.1812 0.0, -0.6752 0.0278 0.0, -0.7244 -0.3639 0.0, -0.7244 -0.27 0.0, -0.7244 -0.0914 0.0, -0.7244 0.0278 0.0, -0.7244 0.1812 0.0, -0.7244 0.3574 0.0, -0.7244 0.9803 0.0, 2.374 -0.374 0.9016, 2.2756 0.9803 0.9016, 2.2756 -0.9803 0.9016, 2.626 -0.374 0.9016, 2.626 -0.626 0.9016, 3.0 -0.9803 0.9016, 2.374 -0.626 0.9016, 3.0 0.9803 0.9016, 2.626 0.374 0.9016, 2.374 0.374 0.9016, 2.374 0.626 0.9016, 2.626 0.626 0.9016, 2.374 0.374 0.0, 2.2756 -0.9803 0.0, 2.2756 0.9803 0.0, 2.626 0.374 0.0, 2.626 0.626 0.0, 3.0 0.9803 0.0, 2.374 0.626 0.0, 3.0 -0.9803 0.0, 2.626 -0.374 0.0, 2.374 -0.374 0.0, 2.374 -0.626 0.0, 2.626 -0.626 0.0, 1.374 -0.374 0.9016, 1.2756 0.9803 0.9016, 1.2756 -0.9803 0.9016, 1.626 -0.374 0.9016, 1.626 -0.626 0.9016, 1.7244 -0.9803 0.9016, 1.374 -0.626 0.9016, 1.7244 0.9803 0.9016, 1.626 0.374 0.9016, 1.374 0.374 0.9016, 1.374 0.626 0.9016, 1.626 0.626 0.9016, 1.374 0.374 0.0, 1.2756 -0.9803 0.0, 1.2756 0.9803 0.0, 1.626 0.374 0.0, 1.626 0.626 0.0, 1.7244 0.9803 0.0, 1.374 0.626 0.0, 1.7244 -0.9803 0.0, 1.626 -0.374 0.0, 1.374 -0.374 0.0, 1.374 -0.626 0.0, 1.626 -0.626 0.0, 0.374 -0.374 0.9016, 0.2756 0.9803 0.9016, 0.2756 -0.9803 0.9016, 0.626 -0.374 0.9016, 0.626 -0.626 0.9016, 0.7244 -0.9803 0.9016, 0.374 -0.626 0.9016, 0.7244 0.9803 0.9016, 0.626 0.374 0.9016, 0.374 0.374 0.9016, 0.374 0.626 0.9016, 0.626 0.626 0.9016, 0.374 0.374 0.0, 0.2756 -0.9803 0.0, 0.2756 0.9803 0.0, 0.626 0.374 0.0, 0.626 0.626 0.0, 0.7244 0.9803 0.0, 0.374 0.626 0.0, 0.7244 -0.9803 0.0, 0.626 -0.374 0.0, 0.374 -0.374 0.0, 0.374 -0.626 0.0, 0.626 -0.626 0.0, -0.626 -0.374 0.9016, -0.7244 0.9803 0.9016, -0.7244 -0.9803 0.9016, -0.374 -0.374 0.9016, -0.374 -0.626 0.9016, -0.2756 -0.9803 0.9016, -0.626 -0.626 0.9016, -0.2756 0.9803 0.9016, -0.374 0.374 0.9016, -0.626 0.374 0.9016, -0.626 0.626 0.9016, -0.374 0.626 0.9016, -1.626 0.374 0.0, -1.7244 -0.9803 0.0, -1.7244 0.9803 0.0, -1.374 0.374 0.0, -1.374 0.626 0.0, -1.2756 0.9803 0.0, -1.626 0.626 0.0, -1.2756 -0.9803 0.0, -1.374 -0.374 0.0, -1.626 -0.374 0.0, -1.626 -0.626 0.0, -1.374 -0.626 0.0, -1.626 -0.374 0.9016, -1.7244 0.9803 0.9016, -1.7244 -0.9803 0.9016, -1.374 -0.374 0.9016, -1.374 -0.626 0.9016, -1.2756 -0.9803 0.9016, -1.626 -0.626 0.9016, -1.2756 0.9803 0.9016, -1.374 0.374 0.9016, -1.626 0.374 0.9016, -1.626 0.626 0.9016, -1.374 0.626 0.9016, -2.626 0.374 0.0, -3.0 -0.9803 0.0, -3.0 0.9803 0.0, -2.374 0.374 0.0, -2.374 0.626 0.0, -2.2756 0.9803 0.0, -2.626 0.626 0.0, -2.2756 -0.9803 0.0, -2.374 -0.374 0.0, -2.626 -0.374 0.0, -2.626 -0.626 0.0, -2.374 -0.626 0.0, -2.374 -0.374 0.9016, -2.374 -0.626 0.9016, -2.2756 -0.9803 0.9016, -2.626 0.374 0.9016, -2.626 0.626 0.9016, -3.0 0.9803 0.9016, -3.0 -0.9803 0.9016, -2.626 -0.626 0.9016, -2.626 -0.374 0.9016, -2.2756 0.9803 0.9016, -2.374 0.626 0.9016, -2.374 0.374 0.9016, -2.0 -0.5866 0.6654, -2.0 -0.5866 0.2362, -2.0 0.5866 0.6654, -2.0 0.5866 0.2362, -2.0 0.5866 0.2362
            ]
        }
        coordIndex [
            0,1,2,-1,3,4,5,-1,4,3,6,-1,6,3,7,-1,6,7,8,-1,8,7,9,-1,8,9,10,-1,10,9,11,-1,10,11,12,-1,12,11,13,-1,12,13,14,-1,15,16,17,-1,17,16,18,-1,17,18,19,-1,19,18,20,-1,15,21,22,-1,22,21,23,-1,22,23,24,-1,24,23,25,-1,24,25,20,-1,20,25,26,-1,20,26,19,-1,27,28,29,-1,27,29,30,-1,31,32,33,-1,34,35,28,-1,28,35,36,-1,28,36,37,-1,34,28,38,-1,38,28,27,-1,38,27,39,-1,40,41,42,-1,42,41,43,-1,42,43,44,-1,45,46,47,-1,48,49,29,-1,29,49,50,-1,29,50,30,-1,32,51,33,-1,33,51,52,-1,33,52,53,-1,44,54,42,-1,42,54,55,-1,42,55,56,-1,27,57,39,-1,39,57,58,-1,39,58,59,-1,59,58,60,-1,59,60,61,-1,61,60,62,-1,53,63,33,-1,33,63,64,-1,33,64,65,-1,66,67,68,-1,68,67,69,-1,68,69,70,-1,46,71,47,-1,47,71,72,-1,47,72,73,-1,31,33,60,-1,60,33,74,-1,60,74,62,-1,65,75,33,-1,33,75,68,-1,33,68,76,-1,76,68,70,-1,73,77,47,-1,47,77,78,-1,47,78,29,-1,29,78,79,-1,29,79,48,-1,80,81,82,-1,82,81,83,-1,82,83,40,-1,0,13,84,-1,84,13,11,-1,84,11,85,-1,85,11,9,-1,86,87,47,-1,47,87,88,-1,88,89,47,-1,47,89,42,-1,47,42,45,-1,45,42,56,-1,89,90,42,-1,42,90,91,-1,42,91,3,-1,3,91,86,-1,3,86,7,-1,7,86,47,-1,40,42,82,-1,82,42,3,-1,82,3,14,-1,14,3,5,-1,14,5,12,-1,92,93,94,-1,94,93,95,-1,94,95,96,-1,97,98,99,-1,99,100,97,-1,97,100,96,-1,97,96,101,-1,101,96,95,-1,101,95,102,-1,102,95,103,-1,100,104,96,-1,96,104,105,-1,96,105,28,-1,28,105,92,-1,28,92,29,-1,29,92,94,-1,106,107,108,-1,108,107,109,-1,108,109,110,-1,96,111,94,-1,94,111,112,-1,94,112,113,-1,112,114,113,-1,113,114,115,-1,113,115,116,-1,110,117,108,-1,108,117,118,-1,108,118,96,-1,96,118,119,-1,96,119,111,-1,116,120,113,-1,113,120,121,-1,113,121,122,-1,122,123,113,-1,113,123,124,-1,113,124,108,-1,108,124,125,-1,108,125,106,-1,126,108,17,-1,127,128,126,-1,126,128,129,-1,126,129,108,-1,108,129,130,-1,108,130,113,-1,113,130,131,-1,113,131,19,-1,19,131,132,-1,19,132,17,-1,17,132,133,-1,17,133,126,-1,15,17,21,-1,21,17,108,-1,21,108,134,-1,134,108,96,-1,134,96,135,-1,135,96,28,-1,135,28,80,-1,80,28,37,-1,80,37,81,-1,0,2,13,-1,13,2,136,-1,13,136,14,-1,14,136,137,-1,14,137,82,-1,82,137,138,-1,82,138,80,-1,80,138,139,-1,80,139,135,-1,135,139,140,-1,135,140,134,-1,134,140,141,-1,134,141,21,-1,21,141,142,-1,21,142,23,-1,143,144,145,-1,146,147,148,-1,148,147,145,-1,145,147,149,-1,145,149,143,-1,148,150,146,-1,146,150,151,-1,146,151,143,-1,143,151,152,-1,143,152,144,-1,144,152,153,-1,144,153,150,-1,150,153,154,-1,150,154,151,-1,155,156,157,-1,158,159,160,-1,160,159,157,-1,157,159,161,-1,157,161,155,-1,160,162,158,-1,158,162,163,-1,158,163,155,-1,155,163,164,-1,155,164,156,-1,156,164,165,-1,156,165,162,-1,162,165,166,-1,162,166,163,-1,167,168,169,-1,170,171,172,-1,172,171,169,-1,169,171,173,-1,169,173,167,-1,172,174,170,-1,170,174,175,-1,170,175,167,-1,167,175,176,-1,167,176,168,-1,168,176,177,-1,168,177,174,-1,174,177,178,-1,174,178,175,-1,179,180,181,-1,182,183,184,-1,184,183,181,-1,181,183,185,-1,181,185,179,-1,184,186,182,-1,182,186,187,-1,182,187,179,-1,179,187,188,-1,179,188,180,-1,180,188,189,-1,180,189,186,-1,186,189,190,-1,186,190,187,-1,191,192,193,-1,194,195,196,-1,196,195,193,-1,193,195,197,-1,193,197,191,-1,196,198,194,-1,194,198,199,-1,194,199,191,-1,191,199,200,-1,191,200,192,-1,192,200,201,-1,192,201,198,-1,198,201,202,-1,198,202,199,-1,203,204,205,-1,206,207,208,-1,208,207,205,-1,205,207,209,-1,205,209,203,-1,208,210,206,-1,206,210,211,-1,206,211,203,-1,203,211,212,-1,203,212,204,-1,204,212,213,-1,204,213,210,-1,210,213,214,-1,210,214,211,-1,215,216,217,-1,218,219,220,-1,220,219,217,-1,217,219,221,-1,217,221,215,-1,220,222,218,-1,218,222,223,-1,218,223,215,-1,215,223,224,-1,215,224,216,-1,216,224,225,-1,216,225,222,-1,222,225,226,-1,222,226,223,-1,227,228,229,-1,230,231,232,-1,232,231,229,-1,229,231,233,-1,229,233,227,-1,232,234,230,-1,230,234,235,-1,230,235,227,-1,227,235,236,-1,227,236,228,-1,228,236,237,-1,228,237,234,-1,234,237,238,-1,234,238,235,-1,239,240,241,-1,242,243,244,-1,244,243,241,-1,241,243,245,-1,241,245,239,-1,244,246,242,-1,242,246,247,-1,242,247,239,-1,239,247,248,-1,239,248,240,-1,240,248,249,-1,240,249,246,-1,246,249,250,-1,246,250,247,-1,168,174,181,-1,181,174,184,-1,208,205,198,-1,198,205,192,-1,144,150,157,-1,157,150,160,-1,26,142,222,-1,222,142,216,-1,220,217,85,-1,85,217,1,-1,244,241,234,-1,234,241,228,-1,172,169,186,-1,186,169,180,-1,204,210,193,-1,193,210,196,-1,251,252,253,-1,254,255,256,-1,256,255,253,-1,253,255,257,-1,253,257,251,-1,256,258,254,-1,254,258,259,-1,254,259,251,-1,251,259,260,-1,251,260,252,-1,252,260,261,-1,252,261,258,-1,258,261,262,-1,258,262,259,-1,263,264,265,-1,266,267,268,-1,265,264,269,-1,269,264,270,-1,269,270,271,-1,268,267,272,-1,272,267,273,-1,272,273,274,-1,268,269,266,-1,266,269,271,-1,266,271,274,-1,274,271,263,-1,274,263,272,-1,272,263,265,-1,232,229,246,-1,246,229,240,-1,265,269,258,-1,258,269,252,-1,150,148,160,-1,160,148,162,-1,256,253,272,-1,272,253,268,-1,269,268,252,-1,252,268,253,-1,156,162,145,-1,145,162,148,-1,265,258,275,-1,275,258,276,-1,275,276,241,-1,241,276,228,-1,240,229,277,-1,277,229,278,-1,277,278,272,-1,272,278,256,-1,
        ]
    }
}
Shape{
    appearance Appearance {
        material  Material 	{
            diffuseColor 0.7529411764705882 0.7529411764705882 0.7529411764705882
            specularColor 0.3764705882352941 0.3764705882352941 0.3764705882352941
            ambientIntensity 0.2
            transparency 0
            shininess 0.5
        }
    }
    geometry IndexedFaceSet {
        ccw TRUE
        solid FALSE
        coord DEF co Coordinate {
            point [
                -2.626 -0.4528 -1.2835, -2.626 -0.374 -1.2047, -2.374 -0.4528 -1.2835, -2.374 -0.374 -1.2047, -2.626 -0.5472 -1.2835, -2.374 -0.5472 -1.2835, -2.626 -0.626 -1.2047, -2.374 -0.626 -1.2047, -2.374 -0.374 0.0, -2.374 -0.626 0.0, -2.626 -0.626 0.0, -2.626 -0.374 0.0, -2.374 -0.626 3.5591, -2.626 -0.626 3.5591, -2.374 -0.626 0.9016, -2.626 -0.626 0.9016, -2.626 -0.5472 3.6378, -2.374 -0.5472 3.6378, -2.626 -0.4528 3.6378, -2.374 -0.4528 3.6378, -2.626 -0.374 3.5591, -2.374 -0.374 3.5591, -2.626 -0.374 0.9016, -2.374 -0.374 0.9016, -2.626 0.5472 -1.2835, -2.626 0.626 -1.2047, -2.374 0.5472 -1.2835, -2.374 0.626 -1.2047, -2.626 0.4528 -1.2835, -2.374 0.4528 -1.2835, -2.626 0.374 -1.2047, -2.374 0.374 -1.2047, -2.374 0.374 0.0, -2.374 0.626 0.0, -2.626 0.374 0.0, -2.626 0.626 0.0, -2.374 0.374 3.5591, -2.626 0.374 3.5591, -2.374 0.374 0.9016, -2.626 0.374 0.9016, -2.626 0.4528 3.6378, -2.374 0.4528 3.6378, -2.626 0.5472 3.6378, -2.374 0.5472 3.6378, -2.626 0.626 3.5591, -2.374 0.626 3.5591, -2.626 0.626 0.9016, -2.374 0.626 0.9016, -2.374 0.626 0.9016
            ]
        }
        coordIndex [
            0,1,2,-1,2,1,3,-1,4,0,5,-1,5,0,2,-1,6,4,7,-1,7,4,5,-1,3,8,2,-1,2,8,9,-1,2,9,5,-1,5,9,7,-1,4,6,0,-1,0,6,10,-1,0,10,1,-1,1,10,11,-1,8,3,11,-1,11,3,1,-1,10,6,9,-1,9,6,7,-1,12,13,14,-1,14,13,15,-1,16,13,17,-1,17,13,12,-1,18,16,19,-1,19,16,17,-1,20,18,21,-1,21,18,19,-1,20,21,22,-1,22,21,23,-1,16,18,13,-1,13,18,20,-1,13,20,15,-1,15,20,22,-1,14,23,12,-1,12,23,21,-1,12,21,17,-1,17,21,19,-1,24,25,26,-1,26,25,27,-1,28,24,29,-1,29,24,26,-1,30,28,31,-1,31,28,29,-1,29,26,31,-1,31,26,27,-1,31,27,32,-1,32,27,33,-1,34,35,30,-1,30,35,25,-1,30,25,28,-1,28,25,24,-1,33,27,35,-1,35,27,25,-1,34,30,32,-1,32,30,31,-1,36,37,38,-1,38,37,39,-1,40,37,41,-1,41,37,36,-1,42,40,43,-1,43,40,41,-1,44,42,45,-1,45,42,43,-1,44,45,46,-1,46,45,47,-1,40,42,37,-1,37,42,44,-1,37,44,39,-1,39,44,46,-1,43,41,45,-1,45,41,36,-1,45,36,47,-1,47,36,38,-1,
        ]
    }
}
Shape{
    appearance Appearance {
        material  Material 	{
            diffuseColor 0.14901960784313725 0.14901960784313725 0.14901960784313725
            specularColor 0.07450980392156863 0.07450980392156863 0.07450980392156863
            ambientIntensity 0.2
            transparency 0
            shininess 0.5
        }
    }
    geometry IndexedFaceSet {
        ccw TRUE
        solid FALSE
        coord DEF co Coordinate {
            point [
                -1.7244 0.9803 0.0, -1.7244 -0.9803 0.0, -2.0 0.5866 0.2362, -2.0 -0.5866 0.2362, -2.2756 0.9803 0.0, -2.2756 -0.9803 0.0, -2.0 0.5866 0.6654, -2.0 -0.5866 0.6654, -1.7244 0.9803 0.9016, -1.7244 -0.9803 0.9016, -2.2756 0.9803 0.9016, -2.2756 -0.9803 0.9016, 0.7244 -0.9803 0.9016, 0.7244 -0.9803 0.0, 1.0 -0.5866 0.6654, 1.0 -0.5866 0.2362, 1.2756 -0.9803 0.9016, 1.2756 -0.9803 0.0, 2.0 -0.5866 0.2362, 2.0 -0.5866 0.6654, 1.7244 -0.9803 0.0, 1.7244 -0.9803 0.9016, 2.2756 -0.9803 0.0, 2.2756 -0.9803 0.9016, -1.0 -0.5866 0.2362, -1.0 -0.5866 0.6654, -1.2756 -0.9803 0.0, -1.2756 -0.9803 0.9016, -0.7244 -0.9803 0.0, -0.7244 -0.9803 0.9016, -0.0 -0.5866 0.2362, -0.0 -0.5866 0.6654, -0.2756 -0.9803 0.0, -0.2756 -0.9803 0.9016, 0.2756 -0.9803 0.0, 0.2756 -0.9803 0.9016, -1.0 0.5866 0.2362, -1.0 0.5866 0.6654, -0.7244 0.9803 0.0, -0.7244 0.9803 0.9016, -1.2756 0.9803 0.0, -1.2756 0.9803 0.9016, 2.0 0.5866 0.2362, 2.0 0.5866 0.6654, 2.2756 0.9803 0.0, 2.2756 0.9803 0.9016, 1.7244 0.9803 0.0, 1.7244 0.9803 0.9016, -0.0 0.5866 0.2362, -0.0 0.5866 0.6654, 0.2756 0.9803 0.0, 0.2756 0.9803 0.9016, -0.2756 0.9803 0.0, -0.2756 0.9803 0.9016, 1.2756 0.9803 0.9016, 1.2756 0.9803 0.0, 1.0 0.5866 0.6654, 1.0 0.5866 0.2362, 0.7244 0.9803 0.9016, 0.7244 0.9803 0.0, 0.7244 0.9803 0.0
            ]
        }
        coordIndex [
            0,1,2,-1,2,1,3,-1,2,3,4,-1,4,3,5,-1,6,7,8,-1,8,7,9,-1,10,11,6,-1,6,11,7,-1,12,13,14,-1,14,13,15,-1,14,15,16,-1,16,15,17,-1,18,19,20,-1,20,19,21,-1,22,23,18,-1,18,23,19,-1,24,25,26,-1,26,25,27,-1,28,29,24,-1,24,29,25,-1,30,31,32,-1,32,31,33,-1,34,35,30,-1,30,35,31,-1,36,37,38,-1,38,37,39,-1,40,41,36,-1,36,41,37,-1,42,43,44,-1,44,43,45,-1,46,47,42,-1,42,47,43,-1,48,49,50,-1,50,49,51,-1,52,53,48,-1,48,53,49,-1,54,55,56,-1,56,55,57,-1,56,57,58,-1,58,57,59,-1,55,17,57,-1,57,17,15,-1,57,15,59,-1,59,15,13,-1,56,14,54,-1,54,14,16,-1,58,12,56,-1,56,12,14,-1,49,31,51,-1,51,31,35,-1,53,33,49,-1,49,33,31,-1,50,34,48,-1,48,34,30,-1,48,30,52,-1,52,30,32,-1,43,19,45,-1,45,19,23,-1,47,21,43,-1,43,21,19,-1,44,22,42,-1,42,22,18,-1,42,18,46,-1,46,18,20,-1,37,25,39,-1,39,25,29,-1,41,27,37,-1,37,27,25,-1,38,28,36,-1,36,28,24,-1,36,24,40,-1,40,24,26,-1,
        ]
    }
}
Shape{
    appearance Appearance {
        material  Material 	{
            diffuseColor 0.7529411764705882 0.7529411764705882 0.7529411764705882
            specularColor 0.3764705882352941 0.3764705882352941 0.3764705882352941
            ambientIntensity 0.2
            transparency 0
            shininess 0.5
        }
    }
    geometry IndexedFaceSet {
        ccw TRUE
        solid FALSE
        coord DEF co Coordinate {
            point [
                -1.626 -0.5472 3.6378, -1.626 -0.626 3.5591, -1.374 -0.5472 3.6378, -1.374 -0.626 3.5591, -1.626 -0.4528 3.6378, -1.374 -0.4528 3.6378, -1.626 -0.374 3.5591, -1.374 -0.374 3.5591, -1.374 -0.626 0.9016, -1.374 -0.374 0.9016, -1.626 -0.626 0.9016, -1.626 -0.374 0.9016, -1.626 -0.626 0.0, -1.626 -0.626 -1.2047, -1.374 -0.626 0.0, -1.374 -0.626 -1.2047, -1.374 -0.374 0.0, -1.374 -0.374 -1.2047, -1.626 -0.374 0.0, -1.626 -0.374 -1.2047, -1.626 -0.5472 -1.2835, -1.626 -0.4528 -1.2835, -1.374 -0.4528 -1.2835, -1.374 -0.5472 -1.2835, -1.626 0.4528 3.6378, -1.626 0.374 3.5591, -1.374 0.4528 3.6378, -1.374 0.374 3.5591, -1.626 0.5472 3.6378, -1.374 0.5472 3.6378, -1.626 0.626 3.5591, -1.374 0.626 3.5591, -1.374 0.626 0.9016, -1.374 0.374 0.9016, -1.626 0.374 0.9016, -1.626 0.626 0.9016, -1.626 0.374 0.0, -1.626 0.374 -1.2047, -1.374 0.374 0.0, -1.374 0.374 -1.2047, -1.374 0.626 0.0, -1.374 0.626 -1.2047, -1.626 0.626 0.0, -1.626 0.626 -1.2047, -1.626 0.4528 -1.2835, -1.626 0.5472 -1.2835, -1.374 0.4528 -1.2835, -1.374 0.5472 -1.2835, -0.626 -0.4528 -1.2835, -0.626 -0.374 -1.2047, -0.374 -0.4528 -1.2835, -0.374 -0.374 -1.2047, -0.626 -0.5472 -1.2835, -0.374 -0.5472 -1.2835, -0.626 -0.626 -1.2047, -0.374 -0.626 -1.2047, -0.374 -0.374 0.0, -0.374 -0.626 0.0, -0.626 -0.626 0.0, -0.626 -0.374 0.0, -0.374 -0.626 3.5591, -0.626 -0.626 3.5591, -0.374 -0.626 0.9016, -0.626 -0.626 0.9016, -0.626 -0.5472 3.6378, -0.374 -0.5472 3.6378, -0.626 -0.4528 3.6378, -0.374 -0.4528 3.6378, -0.626 -0.374 3.5591, -0.374 -0.374 3.5591, -0.626 -0.374 0.9016, -0.374 -0.374 0.9016, -0.626 0.5472 -1.2835, -0.626 0.626 -1.2047, -0.374 0.5472 -1.2835, -0.374 0.626 -1.2047, -0.626 0.4528 -1.2835, -0.374 0.4528 -1.2835, -0.626 0.374 -1.2047, -0.374 0.374 -1.2047, -0.374 0.374 0.0, -0.374 0.626 0.0, -0.626 0.374 0.0, -0.626 0.626 0.0, -0.374 0.374 3.5591, -0.626 0.374 3.5591, -0.374 0.374 0.9016, -0.626 0.374 0.9016, -0.626 0.4528 3.6378, -0.374 0.4528 3.6378, -0.626 0.5472 3.6378, -0.374 0.5472 3.6378, -0.626 0.626 3.5591, -0.374 0.626 3.5591, -0.626 0.626 0.9016, -0.374 0.626 0.9016, 0.374 -0.4528 -1.2835, 0.374 -0.374 -1.2047, 0.626 -0.4528 -1.2835, 0.626 -0.374 -1.2047, 0.374 -0.5472 -1.2835, 0.626 -0.5472 -1.2835, 0.374 -0.626 -1.2047, 0.626 -0.626 -1.2047, 0.626 -0.374 0.0, 0.626 -0.626 0.0, 0.374 -0.626 0.0, 0.374 -0.374 0.0, 0.626 -0.626 3.5591, 0.374 -0.626 3.5591, 0.626 -0.626 0.9016, 0.374 -0.626 0.9016, 0.374 -0.5472 3.6378, 0.626 -0.5472 3.6378, 0.374 -0.4528 3.6378, 0.626 -0.4528 3.6378, 0.374 -0.374 3.5591, 0.626 -0.374 3.5591, 0.374 -0.374 0.9016, 0.626 -0.374 0.9016, 0.374 0.5472 -1.2835, 0.374 0.626 -1.2047, 0.626 0.5472 -1.2835, 0.626 0.626 -1.2047, 0.374 0.4528 -1.2835, 0.626 0.4528 -1.2835, 0.374 0.374 -1.2047, 0.626 0.374 -1.2047, 0.626 0.374 0.0, 0.626 0.626 0.0, 0.374 0.374 0.0, 0.374 0.626 0.0, 0.626 0.374 3.5591, 0.374 0.374 3.5591, 0.626 0.374 0.9016, 0.374 0.374 0.9016, 0.374 0.4528 3.6378, 0.626 0.4528 3.6378, 0.374 0.5472 3.6378, 0.626 0.5472 3.6378, 0.374 0.626 3.5591, 0.626 0.626 3.5591, 0.374 0.626 0.9016, 0.626 0.626 0.9016, 1.374 -0.4528 -1.2835, 1.374 -0.374 -1.2047, 1.626 -0.4528 -1.2835, 1.626 -0.374 -1.2047, 1.374 -0.5472 -1.2835, 1.626 -0.5472 -1.2835, 1.374 -0.626 -1.2047, 1.626 -0.626 -1.2047, 1.626 -0.374 0.0, 1.626 -0.626 0.0, 1.374 -0.626 0.0, 1.374 -0.374 0.0, 1.626 -0.626 3.5591, 1.374 -0.626 3.5591, 1.626 -0.626 0.9016, 1.374 -0.626 0.9016, 1.374 -0.5472 3.6378, 1.626 -0.5472 3.6378, 1.374 -0.4528 3.6378, 1.626 -0.4528 3.6378, 1.374 -0.374 3.5591, 1.626 -0.374 3.5591, 1.374 -0.374 0.9016, 1.626 -0.374 0.9016, 1.374 0.5472 -1.2835, 1.374 0.626 -1.2047, 1.626 0.5472 -1.2835, 1.626 0.626 -1.2047, 1.374 0.4528 -1.2835, 1.626 0.4528 -1.2835, 1.374 0.374 -1.2047, 1.626 0.374 -1.2047, 1.626 0.374 0.0, 1.626 0.626 0.0, 1.374 0.374 0.0, 1.374 0.626 0.0, 1.626 0.374 3.5591, 1.374 0.374 3.5591, 1.626 0.374 0.9016, 1.374 0.374 0.9016, 1.374 0.4528 3.6378, 1.626 0.4528 3.6378, 1.374 0.5472 3.6378, 1.626 0.5472 3.6378, 1.374 0.626 3.5591, 1.626 0.626 3.5591, 1.374 0.626 0.9016, 1.626 0.626 0.9016, 2.374 -0.4528 -1.2835, 2.374 -0.374 -1.2047, 2.626 -0.4528 -1.2835, 2.626 -0.374 -1.2047, 2.374 -0.5472 -1.2835, 2.626 -0.5472 -1.2835, 2.374 -0.626 -1.2047, 2.626 -0.626 -1.2047, 2.626 -0.374 0.0, 2.626 -0.626 0.0, 2.374 -0.626 0.0, 2.374 -0.374 0.0, 2.626 -0.626 3.5591, 2.374 -0.626 3.5591, 2.626 -0.626 0.9016, 2.374 -0.626 0.9016, 2.374 -0.5472 3.6378, 2.626 -0.5472 3.6378, 2.374 -0.4528 3.6378, 2.626 -0.4528 3.6378, 2.374 -0.374 3.5591, 2.626 -0.374 3.5591, 2.374 -0.374 0.9016, 2.626 -0.374 0.9016, 2.374 0.5472 -1.2835, 2.374 0.626 -1.2047, 2.626 0.5472 -1.2835, 2.626 0.626 -1.2047, 2.374 0.4528 -1.2835, 2.626 0.4528 -1.2835, 2.374 0.374 -1.2047, 2.626 0.374 -1.2047, 2.626 0.374 0.0, 2.626 0.626 0.0, 2.374 0.374 0.0, 2.374 0.626 0.0, 2.626 0.374 3.5591, 2.374 0.374 3.5591, 2.626 0.374 0.9016, 2.374 0.374 0.9016, 2.374 0.4528 3.6378, 2.626 0.4528 3.6378, 2.374 0.5472 3.6378, 2.626 0.5472 3.6378, 2.374 0.626 3.5591, 2.626 0.626 3.5591, 2.374 0.626 0.9016, 2.626 0.626 0.9016, -0.3425 0.266 0.0394, -0.3425 0.268 0.0394, -0.3425 0.266 0.0, -0.3425 0.268 0.0, -0.5 0.3407 0.0394, -0.5 0.3407 0.0, -0.5 0.3253 0.0394, -0.5 0.3253 0.0, -0.4495 0.3021 0.0394, -0.4495 0.3021 0.0, -0.4495 0.2307 0.0394, -0.4495 0.2307 0.0, -0.5 0.2067 0.0394, -0.5 0.2067 0.0, -0.5 0.1913 0.0394, -0.5 0.1913 0.0, -0.4334 0.2383 0.0394, -0.3732 0.2669 0.0394, -0.4334 0.2946 0.0394, -0.4334 0.2946 0.0, -0.3732 0.2669 0.0, -0.4334 0.2383 0.0, -0.5 0.0907 0.0394, -0.5 0.0419 0.0394, -0.5 0.0907 0.0, -0.5 0.0419 0.0, -0.3425 0.0419 0.0394, -0.3425 0.0419 0.0, -0.3425 0.0737 0.0394, -0.3425 0.0737 0.0, -0.3482 0.1237 0.0394, -0.3482 0.1237 0.0, -0.3435 0.0989 0.0, -0.3435 0.0989 0.0394, -0.4232 0.1711 0.0394, -0.4232 0.1711 0.0, -0.4166 0.1709 0.0, -0.4166 0.1709 0.0394, -0.3974 0.1679 0.0, -0.3974 0.1679 0.0394, -0.3808 0.1613 0.0, -0.3808 0.1613 0.0394, -0.3664 0.1513 0.0, -0.3664 0.1513 0.0394, -0.3562 0.1396 0.0, -0.3562 0.1396 0.0394, -0.4991 0.1076 0.0, -0.4991 0.1076 0.0394, -0.4948 0.1275 0.0, -0.4948 0.1275 0.0394, -0.4881 0.1407 0.0, -0.4881 0.1407 0.0394, -0.4781 0.152 0.0, -0.4781 0.152 0.0394, -0.4619 0.1627 0.0, -0.4619 0.1627 0.0394, -0.4443 0.1689 0.0, -0.4443 0.1689 0.0394, -0.3594 0.0914 0.0394, -0.3631 0.1155 0.0394, -0.3657 0.1226 0.0394, -0.3725 0.1343 0.0394, -0.3814 0.1434 0.0394, -0.393 0.1507 0.0394, -0.4065 0.1553 0.0394, -0.4232 0.157 0.0394, -0.4272 0.1569 0.0394, -0.4438 0.1542 0.0394, -0.4559 0.149 0.0394, -0.4664 0.1411 0.0394, -0.474 0.1317 0.0394, -0.4798 0.1191 0.0394, -0.4832 0.0968 0.0394, -0.4838 0.0741 0.0394, -0.4838 0.056 0.0394, -0.3587 0.056 0.0394, -0.3587 0.0671 0.0394, -0.3587 0.056 0.0, -0.4838 0.056 0.0, -0.3587 0.0671 0.0, -0.3594 0.0914 0.0, -0.3631 0.1155 0.0, -0.3657 0.1226 -0.0, -0.3725 0.1343 -0.0, -0.3814 0.1434 0.0, -0.393 0.1507 0.0, -0.4065 0.1553 0.0, -0.4232 0.157 0.0, -0.4272 0.1569 0.0, -0.4438 0.1542 0.0, -0.4559 0.149 0.0, -0.4664 0.1411 -0.0, -0.474 0.1317 0.0, -0.4798 0.1191 0.0, -0.4832 0.0968 -0.0, -0.4838 0.0741 0.0, -0.5 -0.0752 0.0394, -0.3425 -0.0752 0.0394, -0.5 -0.0752 0.0, -0.3425 -0.0752 0.0, -0.3425 0.0136 0.0394, -0.3425 0.0136 0.0, -0.3587 0.0136 0.0394, -0.3587 0.0136 0.0, -0.3587 -0.0611 0.0394, -0.3587 -0.0611 0.0, -0.4071 -0.0611 0.0394, -0.4071 -0.0611 0.0, -0.4071 0.0136 0.0394, -0.4071 0.0136 0.0, -0.4233 0.0136 0.0394, -0.4233 0.0136 0.0, -0.4233 -0.0611 0.0394, -0.4233 -0.0611 0.0, -0.4838 -0.0611 0.0394, -0.4838 -0.0611 0.0, -0.4838 0.0136 0.0394, -0.4838 0.0136 0.0, -0.5 0.0136 0.0394, -0.5 0.0136 0.0, -0.3714 -0.1075 0.0394, -0.3714 -0.1075 0.0, -0.3686 -0.1097 0.0, -0.3686 -0.1097 0.0394, -0.3556 -0.1228 0.0, -0.3556 -0.1228 0.0394, -0.3454 -0.1402 0.0, -0.3454 -0.1402 0.0394, -0.3412 -0.1528 0.0, -0.3412 -0.1528 0.0394, -0.3385 -0.1762 0.0, -0.3385 -0.1762 0.0394, -0.3809 -0.1199 0.0394, -0.3809 -0.1199 0.0, -0.3546 -0.1771 0.0394, -0.3546 -0.1771 0.0, -0.3549 -0.1707 0.0, -0.3549 -0.1707 0.0394, -0.3576 -0.1551 0.0, -0.3576 -0.1551 0.0394, -0.3604 -0.147 0.0, -0.3604 -0.147 0.0394, -0.3684 -0.1329 0.0, -0.3684 -0.1329 0.0394, -0.4214 -0.2468 0.0394, -0.4214 -0.2468 0.0, -0.4138 -0.2464 0.0, -0.4138 -0.2464 0.0394, -0.3987 -0.2431 0.0, -0.3987 -0.2431 0.0394, -0.3847 -0.236 0.0, -0.3847 -0.236 0.0394, -0.3733 -0.2263 0.0, -0.3733 -0.2263 0.0394, -0.3632 -0.2118 0.0, -0.3632 -0.2118 0.0394, -0.3569 -0.1957 0.0, -0.3569 -0.1957 0.0394, -0.4879 -0.1761 0.0394, -0.4879 -0.1761 0.0, -0.487 -0.1885 0.0, -0.487 -0.1885 0.0394, -0.4829 -0.2045 0.0, -0.4829 -0.2045 0.0394, -0.4747 -0.2198 0.0, -0.4747 -0.2198 0.0394, -0.4641 -0.2314 0.0, -0.4641 -0.2314 0.0394, -0.4519 -0.2398 0.0, -0.4519 -0.2398 0.0394, -0.4388 -0.2447 0.0, -0.4388 -0.2447 0.0394, -0.4616 -0.1199 0.0394, -0.4616 -0.1199 0.0, -0.4704 -0.1286 0.0, -0.4704 -0.1286 0.0394, -0.48 -0.1425 0.0, -0.48 -0.1425 0.0394, -0.4857 -0.1577 0.0, -0.4857 -0.1577 0.0394, -0.471 -0.1075 0.0394, -0.471 -0.1075 0.0, -0.504 -0.176 0.0394, -0.504 -0.176 0.0, -0.504 -0.1737 0.0, -0.504 -0.1737 0.0394, -0.502 -0.1577 0.0, -0.5015 -0.1538 0.0394, -0.5015 -0.1538 0.0, -0.4961 -0.1383 0.0, -0.4961 -0.1383 0.0394, -0.4856 -0.1214 0.0, -0.4856 -0.1214 0.0394, -0.502 -0.1937 0.0, -0.5012 -0.2006 0.0394, -0.5012 -0.2006 0.0, -0.494 -0.2195 0.0394, -0.494 -0.2195 0.0, -0.4831 -0.2347 0.0394, -0.4831 -0.2347 0.0, -0.4765 -0.241 0.0394, -0.4765 -0.241 0.0, -0.4203 -0.261 0.0394, -0.4203 -0.261 0.0, -0.4411 -0.2587 0.0, -0.4411 -0.2587 0.0394, -0.4593 -0.2524 0.0, -0.4593 -0.2524 0.0394, -0.3392 -0.1888 0.0, -0.3392 -0.1888 0.0394, -0.3438 -0.208 0.0, -0.3438 -0.208 0.0394, -0.3523 -0.2247 0.0, -0.3523 -0.2247 0.0394, -0.3666 -0.2411 0.0, -0.3666 -0.2411 0.0394, -0.3821 -0.2519 0.0, -0.3821 -0.2519 0.0394, -0.3988 -0.2583 0.0, -0.3988 -0.2583 0.0394, -0.5 -0.3538 0.0394, -0.3425 -0.3538 0.0394, -0.5 -0.3538 0.0, -0.3425 -0.3538 0.0, -0.3425 -0.3397 0.0394, -0.3425 -0.3397 0.0, -0.4838 -0.3397 0.0394, -0.4838 -0.3397 0.0, -0.4838 -0.2791 0.0394, -0.4838 -0.2791 0.0, -0.5 -0.2791 0.0394, -0.5 -0.2791 0.0, -0.5 -0.2791 0.0
            ]
        }
        coordIndex [
            0,1,2,-1,2,1,3,-1,4,0,5,-1,5,0,2,-1,6,4,7,-1,7,4,5,-1,8,9,3,-1,3,9,7,-1,3,7,2,-1,2,7,5,-1,0,4,1,-1,1,4,6,-1,1,6,10,-1,10,6,11,-1,6,7,11,-1,11,7,9,-1,3,1,8,-1,8,1,10,-1,12,13,14,-1,14,13,15,-1,16,17,18,-1,18,17,19,-1,20,13,21,-1,21,13,12,-1,21,12,19,-1,19,12,18,-1,17,16,22,-1,22,16,14,-1,22,14,23,-1,23,14,15,-1,13,20,15,-1,15,20,23,-1,21,19,22,-1,22,19,17,-1,20,21,23,-1,23,21,22,-1,24,25,26,-1,26,25,27,-1,28,24,29,-1,29,24,26,-1,30,28,31,-1,31,28,29,-1,29,26,31,-1,31,26,27,-1,31,27,32,-1,32,27,33,-1,24,28,25,-1,25,28,30,-1,25,30,34,-1,34,30,35,-1,30,31,35,-1,35,31,32,-1,27,25,33,-1,33,25,34,-1,36,37,38,-1,38,37,39,-1,40,41,42,-1,42,41,43,-1,36,42,37,-1,37,42,43,-1,37,43,44,-1,44,43,45,-1,46,47,39,-1,39,47,41,-1,39,41,38,-1,38,41,40,-1,45,43,47,-1,47,43,41,-1,44,45,46,-1,46,45,47,-1,37,44,39,-1,39,44,46,-1,48,49,50,-1,50,49,51,-1,52,48,53,-1,53,48,50,-1,54,52,55,-1,55,52,53,-1,51,56,50,-1,50,56,57,-1,50,57,53,-1,53,57,55,-1,52,54,48,-1,48,54,58,-1,48,58,49,-1,49,58,59,-1,56,51,59,-1,59,51,49,-1,58,54,57,-1,57,54,55,-1,60,61,62,-1,62,61,63,-1,64,61,65,-1,65,61,60,-1,66,64,67,-1,67,64,65,-1,68,66,69,-1,69,66,67,-1,68,69,70,-1,70,69,71,-1,64,66,61,-1,61,66,68,-1,61,68,63,-1,63,68,70,-1,62,71,60,-1,60,71,69,-1,60,69,65,-1,65,69,67,-1,72,73,74,-1,74,73,75,-1,76,72,77,-1,77,72,74,-1,78,76,79,-1,79,76,77,-1,77,74,79,-1,79,74,75,-1,79,75,80,-1,80,75,81,-1,82,83,78,-1,78,83,73,-1,78,73,76,-1,76,73,72,-1,81,75,83,-1,83,75,73,-1,82,78,80,-1,80,78,79,-1,84,85,86,-1,86,85,87,-1,88,85,89,-1,89,85,84,-1,90,88,91,-1,91,88,89,-1,92,90,93,-1,93,90,91,-1,92,93,94,-1,94,93,95,-1,88,90,85,-1,85,90,92,-1,85,92,87,-1,87,92,94,-1,91,89,93,-1,93,89,84,-1,93,84,95,-1,95,84,86,-1,96,97,98,-1,98,97,99,-1,100,96,101,-1,101,96,98,-1,102,100,103,-1,103,100,101,-1,99,104,98,-1,98,104,105,-1,98,105,101,-1,101,105,103,-1,100,102,96,-1,96,102,106,-1,96,106,97,-1,97,106,107,-1,104,99,107,-1,107,99,97,-1,106,102,105,-1,105,102,103,-1,108,109,110,-1,110,109,111,-1,112,109,113,-1,113,109,108,-1,114,112,115,-1,115,112,113,-1,116,114,117,-1,117,114,115,-1,116,117,118,-1,118,117,119,-1,112,114,109,-1,109,114,116,-1,109,116,111,-1,111,116,118,-1,110,119,108,-1,108,119,117,-1,108,117,113,-1,113,117,115,-1,120,121,122,-1,122,121,123,-1,124,120,125,-1,125,120,122,-1,126,124,127,-1,127,124,125,-1,125,122,127,-1,127,122,123,-1,127,123,128,-1,128,123,129,-1,130,131,126,-1,126,131,121,-1,126,121,124,-1,124,121,120,-1,129,123,131,-1,131,123,121,-1,130,126,128,-1,128,126,127,-1,132,133,134,-1,134,133,135,-1,136,133,137,-1,137,133,132,-1,138,136,139,-1,139,136,137,-1,140,138,141,-1,141,138,139,-1,140,141,142,-1,142,141,143,-1,136,138,133,-1,133,138,140,-1,133,140,135,-1,135,140,142,-1,139,137,141,-1,141,137,132,-1,141,132,143,-1,143,132,134,-1,144,145,146,-1,146,145,147,-1,148,144,149,-1,149,144,146,-1,150,148,151,-1,151,148,149,-1,147,152,146,-1,146,152,153,-1,146,153,149,-1,149,153,151,-1,148,150,144,-1,144,150,154,-1,144,154,145,-1,145,154,155,-1,152,147,155,-1,155,147,145,-1,154,150,153,-1,153,150,151,-1,156,157,158,-1,158,157,159,-1,160,157,161,-1,161,157,156,-1,162,160,163,-1,163,160,161,-1,164,162,165,-1,165,162,163,-1,164,165,166,-1,166,165,167,-1,160,162,157,-1,157,162,164,-1,157,164,159,-1,159,164,166,-1,158,167,156,-1,156,167,165,-1,156,165,161,-1,161,165,163,-1,168,169,170,-1,170,169,171,-1,172,168,173,-1,173,168,170,-1,174,172,175,-1,175,172,173,-1,173,170,175,-1,175,170,171,-1,175,171,176,-1,176,171,177,-1,178,179,174,-1,174,179,169,-1,174,169,172,-1,172,169,168,-1,177,171,179,-1,179,171,169,-1,178,174,176,-1,176,174,175,-1,180,181,182,-1,182,181,183,-1,184,181,185,-1,185,181,180,-1,186,184,187,-1,187,184,185,-1,188,186,189,-1,189,186,187,-1,188,189,190,-1,190,189,191,-1,184,186,181,-1,181,186,188,-1,181,188,183,-1,183,188,190,-1,187,185,189,-1,189,185,180,-1,189,180,191,-1,191,180,182,-1,192,193,194,-1,194,193,195,-1,196,192,197,-1,197,192,194,-1,198,196,199,-1,199,196,197,-1,195,200,194,-1,194,200,201,-1,194,201,197,-1,197,201,199,-1,196,198,192,-1,192,198,202,-1,192,202,193,-1,193,202,203,-1,200,195,203,-1,203,195,193,-1,202,198,201,-1,201,198,199,-1,204,205,206,-1,206,205,207,-1,208,205,209,-1,209,205,204,-1,210,208,211,-1,211,208,209,-1,212,210,213,-1,213,210,211,-1,212,213,214,-1,214,213,215,-1,208,210,205,-1,205,210,212,-1,205,212,207,-1,207,212,214,-1,206,215,204,-1,204,215,213,-1,204,213,209,-1,209,213,211,-1,216,217,218,-1,218,217,219,-1,220,216,221,-1,221,216,218,-1,222,220,223,-1,223,220,221,-1,221,218,223,-1,223,218,219,-1,223,219,224,-1,224,219,225,-1,226,227,222,-1,222,227,217,-1,222,217,220,-1,220,217,216,-1,225,219,227,-1,227,219,217,-1,226,222,224,-1,224,222,223,-1,228,229,230,-1,230,229,231,-1,232,229,233,-1,233,229,228,-1,234,232,235,-1,235,232,233,-1,236,234,237,-1,237,234,235,-1,236,237,238,-1,238,237,239,-1,232,234,229,-1,229,234,236,-1,229,236,231,-1,231,236,238,-1,235,233,237,-1,237,233,228,-1,237,228,239,-1,239,228,230,-1,240,241,242,-1,242,241,243,-1,241,244,243,-1,243,244,245,-1,244,246,245,-1,245,246,247,-1,246,248,247,-1,247,248,249,-1,248,250,249,-1,249,250,251,-1,250,252,251,-1,251,252,253,-1,252,254,253,-1,253,254,255,-1,254,240,255,-1,255,240,242,-1,241,240,256,-1,256,257,241,-1,241,257,258,-1,241,258,244,-1,254,252,250,-1,246,244,248,-1,248,244,258,-1,248,258,250,-1,250,258,256,-1,250,256,254,-1,254,256,240,-1,258,257,259,-1,259,257,260,-1,256,258,261,-1,261,258,259,-1,257,256,260,-1,260,256,261,-1,262,263,264,-1,264,263,265,-1,263,266,265,-1,265,266,267,-1,266,268,267,-1,267,268,269,-1,270,271,272,-1,270,272,273,-1,273,272,269,-1,273,269,268,-1,274,275,276,-1,274,276,277,-1,277,276,278,-1,277,278,279,-1,279,278,280,-1,279,280,281,-1,281,280,282,-1,281,282,283,-1,283,282,284,-1,283,284,285,-1,285,284,271,-1,285,271,270,-1,262,264,286,-1,262,286,287,-1,287,286,288,-1,287,288,289,-1,289,288,290,-1,289,290,291,-1,291,290,292,-1,291,292,293,-1,293,292,294,-1,293,294,295,-1,295,294,296,-1,295,296,297,-1,297,296,275,-1,297,275,274,-1,298,299,270,-1,270,299,300,-1,270,300,285,-1,285,300,301,-1,285,301,283,-1,283,301,302,-1,283,302,281,-1,281,302,303,-1,281,303,279,-1,279,303,304,-1,279,304,277,-1,277,304,305,-1,277,305,274,-1,274,305,306,-1,274,306,297,-1,297,306,307,-1,297,307,295,-1,295,307,308,-1,295,308,293,-1,293,308,309,-1,293,309,291,-1,291,309,310,-1,291,310,289,-1,289,310,311,-1,289,311,287,-1,287,311,312,-1,287,312,262,-1,262,312,313,-1,262,313,263,-1,263,313,314,-1,263,314,266,-1,266,314,315,-1,266,315,268,-1,268,315,316,-1,268,316,273,-1,273,316,298,-1,273,298,270,-1,315,314,317,-1,317,314,318,-1,316,315,319,-1,319,315,317,-1,316,319,320,-1,316,320,298,-1,298,320,321,-1,298,321,299,-1,299,321,322,-1,299,322,300,-1,300,322,323,-1,300,323,301,-1,301,323,324,-1,301,324,302,-1,302,324,325,-1,302,325,303,-1,303,325,326,-1,303,326,304,-1,304,326,327,-1,304,327,305,-1,305,327,328,-1,305,328,306,-1,306,328,329,-1,306,329,307,-1,307,329,330,-1,307,330,308,-1,308,330,331,-1,308,331,309,-1,309,331,332,-1,309,332,310,-1,310,332,333,-1,310,333,311,-1,311,333,334,-1,311,334,312,-1,312,334,335,-1,312,335,313,-1,314,313,318,-1,318,313,335,-1,336,337,338,-1,338,337,339,-1,337,340,339,-1,339,340,341,-1,340,342,341,-1,341,342,343,-1,342,344,343,-1,343,344,345,-1,344,346,345,-1,345,346,347,-1,346,348,347,-1,347,348,349,-1,348,350,349,-1,349,350,351,-1,350,352,351,-1,351,352,353,-1,352,354,353,-1,353,354,355,-1,354,356,355,-1,355,356,357,-1,356,358,357,-1,357,358,359,-1,358,336,359,-1,359,336,338,-1,336,358,356,-1,356,354,336,-1,336,354,352,-1,336,352,337,-1,342,340,344,-1,344,340,337,-1,344,337,346,-1,346,337,352,-1,346,352,348,-1,348,352,350,-1,360,361,362,-1,360,362,363,-1,363,362,364,-1,363,364,365,-1,365,364,366,-1,365,366,367,-1,367,366,368,-1,367,368,369,-1,369,368,370,-1,369,370,371,-1,360,372,361,-1,361,372,373,-1,374,375,376,-1,374,376,377,-1,377,376,378,-1,377,378,379,-1,379,378,380,-1,379,380,381,-1,381,380,382,-1,381,382,383,-1,383,382,373,-1,383,373,372,-1,384,385,386,-1,384,386,387,-1,387,386,388,-1,387,388,389,-1,389,388,390,-1,389,390,391,-1,391,390,392,-1,391,392,393,-1,393,392,394,-1,393,394,395,-1,395,394,396,-1,395,396,397,-1,397,396,375,-1,397,375,374,-1,398,399,400,-1,398,400,401,-1,401,400,402,-1,401,402,403,-1,403,402,404,-1,403,404,405,-1,405,404,406,-1,405,406,407,-1,407,406,408,-1,407,408,409,-1,409,408,410,-1,409,410,411,-1,411,410,385,-1,411,385,384,-1,412,413,414,-1,412,414,415,-1,415,414,416,-1,415,416,417,-1,417,416,418,-1,417,418,419,-1,419,418,399,-1,419,399,398,-1,412,420,413,-1,413,420,421,-1,422,423,424,-1,422,424,425,-1,425,424,426,-1,425,426,427,-1,426,428,427,-1,427,428,429,-1,427,429,430,-1,430,429,431,-1,430,431,432,-1,432,431,421,-1,432,421,420,-1,423,422,433,-1,433,422,434,-1,433,434,435,-1,435,434,436,-1,435,436,437,-1,437,436,438,-1,437,438,439,-1,439,438,440,-1,439,440,441,-1,442,443,444,-1,442,444,445,-1,445,444,446,-1,445,446,447,-1,447,446,441,-1,447,441,440,-1,371,370,448,-1,371,448,449,-1,449,448,450,-1,449,450,451,-1,451,450,452,-1,451,452,453,-1,453,452,454,-1,453,454,455,-1,455,454,456,-1,455,456,457,-1,457,456,458,-1,457,458,459,-1,459,458,443,-1,459,443,442,-1,372,360,363,-1,420,412,432,-1,432,412,415,-1,432,415,430,-1,430,415,417,-1,430,417,427,-1,427,417,419,-1,427,419,425,-1,425,419,398,-1,372,363,383,-1,383,363,365,-1,383,365,381,-1,381,365,367,-1,381,367,379,-1,379,367,369,-1,379,369,377,-1,377,369,371,-1,377,371,374,-1,374,371,449,-1,374,449,397,-1,397,449,451,-1,397,451,395,-1,395,451,453,-1,395,453,393,-1,393,453,455,-1,393,455,391,-1,391,455,457,-1,391,457,389,-1,389,457,459,-1,389,459,387,-1,387,459,442,-1,387,442,384,-1,384,442,411,-1,411,442,445,-1,411,445,409,-1,409,445,447,-1,409,447,407,-1,407,447,440,-1,407,440,405,-1,405,440,438,-1,405,438,403,-1,403,438,436,-1,403,436,401,-1,401,436,434,-1,401,434,398,-1,398,434,422,-1,398,422,425,-1,460,461,462,-1,462,461,463,-1,461,464,463,-1,463,464,465,-1,464,466,465,-1,465,466,467,-1,466,468,467,-1,467,468,469,-1,468,470,469,-1,469,470,471,-1,470,460,471,-1,471,460,462,-1,464,461,466,-1,466,461,460,-1,466,460,468,-1,468,460,470,-1,
        ]
    }
}
Shape{
    appearance Appearance {
        material  Material 	{
            diffuseColor 0.14901960784313725 0.14901960784313725 0.14901960784313725
            specularColor 0.07450980392156863 0.07450980392156863 0.07450980392156863
            ambientIntensity 0.2
            transparency 0
            shininess 0.5
        }
    }
    geometry IndexedFaceSet {
        ccw TRUE
        solid FALSE
        coord DEF co Coordinate {
            point [
                -0.3732 0.2669 0.0, -0.4334 0.2383 0.0, -0.4334 0.2946 0.0, -0.3587 0.056 0.0, -0.4838 0.056 0.0, -0.3587 0.0671 0.0, -0.4838 0.0741 0.0, -0.3594 0.0914 0.0, -0.4832 0.0968 -0.0, -0.3631 0.1155 0.0, -0.4559 0.149 0.0, -0.4438 0.1542 0.0, -0.4272 0.1569 0.0, -0.4232 0.157 0.0, -0.4798 0.1191 0.0, -0.474 0.1317 0.0, -0.4664 0.1411 -0.0, -0.4065 0.1553 0.0, -0.393 0.1507 0.0, -0.3814 0.1434 0.0, -0.3725 0.1343 -0.0, -0.3657 0.1226 -0.0, -0.3657 0.1226 -0.0
            ]
        }
        coordIndex [
            0,1,2,-1,3,4,5,-1,5,4,6,-1,5,6,7,-1,7,6,8,-1,7,8,9,-1,10,11,8,-1,8,11,12,-1,8,12,13,-1,14,15,8,-1,8,15,16,-1,8,16,10,-1,13,17,8,-1,8,17,18,-1,8,18,19,-1,19,20,8,-1,8,20,21,-1,8,21,9,-1,
        ]
    }
}