#VRML V2.0 utf8
# 3D model generated by easyeda2kicad.py (https://github.com/uPesy/easyeda2kicad.py)

Shape{
    appearance Appearance {
        material  Material 	{
            diffuseColor 0.34901960784313724 0.34901960784313724 0.34901960784313724
            specularColor 0.023529411764705882 0.023529411764705882 0.023529411764705882
            ambientIntensity 0.2
            transparency 0
            shininess 0.5
        }
    }
    geometry IndexedFaceSet {
        ccw TRUE
        solid FALSE
        coord DEF co Coordinate {
            point [
                0.0674 0.0278 -0.4331, 0.0752 0.0269 -0.4331, 0.0504 -0.0314 -0.4331, 0.049 -0.0392 -0.4331, 0.0413 -0.0438 -0.4331, 0.049 -0.0306 -0.4331, 0.0413 0.5906 -0.4331, 0.374 0.5906 -0.4331, 0.472 0.4925 -0.4331, 0.2953 0.4925 -0.4331, 0.088 -0.0406 -0.4331, 0.1143 -0.0433 -0.4331, 0.0803 -0.0433 -0.4331, 0.0753 -0.0438 -0.4331, 0.0811 0.0248 -0.4331, 0.0865 0.0211 -0.4331, 0.0913 0.0159 -0.4331, 0.097 -0.0048 -0.4331, 0.0962 -0.0133 -0.4331, 0.094 -0.0201 -0.4331, 0.0765 -0.0348 -0.4331, 0.0692 -0.0356 -0.4331, 0.0823 -0.0327 -0.4331, 0.0871 -0.0294 -0.4331, 0.0908 -0.0255 -0.4331, 0.0587 -0.0345 -0.4331, 0.0578 0.0265 -0.4331, 0.049 0.0227 -0.4331, 0.049 0.0333 -0.4331, 0.0945 0.0098 -0.4331, 0.0966 0.0014 -0.4331, 0.1034 0.0147 -0.4331, 0.0988 0.0221 -0.4331, 0.144 0.0354 -0.4331, 0.1546 0.0354 -0.4331, 0.1546 -0.0433 -0.4331, 0.2953 -0.0438 -0.4331, 0.0943 -0.0366 -0.4331, 0.1002 -0.0304 -0.4331, 0.1143 -0.0347 -0.4331, 0.1044 -0.0229 -0.4331, 0.144 -0.0347 -0.4331, 0.0917 0.0289 -0.4331, 0.0842 0.0332 -0.4331, 0.0754 0.0358 -0.4331, 0.1068 -0.0145 -0.4331, 0.1075 -0.0054 -0.4331, 0.1064 0.0058 -0.4331, 0.0675 0.0364 -0.4331, 0.0581 0.0357 -0.4331, 0.472 -0.4925 -0.4331, 0.374 -0.5906 -0.4331, 0.2953 -0.4925 -0.4331, 0.0413 -0.5906 -0.4331, 0.0574 -0.0427 -0.4331, 0.0653 -0.0438 -0.4331, 0.0685 -0.0442 -0.4331, 0.0706 -0.0443 -0.4331, -0.0835 -0.0217 -0.4331, -0.0789 -0.0288 -0.4331, -0.0931 -0.0433 -0.4331, -0.0725 -0.035 -0.4331, -0.472 0.4925 -0.4331, -0.374 0.5906 -0.4331, -0.2953 0.4925 -0.4331, -0.0067 0.0268 -0.4331, 0.023 0.0268 -0.4331, 0.023 0.0009 -0.4331, -0.0086 -0.0433 -0.4331, 0.0336 -0.0433 -0.4331, 0.0336 0.0354 -0.4331, -0.0067 0.0354 -0.4331, -0.0642 -0.0397 -0.4331, -0.0552 -0.0425 -0.4331, -0.0454 -0.0433 -0.4331, -0.024 0.0354 -0.4331, -0.0048 0.0009 -0.4331, -0.0048 -0.0078 -0.4331, 0.023 -0.0078 -0.4331, 0.023 -0.0347 -0.4331, -0.0086 -0.0347 -0.4331, -0.024 -0.0433 -0.4331, -0.2953 -0.0438 -0.4331, -0.1642 -0.0433 -0.4331, -0.1527 -0.0433 -0.4331, -0.0462 0.0354 -0.4331, -0.0576 0.0342 -0.4331, -0.0668 0.031 -0.4331, -0.0754 0.0252 -0.4331, -0.1229 0.0354 -0.4331, -0.081 0.019 -0.4331, -0.0847 0.0122 -0.4331, -0.0755 0.0252 -0.4331, -0.1047 -0.0433 -0.4331, -0.1335 0.0354 -0.4331, -0.0868 0.0045 -0.4331, -0.0874 -0.0029 -0.4331, -0.0863 -0.0135 -0.4331, -0.374 -0.5906 -0.4331, -0.472 -0.4925 -0.4331, -0.2953 -0.4925 -0.4331, -0.1447 -0.0212 -0.4331, -0.1122 -0.0212 -0.4331, -0.472 -0.4925 -0.4134, -0.374 -0.5906 -0.2756, -0.4724 -0.4921 -0.4134, -0.4724 -0.4921 -0.2756, -0.5906 -0.4921 -0.2756, -0.5906 -0.4921 -0.4134, -0.5906 0.4921 -0.2756, -0.5906 0.4921 -0.4134, -0.4724 0.4921 -0.4134, -0.4724 0.4921 -0.2756, -0.472 0.4925 -0.4134, -0.374 0.5906 -0.2756, 0.5906 -0.4921 -0.4134, 0.5906 -0.4921 -0.2756, 0.4724 -0.4921 -0.4134, 0.4724 -0.4921 -0.2756, 0.4724 0.4921 -0.2756, 0.5906 0.4921 -0.2756, 0.4724 0.4921 -0.4134, 0.5906 0.4921 -0.4134, 0.5906 -0.3937 0.1181, 0.5906 -0.3937 0.0, 0.5906 0.3937 0.1181, 0.5906 0.3937 0.0, 0.3937 0.5906 0.1181, 0.3937 0.5906 0.0, -0.3937 0.5906 0.1181, -0.3937 0.5906 0.0, -0.5906 0.3937 0.1181, -0.5906 0.3937 0.0, -0.5906 -0.3937 0.1181, -0.5906 -0.3937 0.0, -0.3937 -0.5906 0.1181, -0.3937 -0.5906 0.0, 0.3937 -0.5906 0.1181, 0.3937 -0.5906 0.0, 0.3774 -0.5512 0.1575, 0.5512 -0.3774 0.1575, 0.5512 0.3774 0.1575, -0.3774 0.5512 0.1575, -0.5512 0.3774 0.1575, -0.5512 -0.3774 0.1575, 0.3774 0.5512 0.1575, -0.3774 -0.5512 0.1575, -0.3448 0.4724 0.0, 0.3448 0.4724 0.0, 0.4724 0.3448 0.0, 0.4724 -0.3448 0.0, 0.3448 -0.4724 0.0, -0.3448 -0.4724 0.0, -0.4724 -0.3448 0.0, -0.4724 0.3448 0.0, -0.4724 0.3448 0.0
            ]
        }
        coordIndex [
            0,1,2,-1,3,4,5,-1,5,4,6,-1,7,8,6,-1,6,8,9,-1,10,11,12,-1,12,11,13,-1,1,14,2,-1,2,14,15,-1,2,15,16,-1,17,18,2,-1,2,18,19,-1,20,21,22,-1,22,21,23,-1,19,24,2,-1,2,24,23,-1,2,23,25,-1,25,23,21,-1,0,2,26,-1,26,2,5,-1,26,5,27,-1,27,5,6,-1,27,6,28,-1,16,29,2,-1,2,29,30,-1,2,30,17,-1,31,32,33,-1,33,32,6,-1,33,6,34,-1,34,6,9,-1,34,9,35,-1,35,9,36,-1,10,37,11,-1,11,37,38,-1,11,38,39,-1,39,38,40,-1,39,40,41,-1,32,42,6,-1,6,42,43,-1,6,43,44,-1,40,45,41,-1,41,45,46,-1,41,46,33,-1,33,46,47,-1,33,47,31,-1,44,48,6,-1,6,48,49,-1,6,49,28,-1,50,51,52,-1,52,51,53,-1,3,54,4,-1,4,54,55,-1,4,55,53,-1,53,55,56,-1,53,56,52,-1,52,56,57,-1,52,57,36,-1,36,57,13,-1,36,13,35,-1,35,13,11,-1,58,59,60,-1,60,59,61,-1,62,63,64,-1,64,63,6,-1,65,66,67,-1,68,69,4,-1,4,69,70,-1,4,70,6,-1,6,70,71,-1,6,71,64,-1,64,71,65,-1,61,72,60,-1,60,72,73,-1,60,73,74,-1,75,76,77,-1,78,79,77,-1,77,79,80,-1,77,80,75,-1,75,80,68,-1,75,68,81,-1,81,68,4,-1,82,83,84,-1,67,76,65,-1,65,76,75,-1,65,75,64,-1,64,75,85,-1,85,86,64,-1,64,86,87,-1,64,87,88,-1,89,90,91,-1,90,89,92,-1,93,60,4,-1,4,60,74,-1,4,74,81,-1,83,82,94,-1,94,82,64,-1,94,64,89,-1,89,64,88,-1,89,88,92,-1,91,95,89,-1,89,95,96,-1,89,96,60,-1,60,96,97,-1,60,97,58,-1,98,99,100,-1,101,102,84,-1,84,102,93,-1,84,93,82,-1,82,93,4,-1,82,4,100,-1,100,4,53,-1,100,53,98,-1,99,98,103,-1,103,98,104,-1,103,104,105,-1,105,104,106,-1,106,107,105,-1,105,107,108,-1,107,109,108,-1,108,109,110,-1,110,109,111,-1,111,109,112,-1,111,112,113,-1,113,112,114,-1,113,114,62,-1,62,114,63,-1,115,116,117,-1,117,116,118,-1,119,120,121,-1,121,120,122,-1,122,120,115,-1,115,120,116,-1,123,124,125,-1,125,124,126,-1,127,128,129,-1,129,128,130,-1,131,132,133,-1,133,132,134,-1,135,136,137,-1,137,136,138,-1,139,140,141,-1,142,143,144,-1,142,144,145,-1,145,144,141,-1,141,144,146,-1,141,146,139,-1,147,130,148,-1,148,130,128,-1,148,128,149,-1,149,128,126,-1,149,126,150,-1,150,126,124,-1,150,124,151,-1,151,124,138,-1,151,138,152,-1,152,138,136,-1,152,136,153,-1,153,136,134,-1,153,134,154,-1,154,134,132,-1,154,132,147,-1,147,132,130,-1,137,138,123,-1,123,138,124,-1,133,134,135,-1,135,134,136,-1,129,130,131,-1,131,130,132,-1,125,126,127,-1,127,126,128,-1,
        ]
    }
}
Shape{
    appearance Appearance {
        material  Material 	{
            diffuseColor 0.20784313725490197 0.20784313725490197 0.20784313725490197
            specularColor 0.01568627450980392 0.01568627450980392 0.01568627450980392
            ambientIntensity 0.2
            transparency 0
            shininess 0.5
        }
    }
    geometry IndexedFaceSet {
        ccw TRUE
        solid FALSE
        coord DEF co Coordinate {
            point [
                0.3285 0.4331 -0.2362, 0.3285 0.4331 -0.0394, 0.4331 0.3285 -0.2362, 0.4331 0.3285 -0.0394, 0.4331 -0.3285 -0.2362, 0.4331 -0.3285 -0.0394, 0.3285 -0.4331 -0.2362, 0.3285 -0.4331 -0.0394, -0.3285 -0.4331 -0.2362, -0.3285 -0.4331 -0.0394, -0.4331 -0.3285 -0.2362, -0.4331 -0.3285 -0.0394, -0.4331 0.3285 -0.2362, -0.4331 0.3285 -0.0394, -0.3285 0.4331 -0.2362, -0.3285 0.4331 -0.0394, -0.3285 0.4331 -0.0394
            ]
        }
        coordIndex [
            0,1,2,-1,2,1,3,-1,2,3,4,-1,4,3,5,-1,4,5,6,-1,6,5,7,-1,6,7,8,-1,8,7,9,-1,8,9,10,-1,10,9,11,-1,10,11,12,-1,12,11,13,-1,12,13,14,-1,14,13,15,-1,14,15,0,-1,0,15,1,-1,
        ]
    }
}
Shape{
    appearance Appearance {
        material  Material 	{
            diffuseColor 0.34901960784313724 0.34901960784313724 0.34901960784313724
            specularColor 0.023529411764705882 0.023529411764705882 0.023529411764705882
            ambientIntensity 0.2
            transparency 0
            shininess 0.5
        }
    }
    geometry IndexedFaceSet {
        ccw TRUE
        solid FALSE
        coord DEF co Coordinate {
            point [
                -0.4724 -0.3448 -0.2756, -0.4724 0.3448 -0.2756, -0.5906 0.4921 -0.2756, 0.4724 0.3448 -0.2756, 0.4724 -0.3448 -0.2756, 0.5906 -0.4921 -0.2756, 0.5906 0.4921 -0.2756, 0.4724 0.4921 -0.2756, 0.3448 0.4724 -0.2756, 0.374 0.5906 -0.2756, -0.3448 0.4724 -0.2756, -0.374 0.5906 -0.2756, -0.4724 0.4921 -0.2756, -0.5906 -0.4921 -0.2756, -0.4724 -0.4921 -0.2756, -0.3448 -0.4724 -0.2756, -0.374 -0.5906 -0.2756, 0.3448 -0.4724 -0.2756, 0.374 -0.5906 -0.2756, 0.4724 -0.4921 -0.2756, 0.4724 -0.4921 -0.4134, 0.472 -0.4925 -0.4134, 0.472 -0.4925 -0.4331, 0.374 -0.5906 -0.4331, -0.374 -0.5906 -0.4331, 0.0413 -0.5906 -0.4331, -0.374 0.5906 -0.4331, 0.0413 0.5906 -0.4331, 0.374 0.5906 -0.4331, 0.472 0.4925 -0.4331, 0.472 0.4925 -0.4134, 0.4724 0.4921 -0.4134, 0.3937 0.5906 0.1181, 0.3774 0.5512 0.1575, 0.5906 0.3937 0.1181, 0.5512 0.3774 0.1575, -0.3937 0.5906 0.1181, -0.3774 0.5512 0.1575, 0.5512 -0.3774 0.1575, 0.5906 -0.3937 0.1181, -0.5906 0.3937 0.1181, -0.5512 0.3774 0.1575, 0.3774 -0.5512 0.1575, 0.3937 -0.5906 0.1181, -0.5906 -0.3937 0.1181, -0.5512 -0.3774 0.1575, -0.3774 -0.5512 0.1575, -0.3937 -0.5906 0.1181, -0.3937 -0.5906 0.1181
            ]
        }
        coordIndex [
            0,1,2,-1,3,4,5,-1,5,6,3,-1,3,6,7,-1,3,7,8,-1,8,7,9,-1,8,9,10,-1,10,9,11,-1,10,11,1,-1,1,11,12,-1,1,12,2,-1,2,13,0,-1,0,13,14,-1,0,14,15,-1,15,14,16,-1,15,16,17,-1,17,16,18,-1,17,18,4,-1,4,18,19,-1,4,19,5,-1,20,19,21,-1,21,19,18,-1,21,18,22,-1,22,18,23,-1,16,24,18,-1,18,24,25,-1,18,25,23,-1,26,11,27,-1,27,11,9,-1,27,9,28,-1,29,28,30,-1,30,28,9,-1,30,9,31,-1,31,9,7,-1,32,33,34,-1,34,33,35,-1,36,37,32,-1,32,37,33,-1,38,39,35,-1,35,39,34,-1,40,41,36,-1,36,41,37,-1,42,43,38,-1,38,43,39,-1,44,45,40,-1,40,45,41,-1,46,47,42,-1,42,47,43,-1,47,46,44,-1,44,46,45,-1,
        ]
    }
}
Shape{
    appearance Appearance {
        material  Material 	{
            diffuseColor 0.20784313725490197 0.20784313725490197 0.20784313725490197
            specularColor 0.01568627450980392 0.01568627450980392 0.01568627450980392
            ambientIntensity 0.2
            transparency 0
            shininess 0.5
        }
    }
    geometry IndexedFaceSet {
        ccw TRUE
        solid FALSE
        coord DEF co Coordinate {
            point [
                0.3448 -0.4724 -0.2756, 0.4724 -0.3448 -0.2756, 0.4623 -0.3406 -0.2742, 0.3406 -0.4623 -0.2742, 0.4528 -0.3366 -0.2703, 0.3366 -0.4528 -0.2703, 0.4446 -0.3332 -0.2641, 0.3332 -0.4446 -0.2641, 0.3318 -0.4412 -0.2602, 0.4412 -0.3318 -0.2602, 0.3307 -0.4383 -0.2559, 0.4383 -0.3307 -0.2559, 0.4361 -0.3297 -0.2513, 0.4331 -0.3285 -0.2362, 0.3285 -0.4331 -0.2362, 0.4334 -0.3286 -0.2414, 0.3286 -0.4334 -0.2414, 0.4344 -0.329 -0.2464, 0.329 -0.4344 -0.2464, 0.3297 -0.4361 -0.2513, -0.3448 -0.4724 -0.2756, -0.3406 -0.4623 -0.2742, -0.3366 -0.4528 -0.2703, -0.3332 -0.4446 -0.2641, -0.3318 -0.4412 -0.2602, -0.3307 -0.4383 -0.2559, -0.3285 -0.4331 -0.2362, -0.3286 -0.4334 -0.2414, -0.329 -0.4344 -0.2464, -0.3297 -0.4361 -0.2513, 0.4331 0.3285 -0.2362, 0.4334 0.3286 -0.2414, 0.4344 0.329 -0.2464, 0.4361 0.3297 -0.2513, 0.4383 0.3307 -0.2559, 0.4412 0.3318 -0.2602, 0.4446 0.3332 -0.2641, 0.4528 0.3366 -0.2703, 0.4623 0.3406 -0.2742, 0.4724 0.3448 -0.2756, -0.4724 -0.3448 -0.2756, -0.4623 -0.3406 -0.2742, -0.4528 -0.3366 -0.2703, -0.4446 -0.3332 -0.2641, -0.4412 -0.3318 -0.2602, -0.4383 -0.3307 -0.2559, -0.4361 -0.3297 -0.2513, -0.4344 -0.329 -0.2464, -0.4331 -0.3285 -0.2362, -0.4334 -0.3286 -0.2414, 0.3285 0.4331 -0.2362, 0.3286 0.4334 -0.2414, 0.329 0.4344 -0.2464, 0.3297 0.4361 -0.2513, 0.3307 0.4383 -0.2559, 0.3318 0.4412 -0.2602, 0.3332 0.4446 -0.2641, 0.3366 0.4528 -0.2703, 0.3406 0.4623 -0.2742, 0.3448 0.4724 -0.2756, -0.4383 0.3307 -0.2559, -0.4412 0.3318 -0.2602, -0.4446 0.3332 -0.2641, -0.4528 0.3366 -0.2703, -0.4623 0.3406 -0.2742, -0.4724 0.3448 -0.2756, -0.4361 0.3297 -0.2513, -0.4344 0.329 -0.2464, -0.4331 0.3285 -0.2362, -0.4334 0.3286 -0.2414, -0.329 0.4344 -0.2464, -0.3286 0.4334 -0.2414, -0.3285 0.4331 -0.2362, -0.3307 0.4383 -0.2559, -0.3297 0.4361 -0.2513, -0.3318 0.4412 -0.2602, -0.3332 0.4446 -0.2641, -0.3366 0.4528 -0.2703, -0.3406 0.4623 -0.2742, -0.3448 0.4724 -0.2756, 0.329 0.4344 -0.0292, 0.4344 0.329 -0.0292, 0.4334 0.3286 -0.0342, 0.4331 0.3285 -0.0394, 0.3285 0.4331 -0.0394, 0.3286 0.4334 -0.0342, 0.4361 0.3297 -0.0243, 0.3297 0.4361 -0.0243, 0.4383 0.3307 -0.0197, 0.3307 0.4383 -0.0197, 0.4412 0.3318 -0.0154, 0.3318 0.4412 -0.0154, 0.4446 0.3332 -0.0115, 0.3332 0.4446 -0.0115, 0.3366 0.4528 -0.0053, 0.4528 0.3366 -0.0053, 0.3406 0.4623 -0.0013, 0.4623 0.3406 -0.0013, 0.3448 0.4724 0.0, 0.4724 0.3448 0.0, 0.4344 -0.329 -0.0292, 0.4334 -0.3286 -0.0342, 0.4331 -0.3285 -0.0394, 0.4361 -0.3297 -0.0243, 0.4383 -0.3307 -0.0197, 0.4412 -0.3318 -0.0154, 0.4446 -0.3332 -0.0115, 0.4528 -0.3366 -0.0053, 0.4623 -0.3406 -0.0013, 0.4724 -0.3448 0.0, -0.3366 0.4528 -0.0053, -0.3406 0.4623 -0.0013, -0.3448 0.4724 0.0, -0.3285 0.4331 -0.0394, -0.3286 0.4334 -0.0342, -0.329 0.4344 -0.0292, -0.3297 0.4361 -0.0243, -0.3307 0.4383 -0.0197, -0.3318 0.4412 -0.0154, -0.3332 0.4446 -0.0115, 0.329 -0.4344 -0.0292, 0.3286 -0.4334 -0.0342, 0.3285 -0.4331 -0.0394, 0.3297 -0.4361 -0.0243, 0.3307 -0.4383 -0.0197, 0.3318 -0.4412 -0.0154, 0.3332 -0.4446 -0.0115, 0.3366 -0.4528 -0.0053, 0.3406 -0.4623 -0.0013, 0.3448 -0.4724 0.0, -0.4724 0.3448 0.0, -0.4623 0.3406 -0.0013, -0.4528 0.3366 -0.0053, -0.4446 0.3332 -0.0115, -0.4412 0.3318 -0.0154, -0.4383 0.3307 -0.0197, -0.4331 0.3285 -0.0394, -0.4334 0.3286 -0.0342, -0.4344 0.329 -0.0292, -0.4361 0.3297 -0.0243, -0.3285 -0.4331 -0.0394, -0.3286 -0.4334 -0.0342, -0.329 -0.4344 -0.0292, -0.3297 -0.4361 -0.0243, -0.3307 -0.4383 -0.0197, -0.3318 -0.4412 -0.0154, -0.3332 -0.4446 -0.0115, -0.3366 -0.4528 -0.0053, -0.3406 -0.4623 -0.0013, -0.3448 -0.4724 0.0, -0.4528 -0.3366 -0.0053, -0.4623 -0.3406 -0.0013, -0.4724 -0.3448 0.0, -0.4331 -0.3285 -0.0394, -0.4334 -0.3286 -0.0342, -0.4344 -0.329 -0.0292, -0.4361 -0.3297 -0.0243, -0.4383 -0.3307 -0.0197, -0.4412 -0.3318 -0.0154, -0.4446 -0.3332 -0.0115, -0.4446 -0.3332 -0.0115
            ]
        }
        coordIndex [
            0,1,2,-1,0,2,3,-1,3,2,4,-1,3,4,5,-1,5,4,6,-1,5,6,7,-1,7,6,8,-1,8,6,9,-1,8,9,10,-1,10,9,11,-1,10,11,12,-1,13,14,15,-1,15,14,16,-1,15,16,17,-1,17,16,18,-1,17,18,12,-1,12,18,19,-1,12,19,10,-1,20,0,3,-1,20,3,21,-1,21,3,5,-1,21,5,22,-1,22,5,7,-1,22,7,23,-1,23,7,24,-1,24,7,8,-1,24,8,25,-1,25,8,10,-1,25,10,19,-1,14,26,16,-1,16,26,27,-1,16,27,18,-1,18,27,28,-1,18,28,19,-1,19,28,29,-1,19,29,25,-1,30,13,31,-1,31,13,15,-1,31,15,32,-1,32,15,17,-1,32,17,33,-1,33,17,12,-1,33,12,34,-1,34,12,11,-1,34,11,35,-1,35,11,9,-1,35,9,36,-1,9,6,36,-1,36,6,4,-1,36,4,37,-1,37,4,2,-1,37,2,38,-1,38,2,1,-1,38,1,39,-1,40,20,21,-1,40,21,41,-1,41,21,22,-1,41,22,42,-1,42,22,23,-1,42,23,43,-1,43,23,44,-1,44,23,24,-1,44,24,45,-1,24,25,45,-1,45,25,29,-1,45,29,46,-1,46,29,47,-1,27,26,48,-1,29,28,47,-1,47,28,27,-1,47,27,49,-1,49,27,48,-1,50,30,51,-1,51,30,31,-1,51,31,52,-1,52,31,32,-1,52,32,53,-1,53,32,33,-1,53,33,54,-1,54,33,34,-1,54,34,55,-1,55,34,35,-1,55,35,56,-1,35,36,56,-1,56,36,37,-1,56,37,57,-1,57,37,38,-1,57,38,58,-1,58,38,39,-1,58,39,59,-1,60,61,44,-1,44,61,62,-1,44,62,43,-1,43,62,63,-1,43,63,42,-1,42,63,64,-1,42,64,41,-1,41,64,65,-1,41,65,40,-1,44,45,60,-1,60,45,46,-1,60,46,66,-1,66,46,67,-1,49,48,68,-1,46,47,67,-1,67,47,49,-1,67,49,69,-1,69,49,68,-1,52,70,71,-1,72,50,71,-1,71,50,51,-1,71,51,52,-1,54,73,74,-1,70,52,74,-1,74,52,53,-1,74,53,54,-1,73,54,75,-1,75,54,55,-1,75,55,76,-1,55,56,76,-1,76,56,57,-1,76,57,77,-1,77,57,58,-1,77,58,78,-1,78,58,59,-1,78,59,79,-1,79,65,64,-1,79,64,78,-1,78,64,63,-1,78,63,77,-1,77,63,62,-1,77,62,76,-1,76,62,75,-1,75,62,61,-1,75,61,73,-1,61,60,73,-1,73,60,66,-1,73,66,74,-1,74,66,70,-1,69,68,72,-1,66,67,70,-1,70,67,69,-1,70,69,71,-1,71,69,72,-1,80,81,82,-1,83,84,82,-1,82,84,85,-1,82,85,80,-1,81,80,86,-1,86,80,87,-1,86,87,88,-1,88,87,89,-1,88,89,90,-1,90,89,91,-1,90,91,92,-1,91,93,92,-1,92,93,94,-1,92,94,95,-1,95,94,96,-1,95,96,97,-1,97,96,98,-1,97,98,99,-1,81,100,101,-1,102,83,101,-1,101,83,82,-1,101,82,81,-1,100,81,103,-1,103,81,86,-1,103,86,104,-1,104,86,88,-1,104,88,105,-1,105,88,90,-1,105,90,106,-1,90,92,106,-1,106,92,95,-1,106,95,107,-1,107,95,97,-1,107,97,108,-1,108,97,99,-1,108,99,109,-1,93,110,94,-1,94,110,111,-1,94,111,96,-1,96,111,112,-1,96,112,98,-1,84,113,85,-1,85,113,114,-1,85,114,80,-1,80,114,115,-1,80,115,87,-1,87,115,116,-1,87,116,89,-1,89,116,117,-1,89,117,91,-1,91,117,118,-1,91,118,93,-1,93,118,119,-1,93,119,110,-1,100,120,121,-1,122,102,121,-1,121,102,101,-1,121,101,100,-1,120,100,123,-1,123,100,103,-1,123,103,124,-1,124,103,104,-1,124,104,125,-1,104,105,125,-1,125,105,106,-1,125,106,126,-1,126,106,107,-1,126,107,127,-1,127,107,108,-1,127,108,128,-1,128,108,109,-1,128,109,129,-1,130,112,111,-1,130,111,131,-1,131,111,110,-1,131,110,132,-1,132,110,119,-1,132,119,133,-1,133,119,118,-1,133,118,134,-1,134,118,135,-1,135,118,117,-1,135,117,116,-1,113,136,114,-1,114,136,137,-1,114,137,115,-1,115,137,138,-1,115,138,116,-1,116,138,139,-1,116,139,135,-1,140,122,141,-1,141,122,121,-1,141,121,142,-1,142,121,120,-1,142,120,143,-1,143,120,123,-1,143,123,144,-1,144,123,124,-1,144,124,145,-1,124,125,145,-1,145,125,126,-1,145,126,146,-1,146,126,127,-1,146,127,147,-1,147,127,128,-1,147,128,148,-1,148,128,129,-1,148,129,149,-1,133,150,132,-1,132,150,151,-1,132,151,131,-1,131,151,152,-1,131,152,130,-1,136,153,137,-1,137,153,154,-1,137,154,138,-1,138,154,155,-1,138,155,139,-1,139,155,156,-1,139,156,135,-1,135,156,157,-1,135,157,134,-1,134,157,158,-1,134,158,133,-1,133,158,159,-1,133,159,150,-1,153,140,154,-1,154,140,141,-1,154,141,155,-1,155,141,142,-1,155,142,156,-1,156,142,143,-1,156,143,157,-1,157,143,144,-1,157,144,158,-1,144,145,158,-1,158,145,146,-1,158,146,159,-1,159,146,147,-1,159,147,150,-1,150,147,148,-1,150,148,151,-1,151,148,149,-1,151,149,152,-1,
        ]
    }
}
Shape{
    appearance Appearance {
        material  Material 	{
            diffuseColor 0.6666666666666666 0.6666666666666666 0.6666666666666666
            specularColor 0.4666666666666667 0.4666666666666667 0.4666666666666667
            ambientIntensity 0.2
            transparency 0
            shininess 0.5
        }
    }
    geometry IndexedFaceSet {
        ccw TRUE
        solid FALSE
        coord DEF co Coordinate {
            point [
                0.2953 0.4925 -0.4339, 0.2953 0.4925 -0.4331, 0.472 0.4925 -0.4331, 0.472 0.4925 -0.4134, 0.5909 0.4925 -0.4134, 0.5909 0.4925 -0.4339, 0.5909 -0.4925 -0.4339, 0.5909 -0.4925 -0.4134, 0.2953 -0.0438 -0.4331, 0.2953 -0.4925 -0.4339, 0.2953 -0.4925 -0.4331, 0.472 -0.4925 -0.4331, 0.472 -0.4925 -0.4134, 0.4724 -0.4921 -0.4134, 0.5906 -0.4921 -0.4134, 0.5906 0.4921 -0.4134, 0.4724 0.4921 -0.4134, -0.4724 0.4921 -0.4134, -0.472 0.4925 -0.4134, -0.5906 0.4921 -0.4134, -0.5909 0.4925 -0.4134, -0.5906 -0.4921 -0.4134, -0.5909 -0.4925 -0.4134, -0.4724 -0.4921 -0.4134, -0.472 -0.4925 -0.4134, -0.2953 -0.4925 -0.4339, -0.2953 -0.4925 -0.4331, -0.472 -0.4925 -0.4331, -0.5909 -0.4925 -0.4339, -0.5909 0.4925 -0.4339, -0.2953 -0.0438 -0.4331, -0.2953 0.4925 -0.4339, -0.2953 0.4925 -0.4331, -0.472 0.4925 -0.4331, -0.472 0.4925 -0.4331
            ]
        }
        coordIndex [
            0,1,2,-1,3,4,2,-1,2,4,5,-1,2,5,0,-1,5,4,6,-1,6,4,7,-1,1,0,8,-1,8,0,9,-1,8,9,10,-1,10,9,11,-1,11,9,6,-1,11,6,12,-1,12,6,7,-1,13,12,14,-1,14,12,7,-1,14,7,15,-1,15,7,4,-1,15,4,16,-1,16,4,3,-1,9,0,6,-1,6,0,5,-1,17,18,19,-1,19,18,20,-1,19,20,21,-1,21,20,22,-1,21,22,23,-1,23,22,24,-1,25,26,27,-1,24,22,27,-1,27,22,28,-1,27,28,25,-1,28,22,29,-1,29,22,20,-1,26,25,30,-1,30,25,31,-1,30,31,32,-1,32,31,33,-1,33,31,29,-1,33,29,18,-1,18,29,20,-1,31,25,29,-1,29,25,28,-1,
        ]
    }
}
Shape{
    appearance Appearance {
        material  Material 	{
            diffuseColor 1.0 1.0 1.0
            specularColor 0.8784313725490196 0.8784313725490196 0.8784313725490196
            ambientIntensity 0.2
            transparency 0
            shininess 0.5
        }
    }
    geometry IndexedFaceSet {
        ccw TRUE
        solid FALSE
        coord DEF co Coordinate {
            point [
                -0.1335 0.0354 -0.4252, -0.1642 -0.0433 -0.4252, -0.1335 0.0354 -0.4331, -0.1642 -0.0433 -0.4331, -0.1527 -0.0433 -0.4252, -0.1527 -0.0433 -0.4331, -0.1447 -0.0212 -0.4252, -0.1447 -0.0212 -0.4331, -0.1122 -0.0212 -0.4252, -0.1122 -0.0212 -0.4331, -0.1047 -0.0433 -0.4252, -0.1047 -0.0433 -0.4331, -0.0931 -0.0433 -0.4252, -0.0931 -0.0433 -0.4331, -0.1229 0.0354 -0.4252, -0.1229 0.0354 -0.4331, -0.1148 -0.0126 -0.4252, -0.1412 -0.0126 -0.4252, -0.1266 0.0203 -0.4252, -0.1273 0.023 -0.4252, -0.1278 0.0258 -0.4252, -0.1281 0.0258 -0.4252, -0.1286 0.0231 -0.4252, -0.1293 0.0203 -0.4252, -0.1148 -0.0126 -0.4331, -0.1412 -0.0126 -0.4331, -0.1266 0.0203 -0.4331, -0.1273 0.023 -0.4331, -0.1278 0.0258 -0.4331, -0.1281 0.0258 -0.4331, -0.1286 0.0231 -0.4331, -0.1293 0.0203 -0.4331, -0.0454 -0.0433 -0.4252, -0.024 -0.0433 -0.4252, -0.0454 -0.0433 -0.4331, -0.024 -0.0433 -0.4331, -0.024 0.0354 -0.4252, -0.024 0.0354 -0.4331, -0.0462 0.0354 -0.4252, -0.0462 0.0354 -0.4331, -0.0874 -0.0029 -0.4252, -0.0874 -0.0029 -0.4331, -0.0868 0.0045 -0.4331, -0.0868 0.0045 -0.4252, -0.0847 0.0122 -0.4331, -0.0847 0.0122 -0.4252, -0.081 0.019 -0.4331, -0.081 0.019 -0.4252, -0.0755 0.0252 -0.4331, -0.0755 0.0252 -0.4252, -0.0754 0.0252 -0.4331, -0.0754 0.0252 -0.4252, -0.0668 0.031 -0.4331, -0.0668 0.031 -0.4252, -0.0576 0.0342 -0.4331, -0.0576 0.0342 -0.4252, -0.0552 -0.0425 -0.4331, -0.0552 -0.0425 -0.4252, -0.0642 -0.0397 -0.4331, -0.0642 -0.0397 -0.4252, -0.0725 -0.035 -0.4331, -0.0725 -0.035 -0.4252, -0.0789 -0.0288 -0.4331, -0.0789 -0.0288 -0.4252, -0.0835 -0.0217 -0.4331, -0.0835 -0.0217 -0.4252, -0.0863 -0.0135 -0.4331, -0.0863 -0.0135 -0.4252, -0.0716 0.0158 -0.4252, -0.0678 0.0198 -0.4252, -0.062 0.0235 -0.4252, -0.0555 0.0258 -0.4252, -0.0462 0.0268 -0.4252, -0.0346 0.0268 -0.4252, -0.0346 -0.0347 -0.4252, -0.0457 -0.0347 -0.4252, -0.0541 -0.0339 -0.4252, -0.0607 -0.0318 -0.4252, -0.066 -0.0286 -0.4252, -0.0705 -0.0243 -0.4252, -0.0738 -0.0188 -0.4252, -0.0761 -0.0114 -0.4252, -0.0768 -0.0032 -0.4252, -0.0762 0.0047 -0.4252, -0.0743 0.0109 -0.4252, -0.0462 0.0268 -0.4331, -0.0346 0.0268 -0.4331, -0.0555 0.0258 -0.4331, -0.062 0.0235 -0.4331, -0.0678 0.0198 -0.4331, -0.0716 0.0158 -0.4331, -0.0743 0.0109 -0.4331, -0.0762 0.0047 -0.4331, -0.0768 -0.0032 -0.4331, -0.0761 -0.0114 -0.4331, -0.0738 -0.0188 -0.4331, -0.0705 -0.0243 -0.4331, -0.066 -0.0286 -0.4331, -0.0607 -0.0318 -0.4331, -0.0541 -0.0339 -0.4331, -0.0457 -0.0347 -0.4331, -0.0346 -0.0347 -0.4331, -0.0086 -0.0347 -0.4252, -0.0086 -0.0433 -0.4252, -0.0086 -0.0347 -0.4331, -0.0086 -0.0433 -0.4331, 0.0336 -0.0433 -0.4252, 0.0336 -0.0433 -0.4331, 0.0336 0.0354 -0.4252, 0.0336 0.0354 -0.4331, -0.0067 0.0354 -0.4252, -0.0067 0.0354 -0.4331, -0.0067 0.0268 -0.4252, -0.0067 0.0268 -0.4331, 0.023 0.0268 -0.4252, 0.023 0.0268 -0.4331, 0.023 0.0009 -0.4252, 0.023 0.0009 -0.4331, -0.0048 0.0009 -0.4252, -0.0048 0.0009 -0.4331, -0.0048 -0.0078 -0.4252, -0.0048 -0.0078 -0.4331, 0.023 -0.0078 -0.4252, 0.023 -0.0078 -0.4331, 0.023 -0.0347 -0.4252, 0.023 -0.0347 -0.4331, 0.049 -0.0306 -0.4252, 0.049 -0.0392 -0.4252, 0.049 -0.0306 -0.4331, 0.049 -0.0392 -0.4331, 0.0574 -0.0427 -0.4252, 0.0706 -0.0443 -0.4252, 0.0706 -0.0443 -0.4331, 0.0685 -0.0442 -0.4331, 0.0685 -0.0442 -0.4252, 0.0653 -0.0438 -0.4331, 0.0574 -0.0427 -0.4331, 0.1075 -0.0054 -0.4252, 0.1075 -0.0054 -0.4331, 0.1068 -0.0145 -0.4331, 0.1068 -0.0145 -0.4252, 0.1044 -0.0229 -0.4331, 0.1044 -0.0229 -0.4252, 0.1002 -0.0304 -0.4331, 0.1002 -0.0304 -0.4252, 0.0943 -0.0366 -0.4331, 0.0943 -0.0366 -0.4252, 0.088 -0.0406 -0.4331, 0.088 -0.0406 -0.4252, 0.0803 -0.0433 -0.4331, 0.0803 -0.0433 -0.4252, 0.0753 -0.0438 -0.4331, 0.0675 0.0364 -0.4252, 0.0675 0.0364 -0.4331, 0.0754 0.0358 -0.4331, 0.0754 0.0358 -0.4252, 0.0842 0.0332 -0.4331, 0.0842 0.0332 -0.4252, 0.0917 0.0289 -0.4331, 0.0917 0.0289 -0.4252, 0.0988 0.0221 -0.4331, 0.0988 0.0221 -0.4252, 0.1034 0.0147 -0.4331, 0.1034 0.0147 -0.4252, 0.1064 0.0058 -0.4331, 0.1064 0.0058 -0.4252, 0.049 0.0333 -0.4252, 0.049 0.0333 -0.4331, 0.0581 0.0357 -0.4331, 0.0581 0.0357 -0.4252, 0.049 0.0227 -0.4252, 0.049 0.0227 -0.4331, 0.0674 0.0278 -0.4252, 0.0674 0.0278 -0.4331, 0.0578 0.0265 -0.4331, 0.0578 0.0265 -0.4252, 0.097 -0.0048 -0.4252, 0.097 -0.0048 -0.4331, 0.0966 0.0014 -0.4331, 0.0966 0.0014 -0.4252, 0.0945 0.0098 -0.4331, 0.0945 0.0098 -0.4252, 0.0913 0.0159 -0.4331, 0.0913 0.0159 -0.4252, 0.0865 0.0211 -0.4331, 0.0865 0.0211 -0.4252, 0.0811 0.0248 -0.4331, 0.0811 0.0248 -0.4252, 0.0752 0.0269 -0.4331, 0.0752 0.0269 -0.4252, 0.0692 -0.0356 -0.4252, 0.0692 -0.0356 -0.4331, 0.0765 -0.0348 -0.4331, 0.0765 -0.0348 -0.4252, 0.0823 -0.0327 -0.4331, 0.0823 -0.0327 -0.4252, 0.0871 -0.0294 -0.4331, 0.0871 -0.0294 -0.4252, 0.0908 -0.0255 -0.4331, 0.0908 -0.0255 -0.4252, 0.094 -0.0201 -0.4331, 0.094 -0.0201 -0.4252, 0.0962 -0.0133 -0.4331, 0.0962 -0.0133 -0.4252, 0.0504 -0.0314 -0.4331, 0.0504 -0.0314 -0.4252, 0.0587 -0.0345 -0.4331, 0.0587 -0.0345 -0.4252, 0.1143 -0.0347 -0.4252, 0.1143 -0.0433 -0.4252, 0.1143 -0.0347 -0.4331, 0.1143 -0.0433 -0.4331, 0.1546 -0.0433 -0.4252, 0.1546 -0.0433 -0.4331, 0.1546 0.0354 -0.4252, 0.1546 0.0354 -0.4331, 0.144 0.0354 -0.4252, 0.144 0.0354 -0.4331, 0.144 -0.0347 -0.4252, 0.144 -0.0347 -0.4331, 0.144 -0.0347 -0.4331
            ]
        }
        coordIndex [
            0,1,2,-1,2,1,3,-1,1,4,3,-1,3,4,5,-1,4,6,5,-1,5,6,7,-1,6,8,7,-1,7,8,9,-1,8,10,9,-1,9,10,11,-1,10,12,11,-1,11,12,13,-1,12,14,13,-1,13,14,15,-1,14,0,15,-1,15,0,2,-1,16,8,17,-1,17,8,6,-1,18,14,16,-1,16,14,12,-1,16,12,8,-1,8,12,10,-1,18,19,14,-1,14,19,20,-1,14,20,0,-1,0,20,21,-1,0,21,22,-1,22,23,0,-1,0,23,17,-1,0,17,1,-1,1,17,6,-1,1,6,4,-1,16,17,24,-1,24,17,25,-1,18,16,26,-1,26,16,24,-1,18,26,27,-1,18,27,19,-1,19,27,28,-1,19,28,20,-1,21,20,29,-1,29,20,28,-1,21,29,30,-1,21,30,22,-1,22,30,31,-1,22,31,23,-1,17,23,25,-1,25,23,31,-1,32,33,34,-1,34,33,35,-1,33,36,35,-1,35,36,37,-1,36,38,37,-1,37,38,39,-1,40,41,42,-1,40,42,43,-1,43,42,44,-1,43,44,45,-1,45,44,46,-1,45,46,47,-1,47,46,48,-1,47,48,49,-1,49,48,50,-1,49,50,51,-1,51,50,52,-1,51,52,53,-1,53,52,54,-1,53,54,55,-1,55,54,39,-1,55,39,38,-1,32,34,56,-1,32,56,57,-1,57,56,58,-1,57,58,59,-1,59,58,60,-1,59,60,61,-1,61,60,62,-1,61,62,63,-1,63,62,64,-1,63,64,65,-1,65,64,66,-1,65,66,67,-1,67,66,41,-1,67,41,40,-1,45,47,68,-1,68,47,49,-1,68,49,69,-1,69,49,51,-1,69,51,70,-1,70,51,53,-1,70,53,71,-1,71,53,55,-1,71,55,72,-1,72,55,38,-1,72,38,73,-1,73,38,36,-1,73,36,74,-1,74,36,33,-1,74,33,75,-1,75,33,32,-1,75,32,76,-1,76,32,57,-1,76,57,77,-1,77,57,59,-1,77,59,78,-1,78,59,61,-1,78,61,79,-1,79,61,63,-1,79,63,80,-1,80,63,65,-1,80,65,81,-1,81,65,67,-1,81,67,82,-1,82,67,40,-1,82,40,83,-1,83,40,43,-1,83,43,84,-1,84,43,45,-1,84,45,68,-1,72,73,85,-1,85,73,86,-1,72,85,87,-1,72,87,71,-1,71,87,88,-1,71,88,70,-1,70,88,89,-1,70,89,69,-1,69,89,90,-1,69,90,68,-1,68,90,91,-1,68,91,84,-1,84,91,92,-1,84,92,83,-1,83,92,93,-1,83,93,82,-1,82,93,94,-1,82,94,81,-1,81,94,95,-1,81,95,80,-1,80,95,96,-1,80,96,79,-1,79,96,97,-1,79,97,78,-1,78,97,98,-1,78,98,77,-1,77,98,99,-1,77,99,76,-1,76,99,100,-1,76,100,75,-1,74,75,101,-1,101,75,100,-1,73,74,86,-1,86,74,101,-1,102,103,104,-1,104,103,105,-1,103,106,105,-1,105,106,107,-1,106,108,107,-1,107,108,109,-1,108,110,109,-1,109,110,111,-1,110,112,111,-1,111,112,113,-1,112,114,113,-1,113,114,115,-1,114,116,115,-1,115,116,117,-1,116,118,117,-1,117,118,119,-1,118,120,119,-1,119,120,121,-1,120,122,121,-1,121,122,123,-1,122,124,123,-1,123,124,125,-1,124,102,125,-1,125,102,104,-1,106,103,102,-1,102,124,106,-1,106,124,122,-1,106,122,108,-1,112,110,114,-1,114,110,108,-1,114,108,116,-1,116,108,122,-1,116,122,118,-1,118,122,120,-1,126,127,128,-1,128,127,129,-1,129,127,130,-1,131,132,133,-1,131,133,134,-1,134,133,135,-1,134,135,130,-1,130,135,136,-1,130,136,129,-1,137,138,139,-1,137,139,140,-1,140,139,141,-1,140,141,142,-1,142,141,143,-1,142,143,144,-1,144,143,145,-1,144,145,146,-1,146,145,147,-1,146,147,148,-1,148,147,149,-1,148,149,150,-1,150,149,131,-1,131,149,151,-1,131,151,132,-1,152,153,154,-1,152,154,155,-1,155,154,156,-1,155,156,157,-1,157,156,158,-1,157,158,159,-1,159,158,160,-1,159,160,161,-1,161,160,162,-1,161,162,163,-1,163,162,164,-1,163,164,165,-1,165,164,138,-1,165,138,137,-1,166,167,168,-1,166,168,169,-1,169,168,153,-1,169,153,152,-1,166,170,167,-1,167,170,171,-1,172,173,174,-1,172,174,175,-1,175,174,171,-1,175,171,170,-1,176,177,178,-1,176,178,179,-1,179,178,180,-1,179,180,181,-1,181,180,182,-1,181,182,183,-1,183,182,184,-1,183,184,185,-1,185,184,186,-1,185,186,187,-1,187,186,188,-1,187,188,189,-1,189,188,173,-1,189,173,172,-1,190,191,192,-1,190,192,193,-1,193,192,194,-1,193,194,195,-1,195,194,196,-1,195,196,197,-1,197,196,198,-1,197,198,199,-1,199,198,200,-1,199,200,201,-1,201,200,202,-1,201,202,203,-1,203,202,177,-1,203,177,176,-1,126,128,204,-1,126,204,205,-1,205,204,206,-1,205,206,207,-1,207,206,191,-1,207,191,190,-1,193,131,190,-1,190,131,134,-1,190,134,207,-1,207,134,130,-1,207,130,205,-1,205,130,127,-1,205,127,126,-1,170,166,175,-1,175,166,169,-1,175,169,172,-1,172,169,152,-1,172,152,189,-1,189,152,155,-1,189,155,187,-1,187,155,157,-1,187,157,185,-1,185,157,159,-1,185,159,183,-1,183,159,161,-1,183,161,181,-1,181,161,163,-1,181,163,179,-1,179,163,165,-1,179,165,176,-1,176,165,137,-1,176,137,203,-1,203,137,140,-1,203,140,201,-1,201,140,142,-1,201,142,199,-1,199,142,144,-1,199,144,197,-1,197,144,146,-1,197,146,195,-1,195,146,148,-1,195,148,193,-1,193,148,150,-1,193,150,131,-1,208,209,210,-1,210,209,211,-1,209,212,211,-1,211,212,213,-1,212,214,213,-1,213,214,215,-1,214,216,215,-1,215,216,217,-1,216,218,217,-1,217,218,219,-1,218,208,219,-1,219,208,210,-1,216,214,218,-1,218,214,212,-1,218,212,208,-1,208,212,209,-1,
        ]
    }
}
Shape{
    appearance Appearance {
        material  Material 	{
            diffuseColor 0.34901960784313724 0.34901960784313724 0.34901960784313724
            specularColor 0.023529411764705882 0.023529411764705882 0.023529411764705882
            ambientIntensity 0.2
            transparency 0
            shininess 0.5
        }
    }
    geometry IndexedFaceSet {
        ccw TRUE
        solid FALSE
        coord DEF co Coordinate {
            point [
                -0.1148 -0.0126 -0.4331, -0.1412 -0.0126 -0.4331, -0.1266 0.0203 -0.4331, -0.1293 0.0203 -0.4331, -0.1273 0.023 -0.4331, -0.1286 0.0231 -0.4331, -0.1278 0.0258 -0.4331, -0.1281 0.0258 -0.4331, -0.0346 0.0268 -0.4331, -0.0346 -0.0347 -0.4331, -0.0462 0.0268 -0.4331, -0.0457 -0.0347 -0.4331, -0.0541 -0.0339 -0.4331, -0.0768 -0.0032 -0.4331, -0.0762 0.0047 -0.4331, -0.0743 0.0109 -0.4331, -0.0555 0.0258 -0.4331, -0.0607 -0.0318 -0.4331, -0.066 -0.0286 -0.4331, -0.0705 -0.0243 -0.4331, -0.0738 -0.0188 -0.4331, -0.0761 -0.0114 -0.4331, -0.0716 0.0158 -0.4331, -0.0678 0.0198 -0.4331, -0.062 0.0235 -0.4331, -0.062 0.0235 -0.4331
            ]
        }
        coordIndex [
            0,1,2,-1,2,1,3,-1,2,3,4,-1,4,3,5,-1,4,5,6,-1,6,5,7,-1,8,9,10,-1,10,9,11,-1,10,11,12,-1,13,14,10,-1,10,14,15,-1,10,15,16,-1,12,17,10,-1,10,17,18,-1,10,18,19,-1,19,20,10,-1,10,20,21,-1,10,21,13,-1,22,23,15,-1,15,23,24,-1,15,24,16,-1,
        ]
    }
}