#VRML V2.0 utf8
# 3D model generated by easyeda2kicad.py (https://github.com/uPesy/easyeda2kicad.py)

Shape{
    appearance Appearance {
        material  Material 	{
            diffuseColor 0.2549019607843137 0.2549019607843137 0.2549019607843137
            specularColor 0.7529411764705882 0.7529411764705882 0.7529411764705882
            ambientIntensity 0.2
            transparency 0
            shininess 0.5
        }
    }
    geometry IndexedFaceSet {
        ccw TRUE
        solid FALSE
        coord DEF co Coordinate {
            point [
                -0.2083 0.4128 0.0, -0.2083 0.4128 -0.0039, -0.232 0.408 -0.0039, -0.232 0.408 0.0, -1.5267 0.7804 0.3937, -1.5267 0.7804 1.7717, 1.5267 0.7804 1.7717, 1.5267 0.7804 0.3937, 1.5267 -0.7804 1.7717, 1.5267 -0.7804 0.3937, -1.5267 -0.7804 1.7717, -1.5267 -0.7804 0.3937, 0.0 0.5906 1.7717, -1.1811 0.5906 1.7717, -1.1811 -0.5906 1.7717, 0.0 -0.5906 1.7717, -0.9534 0.5906 2.6546, -1.1811 0.5906 2.6599, -1.0301 0.5906 2.7953, -0.499 0.5906 2.6599, -0.2729 0.5906 2.6599, 0.0 0.5906 2.6175, -0.8244 0.5906 2.7953, -0.717 0.5906 2.67, -0.6151 0.5906 2.7953, -0.3889 0.5906 2.7953, -0.1594 0.5906 2.7953, -1.1811 -0.5906 2.6599, -1.0301 -0.5906 2.7953, -0.9534 -0.5906 2.6546, -0.8244 -0.5906 2.7953, -0.717 -0.5906 2.67, -0.6151 -0.5906 2.7953, -0.499 -0.5906 2.6599, -0.3889 -0.5906 2.7953, -0.2729 -0.5906 2.6599, -0.1594 -0.5906 2.7953, -0.0 -0.5906 2.6175, -0.492 0.4128 0.0, -0.492 0.4128 -0.0039, -0.492 0.1859 -0.0039, -0.492 0.1859 0.0, -0.4636 0.1859 -0.0039, -0.4636 0.1859 0.0, -0.4636 0.3838 -0.0039, -0.4636 0.3838 0.0, -0.3218 0.3838 -0.0039, -0.3218 0.3838 0.0, -0.3218 0.4128 -0.0039, -0.3218 0.4128 0.0, -0.2414 0.2293 -0.0039, -0.2698 0.2197 -0.0039, -0.2509 0.2438 -0.0039, -0.0996 0.2438 -0.0039, -0.1043 0.2197 -0.0039, -0.128 0.2438 -0.0039, -0.2083 0.3838 -0.0039, -0.2273 0.379 -0.0039, -0.1658 0.3838 -0.0039, -0.1422 0.408 -0.0039, -0.1469 0.379 -0.0039, -0.1232 0.3983 -0.0039, -0.1327 0.3693 -0.0039, -0.1658 0.4128 -0.0039, -0.2414 0.3693 -0.0039, -0.2509 0.3983 -0.0039, -0.2509 0.3549 -0.0039, -0.2698 0.379 -0.0039, -0.2793 0.3597 -0.0039, -0.2556 0.3355 -0.0039, -0.2793 0.239 -0.0039, -0.2556 0.2631 -0.0039, -0.284 0.2631 -0.0039, -0.284 0.3355 -0.0039, -0.2273 0.2197 -0.0039, -0.2509 0.2004 -0.0039, -0.232 0.1907 -0.0039, -0.2083 0.2148 -0.0039, -0.1658 0.1859 -0.0039, -0.2083 0.1859 -0.0039, -0.1658 0.2148 -0.0039, -0.1469 0.2197 -0.0039, -0.1422 0.1907 -0.0039, -0.1327 0.2293 -0.0039, -0.1232 0.2004 -0.0039, -0.1043 0.379 -0.0039, -0.128 0.3549 -0.0039, -0.0996 0.3549 -0.0039, -0.0618 0.4128 -0.0039, -0.0334 0.3066 -0.0039, -0.0618 0.1859 -0.0039, -0.0334 0.2776 -0.0039, 0.1084 0.4128 -0.0039, -0.0334 0.3838 -0.0039, 0.0895 0.3066 -0.0039, 0.0895 0.2776 -0.0039, -0.0334 0.2148 -0.0039, 0.1084 0.2148 -0.0039, 0.1084 0.1859 -0.0039, 0.1084 0.3838 -0.0039, 0.3306 0.3597 -0.0039, 0.307 0.3355 -0.0039, 0.3022 0.3549 -0.0039, 0.3353 0.3355 -0.0039, 0.307 0.2631 -0.0039, 0.3353 0.2631 -0.0039, 0.3212 0.2197 -0.0039, 0.2928 0.2293 -0.0039, 0.3022 0.2438 -0.0039, 0.2786 0.2197 -0.0039, 0.3022 0.2004 -0.0039, 0.2833 0.1907 -0.0039, 0.2597 0.2148 -0.0039, 0.2597 0.1859 -0.0039, 0.3306 0.239 -0.0039, 0.1746 0.2148 -0.0039, 0.1462 0.1859 -0.0039, 0.1746 0.3838 -0.0039, 0.1462 0.4128 -0.0039, 0.2597 0.3838 -0.0039, 0.2833 0.408 -0.0039, 0.2786 0.379 -0.0039, 0.2928 0.3693 -0.0039, 0.3022 0.3983 -0.0039, 0.3212 0.379 -0.0039, 0.2597 0.4128 -0.0039, 0.5623 0.4128 -0.0039, 0.4866 0.1859 -0.0039, 0.5103 0.3355 -0.0039, 0.4204 0.3549 -0.0039, 0.3732 0.4128 -0.0039, 0.4015 0.4128 -0.0039, 0.4252 0.3355 -0.0039, 0.5339 0.4128 -0.0039, 0.515 0.3549 -0.0039, 0.4488 0.1859 -0.0039, 0.4677 0.2052 -0.0039, -0.128 0.3549 0.0, -0.0996 0.3549 0.0, -0.1043 0.379 0.0, -0.1232 0.3983 0.0, -0.1422 0.408 0.0, -0.1658 0.4128 0.0, -0.1327 0.3693 0.0, -0.1469 0.379 0.0, -0.1658 0.3838 0.0, -0.2083 0.3838 0.0, -0.2273 0.379 0.0, -0.2414 0.3693 0.0, -0.2509 0.3549 0.0, -0.2556 0.3355 0.0, -0.2556 0.2631 0.0, -0.2509 0.2438 0.0, -0.2414 0.2293 0.0, -0.2273 0.2197 0.0, -0.2083 0.2148 0.0, -0.1658 0.2148 0.0, -0.1469 0.2197 0.0, -0.1327 0.2293 0.0, -0.128 0.2438 0.0, -0.0996 0.2438 0.0, -0.1043 0.2197 0.0, -0.1232 0.2004 0.0, -0.1422 0.1907 0.0, -0.1658 0.1859 0.0, -0.2083 0.1859 0.0, -0.232 0.1907 0.0, -0.2509 0.2004 0.0, -0.2698 0.2197 0.0, -0.2793 0.239 0.0, -0.284 0.2631 0.0, -0.284 0.3355 0.0, -0.2793 0.3597 0.0, -0.2698 0.379 0.0, -0.2509 0.3983 0.0, -0.0334 0.3838 0.0, 0.1084 0.3838 0.0, 0.1084 0.4128 0.0, -0.0618 0.4128 0.0, -0.0618 0.1859 0.0, 0.1084 0.1859 0.0, 0.1084 0.2148 0.0, -0.0334 0.2148 0.0, -0.0334 0.2776 0.0, 0.0895 0.2776 0.0, 0.0895 0.3066 0.0, -0.0334 0.3066 0.0, 0.1462 0.1859 0.0, 0.2597 0.1859 0.0, 0.2833 0.1907 0.0, 0.3022 0.2004 0.0, 0.3212 0.2197 0.0, 0.3306 0.239 0.0, 0.3353 0.2631 0.0, 0.3353 0.3355 0.0, 0.3306 0.3597 0.0, 0.3212 0.379 0.0, 0.3022 0.3983 0.0, 0.2833 0.408 0.0, 0.2597 0.4128 0.0, 0.1462 0.4128 0.0, 0.2597 0.2148 0.0, 0.1746 0.2148 0.0, 0.1746 0.3838 0.0, 0.2597 0.3838 0.0, 0.2786 0.379 0.0, 0.2928 0.3693 0.0, 0.3022 0.3549 0.0, 0.307 0.3355 0.0, 0.307 0.2631 0.0, 0.3022 0.2438 0.0, 0.2928 0.2293 0.0, 0.2786 0.2197 0.0, 0.4488 0.1859 0.0, 0.4866 0.1859 0.0, 0.5623 0.4128 0.0, 0.5339 0.4128 0.0, 0.515 0.3549 0.0, 0.4204 0.3549 0.0, 0.4015 0.4128 0.0, 0.3732 0.4128 0.0, 0.5103 0.3355 0.0, 0.4677 0.2052 0.0, 0.4252 0.3355 0.0, 0.4252 0.3355 0.0
            ]
        }
        coordIndex [
            0,1,2,-1,0,2,3,-1,4,5,6,-1,4,6,7,-1,7,6,8,-1,7,8,9,-1,9,8,10,-1,9,10,11,-1,11,10,5,-1,11,5,4,-1,12,5,13,-1,5,12,6,-1,10,14,5,-1,8,12,15,-1,8,6,12,-1,10,8,15,-1,5,14,13,-1,10,15,14,-1,16,17,18,-1,19,12,13,-1,16,13,17,-1,12,20,21,-1,16,22,23,-1,20,12,19,-1,23,24,19,-1,13,23,19,-1,19,25,20,-1,20,26,21,-1,23,13,16,-1,27,18,17,-1,27,28,18,-1,28,16,18,-1,28,29,16,-1,29,22,16,-1,29,30,22,-1,30,23,22,-1,30,31,23,-1,31,24,23,-1,31,32,24,-1,32,19,24,-1,32,33,19,-1,33,25,19,-1,33,34,25,-1,34,20,25,-1,34,35,20,-1,35,26,20,-1,35,36,26,-1,36,21,26,-1,36,37,21,-1,37,12,21,-1,12,37,15,-1,33,15,35,-1,35,15,37,-1,35,37,36,-1,15,33,14,-1,35,34,33,-1,14,33,31,-1,33,32,31,-1,31,30,29,-1,27,14,29,-1,14,31,29,-1,29,28,27,-1,17,14,27,-1,14,17,13,-1,38,39,40,-1,38,40,41,-1,41,40,42,-1,41,42,43,-1,43,42,44,-1,43,44,45,-1,45,44,46,-1,45,46,47,-1,47,46,48,-1,47,48,49,-1,49,48,39,-1,49,39,38,-1,44,48,46,-1,44,40,39,-1,44,42,40,-1,48,44,39,-1,50,51,52,-1,53,54,55,-1,2,56,57,-1,58,59,60,-1,60,61,62,-1,63,56,1,-1,64,65,57,-1,66,67,64,-1,68,67,66,-1,66,69,68,-1,52,70,71,-1,69,72,73,-1,74,75,50,-1,76,75,74,-1,77,76,74,-1,78,79,80,-1,81,82,80,-1,83,84,81,-1,55,54,83,-1,62,85,86,-1,54,84,83,-1,84,82,81,-1,82,78,80,-1,79,77,80,-1,79,76,77,-1,50,75,51,-1,51,70,52,-1,70,72,71,-1,71,72,69,-1,73,68,69,-1,64,67,65,-1,57,65,2,-1,2,1,56,-1,63,58,56,-1,63,59,58,-1,59,61,60,-1,61,85,62,-1,85,87,86,-1,88,89,90,-1,89,91,90,-1,88,92,93,-1,91,94,95,-1,96,97,98,-1,98,90,96,-1,96,90,91,-1,94,91,89,-1,89,88,93,-1,92,99,93,-1,100,101,102,-1,103,101,100,-1,103,104,101,-1,103,105,104,-1,106,107,108,-1,109,107,110,-1,111,109,110,-1,111,112,109,-1,112,111,113,-1,104,114,108,-1,115,113,116,-1,117,116,118,-1,119,120,121,-1,115,112,113,-1,122,121,123,-1,110,107,106,-1,106,108,114,-1,114,104,105,-1,122,124,102,-1,124,100,102,-1,124,122,123,-1,123,121,120,-1,125,119,117,-1,120,119,125,-1,116,117,115,-1,125,117,118,-1,126,127,128,-1,129,130,131,-1,129,132,130,-1,133,126,134,-1,128,132,134,-1,128,134,126,-1,127,135,136,-1,132,129,134,-1,127,136,128,-1,136,135,132,-1,130,132,135,-1,137,86,87,-1,137,87,138,-1,138,87,85,-1,138,85,139,-1,139,85,61,-1,139,61,140,-1,140,61,59,-1,140,59,141,-1,141,59,63,-1,141,63,142,-1,142,63,1,-1,142,1,0,-1,143,62,86,-1,143,86,137,-1,144,60,62,-1,144,62,143,-1,145,58,60,-1,145,60,144,-1,146,56,58,-1,146,58,145,-1,147,57,56,-1,147,56,146,-1,148,64,57,-1,148,57,147,-1,149,66,64,-1,149,64,148,-1,150,69,66,-1,150,66,149,-1,151,71,69,-1,151,69,150,-1,152,52,71,-1,152,71,151,-1,153,50,52,-1,153,52,152,-1,154,74,50,-1,154,50,153,-1,155,77,74,-1,155,74,154,-1,156,80,77,-1,156,77,155,-1,157,81,80,-1,157,80,156,-1,158,83,81,-1,158,81,157,-1,159,55,83,-1,159,83,158,-1,160,53,55,-1,160,55,159,-1,161,54,53,-1,161,53,160,-1,162,84,54,-1,162,54,161,-1,163,82,84,-1,163,84,162,-1,164,78,82,-1,164,82,163,-1,165,79,78,-1,165,78,164,-1,166,76,79,-1,166,79,165,-1,167,75,76,-1,167,76,166,-1,168,51,75,-1,168,75,167,-1,169,70,51,-1,169,51,168,-1,170,72,70,-1,170,70,169,-1,171,73,72,-1,171,72,170,-1,172,68,73,-1,172,73,171,-1,173,67,68,-1,173,68,172,-1,174,65,67,-1,174,67,173,-1,3,2,65,-1,3,65,174,-1,175,93,99,-1,175,99,176,-1,176,99,92,-1,176,92,177,-1,177,92,88,-1,177,88,178,-1,178,88,90,-1,178,90,179,-1,179,90,98,-1,179,98,180,-1,180,98,97,-1,180,97,181,-1,181,97,96,-1,181,96,182,-1,182,96,91,-1,182,91,183,-1,183,91,95,-1,183,95,184,-1,184,95,94,-1,184,94,185,-1,185,94,89,-1,185,89,186,-1,186,89,93,-1,186,93,175,-1,187,116,113,-1,187,113,188,-1,188,113,111,-1,188,111,189,-1,189,111,110,-1,189,110,190,-1,190,110,106,-1,190,106,191,-1,191,106,114,-1,191,114,192,-1,192,114,105,-1,192,105,193,-1,193,105,103,-1,193,103,194,-1,194,103,100,-1,194,100,195,-1,195,100,124,-1,195,124,196,-1,196,124,123,-1,196,123,197,-1,197,123,120,-1,197,120,198,-1,198,120,125,-1,198,125,199,-1,199,125,118,-1,199,118,200,-1,200,118,116,-1,200,116,187,-1,201,112,115,-1,201,115,202,-1,202,115,117,-1,202,117,203,-1,203,117,119,-1,203,119,204,-1,204,119,121,-1,204,121,205,-1,205,121,122,-1,205,122,206,-1,206,122,102,-1,206,102,207,-1,207,102,101,-1,207,101,208,-1,208,101,104,-1,208,104,209,-1,209,104,108,-1,209,108,210,-1,210,108,107,-1,210,107,211,-1,211,107,109,-1,211,109,212,-1,212,109,112,-1,212,112,201,-1,213,135,127,-1,213,127,214,-1,214,127,126,-1,214,126,215,-1,215,126,133,-1,215,133,216,-1,216,133,134,-1,216,134,217,-1,217,134,129,-1,217,129,218,-1,218,129,131,-1,218,131,219,-1,219,131,130,-1,219,130,220,-1,220,130,135,-1,220,135,213,-1,221,128,136,-1,221,136,222,-1,222,136,132,-1,222,132,223,-1,223,132,128,-1,223,128,221,-1,
        ]
    }
}
Shape{
    appearance Appearance {
        material  Material 	{
            diffuseColor 0.6862745098039216 0.403921568627451 0.23921568627450981
            specularColor 0.7529411764705882 0.7529411764705882 0.7529411764705882
            ambientIntensity 0.2
            transparency 0
            shininess 0.5
        }
    }
    geometry IndexedFaceSet {
        ccw TRUE
        solid FALSE
        coord DEF co Coordinate {
            point [
                0.4724 0.8858 0.0, 0.4015 0.4128 0.0, 0.3732 0.4128 0.0, -0.1327 0.3693 0.0, -0.128 0.3549 0.0, -0.1658 0.3838 0.0, 2.1654 -1.1024 0.0, 1.378 -1.1024 0.0, 1.378 -0.8858 0.0, 2.1654 1.1024 0.0, 1.3189 0.0787 0.0, 1.378 0.8858 0.0, -0.4724 0.8858 0.0, -0.4724 1.1024 0.0, 1.0433 0.0787 0.0, 0.4866 0.1859 0.0, 0.5623 0.4128 0.0, 1.378 1.1024 0.0, 0.4724 1.1024 0.0, -1.378 1.1024 0.0, -1.378 0.8858 0.0, -2.1654 1.1024 0.0, -1.3189 -0.0787 0.0, -1.0433 -0.0787 0.0, -1.378 -0.8858 0.0, -2.1654 -1.1024 0.0, -1.378 -1.1024 0.0, -0.4724 -0.8858 0.0, 0.4724 -0.8858 0.0, 0.4724 -1.1024 0.0, 0.2833 0.1907 0.0, 0.1378 0.0787 0.0, 0.2597 0.1859 0.0, -0.4724 -1.1024 0.0, 0.1378 -0.0787 0.0, -0.2414 0.3693 0.0, -0.2083 0.3838 0.0, 0.5339 0.4128 0.0, -0.0618 0.4128 0.0, 0.515 0.3549 0.0, 0.4204 0.3549 0.0, 0.4488 0.1859 0.0, 0.2597 0.4128 0.0, 0.1462 0.4128 0.0, 0.2833 0.408 0.0, 0.3022 0.3983 0.0, 0.3306 0.3597 0.0, 0.3212 0.379 0.0, 0.3353 0.3355 0.0, 0.3353 0.2631 0.0, 0.3306 0.239 0.0, 0.3212 0.2197 0.0, 0.3022 0.2004 0.0, 0.1462 0.1859 0.0, 0.1084 0.1859 0.0, -0.0334 0.3838 0.0, 0.0895 0.3066 0.0, -0.0334 0.3066 0.0, 0.1084 0.4128 0.0, 0.0895 0.2776 0.0, -0.0334 0.2776 0.0, -0.0334 0.2148 0.0, 0.1084 0.2148 0.0, -0.1378 0.0787 0.0, -0.1658 0.1859 0.0, -0.0618 0.1859 0.0, -0.492 0.4128 0.0, -1.3189 0.0787 0.0, -0.2083 0.1859 0.0, 0.1084 0.3838 0.0, -0.1469 0.379 0.0, -0.4636 0.1859 0.0, -0.2698 0.2197 0.0, -0.2509 0.2004 0.0, -0.1043 0.379 0.0, -0.1232 0.3983 0.0, -0.232 0.408 0.0, -0.3218 0.4128 0.0, -0.2083 0.4128 0.0, -0.2509 0.3983 0.0, -0.2698 0.379 0.0, -0.3218 0.3838 0.0, -0.2273 0.379 0.0, -0.2509 0.3549 0.0, -0.2556 0.3355 0.0, -0.284 0.2631 0.0, -0.4636 0.3838 0.0, -0.2556 0.2631 0.0, -0.128 0.2438 0.0, -0.232 0.1907 0.0, -0.1327 0.2293 0.0, -0.1469 0.2197 0.0, -0.1658 0.2148 0.0, -0.2083 0.2148 0.0, -0.2414 0.2293 0.0, -0.2273 0.2197 0.0, -0.2509 0.2438 0.0, -0.0996 0.2438 0.0, -0.0996 0.3549 0.0, -0.1043 0.2197 0.0, -0.1232 0.2004 0.0, -0.1422 0.1907 0.0, -0.1378 -0.0787 0.0, -0.492 0.1859 0.0, -0.284 0.3355 0.0, -0.1658 0.4128 0.0, -0.1422 0.408 0.0, -0.2793 0.3597 0.0, -0.2793 0.239 0.0, -1.0433 0.0787 0.0, 1.3189 -0.0787 0.0, 1.0433 -0.0787 0.0, 0.307 0.2631 0.0, 0.3022 0.2438 0.0, 0.2928 0.2293 0.0, 0.307 0.3355 0.0, 0.2597 0.3838 0.0, 0.2786 0.379 0.0, 0.2786 0.2197 0.0, 0.2928 0.3693 0.0, 0.3022 0.3549 0.0, 0.2597 0.2148 0.0, 0.1746 0.2148 0.0, 0.1746 0.3838 0.0, 0.4252 0.3355 0.0, 0.5103 0.3355 0.0, 0.4677 0.2052 0.0, -0.4724 -0.8858 0.3937, 0.4724 -1.1024 0.3937, 0.4724 -0.8858 0.3937, 1.5267 -0.7804 0.3937, 1.378 -0.8858 0.3937, 2.1654 -1.1024 0.3937, 1.378 -1.1024 0.3937, 1.5267 0.7804 0.3937, 0.4724 0.8858 0.3937, -0.4724 0.8858 0.3937, 1.378 0.8858 0.3937, -0.4724 1.1024 0.3937, 2.1654 1.1024 0.3937, 1.378 1.1024 0.3937, 0.4724 1.1024 0.3937, -1.378 0.8858 0.3937, -1.378 1.1024 0.3937, -2.1654 1.1024 0.3937, -1.5267 -0.7804 0.3937, -1.5267 0.7804 0.3937, -2.1654 -1.1024 0.3937, -1.378 -1.1024 0.3937, -1.378 -0.8858 0.3937, -0.4724 -1.1024 0.3937, -0.4724 -1.1024 0.3937
            ]
        }
        coordIndex [
            0,1,2,-1,3,4,5,-1,6,7,8,-1,9,10,11,-1,12,13,0,-1,14,15,16,-1,10,9,6,-1,9,11,17,-1,18,0,13,-1,19,20,21,-1,22,23,24,-1,25,21,22,-1,25,24,26,-1,27,28,29,-1,30,31,32,-1,33,27,29,-1,15,34,31,-1,16,10,14,-1,35,36,4,-1,1,0,37,-1,38,12,0,-1,37,0,16,-1,1,39,40,-1,1,37,39,-1,11,16,0,-1,31,30,41,-1,11,10,16,-1,0,2,42,-1,0,42,43,-1,2,44,42,-1,2,45,44,-1,2,46,47,-1,2,47,45,-1,46,2,48,-1,2,41,48,-1,41,49,48,-1,41,50,49,-1,41,51,50,-1,41,52,51,-1,41,30,52,-1,53,31,54,-1,31,53,32,-1,55,56,57,-1,43,58,0,-1,53,56,43,-1,53,59,56,-1,60,59,61,-1,59,62,61,-1,53,62,59,-1,63,64,65,-1,62,53,54,-1,20,66,67,-1,64,63,68,-1,55,69,56,-1,70,3,5,-1,0,58,38,-1,56,69,43,-1,43,69,58,-1,71,72,73,-1,38,74,75,-1,76,77,78,-1,79,80,81,-1,5,4,36,-1,82,36,35,-1,83,35,4,-1,12,66,20,-1,79,81,77,-1,76,79,77,-1,83,4,84,-1,85,71,86,-1,87,84,88,-1,89,63,71,-1,90,91,92,-1,92,93,88,-1,94,93,95,-1,90,92,88,-1,93,94,88,-1,88,94,96,-1,96,87,88,-1,84,4,88,-1,97,88,4,-1,98,38,65,-1,65,99,97,-1,100,99,65,-1,65,64,101,-1,100,65,101,-1,68,63,89,-1,102,71,63,-1,103,71,102,-1,89,71,73,-1,85,86,104,-1,67,22,21,-1,12,78,77,-1,38,105,12,-1,12,105,78,-1,38,106,105,-1,38,75,106,-1,98,97,4,-1,65,97,98,-1,38,98,74,-1,81,104,86,-1,81,107,104,-1,12,77,66,-1,80,107,81,-1,71,85,108,-1,103,23,109,-1,108,72,71,-1,102,23,103,-1,31,41,15,-1,10,6,110,-1,8,111,110,-1,6,8,110,-1,8,28,111,-1,15,14,111,-1,34,15,111,-1,54,31,65,-1,28,102,34,-1,111,28,34,-1,28,27,102,-1,65,31,63,-1,21,20,67,-1,66,103,109,-1,24,23,27,-1,102,27,23,-1,24,25,22,-1,66,109,67,-1,112,113,114,-1,115,116,117,-1,112,114,118,-1,115,119,120,-1,117,119,115,-1,115,112,116,-1,121,116,112,-1,122,123,121,-1,112,118,121,-1,121,123,116,-1,124,125,126,-1,127,128,129,-1,130,129,131,-1,132,131,133,-1,134,135,136,-1,137,135,134,-1,135,138,136,-1,139,140,137,-1,141,138,135,-1,142,143,144,-1,130,145,129,-1,146,134,136,-1,146,144,145,-1,144,147,145,-1,147,148,149,-1,150,128,127,-1,146,136,142,-1,127,129,145,-1,142,144,146,-1,132,139,134,-1,139,137,134,-1,131,132,130,-1,132,134,130,-1,147,149,145,-1,127,145,149,-1,
        ]
    }
}
Shape{
    appearance Appearance {
        material  Material 	{
            diffuseColor 0.6862745098039216 0.5333333333333333 0.43529411764705883
            specularColor 0.7529411764705882 0.7529411764705882 0.7529411764705882
            ambientIntensity 0.2
            transparency 0
            shininess 0.5
        }
    }
    geometry IndexedFaceSet {
        ccw TRUE
        solid FALSE
        coord DEF co Coordinate {
            point [
                -0.4724 -1.1024 0.3937, -0.4724 -0.8858 0.0, -0.4724 -1.1024 0.0, -0.4724 -0.8858 0.3937, -1.378 -0.8858 0.0, -1.378 -0.8858 0.3937, -1.378 -1.1024 0.0, -1.378 -1.1024 0.3937, 0.4724 -1.1024 0.0, 0.4724 -1.1024 0.3937, -2.1654 -1.1024 0.3937, -2.1654 -1.1024 0.0, 1.378 -1.1024 0.3937, 2.1654 -1.1024 0.0, 2.1654 -1.1024 0.3937, 1.378 -1.1024 0.0, -2.1654 1.1024 0.3937, -2.1654 1.1024 0.0, -1.378 1.1024 0.3937, -1.378 1.1024 0.0, 0.4724 1.1024 0.3937, 0.4724 1.1024 0.0, -0.4724 1.1024 0.0, -0.4724 1.1024 0.3937, 2.1654 1.1024 0.3937, 2.1654 1.1024 0.0, 1.378 1.1024 0.0, 1.378 1.1024 0.3937, -1.378 0.8858 0.0, -1.378 0.8858 0.3937, -0.4724 0.8858 0.0, -0.4724 0.8858 0.3937, 0.4724 0.8858 0.0, 0.4724 0.8858 0.3937, 1.378 0.8858 0.0, 1.378 0.8858 0.3937, 1.378 -0.8858 0.0, 1.378 -0.8858 0.3937, 0.4724 -0.8858 0.0, 0.4724 -0.8858 0.3937, 0.4724 -0.8858 0.3937
            ]
        }
        coordIndex [
            0,1,2,-1,0,3,1,-1,3,4,1,-1,3,5,4,-1,5,6,4,-1,5,7,6,-1,0,8,9,-1,8,0,2,-1,10,11,6,-1,10,6,7,-1,12,13,14,-1,13,12,15,-1,11,10,16,-1,11,16,17,-1,18,17,16,-1,17,18,19,-1,20,21,22,-1,20,22,23,-1,24,25,26,-1,24,26,27,-1,18,28,19,-1,18,29,28,-1,29,30,28,-1,29,31,30,-1,31,22,30,-1,31,23,22,-1,20,32,21,-1,20,33,32,-1,33,34,32,-1,33,35,34,-1,35,26,34,-1,35,27,26,-1,25,24,14,-1,25,14,13,-1,12,36,15,-1,12,37,36,-1,37,38,36,-1,37,39,38,-1,39,8,38,-1,39,9,8,-1,
        ]
    }
}
Shape{
    appearance Appearance {
        material  Material 	{
            diffuseColor 0.8117647058823529 0.8117647058823529 0.8117647058823529
            specularColor 0.7529411764705882 0.7529411764705882 0.7529411764705882
            ambientIntensity 0.2
            transparency 0
            shininess 0.5
        }
    }
    geometry IndexedFaceSet {
        ccw TRUE
        solid FALSE
        coord DEF co Coordinate {
            point [
                -1.0433 0.0787 -2.1063, -1.0516 0.0787 -2.1534, -1.0755 0.0787 -2.1949, -1.1122 0.0787 -2.2256, -1.0433 0.0787 0.0, -1.1572 0.0787 -2.242, -1.205 0.0787 -2.242, -1.3189 0.0787 0.0, -1.25 0.0787 -2.2256, -1.3189 0.0787 -2.1063, -1.2867 0.0787 -2.1949, -1.3106 0.0787 -2.1534, -1.1572 -0.0787 -2.242, -1.205 -0.0787 -2.242, -1.1122 -0.0787 -2.2256, -1.0755 -0.0787 -2.1949, -1.0516 -0.0787 -2.1534, -1.0433 -0.0787 -2.1063, -1.25 -0.0787 -2.2256, -1.2867 -0.0787 -2.1949, -1.3106 -0.0787 -2.1534, -1.3189 -0.0787 -2.1063, -1.3189 -0.0787 0.0, -1.0433 -0.0787 0.0, 0.1378 0.0787 -2.1063, 0.1295 0.0787 -2.1534, 0.1056 0.0787 -2.1949, 0.0689 0.0787 -2.2256, 0.1378 0.0787 0.0, 0.0239 0.0787 -2.242, -0.0239 0.0787 -2.242, -0.1378 0.0787 0.0, -0.0689 0.0787 -2.2256, -0.1378 0.0787 -2.1063, -0.1056 0.0787 -2.1949, -0.1295 0.0787 -2.1534, 0.0239 -0.0787 -2.242, -0.0239 -0.0787 -2.242, 0.0689 -0.0787 -2.2256, 0.1056 -0.0787 -2.1949, 0.1295 -0.0787 -2.1534, 0.1378 -0.0787 -2.1063, -0.0689 -0.0787 -2.2256, -0.1056 -0.0787 -2.1949, -0.1295 -0.0787 -2.1534, -0.1378 -0.0787 -2.1063, -0.1378 -0.0787 0.0, 0.1378 -0.0787 0.0, 1.3189 0.0787 -2.1063, 1.3106 0.0787 -2.1534, 1.2867 0.0787 -2.1949, 1.25 0.0787 -2.2256, 1.3189 0.0787 0.0, 1.205 0.0787 -2.242, 1.1572 0.0787 -2.242, 1.0433 0.0787 0.0, 1.1122 0.0787 -2.2256, 1.0433 0.0787 -2.1063, 1.0755 0.0787 -2.1949, 1.0516 0.0787 -2.1534, 1.205 -0.0787 -2.242, 1.1572 -0.0787 -2.242, 1.25 -0.0787 -2.2256, 1.2867 -0.0787 -2.1949, 1.3106 -0.0787 -2.1534, 1.3189 -0.0787 -2.1063, 1.1122 -0.0787 -2.2256, 1.0755 -0.0787 -2.1949, 1.0516 -0.0787 -2.1534, 1.0433 -0.0787 -2.1063, 1.0433 -0.0787 0.0, 1.3189 -0.0787 0.0, 1.3271 -0.9055 0.0653, 1.3509 -0.9055 0.0891, 1.3271 -1.1024 0.0653, 1.2946 -1.1024 0.0566, 1.2946 -0.9055 0.0566, 1.3509 -1.1024 0.0891, 1.3596 -0.9055 0.1216, 1.3596 -1.1024 0.1216, -0.8784 -1.1024 0.0566, -0.4952 -1.1024 -0.0984, -0.4952 -1.1024 0.4134, -1.3596 -1.1024 0.4134, -0.8784 -1.1024 -0.0984, 2.1654 -1.1024 1.7717, 0.4952 -1.1024 0.4134, 1.3596 -1.1024 0.4134, -2.1654 -1.1024 1.7717, 0.4952 -1.1024 -0.0984, 0.8784 -1.1024 -0.0984, 0.8784 -1.1024 0.0566, 2.1654 -1.1024 0.4134, -1.2946 -1.1024 0.0566, -1.3509 -1.1024 0.0891, -1.3271 -1.1024 0.0653, -1.3596 -1.1024 0.1216, -2.1654 -1.1024 0.4134, -1.3271 -0.9055 0.0653, -1.2946 -0.9055 0.0566, -1.3509 -0.9055 0.0891, -1.3596 -0.9055 0.1216, 1.3596 -0.9055 0.4134, 2.1654 -0.9055 1.7717, 2.1654 -0.9055 0.4134, -2.1654 -0.9055 1.7717, -1.3596 -0.9055 0.4134, -2.1654 -0.9055 0.4134, 0.4952 -0.9055 0.4134, 0.8784 -0.9055 0.0566, 0.4951 -0.9055 -0.0197, 0.8784 -0.9055 -0.0197, -0.4952 -0.9055 0.4134, -0.8784 -0.9055 0.0566, -0.8784 -0.9055 -0.0197, -0.4951 -0.9055 -0.0197, -0.8784 -0.5832 -0.2165, -0.8784 -0.9843 -0.2165, -0.8784 -1.0294 -0.2075, -0.8784 -1.0678 -0.1819, -0.8784 -1.0934 -0.1436, -0.8784 -0.5832 -0.0197, -0.4952 -0.5832 -0.0197, -0.8724 -0.5531 -0.0197, -0.8554 -0.5275 -0.0197, -0.8298 -0.5104 -0.0197, -0.7997 -0.5044 -0.0197, -0.5739 -0.5044 -0.0197, -0.5012 -0.5531 -0.0197, -0.5183 -0.5275 -0.0197, -0.5438 -0.5104 -0.0197, -0.5183 -0.5275 -0.2165, -0.5012 -0.5531 -0.2165, -0.4952 -0.5832 -0.2165, -0.5438 -0.5104 -0.2165, -0.5739 -0.5044 -0.2165, -0.7997 -0.5044 -0.2165, -0.8554 -0.5275 -0.2165, -0.8298 -0.5104 -0.2165, -0.8724 -0.5531 -0.2165, -0.4952 -0.9843 -0.2165, -0.4952 -1.0678 -0.1819, -0.4952 -1.0934 -0.1436, -0.4952 -1.0294 -0.2075, -2.1654 0.9955 1.9693, -2.1654 1.04 1.9315, -2.1654 0.9055 0.4134, -2.1654 1.1024 0.4134, -2.1654 1.1024 1.7717, -2.1654 1.0739 1.884, -2.1654 1.0951 1.8297, -2.1654 0.9431 1.995, -2.1654 0.9055 1.7717, -2.1654 0.9002 1.7913, -2.1654 0.8858 2.007, -2.1654 0.8858 1.811, -2.1654 0.8858 1.8057, -2.1654 0.8661 1.811, -2.1654 -0.9949 1.9696, -2.1654 -1.0397 1.9319, -2.1654 -0.8858 2.007, -2.1654 -0.9002 1.7913, -2.1654 -0.9426 1.9951, -2.1654 -0.8858 1.8057, -2.1654 -0.8858 1.811, -2.1654 -0.8661 1.811, -2.1654 -1.0951 1.8298, -2.1654 -1.0738 1.8843, -2.3534 0.8858 1.9016, -2.3819 0.8858 1.7953, -2.3746 0.8858 1.8503, -2.3819 0.8858 -0.748, -2.3195 0.8858 1.9457, -2.2755 0.8858 1.9795, -2.185 0.8858 -0.748, -2.185 0.8858 1.7953, -2.1804 0.8858 1.8064, -2.1693 0.8858 2.0079, -2.2242 0.8858 2.0006, -2.1693 0.8858 1.811, 2.1654 1.0396 1.9319, 2.1654 1.0737 1.8843, 2.1654 1.0951 1.8298, 2.1654 1.1024 1.7717, 2.1654 0.9949 1.9697, 2.1654 0.9426 1.9952, 2.1654 0.8858 2.007, -2.1654 0.8661 2.0079, 2.1654 0.8661 2.0079, 2.2755 0.8858 1.9795, 2.3819 0.8858 -0.748, 2.185 0.8858 -0.748, 2.1654 0.8858 1.811, 2.1693 0.8858 2.0079, 2.2242 0.8858 2.0006, 2.185 0.8858 1.7953, 2.3746 0.8858 1.8503, 2.3819 0.8858 1.7953, 2.3534 0.8858 1.9016, 2.3195 0.8858 1.9457, 2.1804 0.8858 1.8064, 2.1693 0.8858 1.811, -2.1693 -0.8858 1.811, 2.1654 0.8661 1.811, 1.2598 0.6299 1.811, 2.1693 -0.8858 1.811, 2.1654 -0.8661 1.811, -1.2598 0.6299 1.811, 2.1654 -0.8858 1.811, 1.2598 -0.6299 1.811, -1.2598 -0.6299 1.811, 1.2598 0.6299 2.0079, -1.2598 0.6299 2.0079, -1.2598 -0.6299 2.0079, 1.2598 -0.6299 2.0079, -2.1654 -0.8661 2.0079, -2.1693 -0.8858 2.0079, 2.1654 -0.8661 2.0079, 2.1693 -0.8858 2.0079, 2.1654 -0.8858 2.007, 2.3195 -0.8858 1.9457, 2.2755 -0.8858 1.9795, 2.2242 -0.8858 2.0006, 2.3534 -0.8858 1.9016, 2.3746 -0.8858 1.8503, 2.3819 -0.8858 1.7953, 2.3819 0.2953 -0.748, 2.3819 -0.2607 -1.7371, 2.3819 -0.2953 -1.6535, 2.3819 -0.2863 -1.6987, 2.3819 -0.2224 -1.7627, 2.3819 -0.1772 -1.7717, 2.3819 -0.2953 -0.748, 2.3819 -0.8858 -0.748, 2.3819 0.1772 -1.7717, 2.3819 0.2953 -1.6535, 2.3819 0.2224 -1.7627, 2.3819 0.2607 -1.7371, 2.3819 0.2863 -1.6987, 2.185 0.2953 -1.6535, 2.185 0.2953 -0.748, 2.185 -0.2953 -0.748, 2.185 -0.8858 -0.748, 2.185 -0.8858 1.7953, 2.185 -0.2953 -1.6535, 2.185 -0.2224 -1.7627, 2.185 -0.2607 -1.7371, 2.185 -0.2863 -1.6987, 2.185 -0.1772 -1.7717, 2.185 0.1772 -1.7717, 2.185 0.2224 -1.7627, 2.185 0.2607 -1.7371, 2.185 0.2863 -1.6987, 2.1804 -0.8858 1.8064, 2.1654 0.8858 1.8057, 2.1654 0.9002 1.7913, 2.1654 0.9055 1.7717, 2.1654 0.9055 0.4134, 2.1654 1.1024 0.4134, 2.1654 -1.0739 1.884, 2.1654 -1.0951 1.8297, 2.1654 -1.04 1.9315, 2.1654 -0.9955 1.9693, 2.1654 -0.8858 1.8057, 2.1654 -0.943 1.995, 2.1654 -0.9002 1.7913, 0.8784 1.1024 0.0566, 1.3596 1.1024 0.1216, 1.2946 1.1024 0.0566, -1.2946 1.1024 0.0566, -1.3596 1.1024 0.1216, -0.8784 1.1024 0.0566, -1.3596 1.1024 0.4134, 1.3596 1.1024 0.4134, 0.4952 1.1024 0.4134, 1.3509 1.1024 0.0891, 1.3271 1.1024 0.0653, 0.4952 1.1024 -0.0984, 0.8784 1.1024 -0.0984, -0.4952 1.1024 0.4134, -0.8784 1.1024 -0.0984, -0.4952 1.1024 -0.0984, -1.3271 1.1024 0.0653, -1.3509 1.1024 0.0891, -1.3271 0.9055 0.0653, -1.3509 0.9055 0.0891, -1.2946 0.9055 0.0566, -1.3596 0.9055 0.1216, -1.3596 0.9055 0.4134, 1.3596 0.9055 0.4134, 0.4952 0.9055 0.4134, -0.4952 0.9055 0.4134, -0.8784 0.9055 0.0566, -0.4951 0.9055 -0.0197, -0.8784 0.9055 -0.0197, 1.3596 0.9055 0.1216, 1.2946 0.9055 0.0566, 1.3509 0.9055 0.0891, 0.4951 0.9055 -0.0197, 0.8784 0.9055 -0.0197, 0.8784 0.9055 0.0566, 1.3271 0.9055 0.0653, 0.8784 0.5832 -0.0197, 0.8784 0.5832 -0.2165, 0.8784 0.9843 -0.2165, 0.8784 1.0294 -0.2075, 0.8784 1.0678 -0.1819, 0.8784 1.0934 -0.1436, 0.8554 0.5275 -0.2165, 0.8554 0.5275 -0.0197, 0.8298 0.5104 -0.0197, 0.7997 0.5044 -0.0197, 0.8298 0.5104 -0.2165, 0.7997 0.5044 -0.2165, 0.8724 0.5531 -0.2165, 0.8724 0.5531 -0.0197, 0.4952 0.5832 -0.0197, 0.5012 0.5531 -0.0197, 0.5183 0.5275 -0.0197, 0.5438 0.5104 -0.0197, 0.5739 0.5044 -0.0197, 0.5739 0.5044 -0.2165, 0.4952 0.5832 -0.2165, 0.5183 0.5275 -0.2165, 0.5012 0.5531 -0.2165, 0.5438 0.5104 -0.2165, 0.4952 0.9843 -0.2165, 0.4952 1.0678 -0.1819, 0.4952 1.0934 -0.1436, 0.4952 1.0294 -0.2075, -0.4952 0.5832 -0.2165, -0.4952 0.9843 -0.2165, -0.4952 1.0678 -0.1819, -0.4952 1.0934 -0.1436, -0.4952 1.0294 -0.2075, -0.4952 0.5832 -0.0197, -0.5183 0.5275 -0.0197, -0.5183 0.5275 -0.2165, -0.5012 0.5531 -0.2165, -0.5012 0.5531 -0.0197, -0.5438 0.5104 -0.0197, -0.5438 0.5104 -0.2165, -0.5739 0.5044 -0.0197, -0.5739 0.5044 -0.2165, -0.8784 0.9843 -0.2165, -0.8554 0.5275 -0.2165, -0.8724 0.5531 -0.2165, -0.8784 0.5832 -0.2165, -0.7997 0.5044 -0.2165, -0.8298 0.5104 -0.2165, -0.8554 0.5275 -0.0197, -0.8298 0.5104 -0.0197, -0.7997 0.5044 -0.0197, -0.8724 0.5531 -0.0197, -0.8784 0.5832 -0.0197, -0.8784 1.0934 -0.1436, -0.8784 1.0678 -0.1819, -0.8784 1.0294 -0.2075, -2.3534 -0.8858 1.9016, -2.3746 -0.8858 1.8503, -2.3819 -0.8858 1.7953, -2.3819 -0.8858 -0.748, -2.2755 -0.8858 1.9795, -2.3195 -0.8858 1.9457, -2.185 -0.8858 -0.748, -2.185 -0.8858 1.7953, -2.1804 -0.8858 1.8064, -2.2242 -0.8858 2.0006, -2.185 -0.2304 -1.7416, -2.185 -0.1865 -1.7639, -2.185 -0.2953 -1.6142, -2.185 0.2953 -0.748, -2.185 -0.2876 -1.6628, -2.185 -0.2652 -1.7067, -2.185 -0.2953 -0.748, -2.185 -0.1378 -1.7717, -2.185 0.1378 -1.7717, -2.185 0.2652 -1.7067, -2.185 0.2876 -1.6628, -2.185 0.2953 -1.6142, -2.185 0.2304 -1.7416, -2.185 0.1865 -1.7639, -2.3819 0.2953 -0.748, -2.3819 0.2953 -1.6142, -2.3819 0.2652 -1.7067, -2.3819 0.2876 -1.6628, -2.3819 0.2304 -1.7416, -2.3819 0.1865 -1.7639, -2.3819 0.1378 -1.7717, -2.3819 -0.2876 -1.6628, -2.3819 -0.2953 -1.6142, -2.3819 -0.2652 -1.7067, -2.3819 -0.2953 -0.748, -2.3819 -0.1378 -1.7717, -2.3819 -0.1865 -1.7639, -2.3819 -0.2304 -1.7416, 0.4952 -0.5832 -0.2165, 0.4952 -0.9843 -0.2165, 0.4952 -1.0678 -0.1819, 0.4952 -1.0934 -0.1436, 0.4952 -1.0294 -0.2075, 0.4952 -0.5832 -0.0197, 0.5183 -0.5275 -0.0197, 0.5183 -0.5275 -0.2165, 0.5012 -0.5531 -0.2165, 0.5012 -0.5531 -0.0197, 0.5438 -0.5104 -0.0197, 0.5438 -0.5104 -0.2165, 0.5739 -0.5044 -0.0197, 0.5739 -0.5044 -0.2165, 0.8784 -0.5832 -0.2165, 0.7997 -0.5044 -0.2165, 0.8724 -0.5531 -0.2165, 0.8554 -0.5275 -0.2165, 0.8298 -0.5104 -0.2165, 0.8784 -0.9843 -0.2165, 0.8784 -1.0678 -0.1819, 0.8784 -1.0294 -0.2075, 0.8784 -1.0934 -0.1436, 0.8784 -0.5832 -0.0197, 0.8724 -0.5531 -0.0197, 0.8554 -0.5275 -0.0197, 0.8298 -0.5104 -0.0197, 0.7997 -0.5044 -0.0197, 0.7997 -0.5044 -0.0197
            ]
        }
        coordIndex [
            0,1,2,-1,3,4,2,-1,2,4,0,-1,5,6,4,-1,4,3,5,-1,7,6,8,-1,6,7,4,-1,9,7,10,-1,8,10,7,-1,9,10,11,-1,12,13,5,-1,3,14,12,-1,12,5,3,-1,14,2,15,-1,2,14,3,-1,16,15,1,-1,2,1,15,-1,0,17,16,-1,16,1,0,-1,5,13,6,-1,8,6,18,-1,13,18,6,-1,19,10,8,-1,8,18,19,-1,10,20,11,-1,20,10,19,-1,20,21,11,-1,11,21,9,-1,21,7,9,-1,7,21,22,-1,21,20,19,-1,18,22,19,-1,19,22,21,-1,13,12,22,-1,22,18,13,-1,23,12,14,-1,12,23,22,-1,17,23,15,-1,14,15,23,-1,17,15,16,-1,0,23,17,-1,23,0,4,-1,24,25,26,-1,27,28,26,-1,26,28,24,-1,29,30,28,-1,28,27,29,-1,31,30,32,-1,30,31,28,-1,33,31,34,-1,32,34,31,-1,33,34,35,-1,36,37,29,-1,27,38,36,-1,36,29,27,-1,38,26,39,-1,26,38,27,-1,40,39,25,-1,26,25,39,-1,24,41,40,-1,40,25,24,-1,29,37,30,-1,32,30,42,-1,37,42,30,-1,43,34,32,-1,32,42,43,-1,34,44,35,-1,44,34,43,-1,44,45,35,-1,35,45,33,-1,45,31,33,-1,31,45,46,-1,45,44,43,-1,42,46,43,-1,43,46,45,-1,37,36,46,-1,46,42,37,-1,47,36,38,-1,36,47,46,-1,41,47,39,-1,38,39,47,-1,41,39,40,-1,24,47,41,-1,47,24,28,-1,48,49,50,-1,51,52,50,-1,50,52,48,-1,53,54,52,-1,52,51,53,-1,55,54,56,-1,54,55,52,-1,57,55,58,-1,56,58,55,-1,57,58,59,-1,60,61,53,-1,51,62,60,-1,60,53,51,-1,62,50,63,-1,50,62,51,-1,64,63,49,-1,50,49,63,-1,48,65,64,-1,64,49,48,-1,53,61,54,-1,56,54,66,-1,61,66,54,-1,67,58,56,-1,56,66,67,-1,58,68,59,-1,68,58,67,-1,68,69,59,-1,59,69,57,-1,69,55,57,-1,55,69,70,-1,69,68,67,-1,66,70,67,-1,67,70,69,-1,61,60,70,-1,70,66,61,-1,71,60,62,-1,60,71,70,-1,65,71,63,-1,62,63,71,-1,65,63,64,-1,48,71,65,-1,71,48,52,-1,72,73,74,-1,75,76,72,-1,72,74,75,-1,74,73,77,-1,73,78,77,-1,77,78,79,-1,80,81,82,-1,80,82,83,-1,81,80,84,-1,85,86,87,-1,88,82,85,-1,79,75,77,-1,89,90,91,-1,75,74,77,-1,89,91,86,-1,75,79,91,-1,87,92,85,-1,87,91,79,-1,87,86,91,-1,82,86,85,-1,93,94,95,-1,80,83,96,-1,82,88,83,-1,88,97,83,-1,80,96,93,-1,93,96,94,-1,95,94,98,-1,99,93,95,-1,95,98,99,-1,98,94,100,-1,94,96,100,-1,100,96,101,-1,102,103,104,-1,98,100,99,-1,105,106,107,-1,103,102,108,-1,78,76,109,-1,108,102,109,-1,73,72,76,-1,78,109,102,-1,78,73,76,-1,109,110,108,-1,109,111,110,-1,105,108,112,-1,103,108,105,-1,106,112,113,-1,105,112,106,-1,114,113,115,-1,115,113,112,-1,106,113,101,-1,113,99,101,-1,99,100,101,-1,93,113,80,-1,113,93,99,-1,114,116,117,-1,117,118,119,-1,117,119,120,-1,114,117,120,-1,114,120,84,-1,113,114,80,-1,80,114,84,-1,114,121,116,-1,114,122,121,-1,123,121,124,-1,125,124,121,-1,125,121,126,-1,126,121,127,-1,122,128,129,-1,127,121,122,-1,130,127,122,-1,130,122,129,-1,115,122,114,-1,131,129,128,-1,122,132,128,-1,131,128,132,-1,133,132,122,-1,134,129,131,-1,130,134,135,-1,134,130,129,-1,130,135,127,-1,136,126,127,-1,136,127,135,-1,137,124,125,-1,126,138,125,-1,137,125,138,-1,136,138,126,-1,139,124,137,-1,123,139,116,-1,139,123,124,-1,123,116,121,-1,116,139,137,-1,133,140,117,-1,138,116,137,-1,117,116,135,-1,138,136,116,-1,136,135,116,-1,134,133,135,-1,135,133,117,-1,132,133,131,-1,133,134,131,-1,119,141,142,-1,81,120,142,-1,119,142,120,-1,84,120,81,-1,118,141,119,-1,143,118,117,-1,118,143,141,-1,143,117,140,-1,81,115,82,-1,81,142,141,-1,82,115,112,-1,81,141,143,-1,115,143,140,-1,143,115,81,-1,140,133,115,-1,115,133,122,-1,83,107,106,-1,107,83,97,-1,102,104,92,-1,102,92,87,-1,86,112,108,-1,112,86,82,-1,83,106,101,-1,83,101,96,-1,144,145,146,-1,145,147,146,-1,148,145,149,-1,148,149,150,-1,148,147,145,-1,151,144,152,-1,146,152,144,-1,151,153,154,-1,153,151,152,-1,155,156,157,-1,156,155,153,-1,153,155,154,-1,107,158,105,-1,159,158,107,-1,160,161,162,-1,163,164,165,-1,163,161,164,-1,105,162,161,-1,160,164,161,-1,162,105,158,-1,88,159,97,-1,107,97,159,-1,166,167,88,-1,88,167,159,-1,168,169,170,-1,169,168,171,-1,171,172,173,-1,168,172,171,-1,174,173,175,-1,174,171,173,-1,176,175,177,-1,177,175,178,-1,173,178,175,-1,176,177,179,-1,179,177,155,-1,155,177,154,-1,180,145,144,-1,181,145,180,-1,149,181,182,-1,181,149,145,-1,183,150,182,-1,149,182,150,-1,148,150,183,-1,180,144,184,-1,151,185,184,-1,184,144,151,-1,185,154,186,-1,154,185,151,-1,154,187,186,-1,186,187,188,-1,189,190,191,-1,192,186,193,-1,194,195,193,-1,196,197,198,-1,198,190,199,-1,199,190,189,-1,197,190,198,-1,195,189,191,-1,189,195,194,-1,193,195,200,-1,192,193,201,-1,193,200,201,-1,165,164,202,-1,155,157,179,-1,203,204,157,-1,202,179,165,-1,165,179,157,-1,203,205,206,-1,201,205,203,-1,203,192,201,-1,207,157,204,-1,205,208,206,-1,203,206,204,-1,209,204,206,-1,157,207,210,-1,206,165,210,-1,157,210,165,-1,206,210,209,-1,211,207,204,-1,211,212,207,-1,212,210,207,-1,212,213,210,-1,213,209,210,-1,213,214,209,-1,214,204,209,-1,214,211,204,-1,187,154,177,-1,160,215,216,-1,211,214,188,-1,177,216,187,-1,187,216,215,-1,217,193,188,-1,218,193,217,-1,217,219,218,-1,215,217,214,-1,193,186,188,-1,188,187,212,-1,187,215,212,-1,188,212,211,-1,214,213,215,-1,188,214,217,-1,212,215,213,-1,199,189,220,-1,221,189,194,-1,189,221,220,-1,193,222,194,-1,221,194,222,-1,218,222,193,-1,223,199,220,-1,223,224,198,-1,198,199,223,-1,196,224,225,-1,224,196,198,-1,196,225,197,-1,197,226,190,-1,227,228,229,-1,228,230,231,-1,227,230,228,-1,232,228,231,-1,232,225,233,-1,232,231,234,-1,197,225,226,-1,225,232,226,-1,234,226,232,-1,226,234,235,-1,235,236,237,-1,235,237,238,-1,235,234,236,-1,226,235,239,-1,239,240,226,-1,226,240,191,-1,191,190,226,-1,233,241,232,-1,233,242,241,-1,241,242,243,-1,241,243,195,-1,244,245,246,-1,241,195,240,-1,247,244,246,-1,244,248,245,-1,248,244,241,-1,249,248,240,-1,250,239,251,-1,252,251,239,-1,249,239,250,-1,248,241,240,-1,239,249,240,-1,195,191,240,-1,253,205,201,-1,243,200,195,-1,200,253,201,-1,243,253,200,-1,223,225,224,-1,225,223,233,-1,233,220,221,-1,223,220,233,-1,242,221,243,-1,242,233,221,-1,253,243,218,-1,218,243,222,-1,221,222,243,-1,253,218,205,-1,205,218,208,-1,208,218,219,-1,254,192,203,-1,255,192,254,-1,184,256,257,-1,180,257,258,-1,183,181,180,-1,183,182,181,-1,183,180,258,-1,256,184,185,-1,257,180,184,-1,185,186,255,-1,255,256,185,-1,186,192,255,-1,259,260,85,-1,85,92,261,-1,261,259,85,-1,261,104,262,-1,104,261,92,-1,262,104,103,-1,208,263,206,-1,264,103,265,-1,262,103,264,-1,264,265,219,-1,219,265,208,-1,265,263,208,-1,266,267,268,-1,269,270,271,-1,148,272,147,-1,183,273,274,-1,274,148,183,-1,183,258,273,-1,275,276,268,-1,267,266,273,-1,267,275,268,-1,274,266,277,-1,266,278,277,-1,279,271,272,-1,273,266,274,-1,272,148,279,-1,148,274,279,-1,280,271,281,-1,281,271,279,-1,272,271,270,-1,282,283,269,-1,269,283,270,-1,284,285,282,-1,269,286,284,-1,284,282,269,-1,282,285,283,-1,285,287,283,-1,283,287,270,-1,272,270,287,-1,287,288,272,-1,288,147,272,-1,147,288,146,-1,273,258,257,-1,273,257,289,-1,290,279,274,-1,279,290,291,-1,292,293,291,-1,292,291,288,-1,293,292,294,-1,256,289,257,-1,152,291,256,-1,295,296,297,-1,298,299,300,-1,296,301,297,-1,298,300,290,-1,296,295,300,-1,256,291,290,-1,289,300,295,-1,289,290,300,-1,289,256,290,-1,286,285,284,-1,292,288,287,-1,291,152,288,-1,152,146,288,-1,292,287,286,-1,286,287,285,-1,153,152,256,-1,157,254,203,-1,156,255,254,-1,153,255,156,-1,157,156,254,-1,256,255,153,-1,273,289,295,-1,273,295,267,-1,276,275,301,-1,296,268,276,-1,276,301,296,-1,301,275,297,-1,275,267,297,-1,297,267,295,-1,268,300,266,-1,300,268,296,-1,299,302,303,-1,304,305,306,-1,278,299,307,-1,307,304,306,-1,278,266,299,-1,300,299,266,-1,303,304,299,-1,299,304,307,-1,308,309,310,-1,311,312,310,-1,308,310,312,-1,313,312,311,-1,314,309,308,-1,315,314,303,-1,314,315,309,-1,315,303,302,-1,316,317,318,-1,316,299,298,-1,319,320,316,-1,319,316,318,-1,299,316,302,-1,309,315,302,-1,316,320,302,-1,302,311,310,-1,309,302,310,-1,320,311,302,-1,313,320,321,-1,320,313,311,-1,322,323,324,-1,303,321,304,-1,322,321,325,-1,323,322,325,-1,304,321,322,-1,326,304,322,-1,308,303,314,-1,321,303,313,-1,313,303,312,-1,308,312,303,-1,306,327,328,-1,277,307,328,-1,306,328,307,-1,278,307,277,-1,305,327,306,-1,329,305,304,-1,305,329,327,-1,329,304,326,-1,277,298,274,-1,277,328,327,-1,274,298,290,-1,277,327,329,-1,298,329,326,-1,329,298,277,-1,326,322,298,-1,298,322,316,-1,323,318,317,-1,316,324,317,-1,323,317,324,-1,322,324,316,-1,325,318,323,-1,319,325,321,-1,325,319,318,-1,319,321,320,-1,279,291,293,-1,281,279,293,-1,330,331,293,-1,281,332,333,-1,293,334,281,-1,332,281,334,-1,293,331,334,-1,293,335,330,-1,336,337,338,-1,330,339,338,-1,336,338,339,-1,335,339,330,-1,340,337,336,-1,341,340,342,-1,340,341,337,-1,341,342,343,-1,330,338,337,-1,330,343,344,-1,341,343,330,-1,341,330,337,-1,331,330,344,-1,345,346,347,-1,343,347,344,-1,347,348,349,-1,345,347,349,-1,343,348,347,-1,350,345,349,-1,348,351,349,-1,350,349,351,-1,352,351,348,-1,353,345,350,-1,346,353,354,-1,353,346,345,-1,346,354,347,-1,355,294,280,-1,344,355,356,-1,344,356,357,-1,280,294,271,-1,271,294,292,-1,294,355,344,-1,294,347,354,-1,294,344,347,-1,332,356,355,-1,280,333,355,-1,332,355,333,-1,281,333,280,-1,334,356,332,-1,357,334,331,-1,334,357,356,-1,357,331,344,-1,292,269,271,-1,292,286,269,-1,335,336,339,-1,294,354,335,-1,335,342,340,-1,336,335,340,-1,354,342,335,-1,293,294,335,-1,350,354,353,-1,354,352,342,-1,352,354,351,-1,350,351,354,-1,342,348,343,-1,342,352,348,-1,163,165,206,-1,105,265,103,-1,161,263,265,-1,163,263,161,-1,105,161,265,-1,206,263,163,-1,262,158,159,-1,158,264,162,-1,264,158,262,-1,160,162,219,-1,264,219,162,-1,217,215,160,-1,160,219,217,-1,262,159,261,-1,167,259,261,-1,261,159,167,-1,259,166,260,-1,166,259,167,-1,166,88,260,-1,260,88,85,-1,228,232,241,-1,241,244,228,-1,246,227,229,-1,228,247,229,-1,246,229,247,-1,244,247,228,-1,245,227,246,-1,230,245,248,-1,245,230,227,-1,230,248,231,-1,234,231,248,-1,248,249,234,-1,251,237,236,-1,234,250,236,-1,251,236,250,-1,249,250,234,-1,252,237,251,-1,238,252,239,-1,252,238,237,-1,238,239,235,-1,358,359,360,-1,360,361,358,-1,361,362,363,-1,358,361,363,-1,364,365,362,-1,364,362,361,-1,366,216,365,-1,216,367,365,-1,362,365,367,-1,366,202,216,-1,202,164,216,-1,164,160,216,-1,202,176,179,-1,175,366,365,-1,366,175,176,-1,202,366,176,-1,368,369,370,-1,175,371,174,-1,370,372,373,-1,175,365,374,-1,175,374,371,-1,365,364,374,-1,368,370,373,-1,375,374,370,-1,369,375,370,-1,375,371,374,-1,375,376,371,-1,377,378,379,-1,380,377,379,-1,379,381,380,-1,371,376,379,-1,379,376,381,-1,382,379,383,-1,379,382,371,-1,384,383,385,-1,383,386,387,-1,388,383,387,-1,384,386,383,-1,389,390,391,-1,392,393,390,-1,394,395,390,-1,390,395,391,-1,388,393,392,-1,393,394,390,-1,392,361,360,-1,382,388,392,-1,169,382,360,-1,169,171,382,-1,360,382,392,-1,388,382,383,-1,382,174,371,-1,174,382,171,-1,374,364,361,-1,374,361,392,-1,390,374,392,-1,374,390,370,-1,395,373,391,-1,389,391,372,-1,373,372,391,-1,370,390,389,-1,389,372,370,-1,373,395,368,-1,368,394,369,-1,394,368,395,-1,394,393,369,-1,369,393,375,-1,388,376,375,-1,388,375,393,-1,384,380,386,-1,387,386,381,-1,380,381,386,-1,376,388,387,-1,387,381,376,-1,380,384,377,-1,377,385,378,-1,385,377,384,-1,385,383,378,-1,378,383,379,-1,363,172,168,-1,170,358,168,-1,363,168,358,-1,170,169,359,-1,359,358,170,-1,169,360,359,-1,362,172,363,-1,362,367,173,-1,173,172,362,-1,178,367,216,-1,367,178,173,-1,178,216,177,-1,87,79,78,-1,78,102,87,-1,86,108,110,-1,89,86,110,-1,396,397,110,-1,89,398,399,-1,110,400,89,-1,398,89,400,-1,110,397,400,-1,110,401,396,-1,402,403,404,-1,396,405,404,-1,402,404,405,-1,401,405,396,-1,406,403,402,-1,407,406,408,-1,406,407,403,-1,407,408,409,-1,410,409,411,-1,412,410,413,-1,414,413,410,-1,414,410,411,-1,415,409,410,-1,396,404,403,-1,409,415,396,-1,407,409,396,-1,407,396,403,-1,396,415,397,-1,416,398,400,-1,397,415,417,-1,89,399,90,-1,90,399,418,-1,418,398,416,-1,399,398,418,-1,417,400,397,-1,416,400,417,-1,111,410,419,-1,415,416,417,-1,90,418,111,-1,418,416,415,-1,90,111,91,-1,109,91,111,-1,410,111,415,-1,111,418,415,-1,419,420,421,-1,401,110,111,-1,422,419,421,-1,401,111,419,-1,422,423,419,-1,423,408,419,-1,406,401,408,-1,419,408,401,-1,405,401,402,-1,401,406,402,-1,411,409,408,-1,408,423,411,-1,421,413,414,-1,411,422,414,-1,421,414,422,-1,423,422,411,-1,420,413,421,-1,412,420,419,-1,420,412,413,-1,412,419,410,-1,109,75,91,-1,109,76,75,-1,
        ]
    }
}